<svg xmlns="http://www.w3.org/2000/svg" xmlns:xlink="http://www.w3.org/1999/xlink" contentStyleType="text/css" height="1272px" preserveAspectRatio="none" style="width:2016px;height:1272px;background:#FFFFFF;" version="1.1" viewBox="0 0 2016 1272" width="2016px" zoomAndPan="magnify"><defs/><g><text fill="#000000" font-family="sans-serif" font-size="14" font-weight="bold" lengthAdjust="spacing" textLength="207.915" x="905.5276" y="27.9951">Register Pet &#8212; POST /pets</text><rect fill="#EEF4FB" height="1223.6484" rx="4" ry="4" style="stroke:#181818;stroke-width:0.5;" width="369.4063" x="299.4951" y="43.2969"/><text fill="#000000" font-family="sans-serif" font-size="13" font-weight="bold" lengthAdjust="spacing" textLength="94.4087" x="436.9939" y="55.3638">Presentation</text><rect fill="#FFF8E1" height="1223.6484" rx="4" ry="4" style="stroke:#181818;stroke-width:0.5;" width="157.9395" x="670.9014" y="43.2969"/><text fill="#000000" font-family="sans-serif" font-size="13" font-weight="bold" lengthAdjust="spacing" textLength="82.9194" x="708.4114" y="55.3638">Application</text><rect fill="#F1F8E9" height="1223.6484" rx="4" ry="4" style="stroke:#181818;stroke-width:0.5;" width="536.8428" x="1000.7798" y="43.2969"/><text fill="#000000" font-family="sans-serif" font-size="13" font-weight="bold" lengthAdjust="spacing" textLength="55.7515" x="1241.3254" y="55.3638">Domain</text><rect fill="#FBE9E7" height="1223.6484" rx="4" ry="4" style="stroke:#181818;stroke-width:0.5;" width="159.2725" x="1539.6226" y="43.2969"/><text fill="#000000" font-family="sans-serif" font-size="13" font-weight="bold" lengthAdjust="spacing" textLength="102.9526" x="1567.7825" y="55.3638">Infrastructure</text><rect fill="none" height="931.3906" rx="4" ry="4" style="stroke:#999999;stroke-width:1.5;" width="1999.9702" x="10" y="239.2578"/><rect fill="none" height="740.7891" rx="4" ry="4" style="stroke:#999999;stroke-width:1.5;" width="1979.9702" x="20" y="422.8594"/><line style="stroke:#181818;stroke-width:0.5;stroke-dasharray:5.0,5.0;" x1="53" x2="53" y1="118.5938" y2="1187.6484"/><line style="stroke:#181818;stroke-width:0.5;stroke-dasharray:5.0,5.0;" x1="346.4951" x2="346.4951" y1="118.5938" y2="1187.6484"/><line style="stroke:#181818;stroke-width:0.5;stroke-dasharray:5.0,5.0;" x1="598.3184" x2="598.3184" y1="118.5938" y2="1187.6484"/><line style="stroke:#181818;stroke-width:0.5;stroke-dasharray:5.0,5.0;" x1="748.9014" x2="748.9014" y1="118.5938" y2="1187.6484"/><line style="stroke:#181818;stroke-width:0.5;stroke-dasharray:5.0,5.0;" x1="1064.7798" x2="1064.7798" y1="118.5938" y2="1187.6484"/><line style="stroke:#181818;stroke-width:0.5;stroke-dasharray:5.0,5.0;" x1="1299.4126" x2="1299.4126" y1="118.5938" y2="1187.6484"/><line style="stroke:#181818;stroke-width:0.5;stroke-dasharray:5.0,5.0;" x1="1462.4058" x2="1462.4058" y1="118.5938" y2="1187.6484"/><line style="stroke:#181818;stroke-width:0.5;stroke-dasharray:5.0,5.0;" x1="1618.6226" x2="1618.6226" y1="118.5938" y2="1187.6484"/><line style="stroke:#181818;stroke-width:0.5;stroke-dasharray:5.0,5.0;" x1="1963.272" x2="1963.272" y1="118.5938" y2="1187.6484"/><text fill="#000000" font-family="sans-serif" font-size="14" lengthAdjust="spacing" textLength="40.5303" x="30" y="115.292">Client</text><ellipse cx="53.2651" cy="50.7969" fill="#E2E2F0" rx="8" ry="8" style="stroke:#181818;stroke-width:0.5;"/><path d="M53.2651,58.7969 L53.2651,85.7969 M40.2651,66.7969 L66.2651,66.7969 M53.2651,85.7969 L40.2651,100.7969 M53.2651,85.7969 L66.2651,100.7969 " fill="none" style="stroke:#181818;stroke-width:0.5;"/><text fill="#000000" font-family="sans-serif" font-size="14" lengthAdjust="spacing" textLength="40.5303" x="30" y="1199.6436">Client</text><ellipse cx="53.2651" cy="1211.4453" fill="#E2E2F0" rx="8" ry="8" style="stroke:#181818;stroke-width:0.5;"/><path d="M53.2651,1219.4453 L53.2651,1246.4453 M40.2651,1227.4453 L66.2651,1227.4453 M53.2651,1246.4453 L40.2651,1261.4453 M53.2651,1246.4453 L66.2651,1261.4453 " fill="none" style="stroke:#181818;stroke-width:0.5;"/><rect fill="#FAFAFA" height="30.2969" rx="4" ry="4" style="stroke:#555555;stroke-width:0.5;" width="87.042" x="303.4951" y="87.2969"/><text fill="#000000" font-family="sans-serif" font-size="14" lengthAdjust="spacing" textLength="73.042" x="310.4951" y="107.292">pet_router</text><rect fill="#FAFAFA" height="30.2969" rx="4" ry="4" style="stroke:#555555;stroke-width:0.5;" width="87.042" x="303.4951" y="1186.6484"/><text fill="#000000" font-family="sans-serif" font-size="14" lengthAdjust="spacing" textLength="73.042" x="310.4951" y="1206.6436">pet_router</text><rect fill="#FAFAFA" height="46.5938" rx="4" ry="4" style="stroke:#555555;stroke-width:0.5;" width="132.583" x="532.3184" y="71"/><text fill="#000000" font-family="sans-serif" font-size="14" lengthAdjust="spacing" textLength="118.583" x="539.3184" y="90.9951">get_current_user</text><text fill="#000000" font-family="sans-serif" font-size="14" lengthAdjust="spacing" textLength="103.3594" x="546.9302" y="107.292">&#171;dependency&#187;</text><rect fill="#FAFAFA" height="46.5938" rx="4" ry="4" style="stroke:#555555;stroke-width:0.5;" width="132.583" x="532.3184" y="1186.6484"/><text fill="#000000" font-family="sans-serif" font-size="14" lengthAdjust="spacing" textLength="118.583" x="539.3184" y="1206.6436">get_current_user</text><text fill="#000000" font-family="sans-serif" font-size="14" lengthAdjust="spacing" textLength="103.3594" x="546.9302" y="1222.9404">&#171;dependency&#187;</text><rect fill="#FAFAFA" height="30.2969" rx="4" ry="4" style="stroke:#555555;stroke-width:0.5;" width="149.9395" x="674.9014" y="87.2969"/><text fill="#000000" font-family="sans-serif" font-size="14" lengthAdjust="spacing" textLength="135.9395" x="681.9014" y="107.292">RegisterPetHandler</text><rect fill="#FAFAFA" height="30.2969" rx="4" ry="4" style="stroke:#555555;stroke-width:0.5;" width="149.9395" x="674.9014" y="1186.6484"/><text fill="#000000" font-family="sans-serif" font-size="14" lengthAdjust="spacing" textLength="135.9395" x="681.9014" y="1206.6436">RegisterPetHandler</text><rect fill="#FAFAFA" height="46.5938" rx="4" ry="4" style="stroke:#555555;stroke-width:0.5;" width="120.709" x="1004.7798" y="71"/><text fill="#000000" font-family="sans-serif" font-size="14" lengthAdjust="spacing" textLength="63.8477" x="1033.2104" y="90.9951">PetName</text><text fill="#000000" font-family="sans-serif" font-size="14" lengthAdjust="spacing" textLength="106.709" x="1011.7798" y="107.292">&#171;Value Object&#187;</text><rect fill="#FAFAFA" height="46.5938" rx="4" ry="4" style="stroke:#555555;stroke-width:0.5;" width="120.709" x="1004.7798" y="1186.6484"/><text fill="#000000" font-family="sans-serif" font-size="14" lengthAdjust="spacing" textLength="63.8477" x="1033.2104" y="1206.6436">PetName</text><text fill="#000000" font-family="sans-serif" font-size="14" lengthAdjust="spacing" textLength="106.709" x="1011.7798" y="1222.9404">&#171;Value Object&#187;</text><rect fill="#FAFAFA" height="46.5938" rx="4" ry="4" style="stroke:#555555;stroke-width:0.5;" width="120.709" x="1239.4126" y="71"/><text fill="#000000" font-family="sans-serif" font-size="14" lengthAdjust="spacing" textLength="56.8818" x="1271.3262" y="90.9951">PetType</text><text fill="#000000" font-family="sans-serif" font-size="14" lengthAdjust="spacing" textLength="106.709" x="1246.4126" y="107.292">&#171;Value Object&#187;</text><rect fill="#FAFAFA" height="46.5938" rx="4" ry="4" style="stroke:#555555;stroke-width:0.5;" width="120.709" x="1239.4126" y="1186.6484"/><text fill="#000000" font-family="sans-serif" font-size="14" lengthAdjust="spacing" textLength="56.8818" x="1271.3262" y="1206.6436">PetType</text><text fill="#000000" font-family="sans-serif" font-size="14" lengthAdjust="spacing" textLength="106.709" x="1246.4126" y="1222.9404">&#171;Value Object&#187;</text><rect fill="#FAFAFA" height="46.5938" rx="4" ry="4" style="stroke:#555555;stroke-width:0.5;" width="141.2168" x="1392.4058" y="71"/><text fill="#000000" font-family="sans-serif" font-size="14" lengthAdjust="spacing" textLength="22.5449" x="1451.7417" y="90.9951">Pet</text><text fill="#000000" font-family="sans-serif" font-size="14" lengthAdjust="spacing" textLength="127.2168" x="1399.4058" y="107.292">&#171;Aggregate Root&#187;</text><rect fill="#FAFAFA" height="46.5938" rx="4" ry="4" style="stroke:#555555;stroke-width:0.5;" width="141.2168" x="1392.4058" y="1186.6484"/><text fill="#000000" font-family="sans-serif" font-size="14" lengthAdjust="spacing" textLength="22.5449" x="1451.7417" y="1206.6436">Pet</text><text fill="#000000" font-family="sans-serif" font-size="14" lengthAdjust="spacing" textLength="127.2168" x="1399.4058" y="1222.9404">&#171;Aggregate Root&#187;</text><rect fill="#FAFAFA" height="30.2969" rx="4" ry="4" style="stroke:#555555;stroke-width:0.5;" width="151.2725" x="1543.6226" y="87.2969"/><text fill="#000000" font-family="sans-serif" font-size="14" lengthAdjust="spacing" textLength="137.2725" x="1550.6226" y="107.292">SqlitePetRepository</text><rect fill="#FAFAFA" height="30.2969" rx="4" ry="4" style="stroke:#555555;stroke-width:0.5;" width="151.2725" x="1543.6226" y="1186.6484"/><text fill="#000000" font-family="sans-serif" font-size="14" lengthAdjust="spacing" textLength="137.2725" x="1550.6226" y="1206.6436">SqlitePetRepository</text><text fill="#000000" font-family="sans-serif" font-size="14" lengthAdjust="spacing" textLength="45.6982" x="1938.272" y="115.292">SQLite</text><path d="M1946.1211,66.2969 C1946.1211,56.2969 1964.1211,56.2969 1964.1211,56.2969 C1964.1211,56.2969 1982.1211,56.2969 1982.1211,66.2969 L1982.1211,92.2969 C1982.1211,102.2969 1964.1211,102.2969 1964.1211,102.2969 C1964.1211,102.2969 1946.1211,102.2969 1946.1211,92.2969 L1946.1211,66.2969 " fill="#E2E2F0" style="stroke:#181818;stroke-width:1.5;"/><path d="M1946.1211,66.2969 C1946.1211,76.2969 1964.1211,76.2969 1964.1211,76.2969 C1964.1211,76.2969 1982.1211,76.2969 1982.1211,66.2969 " fill="none" style="stroke:#181818;stroke-width:1.5;"/><text fill="#000000" font-family="sans-serif" font-size="14" lengthAdjust="spacing" textLength="45.6982" x="1938.272" y="1199.6436">SQLite</text><path d="M1946.1211,1212.9453 C1946.1211,1202.9453 1964.1211,1202.9453 1964.1211,1202.9453 C1964.1211,1202.9453 1982.1211,1202.9453 1982.1211,1212.9453 L1982.1211,1238.9453 C1982.1211,1248.9453 1964.1211,1248.9453 1964.1211,1248.9453 C1964.1211,1248.9453 1946.1211,1248.9453 1946.1211,1238.9453 L1946.1211,1212.9453 " fill="#E2E2F0" style="stroke:#181818;stroke-width:1.5;"/><path d="M1946.1211,1212.9453 C1946.1211,1222.9453 1964.1211,1222.9453 1964.1211,1222.9453 C1964.1211,1222.9453 1982.1211,1222.9453 1982.1211,1212.9453 " fill="none" style="stroke:#181818;stroke-width:1.5;"/><polygon fill="#181818" points="335.0161,191.125,345.0161,195.125,335.0161,199.125,339.0161,195.125" style="stroke:#181818;stroke-width:1.0;"/><line style="stroke:#181818;stroke-width:2.0;" x1="53.2651" x2="341.0161" y1="195.125" y2="195.125"/><text fill="#000000" font-family="sans-serif" font-size="13" font-weight="bold" lengthAdjust="spacing" textLength="9.0454" x="60.2651" y="167.3599">1</text><text fill="#000000" font-family="sans-serif" font-size="13" lengthAdjust="spacing" textLength="70.897" x="73.3105" y="144.6606">POST /pets</text><text fill="#000000" font-family="sans-serif" font-size="13" lengthAdjust="spacing" textLength="213.1353" x="73.3105" y="159.7935">Authorization: Bearer eyJhbGci&#8230;</text><text fill="#000000" font-family="sans-serif" font-size="13" lengthAdjust="spacing" textLength="144.9551" x="73.3105" y="174.9263">{ "name": "Whiskers",</text><text fill="#000000" font-family="sans-serif" font-size="13" lengthAdjust="spacing" textLength="248.4409" x="81.5752" y="190.0591">"last_name": "McFluff", "type": "cat" }</text><polygon fill="#181818" points="586.6099,220.2578,596.6099,224.2578,586.6099,228.2578,590.6099,224.2578" style="stroke:#181818;stroke-width:1.0;"/><line style="stroke:#181818;stroke-width:2.0;" x1="347.0161" x2="592.6099" y1="224.2578" y2="224.2578"/><text fill="#000000" font-family="sans-serif" font-size="13" font-weight="bold" lengthAdjust="spacing" textLength="9.0454" x="354.0161" y="219.1919">2</text><text fill="#000000" font-family="sans-serif" font-size="13" lengthAdjust="spacing" textLength="208.5776" x="367.0615" y="219.1919">resolve get_current_user(token)</text><path d="M14,239.2578 L74.4429,239.2578 L74.4429,246.3906 L64.4429,256.3906 L10,256.3906 L10,243.2578 A4,4 0 0 1 14,239.2578 " fill="#EEEEEE" style="stroke:#999999;stroke-width:1.5;"/><rect fill="none" height="931.3906" rx="4" ry="4" style="stroke:#999999;stroke-width:1.5;" width="1999.9702" x="10" y="239.2578"/><text fill="#000000" font-family="sans-serif" font-size="13" font-weight="bold" lengthAdjust="spacing" textLength="19.4429" x="25" y="252.3247">alt</text><text fill="#000000" font-family="sans-serif" font-size="11" font-weight="bold" lengthAdjust="spacing" textLength="90.9165" x="89.4429" y="251.4683">[token invalid]</text><polygon fill="#181818" points="358.0161,273.5234,348.0161,277.5234,358.0161,281.5234,354.0161,277.5234" style="stroke:#181818;stroke-width:1.0;"/><line style="stroke:#181818;stroke-width:2.0;stroke-dasharray:2.0,2.0;" x1="352.0161" x2="597.6099" y1="277.5234" y2="277.5234"/><text fill="#000000" font-family="sans-serif" font-size="13" font-weight="bold" lengthAdjust="spacing" textLength="9.0454" x="364.0161" y="272.4575">3</text><text fill="#000000" font-family="sans-serif" font-size="13" lengthAdjust="spacing" textLength="189.6743" x="377.0615" y="272.4575">raises InvalidTokenException</text><polygon fill="#181818" points="64.2651,302.6563,54.2651,306.6563,64.2651,310.6563,60.2651,306.6563" style="stroke:#181818;stroke-width:1.0;"/><line style="stroke:#181818;stroke-width:2.0;stroke-dasharray:2.0,2.0;" x1="58.2651" x2="346.0161" y1="306.6563" y2="306.6563"/><text fill="#000000" font-family="sans-serif" font-size="13" font-weight="bold" lengthAdjust="spacing" textLength="9.0454" x="70.2651" y="301.5903">4</text><text fill="#000000" font-family="sans-serif" font-size="13" lengthAdjust="spacing" textLength="116.2256" x="83.3105" y="301.5903">401 Unauthorized</text><line style="stroke:#999999;stroke-width:1.0;stroke-dasharray:2.0,2.0;" x1="10" x2="2009.9702" y1="315.6563" y2="315.6563"/><text fill="#000000" font-family="sans-serif" font-size="11" font-weight="bold" lengthAdjust="spacing" textLength="79.3149" x="15" y="325.8667">[token valid]</text><polygon fill="#181818" points="358.0161,346.5938,348.0161,350.5938,358.0161,354.5938,354.0161,350.5938" style="stroke:#181818;stroke-width:1.0;"/><line style="stroke:#181818;stroke-width:2.0;stroke-dasharray:2.0,2.0;" x1="352.0161" x2="597.6099" y1="350.5938" y2="350.5938"/><text fill="#000000" font-family="sans-serif" font-size="13" font-weight="bold" lengthAdjust="spacing" textLength="9.0454" x="364.0161" y="345.5278">5</text><text fill="#000000" font-family="sans-serif" font-size="13" lengthAdjust="spacing" textLength="100.6294" x="377.0615" y="345.5278">current_user_id</text><line style="stroke:#181818;stroke-width:2.0;" x1="347.0161" x2="389.0161" y1="394.8594" y2="394.8594"/><line style="stroke:#181818;stroke-width:2.0;" x1="389.0161" x2="389.0161" y1="394.8594" y2="407.8594"/><line style="stroke:#181818;stroke-width:2.0;" x1="348.0161" x2="389.0161" y1="407.8594" y2="407.8594"/><polygon fill="#181818" points="358.0161,403.8594,348.0161,407.8594,358.0161,411.8594,354.0161,407.8594" style="stroke:#181818;stroke-width:1.0;"/><text fill="#000000" font-family="sans-serif" font-size="13" font-weight="bold" lengthAdjust="spacing" textLength="9.0454" x="354.0161" y="382.2271">6</text><text fill="#000000" font-family="sans-serif" font-size="13" lengthAdjust="spacing" textLength="178.9023" x="367.0615" y="374.6606">Pydantic schema validation</text><text fill="#000000" font-family="sans-serif" font-size="13" lengthAdjust="spacing" textLength="224.5483" x="367.0615" y="389.7935">(name, last_name, type not blank)</text><path d="M24,422.8594 L84.4429,422.8594 L84.4429,429.9922 L74.4429,439.9922 L20,439.9922 L20,426.8594 A4,4 0 0 1 24,422.8594 " fill="#EEEEEE" style="stroke:#999999;stroke-width:1.5;"/><rect fill="none" height="740.7891" rx="4" ry="4" style="stroke:#999999;stroke-width:1.5;" width="1979.9702" x="20" y="422.8594"/><text fill="#000000" font-family="sans-serif" font-size="13" font-weight="bold" lengthAdjust="spacing" textLength="19.4429" x="35" y="435.9263">alt</text><text fill="#000000" font-family="sans-serif" font-size="11" font-weight="bold" lengthAdjust="spacing" textLength="193.6494" x="99.4429" y="435.0698">[schema invalid &#8212; blank fields]</text><polygon fill="#181818" points="64.2651,457.125,54.2651,461.125,64.2651,465.125,60.2651,461.125" style="stroke:#181818;stroke-width:1.0;"/><line style="stroke:#181818;stroke-width:2.0;stroke-dasharray:2.0,2.0;" x1="58.2651" x2="346.0161" y1="461.125" y2="461.125"/><text fill="#000000" font-family="sans-serif" font-size="13" font-weight="bold" lengthAdjust="spacing" textLength="9.0454" x="70.2651" y="456.0591">7</text><text fill="#000000" font-family="sans-serif" font-size="13" lengthAdjust="spacing" textLength="166.8545" x="83.3105" y="456.0591">422 Unprocessable Entity</text><line style="stroke:#999999;stroke-width:1.0;stroke-dasharray:2.0,2.0;" x1="20" x2="1999.9702" y1="470.125" y2="470.125"/><text fill="#000000" font-family="sans-serif" font-size="11" font-weight="bold" lengthAdjust="spacing" textLength="91.1367" x="25" y="480.3354">[schema valid]</text><polygon fill="#181818" points="737.8711,516.1953,747.8711,520.1953,737.8711,524.1953,741.8711,520.1953" style="stroke:#181818;stroke-width:1.0;"/><line style="stroke:#181818;stroke-width:2.0;" x1="347.0161" x2="743.8711" y1="520.1953" y2="520.1953"/><text fill="#000000" font-family="sans-serif" font-size="13" font-weight="bold" lengthAdjust="spacing" textLength="9.0454" x="354.0161" y="507.563">8</text><text fill="#000000" font-family="sans-serif" font-size="13" lengthAdjust="spacing" textLength="141.8574" x="367.0615" y="499.9966">RegisterPetCommand</text><text fill="#000000" font-family="sans-serif" font-size="13" lengthAdjust="spacing" textLength="226.1924" x="367.0615" y="515.1294">(name, last_name, type, owner_id)</text><polygon fill="#181818" points="1053.1343,545.3281,1063.1343,549.3281,1053.1343,553.3281,1057.1343,549.3281" style="stroke:#181818;stroke-width:1.0;"/><line style="stroke:#181818;stroke-width:2.0;" x1="749.8711" x2="1059.1343" y1="549.3281" y2="549.3281"/><text fill="#000000" font-family="sans-serif" font-size="13" font-weight="bold" lengthAdjust="spacing" textLength="9.0454" x="756.8711" y="544.2622">9</text><text fill="#000000" font-family="sans-serif" font-size="13" lengthAdjust="spacing" textLength="278.2178" x="769.9165" y="544.2622">PetName(first="Whiskers", last="McFluff")</text><line style="stroke:#181818;stroke-width:2.0;" x1="1065.1343" x2="1107.1343" y1="593.5938" y2="593.5938"/><line style="stroke:#181818;stroke-width:2.0;" x1="1107.1343" x2="1107.1343" y1="593.5938" y2="606.5938"/><line style="stroke:#181818;stroke-width:2.0;" x1="1066.1343" x2="1107.1343" y1="606.5938" y2="606.5938"/><polygon fill="#181818" points="1076.1343,602.5938,1066.1343,606.5938,1076.1343,610.5938,1072.1343,606.5938" style="stroke:#181818;stroke-width:1.0;"/><text fill="#000000" font-family="sans-serif" font-size="13" font-weight="bold" lengthAdjust="spacing" textLength="18.0908" x="1072.1343" y="580.9614">10</text><text fill="#000000" font-family="sans-serif" font-size="13" lengthAdjust="spacing" textLength="106.9263" x="1094.2251" y="573.395">strip whitespace</text><text fill="#000000" font-family="sans-serif" font-size="13" lengthAdjust="spacing" textLength="198.542" x="1094.2251" y="588.5278">validate non-empty first &amp; last</text><polygon fill="#181818" points="760.8711,631.7266,750.8711,635.7266,760.8711,639.7266,756.8711,635.7266" style="stroke:#181818;stroke-width:1.0;"/><line style="stroke:#181818;stroke-width:2.0;stroke-dasharray:2.0,2.0;" x1="754.8711" x2="1064.1343" y1="635.7266" y2="635.7266"/><text fill="#000000" font-family="sans-serif" font-size="13" font-weight="bold" lengthAdjust="spacing" textLength="18.0908" x="766.8711" y="630.6606">11</text><text fill="#000000" font-family="sans-serif" font-size="13" lengthAdjust="spacing" textLength="82.5449" x="788.9619" y="630.6606">PetName VO</text><polygon fill="#181818" points="1287.7671,660.8594,1297.7671,664.8594,1287.7671,668.8594,1291.7671,664.8594" style="stroke:#181818;stroke-width:1.0;"/><line style="stroke:#181818;stroke-width:2.0;" x1="749.8711" x2="1293.7671" y1="664.8594" y2="664.8594"/><text fill="#000000" font-family="sans-serif" font-size="13" font-weight="bold" lengthAdjust="spacing" textLength="18.0908" x="756.8711" y="659.7935">12</text><text fill="#000000" font-family="sans-serif" font-size="13" lengthAdjust="spacing" textLength="141.5337" x="778.9619" y="659.7935">PetType(value="cat")</text><line style="stroke:#181818;stroke-width:2.0;" x1="1299.7671" x2="1341.7671" y1="709.125" y2="709.125"/><line style="stroke:#181818;stroke-width:2.0;" x1="1341.7671" x2="1341.7671" y1="709.125" y2="722.125"/><line style="stroke:#181818;stroke-width:2.0;" x1="1300.7671" x2="1341.7671" y1="722.125" y2="722.125"/><polygon fill="#181818" points="1310.7671,718.125,1300.7671,722.125,1310.7671,726.125,1306.7671,722.125" style="stroke:#181818;stroke-width:1.0;"/><text fill="#000000" font-family="sans-serif" font-size="13" font-weight="bold" lengthAdjust="spacing" textLength="18.0908" x="1306.7671" y="696.4927">13</text><text fill="#000000" font-family="sans-serif" font-size="13" lengthAdjust="spacing" textLength="113.6611" x="1328.8579" y="688.9263">strip + lowercase</text><text fill="#000000" font-family="sans-serif" font-size="13" lengthAdjust="spacing" textLength="127.1563" x="1328.8579" y="704.0591">validate non-empty</text><polygon fill="#181818" points="760.8711,747.2578,750.8711,751.2578,760.8711,755.2578,756.8711,751.2578" style="stroke:#181818;stroke-width:1.0;"/><line style="stroke:#181818;stroke-width:2.0;stroke-dasharray:2.0,2.0;" x1="754.8711" x2="1298.7671" y1="751.2578" y2="751.2578"/><text fill="#000000" font-family="sans-serif" font-size="13" font-weight="bold" lengthAdjust="spacing" textLength="18.0908" x="766.8711" y="746.1919">14</text><text fill="#000000" font-family="sans-serif" font-size="13" lengthAdjust="spacing" textLength="76.0767" x="788.9619" y="746.1919">PetType VO</text><polygon fill="#181818" points="1451.0142,821.7891,1461.0142,825.7891,1451.0142,829.7891,1455.0142,825.7891" style="stroke:#181818;stroke-width:1.0;"/><line style="stroke:#181818;stroke-width:2.0;" x1="749.8711" x2="1457.0142" y1="825.7891" y2="825.7891"/><text fill="#000000" font-family="sans-serif" font-size="13" font-weight="bold" lengthAdjust="spacing" textLength="18.0908" x="756.8711" y="798.0239">15</text><text fill="#000000" font-family="sans-serif" font-size="13" lengthAdjust="spacing" textLength="80.5581" x="778.9619" y="775.3247">Pet.register(</text><text fill="#000000" font-family="sans-serif" font-size="13" lengthAdjust="spacing" textLength="111.1792" x="787.2266" y="790.4575">name=PetName,</text><text fill="#000000" font-family="sans-serif" font-size="13" lengthAdjust="spacing" textLength="103.3843" x="787.2266" y="805.5903">type_=PetType,</text><text fill="#000000" font-family="sans-serif" font-size="13" lengthAdjust="spacing" textLength="217.3755" x="787.2266" y="820.7231">initial_owner_id=current_user_id)</text><path d="M1468,842.7891 L1468,889.7891 A4,4 0 0 0 1472,893.7891 L1712,893.7891 A4,4 0 0 0 1716,889.7891 L1716,848.7891 L1706,838.7891 L1472,838.7891 A4,4 0 0 0 1468,842.7891 " fill="#FFFDE7" style="stroke:#BBBBBB;stroke-width:0.5;"/><path d="M1706,838.7891 L1706,846.7891 A2,2 0 0 0 1708,848.7891 L1716,848.7891 L1706,838.7891 " fill="#FFFDE7" style="stroke:#BBBBBB;stroke-width:0.5;"/><text fill="#000000" font-family="sans-serif" font-size="13" lengthAdjust="spacing" textLength="117.3237" x="1474" y="855.856">Assigns new UUID</text><text fill="#000000" font-family="sans-serif" font-size="13" lengthAdjust="spacing" textLength="227.4873" x="1474" y="870.9888">Sets owner_ids = [current_user_id]</text><text fill="#000000" font-family="sans-serif" font-size="13" lengthAdjust="spacing" textLength="174.8208" x="1474" y="886.1216">Raises PetRegisteredEvent</text><polygon fill="#181818" points="760.8711,916.3203,750.8711,920.3203,760.8711,924.3203,756.8711,920.3203" style="stroke:#181818;stroke-width:1.0;"/><line style="stroke:#181818;stroke-width:2.0;stroke-dasharray:2.0,2.0;" x1="754.8711" x2="1462.0142" y1="920.3203" y2="920.3203"/><text fill="#000000" font-family="sans-serif" font-size="13" font-weight="bold" lengthAdjust="spacing" textLength="18.0908" x="766.8711" y="915.2544">16</text><text fill="#000000" font-family="sans-serif" font-size="13" lengthAdjust="spacing" textLength="21.3472" x="788.9619" y="915.2544">pet</text><polygon fill="#181818" points="1607.2588,945.4531,1617.2588,949.4531,1607.2588,953.4531,1611.2588,949.4531" style="stroke:#181818;stroke-width:1.0;"/><line style="stroke:#181818;stroke-width:2.0;" x1="749.8711" x2="1613.2588" y1="949.4531" y2="949.4531"/><text fill="#000000" font-family="sans-serif" font-size="13" font-weight="bold" lengthAdjust="spacing" textLength="18.0908" x="756.8711" y="944.3872">17</text><text fill="#000000" font-family="sans-serif" font-size="13" lengthAdjust="spacing" textLength="61.9214" x="778.9619" y="944.3872">save(pet)</text><polygon fill="#181818" points="1952.1211,989.7188,1962.1211,993.7188,1952.1211,997.7188,1956.1211,993.7188" style="stroke:#181818;stroke-width:1.0;"/><line style="stroke:#181818;stroke-width:2.0;" x1="1619.2588" x2="1958.1211" y1="993.7188" y2="993.7188"/><text fill="#000000" font-family="sans-serif" font-size="13" font-weight="bold" lengthAdjust="spacing" textLength="18.0908" x="1626.2588" y="981.0864">18</text><text fill="#000000" font-family="sans-serif" font-size="13" lengthAdjust="spacing" textLength="298.7715" x="1648.3496" y="973.52">INSERT INTO pets (id, name, last_name, type)</text><text fill="#000000" font-family="sans-serif" font-size="13" lengthAdjust="spacing" textLength="282.5659" x="1648.3496" y="988.6528">INSERT INTO pet_owners (pet_id, owner_id)</text><polygon fill="#181818" points="1630.2588,1018.8516,1620.2588,1022.8516,1630.2588,1026.8516,1626.2588,1022.8516" style="stroke:#181818;stroke-width:1.0;"/><line style="stroke:#181818;stroke-width:2.0;stroke-dasharray:2.0,2.0;" x1="1624.2588" x2="1963.1211" y1="1022.8516" y2="1022.8516"/><text fill="#000000" font-family="sans-serif" font-size="13" font-weight="bold" lengthAdjust="spacing" textLength="18.0908" x="1636.2588" y="1017.7856">19</text><text fill="#000000" font-family="sans-serif" font-size="13" lengthAdjust="spacing" textLength="18.7573" x="1658.3496" y="1017.7856">OK</text><polygon fill="#181818" points="760.8711,1047.9844,750.8711,1051.9844,760.8711,1055.9844,756.8711,1051.9844" style="stroke:#181818;stroke-width:1.0;"/><line style="stroke:#181818;stroke-width:2.0;stroke-dasharray:2.0,2.0;" x1="754.8711" x2="1618.2588" y1="1051.9844" y2="1051.9844"/><text fill="#000000" font-family="sans-serif" font-size="13" font-weight="bold" lengthAdjust="spacing" textLength="18.0908" x="766.8711" y="1046.9185">20</text><text fill="#000000" font-family="sans-serif" font-size="13" lengthAdjust="spacing" textLength="13" x="788.9619" y="1046.9185">&#8212;</text><polygon fill="#181818" points="358.0161,1092.25,348.0161,1096.25,358.0161,1100.25,354.0161,1096.25" style="stroke:#181818;stroke-width:1.0;"/><line style="stroke:#181818;stroke-width:2.0;stroke-dasharray:2.0,2.0;" x1="352.0161" x2="748.8711" y1="1096.25" y2="1096.25"/><text fill="#000000" font-family="sans-serif" font-size="13" font-weight="bold" lengthAdjust="spacing" textLength="18.0908" x="364.0161" y="1083.6177">21</text><text fill="#000000" font-family="sans-serif" font-size="13" lengthAdjust="spacing" textLength="43.9956" x="386.1069" y="1076.0513">PetDto</text><text fill="#000000" font-family="sans-serif" font-size="13" lengthAdjust="spacing" textLength="253.0938" x="386.1069" y="1091.1841">(id, name, last_name, type, owner_ids)</text><polygon fill="#181818" points="64.2651,1151.6484,54.2651,1155.6484,64.2651,1159.6484,60.2651,1155.6484" style="stroke:#181818;stroke-width:1.0;"/><line style="stroke:#181818;stroke-width:2.0;stroke-dasharray:2.0,2.0;" x1="58.2651" x2="346.0161" y1="1155.6484" y2="1155.6484"/><text fill="#000000" font-family="sans-serif" font-size="13" font-weight="bold" lengthAdjust="spacing" textLength="18.0908" x="70.2651" y="1135.4497">22</text><text fill="#000000" font-family="sans-serif" font-size="13" lengthAdjust="spacing" textLength="80.6787" x="92.356" y="1120.3169">201 Created</text><text fill="#000000" font-family="sans-serif" font-size="13" lengthAdjust="spacing" textLength="184.4883" x="92.356" y="1135.4497">{ "id", "name", "last_name",</text><text fill="#000000" font-family="sans-serif" font-size="13" lengthAdjust="spacing" textLength="204.3057" x="100.6206" y="1150.5825">"type", "owner_ids": [user_id] }</text><!--SRC=[XLNRZXf747sVhoYDfGWKDick7CMxCYl1CjYRYzcmhFDW8jJq5D1Xw1vtzu195CaVaM_8X_bBKjtJm306XttOdfwgKwTENSOAco4CSIwCHGqFQE7Jnt_WOV0uWczpj2QAp5B8d6cs0eFl2vGSErghpMWX-5AYCN1LCT6ga2bNMXBOYnEk3qnRmKNEfEqgdQA-KvdIyEnx__iV1yQNSnyWEFKxxk-4qokooe_mh_slOYgLnIEBhl_LBJuBsU_taX-YY75BZtUPG6cZQAe-GFoWqT0JiqB969ubIVzvlni1v8SC82P99uH7MiV030pziMuq9oDUQ4reayAW7ikNBrFCKQQKtFRsrhjs2hleOHxHBL3yGAAJvvdWEmx4zaLoMOVVLPkA_Ph9D0jSmha6s5Ch9ZpM9M5Trx48umrReMFubcK5mc3w1t8RE8QtRmSdt4RR_0jkxkr9D-VIcSyrpfcbnbMgufH8A-osbi2zd6bch2wuBJIwHBh9DPMm1ltuFXCM2MI8kJA2ghijAqIF1yIKMJPb1id-rv_9tflqkjGFXLMoM4r9lwZi2hYu3UM5cyeyZQKhdDBYJr-a6-WYqsI3snyNqrTSVFhuxrZ-1R4atU8RY7zR2BD4RUBMM0B46QKosRtxXVUpOZQBMn1RqijTKUbZ-3kAGcJY4Fg4I51_gcoDK6-lXbLBbCs8PHRy4OHSiqoafD7E-wAQZMR2e87xqchaN98F77EN4FdiOfDBaE86ddzt2K-IXTGnZJ0Z5SjeNunL9JeXimf-LTzjIbKK70nVu8gLa5xWiMmukLgmLwu5JYmttZ3Dc5ms7QRBFVY6vFqUz0Om4vYbXgpEv7PrHRdbMd7QXcnA-pGq8e3Fiihf2EHsDtC4KXdAExLQqVqvvYrG6-d5yCnX3q9u-u5pcfJdnaneOzkLHlA0xNttD3t8mRC6GwCZSjWigDjDpZZDR13NIIWlS9NRBVWOy9L7hiCTfHdkWMRx1FTowaipTswitN9e-wxUqmn6DO-IvjUGgGrgJYDwYcSTeaxDtP-XLfQqDFj6Xs8rt4owohH3Ndv8NP4cxG3dRuGKLh1iiYjSkzRLPMxkWmDQp1SMrEmePiSOCPS696xWwUc-DvQFj4hsVM2W3UzgaB-FvR0SKx_JIhwO9cltmGeo1FnZ6MX9VPQ_Mu9EOxR61hqlwVfBUjdhqglxDu_9S4J_HWE7OA0XqXQSxD_cMDQiIrt8nvsTtw71NI0AS74WCVYf4ls8EGriZVdHYa3Riug6wYonGrpJF3liLxJ8xZHIMwL-JulKhL-_aLlLzLokQx-MwNuFJ3lwtQv2jATfGyZKVLwY_m00]--></g></svg>