<svg xmlns="http://www.w3.org/2000/svg" xmlns:xlink="http://www.w3.org/1999/xlink" contentStyleType="text/css" height="760px" preserveAspectRatio="none" style="width:1315px;height:760px;background:#FFFFFF;" version="1.1" viewBox="0 0 1315 760" width="1315px" zoomAndPan="magnify"><defs/><g><text fill="#000000" font-family="sans-serif" font-size="14" font-weight="bold" lengthAdjust="spacing" textLength="167.2822" x="574.9871" y="27.9951">List Pets &#8212; GET /pets</text><rect fill="#EEF4FB" height="711.1875" rx="4" ry="4" style="stroke:#181818;stroke-width:0.5;" width="363.4355" x="245.9248" y="43.2969"/><text fill="#000000" font-family="sans-serif" font-size="13" font-weight="bold" lengthAdjust="spacing" textLength="94.4087" x="380.4382" y="55.3638">Presentation</text><rect fill="#FFF8E1" height="711.1875" rx="4" ry="4" style="stroke:#181818;stroke-width:0.5;" width="131.4365" x="611.3604" y="43.2969"/><text fill="#000000" font-family="sans-serif" font-size="13" font-weight="bold" lengthAdjust="spacing" textLength="82.9194" x="635.6189" y="55.3638">Application</text><rect fill="#FBE9E7" height="711.1875" rx="4" ry="4" style="stroke:#181818;stroke-width:0.5;" width="159.2725" x="839.0537" y="43.2969"/><text fill="#000000" font-family="sans-serif" font-size="13" font-weight="bold" lengthAdjust="spacing" textLength="102.9526" x="867.2136" y="55.3638">Infrastructure</text><rect fill="none" height="449.1953" rx="4" ry="4" style="stroke:#999999;stroke-width:1.5;" width="1298.2563" x="10" y="208.9922"/><line style="stroke:#181818;stroke-width:0.5;stroke-dasharray:5.0,5.0;" x1="43" x2="43" y1="118.5938" y2="675.1875"/><line style="stroke:#181818;stroke-width:0.5;stroke-dasharray:5.0,5.0;" x1="292.9248" x2="292.9248" y1="118.5938" y2="675.1875"/><line style="stroke:#181818;stroke-width:0.5;stroke-dasharray:5.0,5.0;" x1="538.7773" x2="538.7773" y1="118.5938" y2="675.1875"/><line style="stroke:#181818;stroke-width:0.5;stroke-dasharray:5.0,5.0;" x1="676.3604" x2="676.3604" y1="118.5938" y2="675.1875"/><line style="stroke:#181818;stroke-width:0.5;stroke-dasharray:5.0,5.0;" x1="918.0537" x2="918.0537" y1="118.5938" y2="675.1875"/><line style="stroke:#181818;stroke-width:0.5;stroke-dasharray:5.0,5.0;" x1="1271.5581" x2="1271.5581" y1="118.5938" y2="675.1875"/><text fill="#000000" font-family="sans-serif" font-size="14" lengthAdjust="spacing" textLength="40.5303" x="20" y="115.292">Client</text><ellipse cx="43.2651" cy="50.7969" fill="#E2E2F0" rx="8" ry="8" style="stroke:#181818;stroke-width:0.5;"/><path d="M43.2651,58.7969 L43.2651,85.7969 M30.2651,66.7969 L56.2651,66.7969 M43.2651,85.7969 L30.2651,100.7969 M43.2651,85.7969 L56.2651,100.7969 " fill="none" style="stroke:#181818;stroke-width:0.5;"/><text fill="#000000" font-family="sans-serif" font-size="14" lengthAdjust="spacing" textLength="40.5303" x="20" y="687.1826">Client</text><ellipse cx="43.2651" cy="698.9844" fill="#E2E2F0" rx="8" ry="8" style="stroke:#181818;stroke-width:0.5;"/><path d="M43.2651,706.9844 L43.2651,733.9844 M30.2651,714.9844 L56.2651,714.9844 M43.2651,733.9844 L30.2651,748.9844 M43.2651,733.9844 L56.2651,748.9844 " fill="none" style="stroke:#181818;stroke-width:0.5;"/><rect fill="#FAFAFA" height="30.2969" rx="4" ry="4" style="stroke:#555555;stroke-width:0.5;" width="87.042" x="249.9248" y="87.2969"/><text fill="#000000" font-family="sans-serif" font-size="14" lengthAdjust="spacing" textLength="73.042" x="256.9248" y="107.292">pet_router</text><rect fill="#FAFAFA" height="30.2969" rx="4" ry="4" style="stroke:#555555;stroke-width:0.5;" width="87.042" x="249.9248" y="674.1875"/><text fill="#000000" font-family="sans-serif" font-size="14" lengthAdjust="spacing" textLength="73.042" x="256.9248" y="694.1826">pet_router</text><rect fill="#FAFAFA" height="46.5938" rx="4" ry="4" style="stroke:#555555;stroke-width:0.5;" width="132.583" x="472.7773" y="71"/><text fill="#000000" font-family="sans-serif" font-size="14" lengthAdjust="spacing" textLength="118.583" x="479.7773" y="90.9951">get_current_user</text><text fill="#000000" font-family="sans-serif" font-size="14" lengthAdjust="spacing" textLength="103.3594" x="487.3892" y="107.292">&#171;dependency&#187;</text><rect fill="#FAFAFA" height="46.5938" rx="4" ry="4" style="stroke:#555555;stroke-width:0.5;" width="132.583" x="472.7773" y="674.1875"/><text fill="#000000" font-family="sans-serif" font-size="14" lengthAdjust="spacing" textLength="118.583" x="479.7773" y="694.1826">get_current_user</text><text fill="#000000" font-family="sans-serif" font-size="14" lengthAdjust="spacing" textLength="103.3594" x="487.3892" y="710.4795">&#171;dependency&#187;</text><rect fill="#FAFAFA" height="30.2969" rx="4" ry="4" style="stroke:#555555;stroke-width:0.5;" width="123.4365" x="615.3604" y="87.2969"/><text fill="#000000" font-family="sans-serif" font-size="14" lengthAdjust="spacing" textLength="109.4365" x="622.3604" y="107.292">ListPetsHandler</text><rect fill="#FAFAFA" height="30.2969" rx="4" ry="4" style="stroke:#555555;stroke-width:0.5;" width="123.4365" x="615.3604" y="674.1875"/><text fill="#000000" font-family="sans-serif" font-size="14" lengthAdjust="spacing" textLength="109.4365" x="622.3604" y="694.1826">ListPetsHandler</text><rect fill="#FAFAFA" height="30.2969" rx="4" ry="4" style="stroke:#555555;stroke-width:0.5;" width="151.2725" x="843.0537" y="87.2969"/><text fill="#000000" font-family="sans-serif" font-size="14" lengthAdjust="spacing" textLength="137.2725" x="850.0537" y="107.292">SqlitePetRepository</text><rect fill="#FAFAFA" height="30.2969" rx="4" ry="4" style="stroke:#555555;stroke-width:0.5;" width="151.2725" x="843.0537" y="674.1875"/><text fill="#000000" font-family="sans-serif" font-size="14" lengthAdjust="spacing" textLength="137.2725" x="850.0537" y="694.1826">SqlitePetRepository</text><text fill="#000000" font-family="sans-serif" font-size="14" lengthAdjust="spacing" textLength="45.6982" x="1246.5581" y="115.292">SQLite</text><path d="M1254.4072,66.2969 C1254.4072,56.2969 1272.4072,56.2969 1272.4072,56.2969 C1272.4072,56.2969 1290.4072,56.2969 1290.4072,66.2969 L1290.4072,92.2969 C1290.4072,102.2969 1272.4072,102.2969 1272.4072,102.2969 C1272.4072,102.2969 1254.4072,102.2969 1254.4072,92.2969 L1254.4072,66.2969 " fill="#E2E2F0" style="stroke:#181818;stroke-width:1.5;"/><path d="M1254.4072,66.2969 C1254.4072,76.2969 1272.4072,76.2969 1272.4072,76.2969 C1272.4072,76.2969 1290.4072,76.2969 1290.4072,66.2969 " fill="none" style="stroke:#181818;stroke-width:1.5;"/><text fill="#000000" font-family="sans-serif" font-size="14" lengthAdjust="spacing" textLength="45.6982" x="1246.5581" y="687.1826">SQLite</text><path d="M1254.4072,700.4844 C1254.4072,690.4844 1272.4072,690.4844 1272.4072,690.4844 C1272.4072,690.4844 1290.4072,690.4844 1290.4072,700.4844 L1290.4072,726.4844 C1290.4072,736.4844 1272.4072,736.4844 1272.4072,736.4844 C1272.4072,736.4844 1254.4072,736.4844 1254.4072,726.4844 L1254.4072,700.4844 " fill="#E2E2F0" style="stroke:#181818;stroke-width:1.5;"/><path d="M1254.4072,700.4844 C1254.4072,710.4844 1272.4072,710.4844 1272.4072,710.4844 C1272.4072,710.4844 1290.4072,710.4844 1290.4072,700.4844 " fill="none" style="stroke:#181818;stroke-width:1.5;"/><polygon fill="#181818" points="281.4458,160.8594,291.4458,164.8594,281.4458,168.8594,285.4458,164.8594" style="stroke:#181818;stroke-width:1.0;"/><line style="stroke:#181818;stroke-width:2.0;" x1="43.2651" x2="287.4458" y1="164.8594" y2="164.8594"/><text fill="#000000" font-family="sans-serif" font-size="13" font-weight="bold" lengthAdjust="spacing" textLength="9.0454" x="50.2651" y="152.2271">1</text><text fill="#000000" font-family="sans-serif" font-size="13" lengthAdjust="spacing" textLength="62.8608" x="63.3105" y="144.6606">GET /pets</text><text fill="#000000" font-family="sans-serif" font-size="13" lengthAdjust="spacing" textLength="213.1353" x="63.3105" y="159.7935">Authorization: Bearer eyJhbGci&#8230;</text><polygon fill="#181818" points="527.0688,189.9922,537.0688,193.9922,527.0688,197.9922,531.0688,193.9922" style="stroke:#181818;stroke-width:1.0;"/><line style="stroke:#181818;stroke-width:2.0;" x1="293.4458" x2="533.0688" y1="193.9922" y2="193.9922"/><text fill="#000000" font-family="sans-serif" font-size="13" font-weight="bold" lengthAdjust="spacing" textLength="9.0454" x="300.4458" y="188.9263">2</text><text fill="#000000" font-family="sans-serif" font-size="13" lengthAdjust="spacing" textLength="208.5776" x="313.4912" y="188.9263">resolve get_current_user(token)</text><path d="M14,208.9922 L74.4429,208.9922 L74.4429,216.125 L64.4429,226.125 L10,226.125 L10,212.9922 A4,4 0 0 1 14,208.9922 " fill="#EEEEEE" style="stroke:#999999;stroke-width:1.5;"/><rect fill="none" height="449.1953" rx="4" ry="4" style="stroke:#999999;stroke-width:1.5;" width="1298.2563" x="10" y="208.9922"/><text fill="#000000" font-family="sans-serif" font-size="13" font-weight="bold" lengthAdjust="spacing" textLength="19.4429" x="25" y="222.0591">alt</text><text fill="#000000" font-family="sans-serif" font-size="11" font-weight="bold" lengthAdjust="spacing" textLength="90.9165" x="89.4429" y="221.2026">[token invalid]</text><polygon fill="#181818" points="304.4458,243.2578,294.4458,247.2578,304.4458,251.2578,300.4458,247.2578" style="stroke:#181818;stroke-width:1.0;"/><line style="stroke:#181818;stroke-width:2.0;stroke-dasharray:2.0,2.0;" x1="298.4458" x2="538.0688" y1="247.2578" y2="247.2578"/><text fill="#000000" font-family="sans-serif" font-size="13" font-weight="bold" lengthAdjust="spacing" textLength="9.0454" x="310.4458" y="242.1919">3</text><text fill="#000000" font-family="sans-serif" font-size="13" lengthAdjust="spacing" textLength="189.6743" x="323.4912" y="242.1919">raises InvalidTokenException</text><polygon fill="#181818" points="54.2651,272.3906,44.2651,276.3906,54.2651,280.3906,50.2651,276.3906" style="stroke:#181818;stroke-width:1.0;"/><line style="stroke:#181818;stroke-width:2.0;stroke-dasharray:2.0,2.0;" x1="48.2651" x2="292.4458" y1="276.3906" y2="276.3906"/><text fill="#000000" font-family="sans-serif" font-size="13" font-weight="bold" lengthAdjust="spacing" textLength="9.0454" x="60.2651" y="271.3247">4</text><text fill="#000000" font-family="sans-serif" font-size="13" lengthAdjust="spacing" textLength="116.2256" x="73.3105" y="271.3247">401 Unauthorized</text><line style="stroke:#999999;stroke-width:1.0;stroke-dasharray:2.0,2.0;" x1="10" x2="1308.2563" y1="285.3906" y2="285.3906"/><text fill="#000000" font-family="sans-serif" font-size="11" font-weight="bold" lengthAdjust="spacing" textLength="79.3149" x="15" y="295.6011">[token valid]</text><polygon fill="#181818" points="304.4458,316.3281,294.4458,320.3281,304.4458,324.3281,300.4458,320.3281" style="stroke:#181818;stroke-width:1.0;"/><line style="stroke:#181818;stroke-width:2.0;stroke-dasharray:2.0,2.0;" x1="298.4458" x2="538.0688" y1="320.3281" y2="320.3281"/><text fill="#000000" font-family="sans-serif" font-size="13" font-weight="bold" lengthAdjust="spacing" textLength="9.0454" x="310.4458" y="315.2622">5</text><text fill="#000000" font-family="sans-serif" font-size="13" lengthAdjust="spacing" textLength="100.6294" x="323.4912" y="315.2622">current_user_id</text><polygon fill="#181818" points="665.0786,345.4609,675.0786,349.4609,665.0786,353.4609,669.0786,349.4609" style="stroke:#181818;stroke-width:1.0;"/><line style="stroke:#181818;stroke-width:2.0;" x1="293.4458" x2="671.0786" y1="349.4609" y2="349.4609"/><text fill="#000000" font-family="sans-serif" font-size="13" font-weight="bold" lengthAdjust="spacing" textLength="9.0454" x="300.4458" y="344.395">6</text><text fill="#000000" font-family="sans-serif" font-size="13" lengthAdjust="spacing" textLength="270.1372" x="313.4912" y="344.395">ListPetsQuery(owner_id=current_user_id)</text><polygon fill="#181818" points="906.6899,374.5938,916.6899,378.5938,906.6899,382.5938,910.6899,378.5938" style="stroke:#181818;stroke-width:1.0;"/><line style="stroke:#181818;stroke-width:2.0;" x1="677.0786" x2="912.6899" y1="378.5938" y2="378.5938"/><text fill="#000000" font-family="sans-serif" font-size="13" font-weight="bold" lengthAdjust="spacing" textLength="9.0454" x="684.0786" y="373.5278">7</text><text fill="#000000" font-family="sans-serif" font-size="13" lengthAdjust="spacing" textLength="204.5659" x="697.124" y="373.5278">find_by_owner(current_user_id)</text><polygon fill="#181818" points="1260.4072,433.9922,1270.4072,437.9922,1260.4072,441.9922,1264.4072,437.9922" style="stroke:#181818;stroke-width:1.0;"/><line style="stroke:#181818;stroke-width:2.0;" x1="918.6899" x2="1266.4072" y1="437.9922" y2="437.9922"/><text fill="#000000" font-family="sans-serif" font-size="13" font-weight="bold" lengthAdjust="spacing" textLength="9.0454" x="925.6899" y="417.7935">8</text><text fill="#000000" font-family="sans-serif" font-size="13" lengthAdjust="spacing" textLength="166.1689" x="938.7354" y="402.6606">SELECT pets.* FROM pets</text><text fill="#000000" font-family="sans-serif" font-size="13" lengthAdjust="spacing" textLength="316.6719" x="938.7354" y="417.7935">JOIN pet_owners ON pets.id = pet_owners.pet_id</text><text fill="#000000" font-family="sans-serif" font-size="13" lengthAdjust="spacing" textLength="215.7314" x="938.7354" y="432.9263">WHERE pet_owners.owner_id = ?</text><polygon fill="#181818" points="929.6899,463.125,919.6899,467.125,929.6899,471.125,925.6899,467.125" style="stroke:#181818;stroke-width:1.0;"/><line style="stroke:#181818;stroke-width:2.0;stroke-dasharray:2.0,2.0;" x1="923.6899" x2="1271.4072" y1="467.125" y2="467.125"/><text fill="#000000" font-family="sans-serif" font-size="13" font-weight="bold" lengthAdjust="spacing" textLength="9.0454" x="935.6899" y="462.0591">9</text><text fill="#000000" font-family="sans-serif" font-size="13" lengthAdjust="spacing" textLength="108.7734" x="948.7354" y="462.0591">rows (0 or more)</text><polygon fill="#181818" points="688.0786,492.2578,678.0786,496.2578,688.0786,500.2578,684.0786,496.2578" style="stroke:#181818;stroke-width:1.0;"/><line style="stroke:#181818;stroke-width:2.0;stroke-dasharray:2.0,2.0;" x1="682.0786" x2="917.6899" y1="496.2578" y2="496.2578"/><text fill="#000000" font-family="sans-serif" font-size="13" font-weight="bold" lengthAdjust="spacing" textLength="18.0908" x="694.0786" y="491.1919">10</text><text fill="#000000" font-family="sans-serif" font-size="13" lengthAdjust="spacing" textLength="52.3428" x="716.1694" y="491.1919">[Pet, &#8230;]</text><path d="M682,513.2578 L682,560.2578 A4,4 0 0 0 686,564.2578 L941,564.2578 A4,4 0 0 0 945,560.2578 L945,519.2578 L935,509.2578 L686,509.2578 A4,4 0 0 0 682,513.2578 " fill="#FFFDE7" style="stroke:#BBBBBB;stroke-width:0.5;"/><path d="M935,509.2578 L935,517.2578 A2,2 0 0 0 937,519.2578 L945,519.2578 L935,509.2578 " fill="#FFFDE7" style="stroke:#BBBBBB;stroke-width:0.5;"/><text fill="#000000" font-family="sans-serif" font-size="13" lengthAdjust="spacing" textLength="161.8145" x="688" y="526.3247">Returns only pets owned</text><text fill="#000000" font-family="sans-serif" font-size="13" lengthAdjust="spacing" textLength="173.1133" x="688" y="541.4575">by the authenticated user.</text><text fill="#000000" font-family="sans-serif" font-size="13" lengthAdjust="spacing" textLength="242.0298" x="688" y="556.5903">Other users' pets are never exposed.</text><polygon fill="#181818" points="304.4458,586.7891,294.4458,590.7891,304.4458,594.7891,300.4458,590.7891" style="stroke:#181818;stroke-width:1.0;"/><line style="stroke:#181818;stroke-width:2.0;stroke-dasharray:2.0,2.0;" x1="298.4458" x2="676.0786" y1="590.7891" y2="590.7891"/><text fill="#000000" font-family="sans-serif" font-size="13" font-weight="bold" lengthAdjust="spacing" textLength="18.0908" x="310.4458" y="585.7231">11</text><text fill="#000000" font-family="sans-serif" font-size="13" lengthAdjust="spacing" textLength="75.4038" x="332.5366" y="585.7231">[PetDto, &#8230;]</text><polygon fill="#181818" points="54.2651,646.1875,44.2651,650.1875,54.2651,654.1875,50.2651,650.1875" style="stroke:#181818;stroke-width:1.0;"/><line style="stroke:#181818;stroke-width:2.0;stroke-dasharray:2.0,2.0;" x1="48.2651" x2="292.4458" y1="650.1875" y2="650.1875"/><text fill="#000000" font-family="sans-serif" font-size="13" font-weight="bold" lengthAdjust="spacing" textLength="18.0908" x="60.2651" y="629.9888">12</text><text fill="#000000" font-family="sans-serif" font-size="13" lengthAdjust="spacing" textLength="47.7026" x="82.356" y="614.856">200 OK</text><text fill="#000000" font-family="sans-serif" font-size="13" lengthAdjust="spacing" textLength="193.6924" x="82.356" y="629.9888">[ { "id", "name", "last_name",</text><text fill="#000000" font-family="sans-serif" font-size="13" lengthAdjust="spacing" textLength="169.3999" x="98.8853" y="645.1216">"type", "owner_ids" }, &#8230; ]</text><!--SRC=[XLJRJjj047ttLupCGqC5QK1K1GIf4k9mAIKGKlM1e6XZ3sGLPzVihW6tgiH7z1luCBwaiskxSG9gDm_Popbdpipisd0J8vnoRU0SZOQNfzzm60pWGq8hpzDJBXAcs0mqtgKeGcmf9Hy64nvE1MeDcnM8agc8Gga4AjX-WthEbE4XJvWmRQaYL0SobWfMFhhn7m8BfxSkG47gjkpl3T8XeP85_HqtAb0X3IuWscui8rw5x7OxmIVFOw6XvK7CKHZF6yj7yCyLQbenmwNmOIK8kblTjWUGp3C0dqew8Zs3oWUceU-cow1R0eMfKgGsIZMgeTZRYp114L5oMRFfgAtKJ3gOUBGB5BymqKgIc8Ub1tAx7MmiozjEsqOVCH75XP5YlgHsB6uKqqQbeKaLMi5si4FfBmbUtiNS84dsCP6QKsMoF3jQpXKZPjYOQIJynIdX7QJJfbgcHefqDgRmNbvHM6yMfO7T-LKS2fkpLFo7osyNsiWKGJ0xcOmFG_xozEnv1Oq4YWAH0ZL6nlS8otMj6Jb5iUgns82R0XVtBEOH9LYorwjM5ECQDHpdg86b18yX9jOESShOH2dos8MjnWPy4wmmZf67CPKWZ_RFM5MZ8u9Lz9jbkmXMDlCYHPNLv8DmwFqbzggbboGRXJf3v1ikej4u6pbQxHK7SXpXEsr2NmQdmS40R2lgxw7Rxts5l2qdlUCpEyrrDFJESX2FOB-oNxTJ7Wt5zwEW7rGFIji4_qnHAThwt2HzQpJK6a3lRIOLpcqjrE6AYh16dwxdQpgtJnSKlvqOa3SLK1_f7WiDKiIPimWsCZaQPs0c2BPDL07xW302MuVwKFHeJxc5VfUJwDQ1m7jxzHxfmcDKNoXljOlMLiV8lyxUkYARZGRqlWp55Vm4dqV-6lY2pT3-n_JwHlbYA826RxB4dPGbqpxySkfmRP-QzmS0]--></g></svg>