<svg xmlns="http://www.w3.org/2000/svg" xmlns:xlink="http://www.w3.org/1999/xlink" contentStyleType="text/css" height="1123px" preserveAspectRatio="none" style="width:1461px;height:1123px;background:#FFFFFF;" version="1.1" viewBox="0 0 1461 1123" width="1461px" zoomAndPan="magnify"><defs/><g><text fill="#000000" font-family="sans-serif" font-size="14" font-weight="bold" lengthAdjust="spacing" textLength="197.75" x="632.698" y="27.9951">Get Pet &#8212; GET /pets/{id}</text><rect fill="#EEF4FB" height="1073.9297" rx="4" ry="4" style="stroke:#181818;stroke-width:0.5;" width="363.4355" x="275.9248" y="43.2969"/><text fill="#000000" font-family="sans-serif" font-size="13" font-weight="bold" lengthAdjust="spacing" textLength="94.4087" x="410.4382" y="55.3638">Presentation</text><rect fill="#FFF8E1" height="1073.9297" rx="4" ry="4" style="stroke:#181818;stroke-width:0.5;" width="124.6211" x="641.3604" y="43.2969"/><text fill="#000000" font-family="sans-serif" font-size="13" font-weight="bold" lengthAdjust="spacing" textLength="82.9194" x="662.2112" y="55.3638">Application</text><rect fill="#F1F8E9" height="1073.9297" rx="4" ry="4" style="stroke:#181818;stroke-width:0.5;" width="149.2168" x="893.811" y="43.2969"/><text fill="#000000" font-family="sans-serif" font-size="13" font-weight="bold" lengthAdjust="spacing" textLength="55.7515" x="940.5437" y="55.3638">Domain</text><rect fill="#FBE9E7" height="1073.9297" rx="4" ry="4" style="stroke:#181818;stroke-width:0.5;" width="159.2725" x="1045.0278" y="43.2969"/><text fill="#000000" font-family="sans-serif" font-size="13" font-weight="bold" lengthAdjust="spacing" textLength="102.9526" x="1073.1877" y="55.3638">Infrastructure</text><rect fill="none" height="798.9375" rx="4" ry="4" style="stroke:#999999;stroke-width:1.5;" width="1444.146" x="10" y="221.9922"/><rect fill="none" height="694.7344" rx="4" ry="4" style="stroke:#999999;stroke-width:1.5;" width="1424.146" x="20" y="319.1953"/><rect fill="none" height="414.6016" rx="4" ry="4" style="stroke:#999999;stroke-width:1.5;" width="1180.3003" x="30" y="592.3281"/><rect fill="none" height="193.8672" rx="4" ry="4" style="stroke:#999999;stroke-width:1.5;" width="731.9814" x="40" y="806.0625"/><line style="stroke:#181818;stroke-width:0.5;stroke-dasharray:5.0,5.0;" x1="73" x2="73" y1="118.5938" y2="1037.9297"/><line style="stroke:#181818;stroke-width:0.5;stroke-dasharray:5.0,5.0;" x1="322.9248" x2="322.9248" y1="118.5938" y2="1037.9297"/><line style="stroke:#181818;stroke-width:0.5;stroke-dasharray:5.0,5.0;" x1="568.7773" x2="568.7773" y1="118.5938" y2="1037.9297"/><line style="stroke:#181818;stroke-width:0.5;stroke-dasharray:5.0,5.0;" x1="703.3604" x2="703.3604" y1="118.5938" y2="1037.9297"/><line style="stroke:#181818;stroke-width:0.5;stroke-dasharray:5.0,5.0;" x1="967.811" x2="967.811" y1="118.5938" y2="1037.9297"/><line style="stroke:#181818;stroke-width:0.5;stroke-dasharray:5.0,5.0;" x1="1124.0278" x2="1124.0278" y1="118.5938" y2="1037.9297"/><line style="stroke:#181818;stroke-width:0.5;stroke-dasharray:5.0,5.0;" x1="1407.4478" x2="1407.4478" y1="118.5938" y2="1037.9297"/><text fill="#000000" font-family="sans-serif" font-size="14" lengthAdjust="spacing" textLength="40.5303" x="50" y="115.292">Client</text><ellipse cx="73.2651" cy="50.7969" fill="#E2E2F0" rx="8" ry="8" style="stroke:#181818;stroke-width:0.5;"/><path d="M73.2651,58.7969 L73.2651,85.7969 M60.2651,66.7969 L86.2651,66.7969 M73.2651,85.7969 L60.2651,100.7969 M73.2651,85.7969 L86.2651,100.7969 " fill="none" style="stroke:#181818;stroke-width:0.5;"/><text fill="#000000" font-family="sans-serif" font-size="14" lengthAdjust="spacing" textLength="40.5303" x="50" y="1049.9248">Client</text><ellipse cx="73.2651" cy="1061.7266" fill="#E2E2F0" rx="8" ry="8" style="stroke:#181818;stroke-width:0.5;"/><path d="M73.2651,1069.7266 L73.2651,1096.7266 M60.2651,1077.7266 L86.2651,1077.7266 M73.2651,1096.7266 L60.2651,1111.7266 M73.2651,1096.7266 L86.2651,1111.7266 " fill="none" style="stroke:#181818;stroke-width:0.5;"/><rect fill="#FAFAFA" height="30.2969" rx="4" ry="4" style="stroke:#555555;stroke-width:0.5;" width="87.042" x="279.9248" y="87.2969"/><text fill="#000000" font-family="sans-serif" font-size="14" lengthAdjust="spacing" textLength="73.042" x="286.9248" y="107.292">pet_router</text><rect fill="#FAFAFA" height="30.2969" rx="4" ry="4" style="stroke:#555555;stroke-width:0.5;" width="87.042" x="279.9248" y="1036.9297"/><text fill="#000000" font-family="sans-serif" font-size="14" lengthAdjust="spacing" textLength="73.042" x="286.9248" y="1056.9248">pet_router</text><rect fill="#FAFAFA" height="46.5938" rx="4" ry="4" style="stroke:#555555;stroke-width:0.5;" width="132.583" x="502.7773" y="71"/><text fill="#000000" font-family="sans-serif" font-size="14" lengthAdjust="spacing" textLength="118.583" x="509.7773" y="90.9951">get_current_user</text><text fill="#000000" font-family="sans-serif" font-size="14" lengthAdjust="spacing" textLength="103.3594" x="517.3892" y="107.292">&#171;dependency&#187;</text><rect fill="#FAFAFA" height="46.5938" rx="4" ry="4" style="stroke:#555555;stroke-width:0.5;" width="132.583" x="502.7773" y="1036.9297"/><text fill="#000000" font-family="sans-serif" font-size="14" lengthAdjust="spacing" textLength="118.583" x="509.7773" y="1056.9248">get_current_user</text><text fill="#000000" font-family="sans-serif" font-size="14" lengthAdjust="spacing" textLength="103.3594" x="517.3892" y="1073.2217">&#171;dependency&#187;</text><rect fill="#FAFAFA" height="30.2969" rx="4" ry="4" style="stroke:#555555;stroke-width:0.5;" width="116.6211" x="645.3604" y="87.2969"/><text fill="#000000" font-family="sans-serif" font-size="14" lengthAdjust="spacing" textLength="102.6211" x="652.3604" y="107.292">GetPetHandler</text><rect fill="#FAFAFA" height="30.2969" rx="4" ry="4" style="stroke:#555555;stroke-width:0.5;" width="116.6211" x="645.3604" y="1036.9297"/><text fill="#000000" font-family="sans-serif" font-size="14" lengthAdjust="spacing" textLength="102.6211" x="652.3604" y="1056.9248">GetPetHandler</text><rect fill="#FAFAFA" height="46.5938" rx="4" ry="4" style="stroke:#555555;stroke-width:0.5;" width="141.2168" x="897.811" y="71"/><text fill="#000000" font-family="sans-serif" font-size="14" lengthAdjust="spacing" textLength="22.5449" x="957.147" y="90.9951">Pet</text><text fill="#000000" font-family="sans-serif" font-size="14" lengthAdjust="spacing" textLength="127.2168" x="904.811" y="107.292">&#171;Aggregate Root&#187;</text><rect fill="#FAFAFA" height="46.5938" rx="4" ry="4" style="stroke:#555555;stroke-width:0.5;" width="141.2168" x="897.811" y="1036.9297"/><text fill="#000000" font-family="sans-serif" font-size="14" lengthAdjust="spacing" textLength="22.5449" x="957.147" y="1056.9248">Pet</text><text fill="#000000" font-family="sans-serif" font-size="14" lengthAdjust="spacing" textLength="127.2168" x="904.811" y="1073.2217">&#171;Aggregate Root&#187;</text><rect fill="#FAFAFA" height="30.2969" rx="4" ry="4" style="stroke:#555555;stroke-width:0.5;" width="151.2725" x="1049.0278" y="87.2969"/><text fill="#000000" font-family="sans-serif" font-size="14" lengthAdjust="spacing" textLength="137.2725" x="1056.0278" y="107.292">SqlitePetRepository</text><rect fill="#FAFAFA" height="30.2969" rx="4" ry="4" style="stroke:#555555;stroke-width:0.5;" width="151.2725" x="1049.0278" y="1036.9297"/><text fill="#000000" font-family="sans-serif" font-size="14" lengthAdjust="spacing" textLength="137.2725" x="1056.0278" y="1056.9248">SqlitePetRepository</text><text fill="#000000" font-family="sans-serif" font-size="14" lengthAdjust="spacing" textLength="45.6982" x="1382.4478" y="115.292">SQLite</text><path d="M1390.2969,66.2969 C1390.2969,56.2969 1408.2969,56.2969 1408.2969,56.2969 C1408.2969,56.2969 1426.2969,56.2969 1426.2969,66.2969 L1426.2969,92.2969 C1426.2969,102.2969 1408.2969,102.2969 1408.2969,102.2969 C1408.2969,102.2969 1390.2969,102.2969 1390.2969,92.2969 L1390.2969,66.2969 " fill="#E2E2F0" style="stroke:#181818;stroke-width:1.5;"/><path d="M1390.2969,66.2969 C1390.2969,76.2969 1408.2969,76.2969 1408.2969,76.2969 C1408.2969,76.2969 1426.2969,76.2969 1426.2969,66.2969 " fill="none" style="stroke:#181818;stroke-width:1.5;"/><text fill="#000000" font-family="sans-serif" font-size="14" lengthAdjust="spacing" textLength="45.6982" x="1382.4478" y="1049.9248">SQLite</text><path d="M1390.2969,1063.2266 C1390.2969,1053.2266 1408.2969,1053.2266 1408.2969,1053.2266 C1408.2969,1053.2266 1426.2969,1053.2266 1426.2969,1063.2266 L1426.2969,1089.2266 C1426.2969,1099.2266 1408.2969,1099.2266 1408.2969,1099.2266 C1408.2969,1099.2266 1390.2969,1099.2266 1390.2969,1089.2266 L1390.2969,1063.2266 " fill="#E2E2F0" style="stroke:#181818;stroke-width:1.5;"/><path d="M1390.2969,1063.2266 C1390.2969,1073.2266 1408.2969,1073.2266 1408.2969,1073.2266 C1408.2969,1073.2266 1426.2969,1073.2266 1426.2969,1063.2266 " fill="none" style="stroke:#181818;stroke-width:1.5;"/><polygon fill="#181818" points="311.4458,160.8594,321.4458,164.8594,311.4458,168.8594,315.4458,164.8594" style="stroke:#181818;stroke-width:1.0;"/><line style="stroke:#181818;stroke-width:2.0;" x1="73.2651" x2="317.4458" y1="164.8594" y2="164.8594"/><text fill="#000000" font-family="sans-serif" font-size="13" font-weight="bold" lengthAdjust="spacing" textLength="9.0454" x="80.2651" y="152.2271">1</text><text fill="#000000" font-family="sans-serif" font-size="13" lengthAdjust="spacing" textLength="95.6465" x="93.3105" y="144.6606">GET /pets/{id}</text><text fill="#000000" font-family="sans-serif" font-size="13" lengthAdjust="spacing" textLength="213.1353" x="93.3105" y="159.7935">Authorization: Bearer eyJhbGci&#8230;</text><line style="stroke:#181818;stroke-width:2.0;" x1="323.4458" x2="365.4458" y1="193.9922" y2="193.9922"/><line style="stroke:#181818;stroke-width:2.0;" x1="365.4458" x2="365.4458" y1="193.9922" y2="206.9922"/><line style="stroke:#181818;stroke-width:2.0;" x1="324.4458" x2="365.4458" y1="206.9922" y2="206.9922"/><polygon fill="#181818" points="334.4458,202.9922,324.4458,206.9922,334.4458,210.9922,330.4458,206.9922" style="stroke:#181818;stroke-width:1.0;"/><text fill="#000000" font-family="sans-serif" font-size="13" font-weight="bold" lengthAdjust="spacing" textLength="9.0454" x="330.4458" y="188.9263">2</text><text fill="#000000" font-family="sans-serif" font-size="13" lengthAdjust="spacing" textLength="184.8247" x="343.4912" y="188.9263">Validate {id} is a valid UUID</text><path d="M14,221.9922 L74.4429,221.9922 L74.4429,229.125 L64.4429,239.125 L10,239.125 L10,225.9922 A4,4 0 0 1 14,221.9922 " fill="#EEEEEE" style="stroke:#999999;stroke-width:1.5;"/><rect fill="none" height="798.9375" rx="4" ry="4" style="stroke:#999999;stroke-width:1.5;" width="1444.146" x="10" y="221.9922"/><text fill="#000000" font-family="sans-serif" font-size="13" font-weight="bold" lengthAdjust="spacing" textLength="19.4429" x="25" y="235.0591">alt</text><text fill="#000000" font-family="sans-serif" font-size="11" font-weight="bold" lengthAdjust="spacing" textLength="132.3223" x="89.4429" y="234.2026">[invalid UUID format]</text><polygon fill="#181818" points="84.2651,256.2578,74.2651,260.2578,84.2651,264.2578,80.2651,260.2578" style="stroke:#181818;stroke-width:1.0;"/><line style="stroke:#181818;stroke-width:2.0;stroke-dasharray:2.0,2.0;" x1="78.2651" x2="322.4458" y1="260.2578" y2="260.2578"/><text fill="#000000" font-family="sans-serif" font-size="13" font-weight="bold" lengthAdjust="spacing" textLength="9.0454" x="90.2651" y="255.1919">3</text><text fill="#000000" font-family="sans-serif" font-size="13" lengthAdjust="spacing" textLength="166.8545" x="103.3105" y="255.1919">422 Unprocessable Entity</text><line style="stroke:#999999;stroke-width:1.0;stroke-dasharray:2.0,2.0;" x1="10" x2="1454.146" y1="269.2578" y2="269.2578"/><text fill="#000000" font-family="sans-serif" font-size="11" font-weight="bold" lengthAdjust="spacing" textLength="74.9805" x="15" y="279.4683">[valid UUID]</text><polygon fill="#181818" points="557.0688,300.1953,567.0688,304.1953,557.0688,308.1953,561.0688,304.1953" style="stroke:#181818;stroke-width:1.0;"/><line style="stroke:#181818;stroke-width:2.0;" x1="323.4458" x2="563.0688" y1="304.1953" y2="304.1953"/><text fill="#000000" font-family="sans-serif" font-size="13" font-weight="bold" lengthAdjust="spacing" textLength="9.0454" x="330.4458" y="299.1294">4</text><text fill="#000000" font-family="sans-serif" font-size="13" lengthAdjust="spacing" textLength="208.5776" x="343.4912" y="299.1294">resolve get_current_user(token)</text><path d="M24,319.1953 L84.4429,319.1953 L84.4429,326.3281 L74.4429,336.3281 L20,336.3281 L20,323.1953 A4,4 0 0 1 24,319.1953 " fill="#EEEEEE" style="stroke:#999999;stroke-width:1.5;"/><rect fill="none" height="694.7344" rx="4" ry="4" style="stroke:#999999;stroke-width:1.5;" width="1424.146" x="20" y="319.1953"/><text fill="#000000" font-family="sans-serif" font-size="13" font-weight="bold" lengthAdjust="spacing" textLength="19.4429" x="35" y="332.2622">alt</text><text fill="#000000" font-family="sans-serif" font-size="11" font-weight="bold" lengthAdjust="spacing" textLength="90.9165" x="99.4429" y="331.4058">[token invalid]</text><polygon fill="#181818" points="334.4458,353.4609,324.4458,357.4609,334.4458,361.4609,330.4458,357.4609" style="stroke:#181818;stroke-width:1.0;"/><line style="stroke:#181818;stroke-width:2.0;stroke-dasharray:2.0,2.0;" x1="328.4458" x2="568.0688" y1="357.4609" y2="357.4609"/><text fill="#000000" font-family="sans-serif" font-size="13" font-weight="bold" lengthAdjust="spacing" textLength="9.0454" x="340.4458" y="352.395">5</text><text fill="#000000" font-family="sans-serif" font-size="13" lengthAdjust="spacing" textLength="189.6743" x="353.4912" y="352.395">raises InvalidTokenException</text><polygon fill="#181818" points="84.2651,382.5938,74.2651,386.5938,84.2651,390.5938,80.2651,386.5938" style="stroke:#181818;stroke-width:1.0;"/><line style="stroke:#181818;stroke-width:2.0;stroke-dasharray:2.0,2.0;" x1="78.2651" x2="322.4458" y1="386.5938" y2="386.5938"/><text fill="#000000" font-family="sans-serif" font-size="13" font-weight="bold" lengthAdjust="spacing" textLength="9.0454" x="90.2651" y="381.5278">6</text><text fill="#000000" font-family="sans-serif" font-size="13" lengthAdjust="spacing" textLength="116.2256" x="103.3105" y="381.5278">401 Unauthorized</text><line style="stroke:#999999;stroke-width:1.0;stroke-dasharray:2.0,2.0;" x1="20" x2="1444.146" y1="395.5938" y2="395.5938"/><text fill="#000000" font-family="sans-serif" font-size="11" font-weight="bold" lengthAdjust="spacing" textLength="79.3149" x="25" y="405.8042">[token valid]</text><polygon fill="#181818" points="334.4458,426.5313,324.4458,430.5313,334.4458,434.5313,330.4458,430.5313" style="stroke:#181818;stroke-width:1.0;"/><line style="stroke:#181818;stroke-width:2.0;stroke-dasharray:2.0,2.0;" x1="328.4458" x2="568.0688" y1="430.5313" y2="430.5313"/><text fill="#000000" font-family="sans-serif" font-size="13" font-weight="bold" lengthAdjust="spacing" textLength="9.0454" x="340.4458" y="425.4653">7</text><text fill="#000000" font-family="sans-serif" font-size="13" lengthAdjust="spacing" textLength="100.6294" x="353.4912" y="425.4653">current_user_id</text><polygon fill="#181818" points="691.6709,455.6641,701.6709,459.6641,691.6709,463.6641,695.6709,459.6641" style="stroke:#181818;stroke-width:1.0;"/><line style="stroke:#181818;stroke-width:2.0;" x1="323.4458" x2="697.6709" y1="459.6641" y2="459.6641"/><text fill="#000000" font-family="sans-serif" font-size="13" font-weight="bold" lengthAdjust="spacing" textLength="9.0454" x="330.4458" y="454.5981">8</text><text fill="#000000" font-family="sans-serif" font-size="13" lengthAdjust="spacing" textLength="188.4492" x="343.4912" y="454.5981">GetPetQuery(pet_id, user_id)</text><polygon fill="#181818" points="1112.6641,484.7969,1122.6641,488.7969,1112.6641,492.7969,1116.6641,488.7969" style="stroke:#181818;stroke-width:1.0;"/><line style="stroke:#181818;stroke-width:2.0;" x1="703.6709" x2="1118.6641" y1="488.7969" y2="488.7969"/><text fill="#000000" font-family="sans-serif" font-size="13" font-weight="bold" lengthAdjust="spacing" textLength="9.0454" x="710.6709" y="483.731">9</text><text fill="#000000" font-family="sans-serif" font-size="13" lengthAdjust="spacing" textLength="115.3433" x="723.7163" y="483.731">find_by_id(pet_id)</text><polygon fill="#181818" points="1396.2969,544.1953,1406.2969,548.1953,1396.2969,552.1953,1400.2969,548.1953" style="stroke:#181818;stroke-width:1.0;"/><line style="stroke:#181818;stroke-width:2.0;" x1="1124.6641" x2="1402.2969" y1="548.1953" y2="548.1953"/><text fill="#000000" font-family="sans-serif" font-size="13" font-weight="bold" lengthAdjust="spacing" textLength="18.0908" x="1131.6641" y="527.9966">10</text><text fill="#000000" font-family="sans-serif" font-size="13" lengthAdjust="spacing" textLength="237.542" x="1153.7549" y="512.8638">SELECT pets.*, pet_owners.owner_id</text><text fill="#000000" font-family="sans-serif" font-size="13" lengthAdjust="spacing" textLength="193.8892" x="1153.7549" y="527.9966">FROM pets JOIN pet_owners&#8230;</text><text fill="#000000" font-family="sans-serif" font-size="13" lengthAdjust="spacing" textLength="122.3955" x="1153.7549" y="543.1294">WHERE pets.id = ?</text><polygon fill="#181818" points="1135.6641,573.3281,1125.6641,577.3281,1135.6641,581.3281,1131.6641,577.3281" style="stroke:#181818;stroke-width:1.0;"/><line style="stroke:#181818;stroke-width:2.0;stroke-dasharray:2.0,2.0;" x1="1129.6641" x2="1407.2969" y1="577.3281" y2="577.3281"/><text fill="#000000" font-family="sans-serif" font-size="13" font-weight="bold" lengthAdjust="spacing" textLength="18.0908" x="1141.6641" y="572.2622">11</text><text fill="#000000" font-family="sans-serif" font-size="13" lengthAdjust="spacing" textLength="106.666" x="1163.7549" y="572.2622">row or (no rows)</text><path d="M34,592.3281 L94.4429,592.3281 L94.4429,599.4609 L84.4429,609.4609 L30,609.4609 L30,596.3281 A4,4 0 0 1 34,592.3281 " fill="#EEEEEE" style="stroke:#999999;stroke-width:1.5;"/><rect fill="none" height="414.6016" rx="4" ry="4" style="stroke:#999999;stroke-width:1.5;" width="1180.3003" x="30" y="592.3281"/><text fill="#000000" font-family="sans-serif" font-size="13" font-weight="bold" lengthAdjust="spacing" textLength="19.4429" x="45" y="605.395">alt</text><text fill="#000000" font-family="sans-serif" font-size="11" font-weight="bold" lengthAdjust="spacing" textLength="94.832" x="109.4429" y="604.5386">[pet not found]</text><polygon fill="#181818" points="714.6709,626.5938,704.6709,630.5938,714.6709,634.5938,710.6709,630.5938" style="stroke:#181818;stroke-width:1.0;"/><line style="stroke:#181818;stroke-width:2.0;stroke-dasharray:2.0,2.0;" x1="708.6709" x2="1123.6641" y1="630.5938" y2="630.5938"/><text fill="#000000" font-family="sans-serif" font-size="13" font-weight="bold" lengthAdjust="spacing" textLength="18.0908" x="720.6709" y="625.5278">12</text><text fill="#000000" font-family="sans-serif" font-size="13" lengthAdjust="spacing" textLength="33.9155" x="742.7617" y="625.5278">None</text><polygon fill="#181818" points="334.4458,655.7266,324.4458,659.7266,334.4458,663.7266,330.4458,659.7266" style="stroke:#181818;stroke-width:1.0;"/><line style="stroke:#181818;stroke-width:2.0;stroke-dasharray:2.0,2.0;" x1="328.4458" x2="702.6709" y1="659.7266" y2="659.7266"/><text fill="#000000" font-family="sans-serif" font-size="13" font-weight="bold" lengthAdjust="spacing" textLength="18.0908" x="340.4458" y="654.6606">13</text><text fill="#000000" font-family="sans-serif" font-size="13" lengthAdjust="spacing" textLength="190.6772" x="362.5366" y="654.6606">raises PetNotFoundException</text><polygon fill="#181818" points="84.2651,684.8594,74.2651,688.8594,84.2651,692.8594,80.2651,688.8594" style="stroke:#181818;stroke-width:1.0;"/><line style="stroke:#181818;stroke-width:2.0;stroke-dasharray:2.0,2.0;" x1="78.2651" x2="322.4458" y1="688.8594" y2="688.8594"/><text fill="#000000" font-family="sans-serif" font-size="13" font-weight="bold" lengthAdjust="spacing" textLength="18.0908" x="90.2651" y="683.7935">14</text><text fill="#000000" font-family="sans-serif" font-size="13" lengthAdjust="spacing" textLength="96.0146" x="112.356" y="683.7935">404 Not Found</text><line style="stroke:#999999;stroke-width:1.0;stroke-dasharray:2.0,2.0;" x1="30" x2="1210.3003" y1="697.8594" y2="697.8594"/><text fill="#000000" font-family="sans-serif" font-size="11" font-weight="bold" lengthAdjust="spacing" textLength="70.356" x="35" y="708.0698">[pet found]</text><polygon fill="#181818" points="714.6709,728.7969,704.6709,732.7969,714.6709,736.7969,710.6709,732.7969" style="stroke:#181818;stroke-width:1.0;"/><line style="stroke:#181818;stroke-width:2.0;stroke-dasharray:2.0,2.0;" x1="708.6709" x2="1123.6641" y1="732.7969" y2="732.7969"/><text fill="#000000" font-family="sans-serif" font-size="13" font-weight="bold" lengthAdjust="spacing" textLength="18.0908" x="720.6709" y="727.731">15</text><text fill="#000000" font-family="sans-serif" font-size="13" lengthAdjust="spacing" textLength="21.3472" x="742.7617" y="727.731">pet</text><polygon fill="#181818" points="956.4194,757.9297,966.4194,761.9297,956.4194,765.9297,960.4194,761.9297" style="stroke:#181818;stroke-width:1.0;"/><line style="stroke:#181818;stroke-width:2.0;" x1="703.6709" x2="962.4194" y1="761.9297" y2="761.9297"/><text fill="#000000" font-family="sans-serif" font-size="13" font-weight="bold" lengthAdjust="spacing" textLength="18.0908" x="710.6709" y="756.8638">16</text><text fill="#000000" font-family="sans-serif" font-size="13" lengthAdjust="spacing" textLength="218.6577" x="732.7617" y="756.8638">pet.is_owned_by(current_user_id)</text><polygon fill="#181818" points="714.6709,787.0625,704.6709,791.0625,714.6709,795.0625,710.6709,791.0625" style="stroke:#181818;stroke-width:1.0;"/><line style="stroke:#181818;stroke-width:2.0;stroke-dasharray:2.0,2.0;" x1="708.6709" x2="967.4194" y1="791.0625" y2="791.0625"/><text fill="#000000" font-family="sans-serif" font-size="13" font-weight="bold" lengthAdjust="spacing" textLength="18.0908" x="720.6709" y="785.9966">17</text><text fill="#000000" font-family="sans-serif" font-size="13" lengthAdjust="spacing" textLength="75.9941" x="742.7617" y="785.9966">True / False</text><path d="M44,806.0625 L104.4429,806.0625 L104.4429,813.1953 L94.4429,823.1953 L40,823.1953 L40,810.0625 A4,4 0 0 1 44,806.0625 " fill="#EEEEEE" style="stroke:#999999;stroke-width:1.5;"/><rect fill="none" height="193.8672" rx="4" ry="4" style="stroke:#999999;stroke-width:1.5;" width="731.9814" x="40" y="806.0625"/><text fill="#000000" font-family="sans-serif" font-size="13" font-weight="bold" lengthAdjust="spacing" textLength="19.4429" x="55" y="819.1294">alt</text><text fill="#000000" font-family="sans-serif" font-size="11" font-weight="bold" lengthAdjust="spacing" textLength="137.2905" x="119.4429" y="818.2729">[user is not an owner]</text><polygon fill="#181818" points="334.4458,840.3281,324.4458,844.3281,334.4458,848.3281,330.4458,844.3281" style="stroke:#181818;stroke-width:1.0;"/><line style="stroke:#181818;stroke-width:2.0;stroke-dasharray:2.0,2.0;" x1="328.4458" x2="702.6709" y1="844.3281" y2="844.3281"/><text fill="#000000" font-family="sans-serif" font-size="13" font-weight="bold" lengthAdjust="spacing" textLength="18.0908" x="340.4458" y="839.2622">18</text><text fill="#000000" font-family="sans-serif" font-size="13" lengthAdjust="spacing" textLength="218.5815" x="362.5366" y="839.2622">raises PetAccessDeniedException</text><polygon fill="#181818" points="84.2651,869.4609,74.2651,873.4609,84.2651,877.4609,80.2651,873.4609" style="stroke:#181818;stroke-width:1.0;"/><line style="stroke:#181818;stroke-width:2.0;stroke-dasharray:2.0,2.0;" x1="78.2651" x2="322.4458" y1="873.4609" y2="873.4609"/><text fill="#000000" font-family="sans-serif" font-size="13" font-weight="bold" lengthAdjust="spacing" textLength="18.0908" x="90.2651" y="868.395">19</text><text fill="#000000" font-family="sans-serif" font-size="13" lengthAdjust="spacing" textLength="94.3262" x="112.356" y="868.395">403 Forbidden</text><line style="stroke:#999999;stroke-width:1.0;stroke-dasharray:2.0,2.0;" x1="40" x2="771.9814" y1="882.4609" y2="882.4609"/><text fill="#000000" font-family="sans-serif" font-size="11" font-weight="bold" lengthAdjust="spacing" textLength="112.8145" x="45" y="892.6714">[user is an owner]</text><polygon fill="#181818" points="334.4458,928.5313,324.4458,932.5313,334.4458,936.5313,330.4458,932.5313" style="stroke:#181818;stroke-width:1.0;"/><line style="stroke:#181818;stroke-width:2.0;stroke-dasharray:2.0,2.0;" x1="328.4458" x2="702.6709" y1="932.5313" y2="932.5313"/><text fill="#000000" font-family="sans-serif" font-size="13" font-weight="bold" lengthAdjust="spacing" textLength="18.0908" x="340.4458" y="919.8989">20</text><text fill="#000000" font-family="sans-serif" font-size="13" lengthAdjust="spacing" textLength="43.9956" x="362.5366" y="912.3325">PetDto</text><text fill="#000000" font-family="sans-serif" font-size="13" lengthAdjust="spacing" textLength="253.0938" x="362.5366" y="927.4653">(id, name, last_name, type, owner_ids)</text><polygon fill="#181818" points="84.2651,987.9297,74.2651,991.9297,84.2651,995.9297,80.2651,991.9297" style="stroke:#181818;stroke-width:1.0;"/><line style="stroke:#181818;stroke-width:2.0;stroke-dasharray:2.0,2.0;" x1="78.2651" x2="322.4458" y1="991.9297" y2="991.9297"/><text fill="#000000" font-family="sans-serif" font-size="13" font-weight="bold" lengthAdjust="spacing" textLength="18.0908" x="90.2651" y="971.731">21</text><text fill="#000000" font-family="sans-serif" font-size="13" lengthAdjust="spacing" textLength="47.7026" x="112.356" y="956.5981">200 OK</text><text fill="#000000" font-family="sans-serif" font-size="13" lengthAdjust="spacing" textLength="184.4883" x="112.356" y="971.731">{ "id", "name", "last_name",</text><text fill="#000000" font-family="sans-serif" font-size="13" lengthAdjust="spacing" textLength="138.9312" x="120.6206" y="986.8638">"type", "owner_ids" }</text><!--SRC=[ZLJRRjD047ttLupCIuBIAqNG2eAInYxbqfQImakaQ6DFqrMTNRExfWq8YO_W6_WmleIPjPsBAPH4YUtrEMVEN7QTT1d24Jeuez-lxp_WA1h2LexERdsLwRSWiDTIvSA86LZyLA1Ai6UClXbUoUHQeRMmkm8nkb1feer20q_le9u9usGYSw5SNviKpQ7Ej847Z_td7e98hgS-G4MAU_ozWtH4g7nDVzz_Lg1AErn3zFsdYVWZP1mFeYT18197ZuUPHEM2OA9l8JmpQEb9EAbL20-YADwB-m50lim0GghhcFGScX24XND_smHD2PGKnf3QkB1eHkhPinHpL2abD-zsFRLNkAi1vW6j0iMlJFJoF9D9xO7SFersclBKREhrIw7IhB9HtJUq1decf9VP8PdzfWnfiB7UT6fmAXnICjfLvkXTf9nqyuRaiReqmZfJ9AumoDBzQ9_gsP1-_ocJ3ada77Dj9PLwNfQB7fUAgN1Y8YmI_jqRmdl8e4_DAPnMnMn26GLbYs2ZMzKQ3Xe3Fb9SIMta5r-r0-YZC8J3-QkhoL4YVtt_6GGLTrNbWyXaoccp24WB0Zxp4bnS70y2aJcGQha0bzhCXAD4QodIghmTmDxkBboetEY4zfEOq8QigvTHUYkoItgt7W2Yq-3fx3D2SsvQJb-ZQXEBxVY7sXIjmK9XOpKl8wH52ySbRiYaw3R1d8lZMNSciBr32OYgaCZotdePyvw8gvR715oBqgs7anld1_TTWMRUueqaqmvKf7R9gh4iJxD2d4kfql5aJf2AqYxb-IsX1dt2l8_UH8T3u97OVDZXwrZVq0bcD_s5I2CLdv- -zGXuTNfyieAX-HYfZo-ZywWKe5OzXnS-28blB9tGcGbqPhIKvbjREURE48zF6veHEcZyQcrmBVqJhR1wkyZpZivHYKwqYrbhlN5_QzqUAJk85y5zvzZJFNu84ZJzT9TRlqHiIkiBnKreDJhThjXBodg0eIaGjY0MPAYEnFLYEkyuhfbGuFjGlRwtDBs4zzW0bSG_olEt0ZsYufY9JEduhP2-HBMD_xD0iGTEZrIBfrQ96NOWewDmNDwwUKx_zRZPzZyTxMvlm-dhaVeAeKp33eIimTU5ODWPAO2GLNbzeHl2jpg3kjd-ol_y-mq0]--></g></svg>