<svg xmlns="http://www.w3.org/2000/svg" xmlns:xlink="http://www.w3.org/1999/xlink" contentStyleType="text/css" height="1515px" preserveAspectRatio="none" style="width:1878px;height:1515px;background:#FFFFFF;" version="1.1" viewBox="0 0 1878 1515" width="1878px" zoomAndPan="magnify"><defs/><g><text fill="#000000" font-family="sans-serif" font-size="14" font-weight="bold" lengthAdjust="spacing" textLength="249.1494" x="815.9014" y="27.9951">Update Pet &#8212; PATCH /pets/{id}</text><rect fill="#EEF4FB" height="1466.0547" rx="4" ry="4" style="stroke:#181818;stroke-width:0.5;" width="374.0464" x="275.9248" y="43.2969"/><text fill="#000000" font-family="sans-serif" font-size="13" font-weight="bold" lengthAdjust="spacing" textLength="94.4087" x="415.7437" y="55.3638">Presentation</text><rect fill="#FFF8E1" height="1466.0547" rx="4" ry="4" style="stroke:#181818;stroke-width:0.5;" width="150.3721" x="651.9712" y="43.2969"/><text fill="#000000" font-family="sans-serif" font-size="13" font-weight="bold" lengthAdjust="spacing" textLength="82.9194" x="685.6975" y="55.3638">Application</text><rect fill="#F1F8E9" height="1466.0547" rx="4" ry="4" style="stroke:#181818;stroke-width:0.5;" width="410.6348" x="947.7749" y="43.2969"/><text fill="#000000" font-family="sans-serif" font-size="13" font-weight="bold" lengthAdjust="spacing" textLength="55.7515" x="1125.2166" y="55.3638">Domain</text><rect fill="#FBE9E7" height="1466.0547" rx="4" ry="4" style="stroke:#181818;stroke-width:0.5;" width="159.2725" x="1360.4097" y="43.2969"/><text fill="#000000" font-family="sans-serif" font-size="13" font-weight="bold" lengthAdjust="spacing" textLength="102.9526" x="1388.5696" y="55.3638">Infrastructure</text><rect fill="none" height="1080.2656" rx="4" ry="4" style="stroke:#999999;stroke-width:1.5;" width="1861.9521" x="10" y="332.7891"/><rect fill="none" height="976.0625" rx="4" ry="4" style="stroke:#999999;stroke-width:1.5;" width="1841.9521" x="20" y="429.9922"/><rect fill="none" height="711.0625" rx="4" ry="4" style="stroke:#999999;stroke-width:1.5;" width="1821.9521" x="30" y="687.9922"/><rect fill="none" height="548.5938" rx="4" ry="4" style="stroke:#999999;stroke-width:1.5;" width="1801.9521" x="40" y="843.4609"/><rect fill="none" height="134.7969" rx="4" ry="4" style="stroke:#999999;stroke-width:1.5;" width="718.4385" x="645.9712" y="940.6641"/><rect fill="none" height="104.5313" rx="4" ry="4" style="stroke:#999999;stroke-width:1.5;" width="718.4385" x="645.9712" y="1089.4609"/><line style="stroke:#181818;stroke-width:0.5;stroke-dasharray:5.0,5.0;" x1="73" x2="73" y1="118.5938" y2="1430.0547"/><line style="stroke:#181818;stroke-width:0.5;stroke-dasharray:5.0,5.0;" x1="322.9248" x2="322.9248" y1="118.5938" y2="1430.0547"/><line style="stroke:#181818;stroke-width:0.5;stroke-dasharray:5.0,5.0;" x1="579.3882" x2="579.3882" y1="118.5938" y2="1430.0547"/><line style="stroke:#181818;stroke-width:0.5;stroke-dasharray:5.0,5.0;" x1="726.9712" x2="726.9712" y1="118.5938" y2="1430.0547"/><line style="stroke:#181818;stroke-width:0.5;stroke-dasharray:5.0,5.0;" x1="1011.7749" x2="1011.7749" y1="118.5938" y2="1430.0547"/><line style="stroke:#181818;stroke-width:0.5;stroke-dasharray:5.0,5.0;" x1="1142.4839" x2="1142.4839" y1="118.5938" y2="1430.0547"/><line style="stroke:#181818;stroke-width:0.5;stroke-dasharray:5.0,5.0;" x1="1283.1929" x2="1283.1929" y1="118.5938" y2="1430.0547"/><line style="stroke:#181818;stroke-width:0.5;stroke-dasharray:5.0,5.0;" x1="1439.4097" x2="1439.4097" y1="118.5938" y2="1430.0547"/><line style="stroke:#181818;stroke-width:0.5;stroke-dasharray:5.0,5.0;" x1="1805.2539" x2="1805.2539" y1="118.5938" y2="1430.0547"/><text fill="#000000" font-family="sans-serif" font-size="14" lengthAdjust="spacing" textLength="40.5303" x="50" y="115.292">Client</text><ellipse cx="73.2651" cy="50.7969" fill="#E2E2F0" rx="8" ry="8" style="stroke:#181818;stroke-width:0.5;"/><path d="M73.2651,58.7969 L73.2651,85.7969 M60.2651,66.7969 L86.2651,66.7969 M73.2651,85.7969 L60.2651,100.7969 M73.2651,85.7969 L86.2651,100.7969 " fill="none" style="stroke:#181818;stroke-width:0.5;"/><text fill="#000000" font-family="sans-serif" font-size="14" lengthAdjust="spacing" textLength="40.5303" x="50" y="1442.0498">Client</text><ellipse cx="73.2651" cy="1453.8516" fill="#E2E2F0" rx="8" ry="8" style="stroke:#181818;stroke-width:0.5;"/><path d="M73.2651,1461.8516 L73.2651,1488.8516 M60.2651,1469.8516 L86.2651,1469.8516 M73.2651,1488.8516 L60.2651,1503.8516 M73.2651,1488.8516 L86.2651,1503.8516 " fill="none" style="stroke:#181818;stroke-width:0.5;"/><rect fill="#FAFAFA" height="30.2969" rx="4" ry="4" style="stroke:#555555;stroke-width:0.5;" width="87.042" x="279.9248" y="87.2969"/><text fill="#000000" font-family="sans-serif" font-size="14" lengthAdjust="spacing" textLength="73.042" x="286.9248" y="107.292">pet_router</text><rect fill="#FAFAFA" height="30.2969" rx="4" ry="4" style="stroke:#555555;stroke-width:0.5;" width="87.042" x="279.9248" y="1429.0547"/><text fill="#000000" font-family="sans-serif" font-size="14" lengthAdjust="spacing" textLength="73.042" x="286.9248" y="1449.0498">pet_router</text><rect fill="#FAFAFA" height="46.5938" rx="4" ry="4" style="stroke:#555555;stroke-width:0.5;" width="132.583" x="513.3882" y="71"/><text fill="#000000" font-family="sans-serif" font-size="14" lengthAdjust="spacing" textLength="118.583" x="520.3882" y="90.9951">get_current_user</text><text fill="#000000" font-family="sans-serif" font-size="14" lengthAdjust="spacing" textLength="103.3594" x="528" y="107.292">&#171;dependency&#187;</text><rect fill="#FAFAFA" height="46.5938" rx="4" ry="4" style="stroke:#555555;stroke-width:0.5;" width="132.583" x="513.3882" y="1429.0547"/><text fill="#000000" font-family="sans-serif" font-size="14" lengthAdjust="spacing" textLength="118.583" x="520.3882" y="1449.0498">get_current_user</text><text fill="#000000" font-family="sans-serif" font-size="14" lengthAdjust="spacing" textLength="103.3594" x="528" y="1465.3467">&#171;dependency&#187;</text><rect fill="#FAFAFA" height="30.2969" rx="4" ry="4" style="stroke:#555555;stroke-width:0.5;" width="142.3721" x="655.9712" y="87.2969"/><text fill="#000000" font-family="sans-serif" font-size="14" lengthAdjust="spacing" textLength="128.3721" x="662.9712" y="107.292">UpdatePetHandler</text><rect fill="#FAFAFA" height="30.2969" rx="4" ry="4" style="stroke:#555555;stroke-width:0.5;" width="142.3721" x="655.9712" y="1429.0547"/><text fill="#000000" font-family="sans-serif" font-size="14" lengthAdjust="spacing" textLength="128.3721" x="662.9712" y="1449.0498">UpdatePetHandler</text><rect fill="#FAFAFA" height="46.5938" rx="4" ry="4" style="stroke:#555555;stroke-width:0.5;" width="120.709" x="951.7749" y="71"/><text fill="#000000" font-family="sans-serif" font-size="14" lengthAdjust="spacing" textLength="63.8477" x="980.2056" y="90.9951">PetName</text><text fill="#000000" font-family="sans-serif" font-size="14" lengthAdjust="spacing" textLength="106.709" x="958.7749" y="107.292">&#171;Value Object&#187;</text><rect fill="#FAFAFA" height="46.5938" rx="4" ry="4" style="stroke:#555555;stroke-width:0.5;" width="120.709" x="951.7749" y="1429.0547"/><text fill="#000000" font-family="sans-serif" font-size="14" lengthAdjust="spacing" textLength="63.8477" x="980.2056" y="1449.0498">PetName</text><text fill="#000000" font-family="sans-serif" font-size="14" lengthAdjust="spacing" textLength="106.709" x="958.7749" y="1465.3467">&#171;Value Object&#187;</text><rect fill="#FAFAFA" height="46.5938" rx="4" ry="4" style="stroke:#555555;stroke-width:0.5;" width="120.709" x="1082.4839" y="71"/><text fill="#000000" font-family="sans-serif" font-size="14" lengthAdjust="spacing" textLength="56.8818" x="1114.3975" y="90.9951">PetType</text><text fill="#000000" font-family="sans-serif" font-size="14" lengthAdjust="spacing" textLength="106.709" x="1089.4839" y="107.292">&#171;Value Object&#187;</text><rect fill="#FAFAFA" height="46.5938" rx="4" ry="4" style="stroke:#555555;stroke-width:0.5;" width="120.709" x="1082.4839" y="1429.0547"/><text fill="#000000" font-family="sans-serif" font-size="14" lengthAdjust="spacing" textLength="56.8818" x="1114.3975" y="1449.0498">PetType</text><text fill="#000000" font-family="sans-serif" font-size="14" lengthAdjust="spacing" textLength="106.709" x="1089.4839" y="1465.3467">&#171;Value Object&#187;</text><rect fill="#FAFAFA" height="46.5938" rx="4" ry="4" style="stroke:#555555;stroke-width:0.5;" width="141.2168" x="1213.1929" y="71"/><text fill="#000000" font-family="sans-serif" font-size="14" lengthAdjust="spacing" textLength="22.5449" x="1272.5288" y="90.9951">Pet</text><text fill="#000000" font-family="sans-serif" font-size="14" lengthAdjust="spacing" textLength="127.2168" x="1220.1929" y="107.292">&#171;Aggregate Root&#187;</text><rect fill="#FAFAFA" height="46.5938" rx="4" ry="4" style="stroke:#555555;stroke-width:0.5;" width="141.2168" x="1213.1929" y="1429.0547"/><text fill="#000000" font-family="sans-serif" font-size="14" lengthAdjust="spacing" textLength="22.5449" x="1272.5288" y="1449.0498">Pet</text><text fill="#000000" font-family="sans-serif" font-size="14" lengthAdjust="spacing" textLength="127.2168" x="1220.1929" y="1465.3467">&#171;Aggregate Root&#187;</text><rect fill="#FAFAFA" height="30.2969" rx="4" ry="4" style="stroke:#555555;stroke-width:0.5;" width="151.2725" x="1364.4097" y="87.2969"/><text fill="#000000" font-family="sans-serif" font-size="14" lengthAdjust="spacing" textLength="137.2725" x="1371.4097" y="107.292">SqlitePetRepository</text><rect fill="#FAFAFA" height="30.2969" rx="4" ry="4" style="stroke:#555555;stroke-width:0.5;" width="151.2725" x="1364.4097" y="1429.0547"/><text fill="#000000" font-family="sans-serif" font-size="14" lengthAdjust="spacing" textLength="137.2725" x="1371.4097" y="1449.0498">SqlitePetRepository</text><text fill="#000000" font-family="sans-serif" font-size="14" lengthAdjust="spacing" textLength="45.6982" x="1780.2539" y="115.292">SQLite</text><path d="M1788.103,66.2969 C1788.103,56.2969 1806.103,56.2969 1806.103,56.2969 C1806.103,56.2969 1824.103,56.2969 1824.103,66.2969 L1824.103,92.2969 C1824.103,102.2969 1806.103,102.2969 1806.103,102.2969 C1806.103,102.2969 1788.103,102.2969 1788.103,92.2969 L1788.103,66.2969 " fill="#E2E2F0" style="stroke:#181818;stroke-width:1.5;"/><path d="M1788.103,66.2969 C1788.103,76.2969 1806.103,76.2969 1806.103,76.2969 C1806.103,76.2969 1824.103,76.2969 1824.103,66.2969 " fill="none" style="stroke:#181818;stroke-width:1.5;"/><text fill="#000000" font-family="sans-serif" font-size="14" lengthAdjust="spacing" textLength="45.6982" x="1780.2539" y="1442.0498">SQLite</text><path d="M1788.103,1455.3516 C1788.103,1445.3516 1806.103,1445.3516 1806.103,1445.3516 C1806.103,1445.3516 1824.103,1445.3516 1824.103,1455.3516 L1824.103,1481.3516 C1824.103,1491.3516 1806.103,1491.3516 1806.103,1491.3516 C1806.103,1491.3516 1788.103,1491.3516 1788.103,1481.3516 L1788.103,1455.3516 " fill="#E2E2F0" style="stroke:#181818;stroke-width:1.5;"/><path d="M1788.103,1455.3516 C1788.103,1465.3516 1806.103,1465.3516 1806.103,1465.3516 C1806.103,1465.3516 1824.103,1465.3516 1824.103,1455.3516 " fill="none" style="stroke:#181818;stroke-width:1.5;"/><polygon fill="#181818" points="311.4458,206.2578,321.4458,210.2578,311.4458,214.2578,315.4458,210.2578" style="stroke:#181818;stroke-width:1.0;"/><line style="stroke:#181818;stroke-width:2.0;" x1="73.2651" x2="317.4458" y1="210.2578" y2="210.2578"/><text fill="#000000" font-family="sans-serif" font-size="13" font-weight="bold" lengthAdjust="spacing" textLength="9.0454" x="80.2651" y="174.9263">1</text><text fill="#000000" font-family="sans-serif" font-size="13" lengthAdjust="spacing" textLength="112.9438" x="93.3105" y="144.6606">PATCH /pets/{id}</text><text fill="#000000" font-family="sans-serif" font-size="13" lengthAdjust="spacing" textLength="213.1353" x="93.3105" y="159.7935">Authorization: Bearer eyJhbGci&#8230;</text><text fill="#000000" font-family="sans-serif" font-size="13" lengthAdjust="spacing" textLength="144.0283" x="93.3105" y="174.9263">{ "name"?: "Shadow",</text><text fill="#000000" font-family="sans-serif" font-size="13" lengthAdjust="spacing" textLength="172.0532" x="101.5752" y="190.0591">"last_name"?: "Nightpaw",</text><text fill="#000000" font-family="sans-serif" font-size="13" lengthAdjust="spacing" textLength="131.9106" x="101.5752" y="205.1919">"type"?: "panther" }</text><path d="M78,227.2578 L78,259.2578 A4,4 0 0 0 82,263.2578 L318,263.2578 A4,4 0 0 0 322,259.2578 L322,233.2578 L312,223.2578 L82,223.2578 A4,4 0 0 0 78,227.2578 " fill="#FFFDE7" style="stroke:#BBBBBB;stroke-width:0.5;"/><path d="M312,223.2578 L312,231.2578 A2,2 0 0 0 314,233.2578 L322,233.2578 L312,223.2578 " fill="#FFFDE7" style="stroke:#BBBBBB;stroke-width:0.5;"/><text fill="#000000" font-family="sans-serif" font-size="13" lengthAdjust="spacing" textLength="116.0225" x="84" y="240.3247">All fields optional.</text><text fill="#000000" font-family="sans-serif" font-size="13" lengthAdjust="spacing" textLength="223.6025" x="84" y="255.4575">Omitted fields are left unchanged.</text><line style="stroke:#181818;stroke-width:2.0;" x1="323.4458" x2="365.4458" y1="304.7891" y2="304.7891"/><line style="stroke:#181818;stroke-width:2.0;" x1="365.4458" x2="365.4458" y1="304.7891" y2="317.7891"/><line style="stroke:#181818;stroke-width:2.0;" x1="324.4458" x2="365.4458" y1="317.7891" y2="317.7891"/><polygon fill="#181818" points="334.4458,313.7891,324.4458,317.7891,334.4458,321.7891,330.4458,317.7891" style="stroke:#181818;stroke-width:1.0;"/><text fill="#000000" font-family="sans-serif" font-size="13" font-weight="bold" lengthAdjust="spacing" textLength="9.0454" x="330.4458" y="292.1567">2</text><text fill="#000000" font-family="sans-serif" font-size="13" lengthAdjust="spacing" textLength="122.9414" x="343.4912" y="284.5903">Validate {id} UUID</text><text fill="#000000" font-family="sans-serif" font-size="13" lengthAdjust="spacing" textLength="229.1885" x="343.4912" y="299.7231">Pydantic schema (no blank strings)</text><path d="M14,332.7891 L74.4429,332.7891 L74.4429,339.9219 L64.4429,349.9219 L10,349.9219 L10,336.7891 A4,4 0 0 1 14,332.7891 " fill="#EEEEEE" style="stroke:#999999;stroke-width:1.5;"/><rect fill="none" height="1080.2656" rx="4" ry="4" style="stroke:#999999;stroke-width:1.5;" width="1861.9521" x="10" y="332.7891"/><text fill="#000000" font-family="sans-serif" font-size="13" font-weight="bold" lengthAdjust="spacing" textLength="19.4429" x="25" y="345.856">alt</text><text fill="#000000" font-family="sans-serif" font-size="11" font-weight="bold" lengthAdjust="spacing" textLength="210.4126" x="89.4429" y="344.9995">[invalid UUID or blank field value]</text><polygon fill="#181818" points="84.2651,367.0547,74.2651,371.0547,84.2651,375.0547,80.2651,371.0547" style="stroke:#181818;stroke-width:1.0;"/><line style="stroke:#181818;stroke-width:2.0;stroke-dasharray:2.0,2.0;" x1="78.2651" x2="322.4458" y1="371.0547" y2="371.0547"/><text fill="#000000" font-family="sans-serif" font-size="13" font-weight="bold" lengthAdjust="spacing" textLength="9.0454" x="90.2651" y="365.9888">3</text><text fill="#000000" font-family="sans-serif" font-size="13" lengthAdjust="spacing" textLength="166.8545" x="103.3105" y="365.9888">422 Unprocessable Entity</text><line style="stroke:#999999;stroke-width:1.0;stroke-dasharray:2.0,2.0;" x1="10" x2="1871.9521" y1="380.0547" y2="380.0547"/><text fill="#000000" font-family="sans-serif" font-size="11" font-weight="bold" lengthAdjust="spacing" textLength="40.063" x="15" y="390.2651">[valid]</text><polygon fill="#181818" points="567.6797,410.9922,577.6797,414.9922,567.6797,418.9922,571.6797,414.9922" style="stroke:#181818;stroke-width:1.0;"/><line style="stroke:#181818;stroke-width:2.0;" x1="323.4458" x2="573.6797" y1="414.9922" y2="414.9922"/><text fill="#000000" font-family="sans-serif" font-size="13" font-weight="bold" lengthAdjust="spacing" textLength="9.0454" x="330.4458" y="409.9263">4</text><text fill="#000000" font-family="sans-serif" font-size="13" lengthAdjust="spacing" textLength="208.5776" x="343.4912" y="409.9263">resolve get_current_user(token)</text><path d="M24,429.9922 L84.4429,429.9922 L84.4429,437.125 L74.4429,447.125 L20,447.125 L20,433.9922 A4,4 0 0 1 24,429.9922 " fill="#EEEEEE" style="stroke:#999999;stroke-width:1.5;"/><rect fill="none" height="976.0625" rx="4" ry="4" style="stroke:#999999;stroke-width:1.5;" width="1841.9521" x="20" y="429.9922"/><text fill="#000000" font-family="sans-serif" font-size="13" font-weight="bold" lengthAdjust="spacing" textLength="19.4429" x="35" y="443.0591">alt</text><text fill="#000000" font-family="sans-serif" font-size="11" font-weight="bold" lengthAdjust="spacing" textLength="90.9165" x="99.4429" y="442.2026">[token invalid]</text><polygon fill="#181818" points="334.4458,464.2578,324.4458,468.2578,334.4458,472.2578,330.4458,468.2578" style="stroke:#181818;stroke-width:1.0;"/><line style="stroke:#181818;stroke-width:2.0;stroke-dasharray:2.0,2.0;" x1="328.4458" x2="578.6797" y1="468.2578" y2="468.2578"/><text fill="#000000" font-family="sans-serif" font-size="13" font-weight="bold" lengthAdjust="spacing" textLength="9.0454" x="340.4458" y="463.1919">5</text><text fill="#000000" font-family="sans-serif" font-size="13" lengthAdjust="spacing" textLength="189.6743" x="353.4912" y="463.1919">raises InvalidTokenException</text><polygon fill="#181818" points="84.2651,493.3906,74.2651,497.3906,84.2651,501.3906,80.2651,497.3906" style="stroke:#181818;stroke-width:1.0;"/><line style="stroke:#181818;stroke-width:2.0;stroke-dasharray:2.0,2.0;" x1="78.2651" x2="322.4458" y1="497.3906" y2="497.3906"/><text fill="#000000" font-family="sans-serif" font-size="13" font-weight="bold" lengthAdjust="spacing" textLength="9.0454" x="90.2651" y="492.3247">6</text><text fill="#000000" font-family="sans-serif" font-size="13" lengthAdjust="spacing" textLength="116.2256" x="103.3105" y="492.3247">401 Unauthorized</text><line style="stroke:#999999;stroke-width:1.0;stroke-dasharray:2.0,2.0;" x1="20" x2="1861.9521" y1="506.3906" y2="506.3906"/><text fill="#000000" font-family="sans-serif" font-size="11" font-weight="bold" lengthAdjust="spacing" textLength="79.3149" x="25" y="516.6011">[token valid]</text><polygon fill="#181818" points="334.4458,537.3281,324.4458,541.3281,334.4458,545.3281,330.4458,541.3281" style="stroke:#181818;stroke-width:1.0;"/><line style="stroke:#181818;stroke-width:2.0;stroke-dasharray:2.0,2.0;" x1="328.4458" x2="578.6797" y1="541.3281" y2="541.3281"/><text fill="#000000" font-family="sans-serif" font-size="13" font-weight="bold" lengthAdjust="spacing" textLength="9.0454" x="340.4458" y="536.2622">7</text><text fill="#000000" font-family="sans-serif" font-size="13" lengthAdjust="spacing" textLength="100.6294" x="353.4912" y="536.2622">current_user_id</text><polygon fill="#181818" points="715.1572,581.5938,725.1572,585.5938,715.1572,589.5938,719.1572,585.5938" style="stroke:#181818;stroke-width:1.0;"/><line style="stroke:#181818;stroke-width:2.0;" x1="323.4458" x2="721.1572" y1="585.5938" y2="585.5938"/><text fill="#000000" font-family="sans-serif" font-size="13" font-weight="bold" lengthAdjust="spacing" textLength="9.0454" x="330.4458" y="572.9614">8</text><text fill="#000000" font-family="sans-serif" font-size="13" lengthAdjust="spacing" textLength="134.8306" x="343.4912" y="565.395">UpdatePetCommand</text><text fill="#000000" font-family="sans-serif" font-size="13" lengthAdjust="spacing" textLength="283.0547" x="343.4912" y="580.5278">(pet_id, user_id, name?, last_name?, type?)</text><polygon fill="#181818" points="1428.0459,610.7266,1438.0459,614.7266,1428.0459,618.7266,1432.0459,614.7266" style="stroke:#181818;stroke-width:1.0;"/><line style="stroke:#181818;stroke-width:2.0;" x1="727.1572" x2="1434.0459" y1="614.7266" y2="614.7266"/><text fill="#000000" font-family="sans-serif" font-size="13" font-weight="bold" lengthAdjust="spacing" textLength="9.0454" x="734.1572" y="609.6606">9</text><text fill="#000000" font-family="sans-serif" font-size="13" lengthAdjust="spacing" textLength="115.3433" x="747.2026" y="609.6606">find_by_id(pet_id)</text><polygon fill="#181818" points="1794.103,639.8594,1804.103,643.8594,1794.103,647.8594,1798.103,643.8594" style="stroke:#181818;stroke-width:1.0;"/><line style="stroke:#181818;stroke-width:2.0;" x1="1440.0459" x2="1800.103" y1="643.8594" y2="643.8594"/><text fill="#000000" font-family="sans-serif" font-size="13" font-weight="bold" lengthAdjust="spacing" textLength="18.0908" x="1447.0459" y="638.7935">10</text><text fill="#000000" font-family="sans-serif" font-size="13" lengthAdjust="spacing" textLength="66.0728" x="1469.1367" y="638.7935">SELECT &#8230;</text><polygon fill="#181818" points="1451.0459,668.9922,1441.0459,672.9922,1451.0459,676.9922,1447.0459,672.9922" style="stroke:#181818;stroke-width:1.0;"/><line style="stroke:#181818;stroke-width:2.0;stroke-dasharray:2.0,2.0;" x1="1445.0459" x2="1805.103" y1="672.9922" y2="672.9922"/><text fill="#000000" font-family="sans-serif" font-size="13" font-weight="bold" lengthAdjust="spacing" textLength="18.0908" x="1457.0459" y="667.9263">11</text><text fill="#000000" font-family="sans-serif" font-size="13" lengthAdjust="spacing" textLength="106.666" x="1479.1367" y="667.9263">row or (no rows)</text><path d="M34,687.9922 L94.4429,687.9922 L94.4429,695.125 L84.4429,705.125 L30,705.125 L30,691.9922 A4,4 0 0 1 34,687.9922 " fill="#EEEEEE" style="stroke:#999999;stroke-width:1.5;"/><rect fill="none" height="711.0625" rx="4" ry="4" style="stroke:#999999;stroke-width:1.5;" width="1821.9521" x="30" y="687.9922"/><text fill="#000000" font-family="sans-serif" font-size="13" font-weight="bold" lengthAdjust="spacing" textLength="19.4429" x="45" y="701.0591">alt</text><text fill="#000000" font-family="sans-serif" font-size="11" font-weight="bold" lengthAdjust="spacing" textLength="94.832" x="109.4429" y="700.2026">[pet not found]</text><polygon fill="#181818" points="334.4458,722.2578,324.4458,726.2578,334.4458,730.2578,330.4458,726.2578" style="stroke:#181818;stroke-width:1.0;"/><line style="stroke:#181818;stroke-width:2.0;stroke-dasharray:2.0,2.0;" x1="328.4458" x2="726.1572" y1="726.2578" y2="726.2578"/><text fill="#000000" font-family="sans-serif" font-size="13" font-weight="bold" lengthAdjust="spacing" textLength="18.0908" x="340.4458" y="721.1919">12</text><text fill="#000000" font-family="sans-serif" font-size="13" lengthAdjust="spacing" textLength="190.6772" x="362.5366" y="721.1919">raises PetNotFoundException</text><polygon fill="#181818" points="84.2651,751.3906,74.2651,755.3906,84.2651,759.3906,80.2651,755.3906" style="stroke:#181818;stroke-width:1.0;"/><line style="stroke:#181818;stroke-width:2.0;stroke-dasharray:2.0,2.0;" x1="78.2651" x2="322.4458" y1="755.3906" y2="755.3906"/><text fill="#000000" font-family="sans-serif" font-size="13" font-weight="bold" lengthAdjust="spacing" textLength="18.0908" x="90.2651" y="750.3247">13</text><text fill="#000000" font-family="sans-serif" font-size="13" lengthAdjust="spacing" textLength="96.0146" x="112.356" y="750.3247">404 Not Found</text><line style="stroke:#999999;stroke-width:1.0;stroke-dasharray:2.0,2.0;" x1="30" x2="1851.9521" y1="764.3906" y2="764.3906"/><text fill="#000000" font-family="sans-serif" font-size="11" font-weight="bold" lengthAdjust="spacing" textLength="70.356" x="35" y="774.6011">[pet found]</text><polygon fill="#181818" points="738.1572,795.3281,728.1572,799.3281,738.1572,803.3281,734.1572,799.3281" style="stroke:#181818;stroke-width:1.0;"/><line style="stroke:#181818;stroke-width:2.0;stroke-dasharray:2.0,2.0;" x1="732.1572" x2="1439.0459" y1="799.3281" y2="799.3281"/><text fill="#000000" font-family="sans-serif" font-size="13" font-weight="bold" lengthAdjust="spacing" textLength="18.0908" x="744.1572" y="794.2622">14</text><text fill="#000000" font-family="sans-serif" font-size="13" lengthAdjust="spacing" textLength="21.3472" x="766.248" y="794.2622">pet</text><polygon fill="#181818" points="1271.8013,824.4609,1281.8013,828.4609,1271.8013,832.4609,1275.8013,828.4609" style="stroke:#181818;stroke-width:1.0;"/><line style="stroke:#181818;stroke-width:2.0;" x1="727.1572" x2="1277.8013" y1="828.4609" y2="828.4609"/><text fill="#000000" font-family="sans-serif" font-size="13" font-weight="bold" lengthAdjust="spacing" textLength="18.0908" x="734.1572" y="823.395">15</text><text fill="#000000" font-family="sans-serif" font-size="13" lengthAdjust="spacing" textLength="218.6577" x="756.248" y="823.395">pet.is_owned_by(current_user_id)</text><path d="M44,843.4609 L104.4429,843.4609 L104.4429,850.5938 L94.4429,860.5938 L40,860.5938 L40,847.4609 A4,4 0 0 1 44,843.4609 " fill="#EEEEEE" style="stroke:#999999;stroke-width:1.5;"/><rect fill="none" height="548.5938" rx="4" ry="4" style="stroke:#999999;stroke-width:1.5;" width="1801.9521" x="40" y="843.4609"/><text fill="#000000" font-family="sans-serif" font-size="13" font-weight="bold" lengthAdjust="spacing" textLength="19.4429" x="55" y="856.5278">alt</text><text fill="#000000" font-family="sans-serif" font-size="11" font-weight="bold" lengthAdjust="spacing" textLength="137.2905" x="119.4429" y="855.6714">[user is not an owner]</text><polygon fill="#181818" points="334.4458,877.7266,324.4458,881.7266,334.4458,885.7266,330.4458,881.7266" style="stroke:#181818;stroke-width:1.0;"/><line style="stroke:#181818;stroke-width:2.0;stroke-dasharray:2.0,2.0;" x1="328.4458" x2="726.1572" y1="881.7266" y2="881.7266"/><text fill="#000000" font-family="sans-serif" font-size="13" font-weight="bold" lengthAdjust="spacing" textLength="18.0908" x="340.4458" y="876.6606">16</text><text fill="#000000" font-family="sans-serif" font-size="13" lengthAdjust="spacing" textLength="218.5815" x="362.5366" y="876.6606">raises PetAccessDeniedException</text><polygon fill="#181818" points="84.2651,906.8594,74.2651,910.8594,84.2651,914.8594,80.2651,910.8594" style="stroke:#181818;stroke-width:1.0;"/><line style="stroke:#181818;stroke-width:2.0;stroke-dasharray:2.0,2.0;" x1="78.2651" x2="322.4458" y1="910.8594" y2="910.8594"/><text fill="#000000" font-family="sans-serif" font-size="13" font-weight="bold" lengthAdjust="spacing" textLength="18.0908" x="90.2651" y="905.7935">17</text><text fill="#000000" font-family="sans-serif" font-size="13" lengthAdjust="spacing" textLength="94.3262" x="112.356" y="905.7935">403 Forbidden</text><line style="stroke:#999999;stroke-width:1.0;stroke-dasharray:2.0,2.0;" x1="40" x2="1841.9521" y1="919.8594" y2="919.8594"/><text fill="#000000" font-family="sans-serif" font-size="11" font-weight="bold" lengthAdjust="spacing" textLength="112.8145" x="45" y="930.0698">[user is an owner]</text><path d="M649.9712,940.6641 L715.4224,940.6641 L715.4224,947.7969 L705.4224,957.7969 L645.9712,957.7969 L645.9712,944.6641 A4,4 0 0 1 649.9712,940.6641 " fill="#EEEEEE" style="stroke:#999999;stroke-width:1.5;"/><rect fill="none" height="134.7969" rx="4" ry="4" style="stroke:#999999;stroke-width:1.5;" width="718.4385" x="645.9712" y="940.6641"/><text fill="#000000" font-family="sans-serif" font-size="13" font-weight="bold" lengthAdjust="spacing" textLength="24.4512" x="660.9712" y="953.731">opt</text><text fill="#000000" font-family="sans-serif" font-size="11" font-weight="bold" lengthAdjust="spacing" textLength="186.3823" x="730.4224" y="952.8745">[name or last_name provided]</text><polygon fill="#181818" points="1000.1294,1005.1953,1010.1294,1009.1953,1000.1294,1013.1953,1004.1294,1009.1953" style="stroke:#181818;stroke-width:1.0;"/><line style="stroke:#181818;stroke-width:2.0;" x1="727.1572" x2="1006.1294" y1="1009.1953" y2="1009.1953"/><text fill="#000000" font-family="sans-serif" font-size="13" font-weight="bold" lengthAdjust="spacing" textLength="18.0908" x="734.1572" y="988.9966">18</text><text fill="#000000" font-family="sans-serif" font-size="13" lengthAdjust="spacing" textLength="64.3589" x="756.248" y="973.8638">PetName(</text><text fill="#000000" font-family="sans-serif" font-size="13" lengthAdjust="spacing" textLength="199.5068" x="764.5127" y="988.9966">first = name ?? pet.name.first,</text><text fill="#000000" font-family="sans-serif" font-size="13" lengthAdjust="spacing" textLength="230.6167" x="764.5127" y="1004.1294">last  = last_name ?? pet.name.last)</text><polygon fill="#181818" points="738.1572,1034.3281,728.1572,1038.3281,738.1572,1042.3281,734.1572,1038.3281" style="stroke:#181818;stroke-width:1.0;"/><line style="stroke:#181818;stroke-width:2.0;stroke-dasharray:2.0,2.0;" x1="732.1572" x2="1011.1294" y1="1038.3281" y2="1038.3281"/><text fill="#000000" font-family="sans-serif" font-size="13" font-weight="bold" lengthAdjust="spacing" textLength="18.0908" x="744.1572" y="1033.2622">19</text><text fill="#000000" font-family="sans-serif" font-size="13" lengthAdjust="spacing" textLength="82.5449" x="766.248" y="1033.2622">PetName VO</text><polygon fill="#181818" points="1271.8013,1063.4609,1281.8013,1067.4609,1271.8013,1071.4609,1275.8013,1067.4609" style="stroke:#181818;stroke-width:1.0;"/><line style="stroke:#181818;stroke-width:2.0;" x1="727.1572" x2="1277.8013" y1="1067.4609" y2="1067.4609"/><text fill="#000000" font-family="sans-serif" font-size="13" font-weight="bold" lengthAdjust="spacing" textLength="18.0908" x="734.1572" y="1062.395">20</text><text fill="#000000" font-family="sans-serif" font-size="13" lengthAdjust="spacing" textLength="156.0698" x="756.248" y="1062.395">pet.rename(new_name)</text><path d="M649.9712,1089.4609 L715.4224,1089.4609 L715.4224,1096.5938 L705.4224,1106.5938 L645.9712,1106.5938 L645.9712,1093.4609 A4,4 0 0 1 649.9712,1089.4609 " fill="#EEEEEE" style="stroke:#999999;stroke-width:1.5;"/><rect fill="none" height="104.5313" rx="4" ry="4" style="stroke:#999999;stroke-width:1.5;" width="718.4385" x="645.9712" y="1089.4609"/><text fill="#000000" font-family="sans-serif" font-size="13" font-weight="bold" lengthAdjust="spacing" textLength="24.4512" x="660.9712" y="1102.5278">opt</text><text fill="#000000" font-family="sans-serif" font-size="11" font-weight="bold" lengthAdjust="spacing" textLength="96.6528" x="730.4224" y="1101.6714">[type provided]</text><polygon fill="#181818" points="1130.8384,1123.7266,1140.8384,1127.7266,1130.8384,1131.7266,1134.8384,1127.7266" style="stroke:#181818;stroke-width:1.0;"/><line style="stroke:#181818;stroke-width:2.0;" x1="727.1572" x2="1136.8384" y1="1127.7266" y2="1127.7266"/><text fill="#000000" font-family="sans-serif" font-size="13" font-weight="bold" lengthAdjust="spacing" textLength="18.0908" x="734.1572" y="1122.6606">21</text><text fill="#000000" font-family="sans-serif" font-size="13" lengthAdjust="spacing" textLength="138.4043" x="756.248" y="1122.6606">PetType(value=type)</text><polygon fill="#181818" points="738.1572,1152.8594,728.1572,1156.8594,738.1572,1160.8594,734.1572,1156.8594" style="stroke:#181818;stroke-width:1.0;"/><line style="stroke:#181818;stroke-width:2.0;stroke-dasharray:2.0,2.0;" x1="732.1572" x2="1141.8384" y1="1156.8594" y2="1156.8594"/><text fill="#000000" font-family="sans-serif" font-size="13" font-weight="bold" lengthAdjust="spacing" textLength="18.0908" x="744.1572" y="1151.7935">22</text><text fill="#000000" font-family="sans-serif" font-size="13" lengthAdjust="spacing" textLength="76.0767" x="766.248" y="1151.7935">PetType VO</text><polygon fill="#181818" points="1271.8013,1181.9922,1281.8013,1185.9922,1271.8013,1189.9922,1275.8013,1185.9922" style="stroke:#181818;stroke-width:1.0;"/><line style="stroke:#181818;stroke-width:2.0;" x1="727.1572" x2="1277.8013" y1="1185.9922" y2="1185.9922"/><text fill="#000000" font-family="sans-serif" font-size="13" font-weight="bold" lengthAdjust="spacing" textLength="18.0908" x="734.1572" y="1180.9263">23</text><text fill="#000000" font-family="sans-serif" font-size="13" lengthAdjust="spacing" textLength="181.416" x="756.248" y="1180.9263">pet.change_type(new_type)</text><polygon fill="#181818" points="1428.0459,1218.125,1438.0459,1222.125,1428.0459,1226.125,1432.0459,1222.125" style="stroke:#181818;stroke-width:1.0;"/><line style="stroke:#181818;stroke-width:2.0;" x1="727.1572" x2="1434.0459" y1="1222.125" y2="1222.125"/><text fill="#000000" font-family="sans-serif" font-size="13" font-weight="bold" lengthAdjust="spacing" textLength="18.0908" x="734.1572" y="1217.0591">24</text><text fill="#000000" font-family="sans-serif" font-size="13" lengthAdjust="spacing" textLength="61.9214" x="756.248" y="1217.0591">save(pet)</text><polygon fill="#181818" points="1794.103,1262.3906,1804.103,1266.3906,1794.103,1270.3906,1798.103,1266.3906" style="stroke:#181818;stroke-width:1.0;"/><line style="stroke:#181818;stroke-width:2.0;" x1="1440.0459" x2="1800.103" y1="1266.3906" y2="1266.3906"/><text fill="#000000" font-family="sans-serif" font-size="13" font-weight="bold" lengthAdjust="spacing" textLength="18.0908" x="1447.0459" y="1253.7583">25</text><text fill="#000000" font-family="sans-serif" font-size="13" lengthAdjust="spacing" textLength="319.9663" x="1469.1367" y="1246.1919">UPDATE pets SET name=?, last_name=?, type=?</text><text fill="#000000" font-family="sans-serif" font-size="13" lengthAdjust="spacing" textLength="81.8784" x="1469.1367" y="1261.3247">WHERE id=?</text><polygon fill="#181818" points="1451.0459,1291.5234,1441.0459,1295.5234,1451.0459,1299.5234,1447.0459,1295.5234" style="stroke:#181818;stroke-width:1.0;"/><line style="stroke:#181818;stroke-width:2.0;stroke-dasharray:2.0,2.0;" x1="1445.0459" x2="1805.103" y1="1295.5234" y2="1295.5234"/><text fill="#000000" font-family="sans-serif" font-size="13" font-weight="bold" lengthAdjust="spacing" textLength="18.0908" x="1457.0459" y="1290.4575">26</text><text fill="#000000" font-family="sans-serif" font-size="13" lengthAdjust="spacing" textLength="18.7573" x="1479.1367" y="1290.4575">OK</text><polygon fill="#181818" points="334.4458,1320.6563,324.4458,1324.6563,334.4458,1328.6563,330.4458,1324.6563" style="stroke:#181818;stroke-width:1.0;"/><line style="stroke:#181818;stroke-width:2.0;stroke-dasharray:2.0,2.0;" x1="328.4458" x2="726.1572" y1="1324.6563" y2="1324.6563"/><text fill="#000000" font-family="sans-serif" font-size="13" font-weight="bold" lengthAdjust="spacing" textLength="18.0908" x="340.4458" y="1319.5903">27</text><text fill="#000000" font-family="sans-serif" font-size="13" lengthAdjust="spacing" textLength="112.3281" x="362.5366" y="1319.5903">PetDto (updated)</text><polygon fill="#181818" points="84.2651,1380.0547,74.2651,1384.0547,84.2651,1388.0547,80.2651,1384.0547" style="stroke:#181818;stroke-width:1.0;"/><line style="stroke:#181818;stroke-width:2.0;stroke-dasharray:2.0,2.0;" x1="78.2651" x2="322.4458" y1="1384.0547" y2="1384.0547"/><text fill="#000000" font-family="sans-serif" font-size="13" font-weight="bold" lengthAdjust="spacing" textLength="18.0908" x="90.2651" y="1363.856">28</text><text fill="#000000" font-family="sans-serif" font-size="13" lengthAdjust="spacing" textLength="47.7026" x="112.356" y="1348.7231">200 OK</text><text fill="#000000" font-family="sans-serif" font-size="13" lengthAdjust="spacing" textLength="184.4883" x="112.356" y="1363.856">{ "id", "name", "last_name",</text><text fill="#000000" font-family="sans-serif" font-size="13" lengthAdjust="spacing" textLength="138.9312" x="120.6206" y="1378.9888">"type", "owner_ids" }</text><!--SRC=[ZLNlRjf84F_kfnZHBo2HDCdrT4rKG12WoLtLS2dfVK52Ypt0NiokkxjEobML-X3t37smFidDh0tOXYPd1AntVpFpcx_hf8iHxf98E8GHElZnxLyOTSUNL_0oGMTVVf7Hro2mzr8bmeWLMFoKeWgnQun-72zbUA_GMZWhG8nELHHgez30wmEY8s6S36KYbEjf4w6vrB4syE9N_pmZ8CBxXJUG2msx_3aWz9PGIKd_kNyAKAKTbX0z_rGHUoQ7m_xWjo0GeQFNorYYSa4mqv-XDZ9ewKqugLKDNWm6mrV3NW2Gx3o06iLrIleScXe82xT-MGKj21Icnf2sQMhHJDIRDn4cg29oRjrkUz5kwfPzJ0BQ1RAVa-WcIIp33GTY-tfmMbMVPPmIVYLK5ETCydL5NL-lXFIQJadJULKJwNWlLiZyFeeuHRYP_OsXondcfnzl3eYDryaJOdnwK8n5kek5mGNNxAtM1Q61SjAjAmvSgxaHrfaqTAb1TgGtEAS4LbH_-1HB7v9RJBILbDjrbXzwtMcai8cPi4ZuFzyHtaFwFQg6r6cLhcOKlo2h2JXgvyc5YxsUcYXEdZRo7v-e2-YXC8J4zU_BsTjG_lZsVQA-G4rHz6gT2pAt595-h3Kd2g0Map_JxT5xkLYwH6mE7KNExxDVIyxjru0B6GpZGC_pcYLMtJY6kSGuig0JvY7YuucwMKddCDgS42-8SUuWLU5Ig0L6nq6GErPqaV8e_HnX_-3kxhe_KQDrH2Ha23PSuaf0NMcOnKBT0oL4geLj129s8DK32tiXeARA8Du-F71vKB8s5idabl-hipEuKudH8GqXCQDHjgc0c5BaTHOasvk68KbgL1q_85JxhExqFQe6IJ4l_x9XHtkmrN1KzDm8QT72TOORiz3WSuW-ebxg8FUJK-8kyYf0LkzPPpQViLYaF2LWoKfxqya4t3RwfLwjQ7UYwZn_PDI4NBO9N4YT9coBYjPSGvr6fdQZZErJBv3IkLJHTBOcuLnP8xFFfuJgzmZpOV1kS3cc- -IxFwEzevq2kZiupLmDjBIv8OuuwUEf2tCUk7wtGE10p7d0Q3TaT3daFmlwAo0y3BVgVSpPQj5Yvaafa0G9gdpQkvcJ8OwbdUf7XHoTUYL7ZLoQlUGjaDPxAXImYCcFdtMt6tAnzr59t7FvPqx_GWwRcOpeyiYHtkqDZJqAD0nyLN2IjcK1r6SFCi9e2wk68XlrFEsoTPtdqLmQww2LwUjqV9XuVUmF_CXY4q2GdQaYZdSR1PixG-KCvVlWRut314kvekGmHuMFtkRE10txe1GAxeRdlSzkh8m8h-j-ShLOk48_H-xHv_t_JJ-RnLDMxtqesodviD_1LZmWz-vEeDIyTwD-TpnWCvOQUUnprogEY5O-8rgTYVhhQd0x01crEbjbvMw_-IDukhZ9jRxJK4_zi8eQJrRpsSa9QVINeungpVoAR1OlnS8zIFk-jAa1BL-4k-Zi_lcNl_y1]--></g></svg>