<svg xmlns="http://www.w3.org/2000/svg" xmlns:xlink="http://www.w3.org/1999/xlink" contentStyleType="text/css" height="1217px" preserveAspectRatio="none" style="width:1632px;height:1217px;background:#FFFFFF;" version="1.1" viewBox="0 0 1632 1217" width="1632px" zoomAndPan="magnify"><defs/><g><text fill="#000000" font-family="sans-serif" font-size="14" font-weight="bold" lengthAdjust="spacing" textLength="249.8467" x="692.3101" y="27.9951">Delete Pet &#8212; DELETE /pets/{id}</text><rect fill="#EEF4FB" height="1168.4609" rx="4" ry="4" style="stroke:#181818;stroke-width:0.5;" width="363.4355" x="275.9248" y="43.2969"/><text fill="#000000" font-family="sans-serif" font-size="13" font-weight="bold" lengthAdjust="spacing" textLength="94.4087" x="410.4382" y="55.3638">Presentation</text><rect fill="#FFF8E1" height="1168.4609" rx="4" ry="4" style="stroke:#181818;stroke-width:0.5;" width="145.6689" x="641.3604" y="43.2969"/><text fill="#000000" font-family="sans-serif" font-size="13" font-weight="bold" lengthAdjust="spacing" textLength="82.9194" x="672.7351" y="55.3638">Application</text><rect fill="#F1F8E9" height="1168.4609" rx="4" ry="4" style="stroke:#181818;stroke-width:0.5;" width="149.2168" x="904.335" y="43.2969"/><text fill="#000000" font-family="sans-serif" font-size="13" font-weight="bold" lengthAdjust="spacing" textLength="55.7515" x="951.0676" y="55.3638">Domain</text><rect fill="#FBE9E7" height="1168.4609" rx="4" ry="4" style="stroke:#181818;stroke-width:0.5;" width="159.2725" x="1055.5518" y="43.2969"/><text fill="#000000" font-family="sans-serif" font-size="13" font-weight="bold" lengthAdjust="spacing" textLength="102.9526" x="1083.7117" y="55.3638">Infrastructure</text><rect fill="none" height="893.4688" rx="4" ry="4" style="stroke:#999999;stroke-width:1.5;" width="1615.4668" x="10" y="221.9922"/><rect fill="none" height="789.2656" rx="4" ry="4" style="stroke:#999999;stroke-width:1.5;" width="1595.4668" x="20" y="319.1953"/><rect fill="none" height="539.3984" rx="4" ry="4" style="stroke:#999999;stroke-width:1.5;" width="1575.4668" x="30" y="562.0625"/><rect fill="none" height="376.9297" rx="4" ry="4" style="stroke:#999999;stroke-width:1.5;" width="1555.4668" x="40" y="717.5313"/><line style="stroke:#181818;stroke-width:0.5;stroke-dasharray:5.0,5.0;" x1="73" x2="73" y1="118.5938" y2="1132.4609"/><line style="stroke:#181818;stroke-width:0.5;stroke-dasharray:5.0,5.0;" x1="322.9248" x2="322.9248" y1="118.5938" y2="1132.4609"/><line style="stroke:#181818;stroke-width:0.5;stroke-dasharray:5.0,5.0;" x1="568.7773" x2="568.7773" y1="118.5938" y2="1132.4609"/><line style="stroke:#181818;stroke-width:0.5;stroke-dasharray:5.0,5.0;" x1="713.3604" x2="713.3604" y1="118.5938" y2="1132.4609"/><line style="stroke:#181818;stroke-width:0.5;stroke-dasharray:5.0,5.0;" x1="978.335" x2="978.335" y1="118.5938" y2="1132.4609"/><line style="stroke:#181818;stroke-width:0.5;stroke-dasharray:5.0,5.0;" x1="1134.5518" x2="1134.5518" y1="118.5938" y2="1132.4609"/><line style="stroke:#181818;stroke-width:0.5;stroke-dasharray:5.0,5.0;" x1="1351.2769" x2="1351.2769" y1="118.5938" y2="1132.4609"/><text fill="#000000" font-family="sans-serif" font-size="14" lengthAdjust="spacing" textLength="40.5303" x="50" y="115.292">Client</text><ellipse cx="73.2651" cy="50.7969" fill="#E2E2F0" rx="8" ry="8" style="stroke:#181818;stroke-width:0.5;"/><path d="M73.2651,58.7969 L73.2651,85.7969 M60.2651,66.7969 L86.2651,66.7969 M73.2651,85.7969 L60.2651,100.7969 M73.2651,85.7969 L86.2651,100.7969 " fill="none" style="stroke:#181818;stroke-width:0.5;"/><text fill="#000000" font-family="sans-serif" font-size="14" lengthAdjust="spacing" textLength="40.5303" x="50" y="1144.4561">Client</text><ellipse cx="73.2651" cy="1156.2578" fill="#E2E2F0" rx="8" ry="8" style="stroke:#181818;stroke-width:0.5;"/><path d="M73.2651,1164.2578 L73.2651,1191.2578 M60.2651,1172.2578 L86.2651,1172.2578 M73.2651,1191.2578 L60.2651,1206.2578 M73.2651,1191.2578 L86.2651,1206.2578 " fill="none" style="stroke:#181818;stroke-width:0.5;"/><rect fill="#FAFAFA" height="30.2969" rx="4" ry="4" style="stroke:#555555;stroke-width:0.5;" width="87.042" x="279.9248" y="87.2969"/><text fill="#000000" font-family="sans-serif" font-size="14" lengthAdjust="spacing" textLength="73.042" x="286.9248" y="107.292">pet_router</text><rect fill="#FAFAFA" height="30.2969" rx="4" ry="4" style="stroke:#555555;stroke-width:0.5;" width="87.042" x="279.9248" y="1131.4609"/><text fill="#000000" font-family="sans-serif" font-size="14" lengthAdjust="spacing" textLength="73.042" x="286.9248" y="1151.4561">pet_router</text><rect fill="#FAFAFA" height="46.5938" rx="4" ry="4" style="stroke:#555555;stroke-width:0.5;" width="132.583" x="502.7773" y="71"/><text fill="#000000" font-family="sans-serif" font-size="14" lengthAdjust="spacing" textLength="118.583" x="509.7773" y="90.9951">get_current_user</text><text fill="#000000" font-family="sans-serif" font-size="14" lengthAdjust="spacing" textLength="103.3594" x="517.3892" y="107.292">&#171;dependency&#187;</text><rect fill="#FAFAFA" height="46.5938" rx="4" ry="4" style="stroke:#555555;stroke-width:0.5;" width="132.583" x="502.7773" y="1131.4609"/><text fill="#000000" font-family="sans-serif" font-size="14" lengthAdjust="spacing" textLength="118.583" x="509.7773" y="1151.4561">get_current_user</text><text fill="#000000" font-family="sans-serif" font-size="14" lengthAdjust="spacing" textLength="103.3594" x="517.3892" y="1167.7529">&#171;dependency&#187;</text><rect fill="#FAFAFA" height="30.2969" rx="4" ry="4" style="stroke:#555555;stroke-width:0.5;" width="137.6689" x="645.3604" y="87.2969"/><text fill="#000000" font-family="sans-serif" font-size="14" lengthAdjust="spacing" textLength="123.6689" x="652.3604" y="107.292">DeletePetHandler</text><rect fill="#FAFAFA" height="30.2969" rx="4" ry="4" style="stroke:#555555;stroke-width:0.5;" width="137.6689" x="645.3604" y="1131.4609"/><text fill="#000000" font-family="sans-serif" font-size="14" lengthAdjust="spacing" textLength="123.6689" x="652.3604" y="1151.4561">DeletePetHandler</text><rect fill="#FAFAFA" height="46.5938" rx="4" ry="4" style="stroke:#555555;stroke-width:0.5;" width="141.2168" x="908.335" y="71"/><text fill="#000000" font-family="sans-serif" font-size="14" lengthAdjust="spacing" textLength="22.5449" x="967.6709" y="90.9951">Pet</text><text fill="#000000" font-family="sans-serif" font-size="14" lengthAdjust="spacing" textLength="127.2168" x="915.335" y="107.292">&#171;Aggregate Root&#187;</text><rect fill="#FAFAFA" height="46.5938" rx="4" ry="4" style="stroke:#555555;stroke-width:0.5;" width="141.2168" x="908.335" y="1131.4609"/><text fill="#000000" font-family="sans-serif" font-size="14" lengthAdjust="spacing" textLength="22.5449" x="967.6709" y="1151.4561">Pet</text><text fill="#000000" font-family="sans-serif" font-size="14" lengthAdjust="spacing" textLength="127.2168" x="915.335" y="1167.7529">&#171;Aggregate Root&#187;</text><rect fill="#FAFAFA" height="30.2969" rx="4" ry="4" style="stroke:#555555;stroke-width:0.5;" width="151.2725" x="1059.5518" y="87.2969"/><text fill="#000000" font-family="sans-serif" font-size="14" lengthAdjust="spacing" textLength="137.2725" x="1066.5518" y="107.292">SqlitePetRepository</text><rect fill="#FAFAFA" height="30.2969" rx="4" ry="4" style="stroke:#555555;stroke-width:0.5;" width="151.2725" x="1059.5518" y="1131.4609"/><text fill="#000000" font-family="sans-serif" font-size="14" lengthAdjust="spacing" textLength="137.2725" x="1066.5518" y="1151.4561">SqlitePetRepository</text><text fill="#000000" font-family="sans-serif" font-size="14" lengthAdjust="spacing" textLength="45.6982" x="1326.2769" y="115.292">SQLite</text><path d="M1334.126,66.2969 C1334.126,56.2969 1352.126,56.2969 1352.126,56.2969 C1352.126,56.2969 1370.126,56.2969 1370.126,66.2969 L1370.126,92.2969 C1370.126,102.2969 1352.126,102.2969 1352.126,102.2969 C1352.126,102.2969 1334.126,102.2969 1334.126,92.2969 L1334.126,66.2969 " fill="#E2E2F0" style="stroke:#181818;stroke-width:1.5;"/><path d="M1334.126,66.2969 C1334.126,76.2969 1352.126,76.2969 1352.126,76.2969 C1352.126,76.2969 1370.126,76.2969 1370.126,66.2969 " fill="none" style="stroke:#181818;stroke-width:1.5;"/><text fill="#000000" font-family="sans-serif" font-size="14" lengthAdjust="spacing" textLength="45.6982" x="1326.2769" y="1144.4561">SQLite</text><path d="M1334.126,1157.7578 C1334.126,1147.7578 1352.126,1147.7578 1352.126,1147.7578 C1352.126,1147.7578 1370.126,1147.7578 1370.126,1157.7578 L1370.126,1183.7578 C1370.126,1193.7578 1352.126,1193.7578 1352.126,1193.7578 C1352.126,1193.7578 1334.126,1193.7578 1334.126,1183.7578 L1334.126,1157.7578 " fill="#E2E2F0" style="stroke:#181818;stroke-width:1.5;"/><path d="M1334.126,1157.7578 C1334.126,1167.7578 1352.126,1167.7578 1352.126,1167.7578 C1352.126,1167.7578 1370.126,1167.7578 1370.126,1157.7578 " fill="none" style="stroke:#181818;stroke-width:1.5;"/><polygon fill="#181818" points="311.4458,160.8594,321.4458,164.8594,311.4458,168.8594,315.4458,164.8594" style="stroke:#181818;stroke-width:1.0;"/><line style="stroke:#181818;stroke-width:2.0;" x1="73.2651" x2="317.4458" y1="164.8594" y2="164.8594"/><text fill="#000000" font-family="sans-serif" font-size="13" font-weight="bold" lengthAdjust="spacing" textLength="9.0454" x="80.2651" y="152.2271">1</text><text fill="#000000" font-family="sans-serif" font-size="13" lengthAdjust="spacing" textLength="119.2534" x="93.3105" y="144.6606">DELETE /pets/{id}</text><text fill="#000000" font-family="sans-serif" font-size="13" lengthAdjust="spacing" textLength="213.1353" x="93.3105" y="159.7935">Authorization: Bearer eyJhbGci&#8230;</text><line style="stroke:#181818;stroke-width:2.0;" x1="323.4458" x2="365.4458" y1="193.9922" y2="193.9922"/><line style="stroke:#181818;stroke-width:2.0;" x1="365.4458" x2="365.4458" y1="193.9922" y2="206.9922"/><line style="stroke:#181818;stroke-width:2.0;" x1="324.4458" x2="365.4458" y1="206.9922" y2="206.9922"/><polygon fill="#181818" points="334.4458,202.9922,324.4458,206.9922,334.4458,210.9922,330.4458,206.9922" style="stroke:#181818;stroke-width:1.0;"/><text fill="#000000" font-family="sans-serif" font-size="13" font-weight="bold" lengthAdjust="spacing" textLength="9.0454" x="330.4458" y="188.9263">2</text><text fill="#000000" font-family="sans-serif" font-size="13" lengthAdjust="spacing" textLength="122.9414" x="343.4912" y="188.9263">Validate {id} UUID</text><path d="M14,221.9922 L74.4429,221.9922 L74.4429,229.125 L64.4429,239.125 L10,239.125 L10,225.9922 A4,4 0 0 1 14,221.9922 " fill="#EEEEEE" style="stroke:#999999;stroke-width:1.5;"/><rect fill="none" height="893.4688" rx="4" ry="4" style="stroke:#999999;stroke-width:1.5;" width="1615.4668" x="10" y="221.9922"/><text fill="#000000" font-family="sans-serif" font-size="13" font-weight="bold" lengthAdjust="spacing" textLength="19.4429" x="25" y="235.0591">alt</text><text fill="#000000" font-family="sans-serif" font-size="11" font-weight="bold" lengthAdjust="spacing" textLength="86.582" x="89.4429" y="234.2026">[invalid UUID]</text><polygon fill="#181818" points="84.2651,256.2578,74.2651,260.2578,84.2651,264.2578,80.2651,260.2578" style="stroke:#181818;stroke-width:1.0;"/><line style="stroke:#181818;stroke-width:2.0;stroke-dasharray:2.0,2.0;" x1="78.2651" x2="322.4458" y1="260.2578" y2="260.2578"/><text fill="#000000" font-family="sans-serif" font-size="13" font-weight="bold" lengthAdjust="spacing" textLength="9.0454" x="90.2651" y="255.1919">3</text><text fill="#000000" font-family="sans-serif" font-size="13" lengthAdjust="spacing" textLength="166.8545" x="103.3105" y="255.1919">422 Unprocessable Entity</text><line style="stroke:#999999;stroke-width:1.0;stroke-dasharray:2.0,2.0;" x1="10" x2="1625.4668" y1="269.2578" y2="269.2578"/><text fill="#000000" font-family="sans-serif" font-size="11" font-weight="bold" lengthAdjust="spacing" textLength="74.9805" x="15" y="279.4683">[valid UUID]</text><polygon fill="#181818" points="557.0688,300.1953,567.0688,304.1953,557.0688,308.1953,561.0688,304.1953" style="stroke:#181818;stroke-width:1.0;"/><line style="stroke:#181818;stroke-width:2.0;" x1="323.4458" x2="563.0688" y1="304.1953" y2="304.1953"/><text fill="#000000" font-family="sans-serif" font-size="13" font-weight="bold" lengthAdjust="spacing" textLength="9.0454" x="330.4458" y="299.1294">4</text><text fill="#000000" font-family="sans-serif" font-size="13" lengthAdjust="spacing" textLength="208.5776" x="343.4912" y="299.1294">resolve get_current_user(token)</text><path d="M24,319.1953 L84.4429,319.1953 L84.4429,326.3281 L74.4429,336.3281 L20,336.3281 L20,323.1953 A4,4 0 0 1 24,319.1953 " fill="#EEEEEE" style="stroke:#999999;stroke-width:1.5;"/><rect fill="none" height="789.2656" rx="4" ry="4" style="stroke:#999999;stroke-width:1.5;" width="1595.4668" x="20" y="319.1953"/><text fill="#000000" font-family="sans-serif" font-size="13" font-weight="bold" lengthAdjust="spacing" textLength="19.4429" x="35" y="332.2622">alt</text><text fill="#000000" font-family="sans-serif" font-size="11" font-weight="bold" lengthAdjust="spacing" textLength="90.9165" x="99.4429" y="331.4058">[token invalid]</text><polygon fill="#181818" points="334.4458,353.4609,324.4458,357.4609,334.4458,361.4609,330.4458,357.4609" style="stroke:#181818;stroke-width:1.0;"/><line style="stroke:#181818;stroke-width:2.0;stroke-dasharray:2.0,2.0;" x1="328.4458" x2="568.0688" y1="357.4609" y2="357.4609"/><text fill="#000000" font-family="sans-serif" font-size="13" font-weight="bold" lengthAdjust="spacing" textLength="9.0454" x="340.4458" y="352.395">5</text><text fill="#000000" font-family="sans-serif" font-size="13" lengthAdjust="spacing" textLength="189.6743" x="353.4912" y="352.395">raises InvalidTokenException</text><polygon fill="#181818" points="84.2651,382.5938,74.2651,386.5938,84.2651,390.5938,80.2651,386.5938" style="stroke:#181818;stroke-width:1.0;"/><line style="stroke:#181818;stroke-width:2.0;stroke-dasharray:2.0,2.0;" x1="78.2651" x2="322.4458" y1="386.5938" y2="386.5938"/><text fill="#000000" font-family="sans-serif" font-size="13" font-weight="bold" lengthAdjust="spacing" textLength="9.0454" x="90.2651" y="381.5278">6</text><text fill="#000000" font-family="sans-serif" font-size="13" lengthAdjust="spacing" textLength="116.2256" x="103.3105" y="381.5278">401 Unauthorized</text><line style="stroke:#999999;stroke-width:1.0;stroke-dasharray:2.0,2.0;" x1="20" x2="1615.4668" y1="395.5938" y2="395.5938"/><text fill="#000000" font-family="sans-serif" font-size="11" font-weight="bold" lengthAdjust="spacing" textLength="79.3149" x="25" y="405.8042">[token valid]</text><polygon fill="#181818" points="334.4458,426.5313,324.4458,430.5313,334.4458,434.5313,330.4458,430.5313" style="stroke:#181818;stroke-width:1.0;"/><line style="stroke:#181818;stroke-width:2.0;stroke-dasharray:2.0,2.0;" x1="328.4458" x2="568.0688" y1="430.5313" y2="430.5313"/><text fill="#000000" font-family="sans-serif" font-size="13" font-weight="bold" lengthAdjust="spacing" textLength="9.0454" x="340.4458" y="425.4653">7</text><text fill="#000000" font-family="sans-serif" font-size="13" lengthAdjust="spacing" textLength="100.6294" x="353.4912" y="425.4653">current_user_id</text><polygon fill="#181818" points="702.1948,455.6641,712.1948,459.6641,702.1948,463.6641,706.1948,459.6641" style="stroke:#181818;stroke-width:1.0;"/><line style="stroke:#181818;stroke-width:2.0;" x1="323.4458" x2="708.1948" y1="459.6641" y2="459.6641"/><text fill="#000000" font-family="sans-serif" font-size="13" font-weight="bold" lengthAdjust="spacing" textLength="9.0454" x="330.4458" y="454.5981">8</text><text fill="#000000" font-family="sans-serif" font-size="13" lengthAdjust="spacing" textLength="235.3013" x="343.4912" y="454.5981">DeletePetCommand(pet_id, user_id)</text><polygon fill="#181818" points="1123.188,484.7969,1133.188,488.7969,1123.188,492.7969,1127.188,488.7969" style="stroke:#181818;stroke-width:1.0;"/><line style="stroke:#181818;stroke-width:2.0;" x1="714.1948" x2="1129.188" y1="488.7969" y2="488.7969"/><text fill="#000000" font-family="sans-serif" font-size="13" font-weight="bold" lengthAdjust="spacing" textLength="9.0454" x="721.1948" y="483.731">9</text><text fill="#000000" font-family="sans-serif" font-size="13" lengthAdjust="spacing" textLength="115.3433" x="734.2402" y="483.731">find_by_id(pet_id)</text><polygon fill="#181818" points="1340.126,513.9297,1350.126,517.9297,1340.126,521.9297,1344.126,517.9297" style="stroke:#181818;stroke-width:1.0;"/><line style="stroke:#181818;stroke-width:2.0;" x1="1135.188" x2="1346.126" y1="517.9297" y2="517.9297"/><text fill="#000000" font-family="sans-serif" font-size="13" font-weight="bold" lengthAdjust="spacing" textLength="18.0908" x="1142.188" y="512.8638">10</text><text fill="#000000" font-family="sans-serif" font-size="13" lengthAdjust="spacing" textLength="66.0728" x="1164.2788" y="512.8638">SELECT &#8230;</text><polygon fill="#181818" points="1146.188,543.0625,1136.188,547.0625,1146.188,551.0625,1142.188,547.0625" style="stroke:#181818;stroke-width:1.0;"/><line style="stroke:#181818;stroke-width:2.0;stroke-dasharray:2.0,2.0;" x1="1140.188" x2="1351.126" y1="547.0625" y2="547.0625"/><text fill="#000000" font-family="sans-serif" font-size="13" font-weight="bold" lengthAdjust="spacing" textLength="18.0908" x="1152.188" y="541.9966">11</text><text fill="#000000" font-family="sans-serif" font-size="13" lengthAdjust="spacing" textLength="106.666" x="1174.2788" y="541.9966">row or (no rows)</text><path d="M34,562.0625 L94.4429,562.0625 L94.4429,569.1953 L84.4429,579.1953 L30,579.1953 L30,566.0625 A4,4 0 0 1 34,562.0625 " fill="#EEEEEE" style="stroke:#999999;stroke-width:1.5;"/><rect fill="none" height="539.3984" rx="4" ry="4" style="stroke:#999999;stroke-width:1.5;" width="1575.4668" x="30" y="562.0625"/><text fill="#000000" font-family="sans-serif" font-size="13" font-weight="bold" lengthAdjust="spacing" textLength="19.4429" x="45" y="575.1294">alt</text><text fill="#000000" font-family="sans-serif" font-size="11" font-weight="bold" lengthAdjust="spacing" textLength="94.832" x="109.4429" y="574.2729">[pet not found]</text><polygon fill="#181818" points="334.4458,596.3281,324.4458,600.3281,334.4458,604.3281,330.4458,600.3281" style="stroke:#181818;stroke-width:1.0;"/><line style="stroke:#181818;stroke-width:2.0;stroke-dasharray:2.0,2.0;" x1="328.4458" x2="713.1948" y1="600.3281" y2="600.3281"/><text fill="#000000" font-family="sans-serif" font-size="13" font-weight="bold" lengthAdjust="spacing" textLength="18.0908" x="340.4458" y="595.2622">12</text><text fill="#000000" font-family="sans-serif" font-size="13" lengthAdjust="spacing" textLength="190.6772" x="362.5366" y="595.2622">raises PetNotFoundException</text><polygon fill="#181818" points="84.2651,625.4609,74.2651,629.4609,84.2651,633.4609,80.2651,629.4609" style="stroke:#181818;stroke-width:1.0;"/><line style="stroke:#181818;stroke-width:2.0;stroke-dasharray:2.0,2.0;" x1="78.2651" x2="322.4458" y1="629.4609" y2="629.4609"/><text fill="#000000" font-family="sans-serif" font-size="13" font-weight="bold" lengthAdjust="spacing" textLength="18.0908" x="90.2651" y="624.395">13</text><text fill="#000000" font-family="sans-serif" font-size="13" lengthAdjust="spacing" textLength="96.0146" x="112.356" y="624.395">404 Not Found</text><line style="stroke:#999999;stroke-width:1.0;stroke-dasharray:2.0,2.0;" x1="30" x2="1605.4668" y1="638.4609" y2="638.4609"/><text fill="#000000" font-family="sans-serif" font-size="11" font-weight="bold" lengthAdjust="spacing" textLength="70.356" x="35" y="648.6714">[pet found]</text><polygon fill="#181818" points="725.1948,669.3984,715.1948,673.3984,725.1948,677.3984,721.1948,673.3984" style="stroke:#181818;stroke-width:1.0;"/><line style="stroke:#181818;stroke-width:2.0;stroke-dasharray:2.0,2.0;" x1="719.1948" x2="1134.188" y1="673.3984" y2="673.3984"/><text fill="#000000" font-family="sans-serif" font-size="13" font-weight="bold" lengthAdjust="spacing" textLength="18.0908" x="731.1948" y="668.3325">14</text><text fill="#000000" font-family="sans-serif" font-size="13" lengthAdjust="spacing" textLength="21.3472" x="753.2856" y="668.3325">pet</text><polygon fill="#181818" points="966.9434,698.5313,976.9434,702.5313,966.9434,706.5313,970.9434,702.5313" style="stroke:#181818;stroke-width:1.0;"/><line style="stroke:#181818;stroke-width:2.0;" x1="714.1948" x2="972.9434" y1="702.5313" y2="702.5313"/><text fill="#000000" font-family="sans-serif" font-size="13" font-weight="bold" lengthAdjust="spacing" textLength="18.0908" x="721.1948" y="697.4653">15</text><text fill="#000000" font-family="sans-serif" font-size="13" lengthAdjust="spacing" textLength="218.6577" x="743.2856" y="697.4653">pet.is_owned_by(current_user_id)</text><path d="M44,717.5313 L104.4429,717.5313 L104.4429,724.6641 L94.4429,734.6641 L40,734.6641 L40,721.5313 A4,4 0 0 1 44,717.5313 " fill="#EEEEEE" style="stroke:#999999;stroke-width:1.5;"/><rect fill="none" height="376.9297" rx="4" ry="4" style="stroke:#999999;stroke-width:1.5;" width="1555.4668" x="40" y="717.5313"/><text fill="#000000" font-family="sans-serif" font-size="13" font-weight="bold" lengthAdjust="spacing" textLength="19.4429" x="55" y="730.5981">alt</text><text fill="#000000" font-family="sans-serif" font-size="11" font-weight="bold" lengthAdjust="spacing" textLength="137.2905" x="119.4429" y="729.7417">[user is not an owner]</text><polygon fill="#181818" points="334.4458,751.7969,324.4458,755.7969,334.4458,759.7969,330.4458,755.7969" style="stroke:#181818;stroke-width:1.0;"/><line style="stroke:#181818;stroke-width:2.0;stroke-dasharray:2.0,2.0;" x1="328.4458" x2="713.1948" y1="755.7969" y2="755.7969"/><text fill="#000000" font-family="sans-serif" font-size="13" font-weight="bold" lengthAdjust="spacing" textLength="18.0908" x="340.4458" y="750.731">16</text><text fill="#000000" font-family="sans-serif" font-size="13" lengthAdjust="spacing" textLength="218.5815" x="362.5366" y="750.731">raises PetAccessDeniedException</text><polygon fill="#181818" points="84.2651,780.9297,74.2651,784.9297,84.2651,788.9297,80.2651,784.9297" style="stroke:#181818;stroke-width:1.0;"/><line style="stroke:#181818;stroke-width:2.0;stroke-dasharray:2.0,2.0;" x1="78.2651" x2="322.4458" y1="784.9297" y2="784.9297"/><text fill="#000000" font-family="sans-serif" font-size="13" font-weight="bold" lengthAdjust="spacing" textLength="18.0908" x="90.2651" y="779.8638">17</text><text fill="#000000" font-family="sans-serif" font-size="13" lengthAdjust="spacing" textLength="94.3262" x="112.356" y="779.8638">403 Forbidden</text><line style="stroke:#999999;stroke-width:1.0;stroke-dasharray:2.0,2.0;" x1="40" x2="1595.4668" y1="793.9297" y2="793.9297"/><text fill="#000000" font-family="sans-serif" font-size="11" font-weight="bold" lengthAdjust="spacing" textLength="112.8145" x="45" y="804.1401">[user is an owner]</text><polygon fill="#181818" points="1123.188,824.8672,1133.188,828.8672,1123.188,832.8672,1127.188,828.8672" style="stroke:#181818;stroke-width:1.0;"/><line style="stroke:#181818;stroke-width:2.0;" x1="714.1948" x2="1129.188" y1="828.8672" y2="828.8672"/><text fill="#000000" font-family="sans-serif" font-size="13" font-weight="bold" lengthAdjust="spacing" textLength="18.0908" x="721.1948" y="823.8013">18</text><text fill="#000000" font-family="sans-serif" font-size="13" lengthAdjust="spacing" textLength="90.8096" x="743.2856" y="823.8013">delete(pet_id)</text><polygon fill="#181818" points="1340.126,929.6641,1350.126,933.6641,1340.126,937.6641,1344.126,933.6641" style="stroke:#181818;stroke-width:1.0;"/><line style="stroke:#181818;stroke-width:2.0;" x1="1135.188" x2="1346.126" y1="933.6641" y2="933.6641"/><text fill="#000000" font-family="sans-serif" font-size="13" font-weight="bold" lengthAdjust="spacing" textLength="18.0908" x="1142.188" y="890.7661">19</text><text fill="#000000" font-family="sans-serif" font-size="13" lengthAdjust="spacing" textLength="167.7051" x="1164.2788" y="852.9341">DELETE FROM pet_events</text><text fill="#000000" font-family="sans-serif" font-size="13" lengthAdjust="spacing" textLength="117.9902" x="1164.2788" y="868.0669">WHERE pet_id = ?</text><text fill="#000000" font-family="sans-serif" font-size="13" lengthAdjust="spacing" textLength="170.8472" x="1164.2788" y="883.1997">DELETE FROM pet_owners</text><text fill="#000000" font-family="sans-serif" font-size="13" lengthAdjust="spacing" textLength="117.9902" x="1164.2788" y="898.3325">WHERE pet_id = ?</text><text fill="#000000" font-family="sans-serif" font-size="13" lengthAdjust="spacing" textLength="124.1792" x="1164.2788" y="913.4653">DELETE FROM pets</text><text fill="#000000" font-family="sans-serif" font-size="13" lengthAdjust="spacing" textLength="90.1431" x="1164.2788" y="928.5981">WHERE id = ?</text><path d="M1357,950.6641 L1357,997.6641 A4,4 0 0 0 1361,1001.6641 L1581,1001.6641 A4,4 0 0 0 1585,997.6641 L1585,956.6641 L1575,946.6641 L1361,946.6641 A4,4 0 0 0 1357,950.6641 " fill="#FFFDE7" style="stroke:#BBBBBB;stroke-width:0.5;"/><path d="M1575,946.6641 L1575,954.6641 A2,2 0 0 0 1577,956.6641 L1585,956.6641 L1575,946.6641 " fill="#FFFDE7" style="stroke:#BBBBBB;stroke-width:0.5;"/><text fill="#000000" font-family="sans-serif" font-size="13" lengthAdjust="spacing" textLength="166.3086" x="1363" y="963.731">All associated events and</text><text fill="#000000" font-family="sans-serif" font-size="13" lengthAdjust="spacing" textLength="207.4668" x="1363" y="978.8638">ownership records are removed</text><text fill="#000000" font-family="sans-serif" font-size="13" lengthAdjust="spacing" textLength="158.5518" x="1363" y="993.9966">in the same transaction.</text><polygon fill="#181818" points="1146.188,1024.1953,1136.188,1028.1953,1146.188,1032.1953,1142.188,1028.1953" style="stroke:#181818;stroke-width:1.0;"/><line style="stroke:#181818;stroke-width:2.0;stroke-dasharray:2.0,2.0;" x1="1140.188" x2="1351.126" y1="1028.1953" y2="1028.1953"/><text fill="#000000" font-family="sans-serif" font-size="13" font-weight="bold" lengthAdjust="spacing" textLength="18.0908" x="1152.188" y="1023.1294">20</text><text fill="#000000" font-family="sans-serif" font-size="13" lengthAdjust="spacing" textLength="18.7573" x="1174.2788" y="1023.1294">OK</text><polygon fill="#181818" points="334.4458,1053.3281,324.4458,1057.3281,334.4458,1061.3281,330.4458,1057.3281" style="stroke:#181818;stroke-width:1.0;"/><line style="stroke:#181818;stroke-width:2.0;stroke-dasharray:2.0,2.0;" x1="328.4458" x2="713.1948" y1="1057.3281" y2="1057.3281"/><text fill="#000000" font-family="sans-serif" font-size="13" font-weight="bold" lengthAdjust="spacing" textLength="18.0908" x="340.4458" y="1052.2622">21</text><text fill="#000000" font-family="sans-serif" font-size="13" lengthAdjust="spacing" textLength="13" x="362.5366" y="1052.2622">&#8212;</text><polygon fill="#181818" points="84.2651,1082.4609,74.2651,1086.4609,84.2651,1090.4609,80.2651,1086.4609" style="stroke:#181818;stroke-width:1.0;"/><line style="stroke:#181818;stroke-width:2.0;stroke-dasharray:2.0,2.0;" x1="78.2651" x2="322.4458" y1="1086.4609" y2="1086.4609"/><text fill="#000000" font-family="sans-serif" font-size="13" font-weight="bold" lengthAdjust="spacing" textLength="18.0908" x="90.2651" y="1081.395">22</text><text fill="#000000" font-family="sans-serif" font-size="13" lengthAdjust="spacing" textLength="102.4575" x="112.356" y="1081.395">204 No Content</text><!--SRC=[ZLNjJjim5FsVfxY2Fo2DCHZJ06sTsYRTs1UimFQdKkKcbzOYjOFji7NJ91vYpx07svFiNiSfRIXZGK1YdtFkkHzEd7GvGemvEeGJTF3dvXV4oVlaB87j0ftT_Y6pdr5aBwKgX15Ji7XLeagnROp-UZQHwQL2Qs5t0M9qgR9K6uK6zbTGJuHnCfM5KAwZJOQcgtDjOFsPlnuWYFHox0C4Kg_DFoj8hmbLBEaV-6i1ghJ39KJ7Nqt4dP2zNfmyZoAHEdhivXALYwAH_WPh9mOjFGadjLg3zIJfxVKw4K1ncm6iKLs7fEVGh86mqFUtJT2OG6bf3AaDIujce5wyoB10bL5oirRBKzkbcyHOHBGA53-OQ1T5BjFQ0xdTJtQQybNBgUDlXChou2JSD-HYFHNIA-sGqa5JYJJOMtiyDZWMD4PzhLtmHtk9SjBD6f97wi88wqoPkj8WItUI0offG_hqAfVUP1yBRILLUrPLZ1vl5JFXn4XO9FodzuJtaBX3_IcTLkLqH1b5LPTWgnNA3OTtntoWk9xQoE- -TeVGGM48YhEtaz7hLFwv-Hr5WRuez5daCkFCMGJEpu_YIEGEfBhcZMe1QlWMCOEPGzZRtOLpLHYTqXaI8pgATRboocSblLKtdUWqR3g_HcZEoeRJbwWsYSK-_4FjXjPWhh2rc8KHqgA5emftngJaMue5byApLYRmP8SI4A5ioFBUUXNpWOYBbeS4N8hIggUHErKFQrTFfxIwmIT8PeyWC3ShQatW63GXHBoGAXkEPWG9bCqg1kyIAkuGvfJ6e7i6t5pUexMjMm5wnm6TyGsb-TQ6G5nLqkEt0rpmYy6lBXXOKLTo_r6x7gENotfVOVU0yD2Ro_kwSjJ5Y5KcIyKYIDJqqxezYHNYiRH3_LKXLsUZqOVDmEOiUGcazPaA1KmnOVl1TDifJtMCIkATbEzB-YabR4OoevTSGFgqQnltMvXtBFEpijJkEoqF9x_NF_x0nHZYDSMt0_NbJT9FeAB2ItWrK4saZ_u_o3ccsf_xu0yA63cUED0NbPjsdjCRo-fKqZiaWyeCfPeDL1Lk8WiwwlH1pMZP41sd-XffMofm4mGhfdJYZ52MlaXKuyVpQCl3VFmk-dVlwEF_p_xi-g64hbQEFtcXGVLy-l_ybt__0W00]--></g></svg>