<svg xmlns="http://www.w3.org/2000/svg" xmlns:xlink="http://www.w3.org/1999/xlink" contentStyleType="text/css" height="1527px" preserveAspectRatio="none" style="width:1708px;height:1527px;background:#FFFFFF;" version="1.1" viewBox="0 0 1708 1527" width="1708px" zoomAndPan="magnify"><defs/><g><text fill="#000000" font-family="sans-serif" font-size="14" font-weight="bold" lengthAdjust="spacing" textLength="299.2568" x="705.8391" y="27.9951">Add Owner &#8212; POST /pets/{id}/owners</text><rect fill="#EEF4FB" height="1477.7266" rx="4" ry="4" style="stroke:#181818;stroke-width:0.5;" width="400.2749" x="347.4717" y="43.2969"/><text fill="#000000" font-family="sans-serif" font-size="13" font-weight="bold" lengthAdjust="spacing" textLength="94.4087" x="500.4048" y="55.3638">Presentation</text><rect fill="#FFF8E1" height="1477.7266" rx="4" ry="4" style="stroke:#181818;stroke-width:0.5;" width="150.1875" x="749.7466" y="43.2969"/><text fill="#000000" font-family="sans-serif" font-size="13" font-weight="bold" lengthAdjust="spacing" textLength="82.9194" x="783.3806" y="55.3638">Application</text><rect fill="#F1F8E9" height="1477.7266" rx="4" ry="4" style="stroke:#181818;stroke-width:0.5;" width="149.2168" x="1014.9805" y="43.2969"/><text fill="#000000" font-family="sans-serif" font-size="13" font-weight="bold" lengthAdjust="spacing" textLength="55.7515" x="1061.7131" y="55.3638">Domain</text><rect fill="#FBE9E7" height="1477.7266" rx="4" ry="4" style="stroke:#181818;stroke-width:0.5;" width="329.9102" x="1166.1973" y="43.2969"/><text fill="#000000" font-family="sans-serif" font-size="13" font-weight="bold" lengthAdjust="spacing" textLength="102.9526" x="1279.676" y="55.3638">Infrastructure</text><rect fill="none" height="1172.4688" rx="4" ry="4" style="stroke:#999999;stroke-width:1.5;" width="1691.9351" x="10" y="252.2578"/><rect fill="none" height="1068.2656" rx="4" ry="4" style="stroke:#999999;stroke-width:1.5;" width="1671.9351" x="20" y="349.4609"/><rect fill="none" height="803.2656" rx="4" ry="4" style="stroke:#999999;stroke-width:1.5;" width="1651.9351" x="30" y="607.4609"/><rect fill="none" height="640.7969" rx="4" ry="4" style="stroke:#999999;stroke-width:1.5;" width="1631.9351" x="40" y="762.9297"/><rect fill="none" height="434.0625" rx="4" ry="4" style="stroke:#999999;stroke-width:1.5;" width="1611.9351" x="50" y="962.6641"/><line style="stroke:#181818;stroke-width:0.5;stroke-dasharray:5.0,5.0;" x1="83" x2="83" y1="118.5938" y2="1441.7266"/><line style="stroke:#181818;stroke-width:0.5;stroke-dasharray:5.0,5.0;" x1="394.4717" x2="394.4717" y1="118.5938" y2="1441.7266"/><line style="stroke:#181818;stroke-width:0.5;stroke-dasharray:5.0,5.0;" x1="677.1636" x2="677.1636" y1="118.5938" y2="1441.7266"/><line style="stroke:#181818;stroke-width:0.5;stroke-dasharray:5.0,5.0;" x1="824.7466" x2="824.7466" y1="118.5938" y2="1441.7266"/><line style="stroke:#181818;stroke-width:0.5;stroke-dasharray:5.0,5.0;" x1="1088.9805" x2="1088.9805" y1="118.5938" y2="1441.7266"/><line style="stroke:#181818;stroke-width:0.5;stroke-dasharray:5.0,5.0;" x1="1245.1973" x2="1245.1973" y1="118.5938" y2="1441.7266"/><line style="stroke:#181818;stroke-width:0.5;stroke-dasharray:5.0,5.0;" x1="1411.4697" x2="1411.4697" y1="118.5938" y2="1441.7266"/><line style="stroke:#181818;stroke-width:0.5;stroke-dasharray:5.0,5.0;" x1="1625.2368" x2="1625.2368" y1="118.5938" y2="1441.7266"/><text fill="#000000" font-family="sans-serif" font-size="14" lengthAdjust="spacing" textLength="40.5303" x="60" y="115.292">Client</text><ellipse cx="83.2651" cy="50.7969" fill="#E2E2F0" rx="8" ry="8" style="stroke:#181818;stroke-width:0.5;"/><path d="M83.2651,58.7969 L83.2651,85.7969 M70.2651,66.7969 L96.2651,66.7969 M83.2651,85.7969 L70.2651,100.7969 M83.2651,85.7969 L96.2651,100.7969 " fill="none" style="stroke:#181818;stroke-width:0.5;"/><text fill="#000000" font-family="sans-serif" font-size="14" lengthAdjust="spacing" textLength="40.5303" x="60" y="1453.7217">Client</text><ellipse cx="83.2651" cy="1465.5234" fill="#E2E2F0" rx="8" ry="8" style="stroke:#181818;stroke-width:0.5;"/><path d="M83.2651,1473.5234 L83.2651,1500.5234 M70.2651,1481.5234 L96.2651,1481.5234 M83.2651,1500.5234 L70.2651,1515.5234 M83.2651,1500.5234 L96.2651,1515.5234 " fill="none" style="stroke:#181818;stroke-width:0.5;"/><rect fill="#FAFAFA" height="30.2969" rx="4" ry="4" style="stroke:#555555;stroke-width:0.5;" width="87.042" x="351.4717" y="87.2969"/><text fill="#000000" font-family="sans-serif" font-size="14" lengthAdjust="spacing" textLength="73.042" x="358.4717" y="107.292">pet_router</text><rect fill="#FAFAFA" height="30.2969" rx="4" ry="4" style="stroke:#555555;stroke-width:0.5;" width="87.042" x="351.4717" y="1440.7266"/><text fill="#000000" font-family="sans-serif" font-size="14" lengthAdjust="spacing" textLength="73.042" x="358.4717" y="1460.7217">pet_router</text><rect fill="#FAFAFA" height="46.5938" rx="4" ry="4" style="stroke:#555555;stroke-width:0.5;" width="132.583" x="611.1636" y="71"/><text fill="#000000" font-family="sans-serif" font-size="14" lengthAdjust="spacing" textLength="118.583" x="618.1636" y="90.9951">get_current_user</text><text fill="#000000" font-family="sans-serif" font-size="14" lengthAdjust="spacing" textLength="103.3594" x="625.7754" y="107.292">&#171;dependency&#187;</text><rect fill="#FAFAFA" height="46.5938" rx="4" ry="4" style="stroke:#555555;stroke-width:0.5;" width="132.583" x="611.1636" y="1440.7266"/><text fill="#000000" font-family="sans-serif" font-size="14" lengthAdjust="spacing" textLength="118.583" x="618.1636" y="1460.7217">get_current_user</text><text fill="#000000" font-family="sans-serif" font-size="14" lengthAdjust="spacing" textLength="103.3594" x="625.7754" y="1477.0186">&#171;dependency&#187;</text><rect fill="#FAFAFA" height="30.2969" rx="4" ry="4" style="stroke:#555555;stroke-width:0.5;" width="142.1875" x="753.7466" y="87.2969"/><text fill="#000000" font-family="sans-serif" font-size="14" lengthAdjust="spacing" textLength="128.1875" x="760.7466" y="107.292">AddOwnerHandler</text><rect fill="#FAFAFA" height="30.2969" rx="4" ry="4" style="stroke:#555555;stroke-width:0.5;" width="142.1875" x="753.7466" y="1440.7266"/><text fill="#000000" font-family="sans-serif" font-size="14" lengthAdjust="spacing" textLength="128.1875" x="760.7466" y="1460.7217">AddOwnerHandler</text><rect fill="#FAFAFA" height="46.5938" rx="4" ry="4" style="stroke:#555555;stroke-width:0.5;" width="141.2168" x="1018.9805" y="71"/><text fill="#000000" font-family="sans-serif" font-size="14" lengthAdjust="spacing" textLength="22.5449" x="1078.3164" y="90.9951">Pet</text><text fill="#000000" font-family="sans-serif" font-size="14" lengthAdjust="spacing" textLength="127.2168" x="1025.9805" y="107.292">&#171;Aggregate Root&#187;</text><rect fill="#FAFAFA" height="46.5938" rx="4" ry="4" style="stroke:#555555;stroke-width:0.5;" width="141.2168" x="1018.9805" y="1440.7266"/><text fill="#000000" font-family="sans-serif" font-size="14" lengthAdjust="spacing" textLength="22.5449" x="1078.3164" y="1460.7217">Pet</text><text fill="#000000" font-family="sans-serif" font-size="14" lengthAdjust="spacing" textLength="127.2168" x="1025.9805" y="1477.0186">&#171;Aggregate Root&#187;</text><rect fill="#FAFAFA" height="30.2969" rx="4" ry="4" style="stroke:#555555;stroke-width:0.5;" width="151.2725" x="1170.1973" y="87.2969"/><text fill="#000000" font-family="sans-serif" font-size="14" lengthAdjust="spacing" textLength="137.2725" x="1177.1973" y="107.292">SqlitePetRepository</text><rect fill="#FAFAFA" height="30.2969" rx="4" ry="4" style="stroke:#555555;stroke-width:0.5;" width="151.2725" x="1170.1973" y="1440.7266"/><text fill="#000000" font-family="sans-serif" font-size="14" lengthAdjust="spacing" textLength="137.2725" x="1177.1973" y="1460.7217">SqlitePetRepository</text><rect fill="#FAFAFA" height="30.2969" rx="4" ry="4" style="stroke:#555555;stroke-width:0.5;" width="160.6377" x="1331.4697" y="87.2969"/><text fill="#000000" font-family="sans-serif" font-size="14" lengthAdjust="spacing" textLength="146.6377" x="1338.4697" y="107.292">SqliteUserRepository</text><rect fill="#FAFAFA" height="30.2969" rx="4" ry="4" style="stroke:#555555;stroke-width:0.5;" width="160.6377" x="1331.4697" y="1440.7266"/><text fill="#000000" font-family="sans-serif" font-size="14" lengthAdjust="spacing" textLength="146.6377" x="1338.4697" y="1460.7217">SqliteUserRepository</text><text fill="#000000" font-family="sans-serif" font-size="14" lengthAdjust="spacing" textLength="45.6982" x="1600.2368" y="115.292">SQLite</text><path d="M1608.0859,66.2969 C1608.0859,56.2969 1626.0859,56.2969 1626.0859,56.2969 C1626.0859,56.2969 1644.0859,56.2969 1644.0859,66.2969 L1644.0859,92.2969 C1644.0859,102.2969 1626.0859,102.2969 1626.0859,102.2969 C1626.0859,102.2969 1608.0859,102.2969 1608.0859,92.2969 L1608.0859,66.2969 " fill="#E2E2F0" style="stroke:#181818;stroke-width:1.5;"/><path d="M1608.0859,66.2969 C1608.0859,76.2969 1626.0859,76.2969 1626.0859,76.2969 C1626.0859,76.2969 1644.0859,76.2969 1644.0859,66.2969 " fill="none" style="stroke:#181818;stroke-width:1.5;"/><text fill="#000000" font-family="sans-serif" font-size="14" lengthAdjust="spacing" textLength="45.6982" x="1600.2368" y="1453.7217">SQLite</text><path d="M1608.0859,1467.0234 C1608.0859,1457.0234 1626.0859,1457.0234 1626.0859,1457.0234 C1626.0859,1457.0234 1644.0859,1457.0234 1644.0859,1467.0234 L1644.0859,1493.0234 C1644.0859,1503.0234 1626.0859,1503.0234 1626.0859,1503.0234 C1626.0859,1503.0234 1608.0859,1503.0234 1608.0859,1493.0234 L1608.0859,1467.0234 " fill="#E2E2F0" style="stroke:#181818;stroke-width:1.5;"/><path d="M1608.0859,1467.0234 C1608.0859,1477.0234 1626.0859,1477.0234 1626.0859,1477.0234 C1626.0859,1477.0234 1644.0859,1477.0234 1644.0859,1467.0234 " fill="none" style="stroke:#181818;stroke-width:1.5;"/><polygon fill="#181818" points="382.9927,175.9922,392.9927,179.9922,382.9927,183.9922,386.9927,179.9922" style="stroke:#181818;stroke-width:1.0;"/><line style="stroke:#181818;stroke-width:2.0;" x1="83.2651" x2="388.9927" y1="179.9922" y2="179.9922"/><text fill="#000000" font-family="sans-serif" font-size="13" font-weight="bold" lengthAdjust="spacing" textLength="9.0454" x="90.2651" y="159.7935">1</text><text fill="#000000" font-family="sans-serif" font-size="13" lengthAdjust="spacing" textLength="155.0034" x="103.3105" y="144.6606">POST /pets/{id}/owners</text><text fill="#000000" font-family="sans-serif" font-size="13" lengthAdjust="spacing" textLength="213.1353" x="103.3105" y="159.7935">Authorization: Bearer eyJhbGci&#8230;</text><text fill="#000000" font-family="sans-serif" font-size="13" lengthAdjust="spacing" textLength="146.9165" x="103.3105" y="174.9263">{ "username": "bob" }</text><line style="stroke:#181818;stroke-width:2.0;" x1="394.9927" x2="436.9927" y1="224.2578" y2="224.2578"/><line style="stroke:#181818;stroke-width:2.0;" x1="436.9927" x2="436.9927" y1="224.2578" y2="237.2578"/><line style="stroke:#181818;stroke-width:2.0;" x1="395.9927" x2="436.9927" y1="237.2578" y2="237.2578"/><polygon fill="#181818" points="405.9927,233.2578,395.9927,237.2578,405.9927,241.2578,401.9927,237.2578" style="stroke:#181818;stroke-width:1.0;"/><text fill="#000000" font-family="sans-serif" font-size="13" font-weight="bold" lengthAdjust="spacing" textLength="9.0454" x="401.9927" y="211.6255">2</text><text fill="#000000" font-family="sans-serif" font-size="13" lengthAdjust="spacing" textLength="122.9414" x="415.0381" y="204.0591">Validate {id} UUID</text><text fill="#000000" font-family="sans-serif" font-size="13" lengthAdjust="spacing" textLength="255.417" x="415.0381" y="219.1919">Pydantic schema (username not blank)</text><path d="M14,252.2578 L74.4429,252.2578 L74.4429,259.3906 L64.4429,269.3906 L10,269.3906 L10,256.2578 A4,4 0 0 1 14,252.2578 " fill="#EEEEEE" style="stroke:#999999;stroke-width:1.5;"/><rect fill="none" height="1172.4688" rx="4" ry="4" style="stroke:#999999;stroke-width:1.5;" width="1691.9351" x="10" y="252.2578"/><text fill="#000000" font-family="sans-serif" font-size="13" font-weight="bold" lengthAdjust="spacing" textLength="19.4429" x="25" y="265.3247">alt</text><text fill="#000000" font-family="sans-serif" font-size="11" font-weight="bold" lengthAdjust="spacing" textLength="206.7065" x="89.4429" y="264.4683">[invalid UUID or blank username]</text><polygon fill="#181818" points="94.2651,286.5234,84.2651,290.5234,94.2651,294.5234,90.2651,290.5234" style="stroke:#181818;stroke-width:1.0;"/><line style="stroke:#181818;stroke-width:2.0;stroke-dasharray:2.0,2.0;" x1="88.2651" x2="393.9927" y1="290.5234" y2="290.5234"/><text fill="#000000" font-family="sans-serif" font-size="13" font-weight="bold" lengthAdjust="spacing" textLength="9.0454" x="100.2651" y="285.4575">3</text><text fill="#000000" font-family="sans-serif" font-size="13" lengthAdjust="spacing" textLength="166.8545" x="113.3105" y="285.4575">422 Unprocessable Entity</text><line style="stroke:#999999;stroke-width:1.0;stroke-dasharray:2.0,2.0;" x1="10" x2="1701.9351" y1="299.5234" y2="299.5234"/><text fill="#000000" font-family="sans-serif" font-size="11" font-weight="bold" lengthAdjust="spacing" textLength="40.063" x="15" y="309.7339">[valid]</text><polygon fill="#181818" points="665.4551,330.4609,675.4551,334.4609,665.4551,338.4609,669.4551,334.4609" style="stroke:#181818;stroke-width:1.0;"/><line style="stroke:#181818;stroke-width:2.0;" x1="394.9927" x2="671.4551" y1="334.4609" y2="334.4609"/><text fill="#000000" font-family="sans-serif" font-size="13" font-weight="bold" lengthAdjust="spacing" textLength="9.0454" x="401.9927" y="329.395">4</text><text fill="#000000" font-family="sans-serif" font-size="13" lengthAdjust="spacing" textLength="208.5776" x="415.0381" y="329.395">resolve get_current_user(token)</text><path d="M24,349.4609 L84.4429,349.4609 L84.4429,356.5938 L74.4429,366.5938 L20,366.5938 L20,353.4609 A4,4 0 0 1 24,349.4609 " fill="#EEEEEE" style="stroke:#999999;stroke-width:1.5;"/><rect fill="none" height="1068.2656" rx="4" ry="4" style="stroke:#999999;stroke-width:1.5;" width="1671.9351" x="20" y="349.4609"/><text fill="#000000" font-family="sans-serif" font-size="13" font-weight="bold" lengthAdjust="spacing" textLength="19.4429" x="35" y="362.5278">alt</text><text fill="#000000" font-family="sans-serif" font-size="11" font-weight="bold" lengthAdjust="spacing" textLength="90.9165" x="99.4429" y="361.6714">[token invalid]</text><polygon fill="#181818" points="405.9927,383.7266,395.9927,387.7266,405.9927,391.7266,401.9927,387.7266" style="stroke:#181818;stroke-width:1.0;"/><line style="stroke:#181818;stroke-width:2.0;stroke-dasharray:2.0,2.0;" x1="399.9927" x2="676.4551" y1="387.7266" y2="387.7266"/><text fill="#000000" font-family="sans-serif" font-size="13" font-weight="bold" lengthAdjust="spacing" textLength="9.0454" x="411.9927" y="382.6606">5</text><text fill="#000000" font-family="sans-serif" font-size="13" lengthAdjust="spacing" textLength="189.6743" x="425.0381" y="382.6606">raises InvalidTokenException</text><polygon fill="#181818" points="94.2651,412.8594,84.2651,416.8594,94.2651,420.8594,90.2651,416.8594" style="stroke:#181818;stroke-width:1.0;"/><line style="stroke:#181818;stroke-width:2.0;stroke-dasharray:2.0,2.0;" x1="88.2651" x2="393.9927" y1="416.8594" y2="416.8594"/><text fill="#000000" font-family="sans-serif" font-size="13" font-weight="bold" lengthAdjust="spacing" textLength="9.0454" x="100.2651" y="411.7935">6</text><text fill="#000000" font-family="sans-serif" font-size="13" lengthAdjust="spacing" textLength="116.2256" x="113.3105" y="411.7935">401 Unauthorized</text><line style="stroke:#999999;stroke-width:1.0;stroke-dasharray:2.0,2.0;" x1="20" x2="1691.9351" y1="425.8594" y2="425.8594"/><text fill="#000000" font-family="sans-serif" font-size="11" font-weight="bold" lengthAdjust="spacing" textLength="79.3149" x="25" y="436.0698">[token valid]</text><polygon fill="#181818" points="405.9927,456.7969,395.9927,460.7969,405.9927,464.7969,401.9927,460.7969" style="stroke:#181818;stroke-width:1.0;"/><line style="stroke:#181818;stroke-width:2.0;stroke-dasharray:2.0,2.0;" x1="399.9927" x2="676.4551" y1="460.7969" y2="460.7969"/><text fill="#000000" font-family="sans-serif" font-size="13" font-weight="bold" lengthAdjust="spacing" textLength="9.0454" x="411.9927" y="455.731">7</text><text fill="#000000" font-family="sans-serif" font-size="13" lengthAdjust="spacing" textLength="100.6294" x="425.0381" y="455.731">current_user_id</text><polygon fill="#181818" points="812.8403,501.0625,822.8403,505.0625,812.8403,509.0625,816.8403,505.0625" style="stroke:#181818;stroke-width:1.0;"/><line style="stroke:#181818;stroke-width:2.0;" x1="394.9927" x2="818.8403" y1="505.0625" y2="505.0625"/><text fill="#000000" font-family="sans-serif" font-size="13" font-weight="bold" lengthAdjust="spacing" textLength="9.0454" x="401.9927" y="492.4302">8</text><text fill="#000000" font-family="sans-serif" font-size="13" lengthAdjust="spacing" textLength="134.6592" x="415.0381" y="484.8638">AddOwnerCommand</text><text fill="#000000" font-family="sans-serif" font-size="13" lengthAdjust="spacing" textLength="259.27" x="415.0381" y="499.9966">(pet_id, requester_id, target_username)</text><polygon fill="#181818" points="1233.8335,530.1953,1243.8335,534.1953,1233.8335,538.1953,1237.8335,534.1953" style="stroke:#181818;stroke-width:1.0;"/><line style="stroke:#181818;stroke-width:2.0;" x1="824.8403" x2="1239.8335" y1="534.1953" y2="534.1953"/><text fill="#000000" font-family="sans-serif" font-size="13" font-weight="bold" lengthAdjust="spacing" textLength="9.0454" x="831.8403" y="529.1294">9</text><text fill="#000000" font-family="sans-serif" font-size="13" lengthAdjust="spacing" textLength="115.3433" x="844.8857" y="529.1294">find_by_id(pet_id)</text><polygon fill="#181818" points="1614.0859,559.3281,1624.0859,563.3281,1614.0859,567.3281,1618.0859,563.3281" style="stroke:#181818;stroke-width:1.0;"/><line style="stroke:#181818;stroke-width:2.0;" x1="1245.8335" x2="1620.0859" y1="563.3281" y2="563.3281"/><text fill="#000000" font-family="sans-serif" font-size="13" font-weight="bold" lengthAdjust="spacing" textLength="18.0908" x="1252.8335" y="558.2622">10</text><text fill="#000000" font-family="sans-serif" font-size="13" lengthAdjust="spacing" textLength="66.0728" x="1274.9243" y="558.2622">SELECT &#8230;</text><polygon fill="#181818" points="1256.8335,588.4609,1246.8335,592.4609,1256.8335,596.4609,1252.8335,592.4609" style="stroke:#181818;stroke-width:1.0;"/><line style="stroke:#181818;stroke-width:2.0;stroke-dasharray:2.0,2.0;" x1="1250.8335" x2="1625.0859" y1="592.4609" y2="592.4609"/><text fill="#000000" font-family="sans-serif" font-size="13" font-weight="bold" lengthAdjust="spacing" textLength="18.0908" x="1262.8335" y="587.395">11</text><text fill="#000000" font-family="sans-serif" font-size="13" lengthAdjust="spacing" textLength="106.666" x="1284.9243" y="587.395">row or (no rows)</text><path d="M34,607.4609 L94.4429,607.4609 L94.4429,614.5938 L84.4429,624.5938 L30,624.5938 L30,611.4609 A4,4 0 0 1 34,607.4609 " fill="#EEEEEE" style="stroke:#999999;stroke-width:1.5;"/><rect fill="none" height="803.2656" rx="4" ry="4" style="stroke:#999999;stroke-width:1.5;" width="1651.9351" x="30" y="607.4609"/><text fill="#000000" font-family="sans-serif" font-size="13" font-weight="bold" lengthAdjust="spacing" textLength="19.4429" x="45" y="620.5278">alt</text><text fill="#000000" font-family="sans-serif" font-size="11" font-weight="bold" lengthAdjust="spacing" textLength="94.832" x="109.4429" y="619.6714">[pet not found]</text><polygon fill="#181818" points="405.9927,641.7266,395.9927,645.7266,405.9927,649.7266,401.9927,645.7266" style="stroke:#181818;stroke-width:1.0;"/><line style="stroke:#181818;stroke-width:2.0;stroke-dasharray:2.0,2.0;" x1="399.9927" x2="823.8403" y1="645.7266" y2="645.7266"/><text fill="#000000" font-family="sans-serif" font-size="13" font-weight="bold" lengthAdjust="spacing" textLength="18.0908" x="411.9927" y="640.6606">12</text><text fill="#000000" font-family="sans-serif" font-size="13" lengthAdjust="spacing" textLength="190.6772" x="434.0835" y="640.6606">raises PetNotFoundException</text><polygon fill="#181818" points="94.2651,670.8594,84.2651,674.8594,94.2651,678.8594,90.2651,674.8594" style="stroke:#181818;stroke-width:1.0;"/><line style="stroke:#181818;stroke-width:2.0;stroke-dasharray:2.0,2.0;" x1="88.2651" x2="393.9927" y1="674.8594" y2="674.8594"/><text fill="#000000" font-family="sans-serif" font-size="13" font-weight="bold" lengthAdjust="spacing" textLength="18.0908" x="100.2651" y="669.7935">13</text><text fill="#000000" font-family="sans-serif" font-size="13" lengthAdjust="spacing" textLength="96.0146" x="122.356" y="669.7935">404 Not Found</text><line style="stroke:#999999;stroke-width:1.0;stroke-dasharray:2.0,2.0;" x1="30" x2="1681.9351" y1="683.8594" y2="683.8594"/><text fill="#000000" font-family="sans-serif" font-size="11" font-weight="bold" lengthAdjust="spacing" textLength="70.356" x="35" y="694.0698">[pet found]</text><polygon fill="#181818" points="835.8403,714.7969,825.8403,718.7969,835.8403,722.7969,831.8403,718.7969" style="stroke:#181818;stroke-width:1.0;"/><line style="stroke:#181818;stroke-width:2.0;stroke-dasharray:2.0,2.0;" x1="829.8403" x2="1244.8335" y1="718.7969" y2="718.7969"/><text fill="#000000" font-family="sans-serif" font-size="13" font-weight="bold" lengthAdjust="spacing" textLength="18.0908" x="841.8403" y="713.731">14</text><text fill="#000000" font-family="sans-serif" font-size="13" lengthAdjust="spacing" textLength="21.3472" x="863.9312" y="713.731">pet</text><polygon fill="#181818" points="1077.5889,743.9297,1087.5889,747.9297,1077.5889,751.9297,1081.5889,747.9297" style="stroke:#181818;stroke-width:1.0;"/><line style="stroke:#181818;stroke-width:2.0;" x1="824.8403" x2="1083.5889" y1="747.9297" y2="747.9297"/><text fill="#000000" font-family="sans-serif" font-size="13" font-weight="bold" lengthAdjust="spacing" textLength="18.0908" x="831.8403" y="742.8638">15</text><text fill="#000000" font-family="sans-serif" font-size="13" lengthAdjust="spacing" textLength="218.6577" x="853.9312" y="742.8638">pet.is_owned_by(current_user_id)</text><path d="M44,762.9297 L104.4429,762.9297 L104.4429,770.0625 L94.4429,780.0625 L40,780.0625 L40,766.9297 A4,4 0 0 1 44,762.9297 " fill="#EEEEEE" style="stroke:#999999;stroke-width:1.5;"/><rect fill="none" height="640.7969" rx="4" ry="4" style="stroke:#999999;stroke-width:1.5;" width="1631.9351" x="40" y="762.9297"/><text fill="#000000" font-family="sans-serif" font-size="13" font-weight="bold" lengthAdjust="spacing" textLength="19.4429" x="55" y="775.9966">alt</text><text fill="#000000" font-family="sans-serif" font-size="11" font-weight="bold" lengthAdjust="spacing" textLength="170.7686" x="119.4429" y="775.1401">[requester is not an owner]</text><polygon fill="#181818" points="405.9927,797.1953,395.9927,801.1953,405.9927,805.1953,401.9927,801.1953" style="stroke:#181818;stroke-width:1.0;"/><line style="stroke:#181818;stroke-width:2.0;stroke-dasharray:2.0,2.0;" x1="399.9927" x2="823.8403" y1="801.1953" y2="801.1953"/><text fill="#000000" font-family="sans-serif" font-size="13" font-weight="bold" lengthAdjust="spacing" textLength="18.0908" x="411.9927" y="796.1294">16</text><text fill="#000000" font-family="sans-serif" font-size="13" lengthAdjust="spacing" textLength="218.5815" x="434.0835" y="796.1294">raises PetAccessDeniedException</text><polygon fill="#181818" points="94.2651,826.3281,84.2651,830.3281,94.2651,834.3281,90.2651,830.3281" style="stroke:#181818;stroke-width:1.0;"/><line style="stroke:#181818;stroke-width:2.0;stroke-dasharray:2.0,2.0;" x1="88.2651" x2="393.9927" y1="830.3281" y2="830.3281"/><text fill="#000000" font-family="sans-serif" font-size="13" font-weight="bold" lengthAdjust="spacing" textLength="18.0908" x="100.2651" y="825.2622">17</text><text fill="#000000" font-family="sans-serif" font-size="13" lengthAdjust="spacing" textLength="94.3262" x="122.356" y="825.2622">403 Forbidden</text><line style="stroke:#999999;stroke-width:1.0;stroke-dasharray:2.0,2.0;" x1="40" x2="1671.9351" y1="839.3281" y2="839.3281"/><text fill="#000000" font-family="sans-serif" font-size="11" font-weight="bold" lengthAdjust="spacing" textLength="146.2925" x="45" y="849.5386">[requester is an owner]</text><polygon fill="#181818" points="1399.7886,870.2656,1409.7886,874.2656,1399.7886,878.2656,1403.7886,874.2656" style="stroke:#181818;stroke-width:1.0;"/><line style="stroke:#181818;stroke-width:2.0;" x1="824.8403" x2="1405.7886" y1="874.2656" y2="874.2656"/><text fill="#000000" font-family="sans-serif" font-size="13" font-weight="bold" lengthAdjust="spacing" textLength="18.0908" x="831.8403" y="869.1997">18</text><text fill="#000000" font-family="sans-serif" font-size="13" lengthAdjust="spacing" textLength="165.4072" x="853.9312" y="869.1997">find_by_username("bob")</text><polygon fill="#181818" points="1614.0859,914.5313,1624.0859,918.5313,1614.0859,922.5313,1618.0859,918.5313" style="stroke:#181818;stroke-width:1.0;"/><line style="stroke:#181818;stroke-width:2.0;" x1="1411.7886" x2="1620.0859" y1="918.5313" y2="918.5313"/><text fill="#000000" font-family="sans-serif" font-size="13" font-weight="bold" lengthAdjust="spacing" textLength="18.0908" x="1418.7886" y="905.8989">19</text><text fill="#000000" font-family="sans-serif" font-size="13" lengthAdjust="spacing" textLength="146.2881" x="1440.8794" y="898.3325">SELECT id FROM users</text><text fill="#000000" font-family="sans-serif" font-size="13" lengthAdjust="spacing" textLength="168.2065" x="1440.8794" y="913.4653">WHERE username = 'bob'</text><polygon fill="#181818" points="1422.7886,943.6641,1412.7886,947.6641,1422.7886,951.6641,1418.7886,947.6641" style="stroke:#181818;stroke-width:1.0;"/><line style="stroke:#181818;stroke-width:2.0;stroke-dasharray:2.0,2.0;" x1="1416.7886" x2="1625.0859" y1="947.6641" y2="947.6641"/><text fill="#000000" font-family="sans-serif" font-size="13" font-weight="bold" lengthAdjust="spacing" textLength="18.0908" x="1428.7886" y="942.5981">20</text><text fill="#000000" font-family="sans-serif" font-size="13" lengthAdjust="spacing" textLength="106.666" x="1450.8794" y="942.5981">row or (no rows)</text><path d="M54,962.6641 L114.4429,962.6641 L114.4429,969.7969 L104.4429,979.7969 L50,979.7969 L50,966.6641 A4,4 0 0 1 54,962.6641 " fill="#EEEEEE" style="stroke:#999999;stroke-width:1.5;"/><rect fill="none" height="434.0625" rx="4" ry="4" style="stroke:#999999;stroke-width:1.5;" width="1611.9351" x="50" y="962.6641"/><text fill="#000000" font-family="sans-serif" font-size="13" font-weight="bold" lengthAdjust="spacing" textLength="19.4429" x="65" y="975.731">alt</text><text fill="#000000" font-family="sans-serif" font-size="11" font-weight="bold" lengthAdjust="spacing" textLength="144.0313" x="129.4429" y="974.8745">[target user not found]</text><polygon fill="#181818" points="405.9927,996.9297,395.9927,1000.9297,405.9927,1004.9297,401.9927,1000.9297" style="stroke:#181818;stroke-width:1.0;"/><line style="stroke:#181818;stroke-width:2.0;stroke-dasharray:2.0,2.0;" x1="399.9927" x2="823.8403" y1="1000.9297" y2="1000.9297"/><text fill="#000000" font-family="sans-serif" font-size="13" font-weight="bold" lengthAdjust="spacing" textLength="18.0908" x="411.9927" y="995.8638">21</text><text fill="#000000" font-family="sans-serif" font-size="13" lengthAdjust="spacing" textLength="199.3735" x="434.0835" y="995.8638">raises UserNotFoundException</text><polygon fill="#181818" points="94.2651,1026.0625,84.2651,1030.0625,94.2651,1034.0625,90.2651,1030.0625" style="stroke:#181818;stroke-width:1.0;"/><line style="stroke:#181818;stroke-width:2.0;stroke-dasharray:2.0,2.0;" x1="88.2651" x2="393.9927" y1="1030.0625" y2="1030.0625"/><text fill="#000000" font-family="sans-serif" font-size="13" font-weight="bold" lengthAdjust="spacing" textLength="18.0908" x="100.2651" y="1024.9966">22</text><text fill="#000000" font-family="sans-serif" font-size="13" lengthAdjust="spacing" textLength="96.0146" x="122.356" y="1024.9966">404 Not Found</text><line style="stroke:#999999;stroke-width:1.0;stroke-dasharray:2.0,2.0;" x1="50" x2="1661.9351" y1="1039.0625" y2="1039.0625"/><text fill="#000000" font-family="sans-serif" font-size="11" font-weight="bold" lengthAdjust="spacing" textLength="119.5552" x="55" y="1049.2729">[target user found]</text><polygon fill="#181818" points="835.8403,1070,825.8403,1074,835.8403,1078,831.8403,1074" style="stroke:#181818;stroke-width:1.0;"/><line style="stroke:#181818;stroke-width:2.0;stroke-dasharray:2.0,2.0;" x1="829.8403" x2="1410.7886" y1="1074" y2="1074"/><text fill="#000000" font-family="sans-serif" font-size="13" font-weight="bold" lengthAdjust="spacing" textLength="18.0908" x="841.8403" y="1068.9341">23</text><text fill="#000000" font-family="sans-serif" font-size="13" lengthAdjust="spacing" textLength="73.5376" x="863.9312" y="1068.9341">new_owner</text><polygon fill="#181818" points="1077.5889,1099.1328,1087.5889,1103.1328,1077.5889,1107.1328,1081.5889,1103.1328" style="stroke:#181818;stroke-width:1.0;"/><line style="stroke:#181818;stroke-width:2.0;" x1="824.8403" x2="1083.5889" y1="1103.1328" y2="1103.1328"/><text fill="#000000" font-family="sans-serif" font-size="13" font-weight="bold" lengthAdjust="spacing" textLength="18.0908" x="831.8403" y="1098.0669">24</text><text fill="#000000" font-family="sans-serif" font-size="13" lengthAdjust="spacing" textLength="196.2949" x="853.9312" y="1098.0669">pet.add_owner(new_owner.id)</text><path d="M1094,1120.1328 L1094,1167.1328 A4,4 0 0 0 1098,1171.1328 L1270,1171.1328 A4,4 0 0 0 1274,1167.1328 L1274,1126.1328 L1264,1116.1328 L1098,1116.1328 A4,4 0 0 0 1094,1120.1328 " fill="#FFFDE7" style="stroke:#BBBBBB;stroke-width:0.5;"/><path d="M1264,1116.1328 L1264,1124.1328 A2,2 0 0 0 1266,1126.1328 L1274,1126.1328 L1264,1116.1328 " fill="#FFFDE7" style="stroke:#BBBBBB;stroke-width:0.5;"/><text fill="#000000" font-family="sans-serif" font-size="13" lengthAdjust="spacing" textLength="145.3867" x="1100" y="1133.1997">Adds new_owner_id to</text><text fill="#000000" font-family="sans-serif" font-size="13" lengthAdjust="spacing" textLength="118.917" x="1100" y="1148.3325">pet.owner_ids set.</text><text fill="#000000" font-family="sans-serif" font-size="13" lengthAdjust="spacing" textLength="159.8657" x="1100" y="1163.4653">No domain event raised.</text><polygon fill="#181818" points="835.8403,1193.6641,825.8403,1197.6641,835.8403,1201.6641,831.8403,1197.6641" style="stroke:#181818;stroke-width:1.0;"/><line style="stroke:#181818;stroke-width:2.0;stroke-dasharray:2.0,2.0;" x1="829.8403" x2="1088.5889" y1="1197.6641" y2="1197.6641"/><text fill="#000000" font-family="sans-serif" font-size="13" font-weight="bold" lengthAdjust="spacing" textLength="18.0908" x="841.8403" y="1192.5981">25</text><text fill="#000000" font-family="sans-serif" font-size="13" lengthAdjust="spacing" textLength="13" x="863.9312" y="1192.5981">&#8212;</text><polygon fill="#181818" points="1233.8335,1222.7969,1243.8335,1226.7969,1233.8335,1230.7969,1237.8335,1226.7969" style="stroke:#181818;stroke-width:1.0;"/><line style="stroke:#181818;stroke-width:2.0;" x1="824.8403" x2="1239.8335" y1="1226.7969" y2="1226.7969"/><text fill="#000000" font-family="sans-serif" font-size="13" font-weight="bold" lengthAdjust="spacing" textLength="18.0908" x="831.8403" y="1221.731">26</text><text fill="#000000" font-family="sans-serif" font-size="13" lengthAdjust="spacing" textLength="61.9214" x="853.9312" y="1221.731">save(pet)</text><polygon fill="#181818" points="1614.0859,1267.0625,1624.0859,1271.0625,1614.0859,1275.0625,1618.0859,1271.0625" style="stroke:#181818;stroke-width:1.0;"/><line style="stroke:#181818;stroke-width:2.0;" x1="1245.8335" x2="1620.0859" y1="1271.0625" y2="1271.0625"/><text fill="#000000" font-family="sans-serif" font-size="13" font-weight="bold" lengthAdjust="spacing" textLength="18.0908" x="1252.8335" y="1258.4302">27</text><text fill="#000000" font-family="sans-serif" font-size="13" lengthAdjust="spacing" textLength="161.7827" x="1274.9243" y="1250.8638">INSERT INTO pet_owners</text><text fill="#000000" font-family="sans-serif" font-size="13" lengthAdjust="spacing" textLength="116.6509" x="1274.9243" y="1265.9966">(pet_id, owner_id)</text><polygon fill="#181818" points="1256.8335,1296.1953,1246.8335,1300.1953,1256.8335,1304.1953,1252.8335,1300.1953" style="stroke:#181818;stroke-width:1.0;"/><line style="stroke:#181818;stroke-width:2.0;stroke-dasharray:2.0,2.0;" x1="1250.8335" x2="1625.0859" y1="1300.1953" y2="1300.1953"/><text fill="#000000" font-family="sans-serif" font-size="13" font-weight="bold" lengthAdjust="spacing" textLength="18.0908" x="1262.8335" y="1295.1294">28</text><text fill="#000000" font-family="sans-serif" font-size="13" lengthAdjust="spacing" textLength="18.7573" x="1284.9243" y="1295.1294">OK</text><polygon fill="#181818" points="405.9927,1325.3281,395.9927,1329.3281,405.9927,1333.3281,401.9927,1329.3281" style="stroke:#181818;stroke-width:1.0;"/><line style="stroke:#181818;stroke-width:2.0;stroke-dasharray:2.0,2.0;" x1="399.9927" x2="823.8403" y1="1329.3281" y2="1329.3281"/><text fill="#000000" font-family="sans-serif" font-size="13" font-weight="bold" lengthAdjust="spacing" textLength="18.0908" x="411.9927" y="1324.2622">29</text><text fill="#000000" font-family="sans-serif" font-size="13" lengthAdjust="spacing" textLength="181.7651" x="434.0835" y="1324.2622">PetDto (updated owner_ids)</text><polygon fill="#181818" points="94.2651,1384.7266,84.2651,1388.7266,94.2651,1392.7266,90.2651,1388.7266" style="stroke:#181818;stroke-width:1.0;"/><line style="stroke:#181818;stroke-width:2.0;stroke-dasharray:2.0,2.0;" x1="88.2651" x2="393.9927" y1="1388.7266" y2="1388.7266"/><text fill="#000000" font-family="sans-serif" font-size="13" font-weight="bold" lengthAdjust="spacing" textLength="18.0908" x="100.2651" y="1368.5278">30</text><text fill="#000000" font-family="sans-serif" font-size="13" lengthAdjust="spacing" textLength="47.7026" x="122.356" y="1353.395">200 OK</text><text fill="#000000" font-family="sans-serif" font-size="13" lengthAdjust="spacing" textLength="184.4883" x="122.356" y="1368.5278">{ "id", "name", "last_name",</text><text fill="#000000" font-family="sans-serif" font-size="13" lengthAdjust="spacing" textLength="257.3721" x="130.6206" y="1383.6606">"type", "owner_ids": [alice_id, bob_id] }</text><!--SRC=[ZLRTRjis5BxNKnoe5xM1_2_3cg0pOCTocwsBFSVPBkR1e4J69YAJAaadzOe2VOWzGn-iJx93IfGbsORdef54VUSxVnyFPRX96NGfXU6BO0g-V_qNHiFx2PncpEZJpvn-EPNsZGu2_SH5HXHPWcOVLqmahAkKV9aiUF8acDPmKO4ekH8qaSgIljbXEYBAy8HdH9YUL9If6vbA1Qz-TBy31YHvcZi7XT6WQ__jC7g7gAp6V-L-5QYGXjKGFVTh8hPS3WRzwASW88d1nvkKCs6289QV81mffl6962v52A-YQ70vw0K0sIO32B6yC-GpJ8L0D8pTRHCqHr2oKWhPPYlDr5IyVKjPnWJ5vDQTZZFjhioYpx80Lm7z5q5qiopbYOy1etqJdJVfiUskw- -9e6aHI77VOElB9U6Ew1o9hff48sPiQDtvNB4vCGpJaQO83zz5md2pRb3UYaT5j56hnAmKizIzw0ehsg2-_vXomv1ap3AfEHPxxMdjocxu0zQgWVTBcoWeCIGccg7Hxn_GoC7wFMpfoaYnMiPOXI1lB1ntYWx1zPxjCHMs3rBnVrpDhw77Y48yM_-oYDyb_FlNRrFn6KBRHa6MBBo6C9Pn25-2eA2kElc3f9pQIbeNyF1msv-AqPfYZZm1dIpOaa3BSrc5GfmIyTGEI6g0YsThxim0rUbUWKTZoRn3z5WaU0sN5nVm838b4zpA9CQfuDkMOeqSOSMousM7bYXtcJupQAgrPUGJ4ssqia6v1nyQha79S5nDN16kcORR73UnHj6dX6MsgCvgP-ndvnWxAHh0BBsBElTvm6Crv1a2QruwVaCWq6-N6xbSuk9KjEmcvlG8Au3ZHXjdVmI6A5iAN-zspkXvaBBGBb8-Sa5dyHhD2gwsmte0OlizXDr77wAR2GxdR-urhXtNQ70AspwtXBItkl1eguwiJXsFTdIvrKeaE-gEd7VI32owNlPzXRy4nCEWf7Trjrwh7ijyQlL4LD0CgREP5pdYXEkPtM6sJAr6gzg5jKsqR05mxJ8c0jpEB307q-ucLlXz9ZZRIdrVyZzWuYhc5CTnWNJfrsBP7qUd74eL9NZLjDnqQ9TM9RIX2TpcW_7mDxUxSGZz-JuQH-LMXv_XDTAyBbaAvLJyxfQEhsekPSUt9QD3DRLEzcdf_-kfB6erb6OOc-BK12ROoool_QwGjwL6ACtnhTBoPACo-xEV0g3uV650FjRiSJZeZKCK9mwVgR2iVa7ZLuavcOex2TGTfy2URTQkNFIaucN3Myy7FyxsPrBqKvDdPcT9kyvNayxjtNqqdk1bChHvp_m9Liup7tALP6le37yD3Ya1mNqZyQ3Ax5b6IrxTFg23YxCpv7S79gVX4OJkoCHhYfyCi_nXAW12iyxSUicCv-fVEEyJvX91yUFrRpnaIosLml5t-TN-jV__0m00]--></g></svg>