<svg xmlns="http://www.w3.org/2000/svg" xmlns:xlink="http://www.w3.org/1999/xlink" contentStyleType="text/css" height="1394px" preserveAspectRatio="none" style="width:1824px;height:1394px;background:#FFFFFF;" version="1.1" viewBox="0 0 1824 1394" width="1824px" zoomAndPan="magnify"><defs/><g><text fill="#000000" font-family="sans-serif" font-size="14" font-weight="bold" lengthAdjust="spacing" textLength="444.2539" x="691.2534" y="27.9951">Remove Owner &#8212; DELETE /pets/{id}/owners/{owner_id}</text><rect fill="#EEF4FB" height="1344.9297" rx="4" ry="4" style="stroke:#181818;stroke-width:0.5;" width="443.0771" x="408.314" y="43.2969"/><text fill="#000000" font-family="sans-serif" font-size="13" font-weight="bold" lengthAdjust="spacing" textLength="94.4087" x="582.6482" y="55.3638">Presentation</text><rect fill="#FFF8E1" height="1344.9297" rx="4" ry="4" style="stroke:#181818;stroke-width:0.5;" width="180.2793" x="853.3911" y="43.2969"/><text fill="#000000" font-family="sans-serif" font-size="13" font-weight="bold" lengthAdjust="spacing" textLength="82.9194" x="902.071" y="55.3638">Application</text><rect fill="#F1F8E9" height="1344.9297" rx="4" ry="4" style="stroke:#181818;stroke-width:0.5;" width="149.2168" x="1225.4961" y="43.2969"/><text fill="#000000" font-family="sans-serif" font-size="13" font-weight="bold" lengthAdjust="spacing" textLength="55.7515" x="1272.2288" y="55.3638">Domain</text><rect fill="#FBE9E7" height="1344.9297" rx="4" ry="4" style="stroke:#181818;stroke-width:0.5;" width="159.2725" x="1376.7129" y="43.2969"/><text fill="#000000" font-family="sans-serif" font-size="13" font-weight="bold" lengthAdjust="spacing" textLength="102.9526" x="1404.8728" y="55.3638">Infrastructure</text><rect fill="none" height="1069.9375" rx="4" ry="4" style="stroke:#999999;stroke-width:1.5;" width="1807.7607" x="10" y="221.9922"/><rect fill="none" height="965.7344" rx="4" ry="4" style="stroke:#999999;stroke-width:1.5;" width="1787.7607" x="20" y="319.1953"/><rect fill="none" height="700.7344" rx="4" ry="4" style="stroke:#999999;stroke-width:1.5;" width="1767.7607" x="30" y="577.1953"/><rect fill="none" height="538.2656" rx="4" ry="4" style="stroke:#999999;stroke-width:1.5;" width="1747.7607" x="40" y="732.6641"/><rect fill="none" height="404.9297" rx="4" ry="4" style="stroke:#999999;stroke-width:1.5;" width="1727.7607" x="50" y="859"/><line style="stroke:#181818;stroke-width:0.5;stroke-dasharray:5.0,5.0;" x1="83" x2="83" y1="118.5938" y2="1308.9297"/><line style="stroke:#181818;stroke-width:0.5;stroke-dasharray:5.0,5.0;" x1="455.314" x2="455.314" y1="118.5938" y2="1308.9297"/><line style="stroke:#181818;stroke-width:0.5;stroke-dasharray:5.0,5.0;" x1="780.8081" x2="780.8081" y1="118.5938" y2="1308.9297"/><line style="stroke:#181818;stroke-width:0.5;stroke-dasharray:5.0,5.0;" x1="943.3911" x2="943.3911" y1="118.5938" y2="1308.9297"/><line style="stroke:#181818;stroke-width:0.5;stroke-dasharray:5.0,5.0;" x1="1299.4961" x2="1299.4961" y1="118.5938" y2="1308.9297"/><line style="stroke:#181818;stroke-width:0.5;stroke-dasharray:5.0,5.0;" x1="1455.7129" x2="1455.7129" y1="118.5938" y2="1308.9297"/><line style="stroke:#181818;stroke-width:0.5;stroke-dasharray:5.0,5.0;" x1="1741.0625" x2="1741.0625" y1="118.5938" y2="1308.9297"/><text fill="#000000" font-family="sans-serif" font-size="14" lengthAdjust="spacing" textLength="40.5303" x="60" y="115.292">Client</text><ellipse cx="83.2651" cy="50.7969" fill="#E2E2F0" rx="8" ry="8" style="stroke:#181818;stroke-width:0.5;"/><path d="M83.2651,58.7969 L83.2651,85.7969 M70.2651,66.7969 L96.2651,66.7969 M83.2651,85.7969 L70.2651,100.7969 M83.2651,85.7969 L96.2651,100.7969 " fill="none" style="stroke:#181818;stroke-width:0.5;"/><text fill="#000000" font-family="sans-serif" font-size="14" lengthAdjust="spacing" textLength="40.5303" x="60" y="1320.9248">Client</text><ellipse cx="83.2651" cy="1332.7266" fill="#E2E2F0" rx="8" ry="8" style="stroke:#181818;stroke-width:0.5;"/><path d="M83.2651,1340.7266 L83.2651,1367.7266 M70.2651,1348.7266 L96.2651,1348.7266 M83.2651,1367.7266 L70.2651,1382.7266 M83.2651,1367.7266 L96.2651,1382.7266 " fill="none" style="stroke:#181818;stroke-width:0.5;"/><rect fill="#FAFAFA" height="30.2969" rx="4" ry="4" style="stroke:#555555;stroke-width:0.5;" width="87.042" x="412.314" y="87.2969"/><text fill="#000000" font-family="sans-serif" font-size="14" lengthAdjust="spacing" textLength="73.042" x="419.314" y="107.292">pet_router</text><rect fill="#FAFAFA" height="30.2969" rx="4" ry="4" style="stroke:#555555;stroke-width:0.5;" width="87.042" x="412.314" y="1307.9297"/><text fill="#000000" font-family="sans-serif" font-size="14" lengthAdjust="spacing" textLength="73.042" x="419.314" y="1327.9248">pet_router</text><rect fill="#FAFAFA" height="46.5938" rx="4" ry="4" style="stroke:#555555;stroke-width:0.5;" width="132.583" x="714.8081" y="71"/><text fill="#000000" font-family="sans-serif" font-size="14" lengthAdjust="spacing" textLength="118.583" x="721.8081" y="90.9951">get_current_user</text><text fill="#000000" font-family="sans-serif" font-size="14" lengthAdjust="spacing" textLength="103.3594" x="729.4199" y="107.292">&#171;dependency&#187;</text><rect fill="#FAFAFA" height="46.5938" rx="4" ry="4" style="stroke:#555555;stroke-width:0.5;" width="132.583" x="714.8081" y="1307.9297"/><text fill="#000000" font-family="sans-serif" font-size="14" lengthAdjust="spacing" textLength="118.583" x="721.8081" y="1327.9248">get_current_user</text><text fill="#000000" font-family="sans-serif" font-size="14" lengthAdjust="spacing" textLength="103.3594" x="729.4199" y="1344.2217">&#171;dependency&#187;</text><rect fill="#FAFAFA" height="30.2969" rx="4" ry="4" style="stroke:#555555;stroke-width:0.5;" width="172.2793" x="857.3911" y="87.2969"/><text fill="#000000" font-family="sans-serif" font-size="14" lengthAdjust="spacing" textLength="158.2793" x="864.3911" y="107.292">RemoveOwnerHandler</text><rect fill="#FAFAFA" height="30.2969" rx="4" ry="4" style="stroke:#555555;stroke-width:0.5;" width="172.2793" x="857.3911" y="1307.9297"/><text fill="#000000" font-family="sans-serif" font-size="14" lengthAdjust="spacing" textLength="158.2793" x="864.3911" y="1327.9248">RemoveOwnerHandler</text><rect fill="#FAFAFA" height="46.5938" rx="4" ry="4" style="stroke:#555555;stroke-width:0.5;" width="141.2168" x="1229.4961" y="71"/><text fill="#000000" font-family="sans-serif" font-size="14" lengthAdjust="spacing" textLength="22.5449" x="1288.832" y="90.9951">Pet</text><text fill="#000000" font-family="sans-serif" font-size="14" lengthAdjust="spacing" textLength="127.2168" x="1236.4961" y="107.292">&#171;Aggregate Root&#187;</text><rect fill="#FAFAFA" height="46.5938" rx="4" ry="4" style="stroke:#555555;stroke-width:0.5;" width="141.2168" x="1229.4961" y="1307.9297"/><text fill="#000000" font-family="sans-serif" font-size="14" lengthAdjust="spacing" textLength="22.5449" x="1288.832" y="1327.9248">Pet</text><text fill="#000000" font-family="sans-serif" font-size="14" lengthAdjust="spacing" textLength="127.2168" x="1236.4961" y="1344.2217">&#171;Aggregate Root&#187;</text><rect fill="#FAFAFA" height="30.2969" rx="4" ry="4" style="stroke:#555555;stroke-width:0.5;" width="151.2725" x="1380.7129" y="87.2969"/><text fill="#000000" font-family="sans-serif" font-size="14" lengthAdjust="spacing" textLength="137.2725" x="1387.7129" y="107.292">SqlitePetRepository</text><rect fill="#FAFAFA" height="30.2969" rx="4" ry="4" style="stroke:#555555;stroke-width:0.5;" width="151.2725" x="1380.7129" y="1307.9297"/><text fill="#000000" font-family="sans-serif" font-size="14" lengthAdjust="spacing" textLength="137.2725" x="1387.7129" y="1327.9248">SqlitePetRepository</text><text fill="#000000" font-family="sans-serif" font-size="14" lengthAdjust="spacing" textLength="45.6982" x="1716.0625" y="115.292">SQLite</text><path d="M1723.9116,66.2969 C1723.9116,56.2969 1741.9116,56.2969 1741.9116,56.2969 C1741.9116,56.2969 1759.9116,56.2969 1759.9116,66.2969 L1759.9116,92.2969 C1759.9116,102.2969 1741.9116,102.2969 1741.9116,102.2969 C1741.9116,102.2969 1723.9116,102.2969 1723.9116,92.2969 L1723.9116,66.2969 " fill="#E2E2F0" style="stroke:#181818;stroke-width:1.5;"/><path d="M1723.9116,66.2969 C1723.9116,76.2969 1741.9116,76.2969 1741.9116,76.2969 C1741.9116,76.2969 1759.9116,76.2969 1759.9116,66.2969 " fill="none" style="stroke:#181818;stroke-width:1.5;"/><text fill="#000000" font-family="sans-serif" font-size="14" lengthAdjust="spacing" textLength="45.6982" x="1716.0625" y="1320.9248">SQLite</text><path d="M1723.9116,1334.2266 C1723.9116,1324.2266 1741.9116,1324.2266 1741.9116,1324.2266 C1741.9116,1324.2266 1759.9116,1324.2266 1759.9116,1334.2266 L1759.9116,1360.2266 C1759.9116,1370.2266 1741.9116,1370.2266 1741.9116,1370.2266 C1741.9116,1370.2266 1723.9116,1370.2266 1723.9116,1360.2266 L1723.9116,1334.2266 " fill="#E2E2F0" style="stroke:#181818;stroke-width:1.5;"/><path d="M1723.9116,1334.2266 C1723.9116,1344.2266 1741.9116,1344.2266 1741.9116,1344.2266 C1741.9116,1344.2266 1759.9116,1344.2266 1759.9116,1334.2266 " fill="none" style="stroke:#181818;stroke-width:1.5;"/><polygon fill="#181818" points="443.835,160.8594,453.835,164.8594,443.835,168.8594,447.835,164.8594" style="stroke:#181818;stroke-width:1.0;"/><line style="stroke:#181818;stroke-width:2.0;" x1="83.2651" x2="449.835" y1="164.8594" y2="164.8594"/><text fill="#000000" font-family="sans-serif" font-size="13" font-weight="bold" lengthAdjust="spacing" textLength="9.0454" x="90.2651" y="152.2271">1</text><text fill="#000000" font-family="sans-serif" font-size="13" lengthAdjust="spacing" textLength="250.0278" x="103.3105" y="144.6606">DELETE /pets/{id}/owners/{owner_id}</text><text fill="#000000" font-family="sans-serif" font-size="13" lengthAdjust="spacing" textLength="213.1353" x="103.3105" y="159.7935">Authorization: Bearer eyJhbGci&#8230;</text><line style="stroke:#181818;stroke-width:2.0;" x1="455.835" x2="497.835" y1="193.9922" y2="193.9922"/><line style="stroke:#181818;stroke-width:2.0;" x1="497.835" x2="497.835" y1="193.9922" y2="206.9922"/><line style="stroke:#181818;stroke-width:2.0;" x1="456.835" x2="497.835" y1="206.9922" y2="206.9922"/><polygon fill="#181818" points="466.835,202.9922,456.835,206.9922,466.835,210.9922,462.835,206.9922" style="stroke:#181818;stroke-width:1.0;"/><text fill="#000000" font-family="sans-serif" font-size="13" font-weight="bold" lengthAdjust="spacing" textLength="9.0454" x="462.835" y="188.9263">2</text><text fill="#000000" font-family="sans-serif" font-size="13" lengthAdjust="spacing" textLength="298.2192" x="475.8804" y="188.9263">Validate {id} and {owner_id} are valid UUIDs</text><path d="M14,221.9922 L74.4429,221.9922 L74.4429,229.125 L64.4429,239.125 L10,239.125 L10,225.9922 A4,4 0 0 1 14,221.9922 " fill="#EEEEEE" style="stroke:#999999;stroke-width:1.5;"/><rect fill="none" height="1069.9375" rx="4" ry="4" style="stroke:#999999;stroke-width:1.5;" width="1807.7607" x="10" y="221.9922"/><text fill="#000000" font-family="sans-serif" font-size="13" font-weight="bold" lengthAdjust="spacing" textLength="19.4429" x="25" y="235.0591">alt</text><text fill="#000000" font-family="sans-serif" font-size="11" font-weight="bold" lengthAdjust="spacing" textLength="132.3223" x="89.4429" y="234.2026">[invalid UUID format]</text><polygon fill="#181818" points="94.2651,256.2578,84.2651,260.2578,94.2651,264.2578,90.2651,260.2578" style="stroke:#181818;stroke-width:1.0;"/><line style="stroke:#181818;stroke-width:2.0;stroke-dasharray:2.0,2.0;" x1="88.2651" x2="454.835" y1="260.2578" y2="260.2578"/><text fill="#000000" font-family="sans-serif" font-size="13" font-weight="bold" lengthAdjust="spacing" textLength="9.0454" x="100.2651" y="255.1919">3</text><text fill="#000000" font-family="sans-serif" font-size="13" lengthAdjust="spacing" textLength="166.8545" x="113.3105" y="255.1919">422 Unprocessable Entity</text><line style="stroke:#999999;stroke-width:1.0;stroke-dasharray:2.0,2.0;" x1="10" x2="1817.7607" y1="269.2578" y2="269.2578"/><text fill="#000000" font-family="sans-serif" font-size="11" font-weight="bold" lengthAdjust="spacing" textLength="81.5278" x="15" y="279.4683">[valid UUIDs]</text><polygon fill="#181818" points="769.0996,300.1953,779.0996,304.1953,769.0996,308.1953,773.0996,304.1953" style="stroke:#181818;stroke-width:1.0;"/><line style="stroke:#181818;stroke-width:2.0;" x1="455.835" x2="775.0996" y1="304.1953" y2="304.1953"/><text fill="#000000" font-family="sans-serif" font-size="13" font-weight="bold" lengthAdjust="spacing" textLength="9.0454" x="462.835" y="299.1294">4</text><text fill="#000000" font-family="sans-serif" font-size="13" lengthAdjust="spacing" textLength="208.5776" x="475.8804" y="299.1294">resolve get_current_user(token)</text><path d="M24,319.1953 L84.4429,319.1953 L84.4429,326.3281 L74.4429,336.3281 L20,336.3281 L20,323.1953 A4,4 0 0 1 24,319.1953 " fill="#EEEEEE" style="stroke:#999999;stroke-width:1.5;"/><rect fill="none" height="965.7344" rx="4" ry="4" style="stroke:#999999;stroke-width:1.5;" width="1787.7607" x="20" y="319.1953"/><text fill="#000000" font-family="sans-serif" font-size="13" font-weight="bold" lengthAdjust="spacing" textLength="19.4429" x="35" y="332.2622">alt</text><text fill="#000000" font-family="sans-serif" font-size="11" font-weight="bold" lengthAdjust="spacing" textLength="90.9165" x="99.4429" y="331.4058">[token invalid]</text><polygon fill="#181818" points="466.835,353.4609,456.835,357.4609,466.835,361.4609,462.835,357.4609" style="stroke:#181818;stroke-width:1.0;"/><line style="stroke:#181818;stroke-width:2.0;stroke-dasharray:2.0,2.0;" x1="460.835" x2="780.0996" y1="357.4609" y2="357.4609"/><text fill="#000000" font-family="sans-serif" font-size="13" font-weight="bold" lengthAdjust="spacing" textLength="9.0454" x="472.835" y="352.395">5</text><text fill="#000000" font-family="sans-serif" font-size="13" lengthAdjust="spacing" textLength="189.6743" x="485.8804" y="352.395">raises InvalidTokenException</text><polygon fill="#181818" points="94.2651,382.5938,84.2651,386.5938,94.2651,390.5938,90.2651,386.5938" style="stroke:#181818;stroke-width:1.0;"/><line style="stroke:#181818;stroke-width:2.0;stroke-dasharray:2.0,2.0;" x1="88.2651" x2="454.835" y1="386.5938" y2="386.5938"/><text fill="#000000" font-family="sans-serif" font-size="13" font-weight="bold" lengthAdjust="spacing" textLength="9.0454" x="100.2651" y="381.5278">6</text><text fill="#000000" font-family="sans-serif" font-size="13" lengthAdjust="spacing" textLength="116.2256" x="113.3105" y="381.5278">401 Unauthorized</text><line style="stroke:#999999;stroke-width:1.0;stroke-dasharray:2.0,2.0;" x1="20" x2="1807.7607" y1="395.5938" y2="395.5938"/><text fill="#000000" font-family="sans-serif" font-size="11" font-weight="bold" lengthAdjust="spacing" textLength="79.3149" x="25" y="405.8042">[token valid]</text><polygon fill="#181818" points="466.835,426.5313,456.835,430.5313,466.835,434.5313,462.835,430.5313" style="stroke:#181818;stroke-width:1.0;"/><line style="stroke:#181818;stroke-width:2.0;stroke-dasharray:2.0,2.0;" x1="460.835" x2="780.0996" y1="430.5313" y2="430.5313"/><text fill="#000000" font-family="sans-serif" font-size="13" font-weight="bold" lengthAdjust="spacing" textLength="9.0454" x="472.835" y="425.4653">7</text><text fill="#000000" font-family="sans-serif" font-size="13" lengthAdjust="spacing" textLength="100.6294" x="485.8804" y="425.4653">current_user_id</text><polygon fill="#181818" points="931.5308,470.7969,941.5308,474.7969,931.5308,478.7969,935.5308,474.7969" style="stroke:#181818;stroke-width:1.0;"/><line style="stroke:#181818;stroke-width:2.0;" x1="455.835" x2="937.5308" y1="474.7969" y2="474.7969"/><text fill="#000000" font-family="sans-serif" font-size="13" font-weight="bold" lengthAdjust="spacing" textLength="9.0454" x="462.835" y="462.1646">8</text><text fill="#000000" font-family="sans-serif" font-size="13" lengthAdjust="spacing" textLength="162.6016" x="475.8804" y="454.5981">RemoveOwnerCommand</text><text fill="#000000" font-family="sans-serif" font-size="13" lengthAdjust="spacing" textLength="282.0264" x="475.8804" y="469.731">(pet_id, requester_id, owner_id_to_remove)</text><polygon fill="#181818" points="1444.3491,499.9297,1454.3491,503.9297,1444.3491,507.9297,1448.3491,503.9297" style="stroke:#181818;stroke-width:1.0;"/><line style="stroke:#181818;stroke-width:2.0;" x1="943.5308" x2="1450.3491" y1="503.9297" y2="503.9297"/><text fill="#000000" font-family="sans-serif" font-size="13" font-weight="bold" lengthAdjust="spacing" textLength="9.0454" x="950.5308" y="498.8638">9</text><text fill="#000000" font-family="sans-serif" font-size="13" lengthAdjust="spacing" textLength="115.3433" x="963.5762" y="498.8638">find_by_id(pet_id)</text><polygon fill="#181818" points="1729.9116,529.0625,1739.9116,533.0625,1729.9116,537.0625,1733.9116,533.0625" style="stroke:#181818;stroke-width:1.0;"/><line style="stroke:#181818;stroke-width:2.0;" x1="1456.3491" x2="1735.9116" y1="533.0625" y2="533.0625"/><text fill="#000000" font-family="sans-serif" font-size="13" font-weight="bold" lengthAdjust="spacing" textLength="18.0908" x="1463.3491" y="527.9966">10</text><text fill="#000000" font-family="sans-serif" font-size="13" lengthAdjust="spacing" textLength="66.0728" x="1485.4399" y="527.9966">SELECT &#8230;</text><polygon fill="#181818" points="1467.3491,558.1953,1457.3491,562.1953,1467.3491,566.1953,1463.3491,562.1953" style="stroke:#181818;stroke-width:1.0;"/><line style="stroke:#181818;stroke-width:2.0;stroke-dasharray:2.0,2.0;" x1="1461.3491" x2="1740.9116" y1="562.1953" y2="562.1953"/><text fill="#000000" font-family="sans-serif" font-size="13" font-weight="bold" lengthAdjust="spacing" textLength="18.0908" x="1473.3491" y="557.1294">11</text><text fill="#000000" font-family="sans-serif" font-size="13" lengthAdjust="spacing" textLength="106.666" x="1495.4399" y="557.1294">row or (no rows)</text><path d="M34,577.1953 L94.4429,577.1953 L94.4429,584.3281 L84.4429,594.3281 L30,594.3281 L30,581.1953 A4,4 0 0 1 34,577.1953 " fill="#EEEEEE" style="stroke:#999999;stroke-width:1.5;"/><rect fill="none" height="700.7344" rx="4" ry="4" style="stroke:#999999;stroke-width:1.5;" width="1767.7607" x="30" y="577.1953"/><text fill="#000000" font-family="sans-serif" font-size="13" font-weight="bold" lengthAdjust="spacing" textLength="19.4429" x="45" y="590.2622">alt</text><text fill="#000000" font-family="sans-serif" font-size="11" font-weight="bold" lengthAdjust="spacing" textLength="94.832" x="109.4429" y="589.4058">[pet not found]</text><polygon fill="#181818" points="466.835,611.4609,456.835,615.4609,466.835,619.4609,462.835,615.4609" style="stroke:#181818;stroke-width:1.0;"/><line style="stroke:#181818;stroke-width:2.0;stroke-dasharray:2.0,2.0;" x1="460.835" x2="942.5308" y1="615.4609" y2="615.4609"/><text fill="#000000" font-family="sans-serif" font-size="13" font-weight="bold" lengthAdjust="spacing" textLength="18.0908" x="472.835" y="610.395">12</text><text fill="#000000" font-family="sans-serif" font-size="13" lengthAdjust="spacing" textLength="190.6772" x="494.9258" y="610.395">raises PetNotFoundException</text><polygon fill="#181818" points="94.2651,640.5938,84.2651,644.5938,94.2651,648.5938,90.2651,644.5938" style="stroke:#181818;stroke-width:1.0;"/><line style="stroke:#181818;stroke-width:2.0;stroke-dasharray:2.0,2.0;" x1="88.2651" x2="454.835" y1="644.5938" y2="644.5938"/><text fill="#000000" font-family="sans-serif" font-size="13" font-weight="bold" lengthAdjust="spacing" textLength="18.0908" x="100.2651" y="639.5278">13</text><text fill="#000000" font-family="sans-serif" font-size="13" lengthAdjust="spacing" textLength="96.0146" x="122.356" y="639.5278">404 Not Found</text><line style="stroke:#999999;stroke-width:1.0;stroke-dasharray:2.0,2.0;" x1="30" x2="1797.7607" y1="653.5938" y2="653.5938"/><text fill="#000000" font-family="sans-serif" font-size="11" font-weight="bold" lengthAdjust="spacing" textLength="70.356" x="35" y="663.8042">[pet found]</text><polygon fill="#181818" points="954.5308,684.5313,944.5308,688.5313,954.5308,692.5313,950.5308,688.5313" style="stroke:#181818;stroke-width:1.0;"/><line style="stroke:#181818;stroke-width:2.0;stroke-dasharray:2.0,2.0;" x1="948.5308" x2="1455.3491" y1="688.5313" y2="688.5313"/><text fill="#000000" font-family="sans-serif" font-size="13" font-weight="bold" lengthAdjust="spacing" textLength="18.0908" x="960.5308" y="683.4653">14</text><text fill="#000000" font-family="sans-serif" font-size="13" lengthAdjust="spacing" textLength="21.3472" x="982.6216" y="683.4653">pet</text><polygon fill="#181818" points="1288.1045,713.6641,1298.1045,717.6641,1288.1045,721.6641,1292.1045,717.6641" style="stroke:#181818;stroke-width:1.0;"/><line style="stroke:#181818;stroke-width:2.0;" x1="943.5308" x2="1294.1045" y1="717.6641" y2="717.6641"/><text fill="#000000" font-family="sans-serif" font-size="13" font-weight="bold" lengthAdjust="spacing" textLength="18.0908" x="950.5308" y="712.5981">15</text><text fill="#000000" font-family="sans-serif" font-size="13" lengthAdjust="spacing" textLength="218.6577" x="972.6216" y="712.5981">pet.is_owned_by(current_user_id)</text><path d="M44,732.6641 L104.4429,732.6641 L104.4429,739.7969 L94.4429,749.7969 L40,749.7969 L40,736.6641 A4,4 0 0 1 44,732.6641 " fill="#EEEEEE" style="stroke:#999999;stroke-width:1.5;"/><rect fill="none" height="538.2656" rx="4" ry="4" style="stroke:#999999;stroke-width:1.5;" width="1747.7607" x="40" y="732.6641"/><text fill="#000000" font-family="sans-serif" font-size="13" font-weight="bold" lengthAdjust="spacing" textLength="19.4429" x="55" y="745.731">alt</text><text fill="#000000" font-family="sans-serif" font-size="11" font-weight="bold" lengthAdjust="spacing" textLength="170.7686" x="119.4429" y="744.8745">[requester is not an owner]</text><polygon fill="#181818" points="466.835,766.9297,456.835,770.9297,466.835,774.9297,462.835,770.9297" style="stroke:#181818;stroke-width:1.0;"/><line style="stroke:#181818;stroke-width:2.0;stroke-dasharray:2.0,2.0;" x1="460.835" x2="942.5308" y1="770.9297" y2="770.9297"/><text fill="#000000" font-family="sans-serif" font-size="13" font-weight="bold" lengthAdjust="spacing" textLength="18.0908" x="472.835" y="765.8638">16</text><text fill="#000000" font-family="sans-serif" font-size="13" lengthAdjust="spacing" textLength="218.5815" x="494.9258" y="765.8638">raises PetAccessDeniedException</text><polygon fill="#181818" points="94.2651,796.0625,84.2651,800.0625,94.2651,804.0625,90.2651,800.0625" style="stroke:#181818;stroke-width:1.0;"/><line style="stroke:#181818;stroke-width:2.0;stroke-dasharray:2.0,2.0;" x1="88.2651" x2="454.835" y1="800.0625" y2="800.0625"/><text fill="#000000" font-family="sans-serif" font-size="13" font-weight="bold" lengthAdjust="spacing" textLength="18.0908" x="100.2651" y="794.9966">17</text><text fill="#000000" font-family="sans-serif" font-size="13" lengthAdjust="spacing" textLength="94.3262" x="122.356" y="794.9966">403 Forbidden</text><line style="stroke:#999999;stroke-width:1.0;stroke-dasharray:2.0,2.0;" x1="40" x2="1787.7607" y1="809.0625" y2="809.0625"/><text fill="#000000" font-family="sans-serif" font-size="11" font-weight="bold" lengthAdjust="spacing" textLength="146.2925" x="45" y="819.2729">[requester is an owner]</text><polygon fill="#181818" points="1288.1045,840,1298.1045,844,1288.1045,848,1292.1045,844" style="stroke:#181818;stroke-width:1.0;"/><line style="stroke:#181818;stroke-width:2.0;" x1="943.5308" x2="1294.1045" y1="844" y2="844"/><text fill="#000000" font-family="sans-serif" font-size="13" font-weight="bold" lengthAdjust="spacing" textLength="18.0908" x="950.5308" y="838.9341">18</text><text fill="#000000" font-family="sans-serif" font-size="13" lengthAdjust="spacing" textLength="266.1763" x="972.6216" y="838.9341">pet.remove_owner(owner_id_to_remove)</text><path d="M54,859 L114.4429,859 L114.4429,866.1328 L104.4429,876.1328 L50,876.1328 L50,863 A4,4 0 0 1 54,859 " fill="#EEEEEE" style="stroke:#999999;stroke-width:1.5;"/><rect fill="none" height="404.9297" rx="4" ry="4" style="stroke:#999999;stroke-width:1.5;" width="1727.7607" x="50" y="859"/><text fill="#000000" font-family="sans-serif" font-size="13" font-weight="bold" lengthAdjust="spacing" textLength="19.4429" x="65" y="872.0669">alt</text><text fill="#000000" font-family="sans-serif" font-size="11" font-weight="bold" lengthAdjust="spacing" textLength="393.9106" x="129.4429" y="871.2104">[only one owner remains &#8212; removing would leave zero owners]</text><polygon fill="#181818" points="954.5308,893.2656,944.5308,897.2656,954.5308,901.2656,950.5308,897.2656" style="stroke:#181818;stroke-width:1.0;"/><line style="stroke:#181818;stroke-width:2.0;stroke-dasharray:2.0,2.0;" x1="948.5308" x2="1299.1045" y1="897.2656" y2="897.2656"/><text fill="#000000" font-family="sans-serif" font-size="13" font-weight="bold" lengthAdjust="spacing" textLength="18.0908" x="960.5308" y="892.1997">19</text><text fill="#000000" font-family="sans-serif" font-size="13" lengthAdjust="spacing" textLength="310.4829" x="982.6216" y="892.1997">raises PetMustHaveAtLeastOneOwnerException</text><polygon fill="#181818" points="466.835,922.3984,456.835,926.3984,466.835,930.3984,462.835,926.3984" style="stroke:#181818;stroke-width:1.0;"/><line style="stroke:#181818;stroke-width:2.0;stroke-dasharray:2.0,2.0;" x1="460.835" x2="942.5308" y1="926.3984" y2="926.3984"/><text fill="#000000" font-family="sans-serif" font-size="13" font-weight="bold" lengthAdjust="spacing" textLength="18.0908" x="472.835" y="921.3325">20</text><text fill="#000000" font-family="sans-serif" font-size="13" lengthAdjust="spacing" textLength="310.4829" x="494.9258" y="921.3325">raises PetMustHaveAtLeastOneOwnerException</text><polygon fill="#181818" points="94.2651,966.6641,84.2651,970.6641,94.2651,974.6641,90.2651,970.6641" style="stroke:#181818;stroke-width:1.0;"/><line style="stroke:#181818;stroke-width:2.0;stroke-dasharray:2.0,2.0;" x1="88.2651" x2="454.835" y1="970.6641" y2="970.6641"/><text fill="#000000" font-family="sans-serif" font-size="13" font-weight="bold" lengthAdjust="spacing" textLength="18.0908" x="100.2651" y="958.0317">21</text><text fill="#000000" font-family="sans-serif" font-size="13" lengthAdjust="spacing" textLength="78.2603" x="122.356" y="950.4653">409 Conflict</text><text fill="#000000" font-family="sans-serif" font-size="13" lengthAdjust="spacing" textLength="326.479" x="122.356" y="965.5981">{ "detail": "A pet must have at least one owner" }</text><line style="stroke:#999999;stroke-width:1.0;stroke-dasharray:2.0,2.0;" x1="50" x2="1777.7607" y1="979.6641" y2="979.6641"/><text fill="#000000" font-family="sans-serif" font-size="11" font-weight="bold" lengthAdjust="spacing" textLength="104.5161" x="55" y="989.8745">[removal is safe]</text><polygon fill="#181818" points="954.5308,1010.6016,944.5308,1014.6016,954.5308,1018.6016,950.5308,1014.6016" style="stroke:#181818;stroke-width:1.0;"/><line style="stroke:#181818;stroke-width:2.0;stroke-dasharray:2.0,2.0;" x1="948.5308" x2="1299.1045" y1="1014.6016" y2="1014.6016"/><text fill="#000000" font-family="sans-serif" font-size="13" font-weight="bold" lengthAdjust="spacing" textLength="18.0908" x="960.5308" y="1009.5356">22</text><text fill="#000000" font-family="sans-serif" font-size="13" lengthAdjust="spacing" textLength="13" x="982.6216" y="1009.5356">&#8212;</text><path d="M1305,1031.6016 L1305,1063.6016 A4,4 0 0 0 1309,1067.6016 L1532,1067.6016 A4,4 0 0 0 1536,1063.6016 L1536,1037.6016 L1526,1027.6016 L1309,1027.6016 A4,4 0 0 0 1305,1031.6016 " fill="#FFFDE7" style="stroke:#BBBBBB;stroke-width:0.5;"/><path d="M1526,1027.6016 L1526,1035.6016 A2,2 0 0 0 1528,1037.6016 L1536,1037.6016 L1526,1027.6016 " fill="#FFFDE7" style="stroke:#BBBBBB;stroke-width:0.5;"/><text fill="#000000" font-family="sans-serif" font-size="13" lengthAdjust="spacing" textLength="210.7866" x="1311" y="1044.6685">owner_id_to_remove is removed</text><text fill="#000000" font-family="sans-serif" font-size="13" lengthAdjust="spacing" textLength="153.5879" x="1311" y="1059.8013">from pet.owner_ids set.</text><polygon fill="#181818" points="1444.3491,1090,1454.3491,1094,1444.3491,1098,1448.3491,1094" style="stroke:#181818;stroke-width:1.0;"/><line style="stroke:#181818;stroke-width:2.0;" x1="943.5308" x2="1450.3491" y1="1094" y2="1094"/><text fill="#000000" font-family="sans-serif" font-size="13" font-weight="bold" lengthAdjust="spacing" textLength="18.0908" x="950.5308" y="1088.9341">23</text><text fill="#000000" font-family="sans-serif" font-size="13" lengthAdjust="spacing" textLength="61.9214" x="972.6216" y="1088.9341">save(pet)</text><polygon fill="#181818" points="1729.9116,1134.2656,1739.9116,1138.2656,1729.9116,1142.2656,1733.9116,1138.2656" style="stroke:#181818;stroke-width:1.0;"/><line style="stroke:#181818;stroke-width:2.0;" x1="1456.3491" x2="1735.9116" y1="1138.2656" y2="1138.2656"/><text fill="#000000" font-family="sans-serif" font-size="13" font-weight="bold" lengthAdjust="spacing" textLength="18.0908" x="1463.3491" y="1125.6333">24</text><text fill="#000000" font-family="sans-serif" font-size="13" lengthAdjust="spacing" textLength="170.8472" x="1485.4399" y="1118.0669">DELETE FROM pet_owners</text><text fill="#000000" font-family="sans-serif" font-size="13" lengthAdjust="spacing" textLength="239.4717" x="1485.4399" y="1133.1997">WHERE pet_id = ? AND owner_id = ?</text><polygon fill="#181818" points="1467.3491,1163.3984,1457.3491,1167.3984,1467.3491,1171.3984,1463.3491,1167.3984" style="stroke:#181818;stroke-width:1.0;"/><line style="stroke:#181818;stroke-width:2.0;stroke-dasharray:2.0,2.0;" x1="1461.3491" x2="1740.9116" y1="1167.3984" y2="1167.3984"/><text fill="#000000" font-family="sans-serif" font-size="13" font-weight="bold" lengthAdjust="spacing" textLength="18.0908" x="1473.3491" y="1162.3325">25</text><text fill="#000000" font-family="sans-serif" font-size="13" lengthAdjust="spacing" textLength="18.7573" x="1495.4399" y="1162.3325">OK</text><polygon fill="#181818" points="466.835,1192.5313,456.835,1196.5313,466.835,1200.5313,462.835,1196.5313" style="stroke:#181818;stroke-width:1.0;"/><line style="stroke:#181818;stroke-width:2.0;stroke-dasharray:2.0,2.0;" x1="460.835" x2="942.5308" y1="1196.5313" y2="1196.5313"/><text fill="#000000" font-family="sans-serif" font-size="13" font-weight="bold" lengthAdjust="spacing" textLength="18.0908" x="472.835" y="1191.4653">26</text><text fill="#000000" font-family="sans-serif" font-size="13" lengthAdjust="spacing" textLength="181.7651" x="494.9258" y="1191.4653">PetDto (updated owner_ids)</text><polygon fill="#181818" points="94.2651,1251.9297,84.2651,1255.9297,94.2651,1259.9297,90.2651,1255.9297" style="stroke:#181818;stroke-width:1.0;"/><line style="stroke:#181818;stroke-width:2.0;stroke-dasharray:2.0,2.0;" x1="88.2651" x2="454.835" y1="1255.9297" y2="1255.9297"/><text fill="#000000" font-family="sans-serif" font-size="13" font-weight="bold" lengthAdjust="spacing" textLength="18.0908" x="100.2651" y="1235.731">27</text><text fill="#000000" font-family="sans-serif" font-size="13" lengthAdjust="spacing" textLength="47.7026" x="122.356" y="1220.5981">200 OK</text><text fill="#000000" font-family="sans-serif" font-size="13" lengthAdjust="spacing" textLength="184.4883" x="122.356" y="1235.731">{ "id", "name", "last_name",</text><text fill="#000000" font-family="sans-serif" font-size="13" lengthAdjust="spacing" textLength="288.5454" x="130.6206" y="1250.8638">"type", "owner_ids": [remaining_owner_id] }</text><!--SRC=[bLNRRjj647tdLmoK5mcmuqiT93PI5P98nMwTs5Nizg4gX1MvaXOcTvdTPHmb292Fw3Vqm_8bdLbUH58obDAmI2xFd9avCpjhXOqvJ7YYFdAuUPHSm_Tl_u0VN0Tt0Hobt9gZBoBwUgJe6pwx-mnNFCyy29aopH8m_4F6PSW7Mgl7kvK87oGt1avh4Aqo6OLAauTNEqnlcROY52cJTgXqnFL8nKh3inVkscF0meUbSr0OZGVqjyFe3QBI1l-vksfGgInl88RkQYEsN8x7Vl3IyrXeyNKK2owjvytL9-ZSQcxmZLcXP0UU1S7uR3pq0D9D1j11fMV8Pxdk03CmSOzjq191OQOriiqom_LKlduTyPJB29DRz_lET93PbSzJ3rS1_HT13D8q5c4P0qRxAZXfq-TjuBhWaiaeBc8fdbk4lagOS5mdo7NUvhhbbg8RB9UQBvd57bFA5X7Yjq1QOTSjoYkvqCnOdOKsqvoeXy4vYjgYVlyX5fOZoOIdoWZKUvrhXgyRneXPDcU68_xtQyGxY3_42cLMoIoPOqPUNYSux1U2myMFjFvKaiPAYyzEpmiOSgRHcAz_NStVXEBxjtyzho2iK__1OX6H5aGBg2fiE04Pu2C1uFx-oZSUYoq8kLc1XT89ioX6oOpKHVmNS7Pw2lSorIh4ZSVckATBXMFJvDtOzyjMGNjiKHNZ26XtMDUg1ovxQ4Nnk9SoAbo3Yk6mdgTcmd03LpdkZeo2Jo5FIIndjJE3unFCW1N2Sg9tiUS-ztYiXungUWql_RA34LXhyP5A4boVoYxjFH4Te0Wu9Onr50TGbcPcrKmxirxEMx9H0DXooBeGCfhDrmWkk7fv0FGLKVuGCU-nhqPtGBr1tt3jS4E0OnDmR7IbeaTJE2B9aOy63bOVPurRhGMmGtJS5k-K7HEwgVbJgfy1uc5SqJlHoMlTOvv9Gqc4UEru-fkjdIEU2pCZ7KcTRgj8lSAQigoK1s5Skapc-XUOlJaFGcfydql1j_9-AlEVC6iz5n4EpmBfSc_4ydGSsxdcJUBorTqdkwTCMSbuZJyyvqUlD4wDEtqTNiWbFAeiZY3c37VcPwvLZZKL3zHYQ5PdeypRpDXB91ZOQux3zKRctRyjqbwD_mVJRi7FOQJa0eyXF1g-G2VYbecuSu67asku1FbXHRaoIqaRkz6d0ryh-g9Ag16BgKQ6BVWFI8BArb1qY8CMonKwMJHAkLqvSf8_uRHOQ9MuSfSu303Vl5qwLllRO5Oq6dfrZUhJeJXrnfERjqIUDv6PoZylWqa0-L21d-4N6BppgmXfeKRO72atltdxIejP-rP1DqlfL8egNjFRKyhJusFaTqKKKUS0Ef8bdEun5csMlqmbGCUkKxTUCMEr_yfR7VjxLYx_NQzkDNJAf_nEl_J_7m00]--></g></svg>