<svg xmlns="http://www.w3.org/2000/svg" xmlns:xlink="http://www.w3.org/1999/xlink" contentStyleType="text/css" height="1287px" preserveAspectRatio="none" style="width:1893px;height:1287px;background:#FFFFFF;" version="1.1" viewBox="0 0 1893 1287" width="1893px" zoomAndPan="magnify"><defs/><g><text fill="#000000" font-family="sans-serif" font-size="14" font-weight="bold" lengthAdjust="spacing" textLength="286.8564" x="804.3931" y="27.9951">Register User &#8212; POST /auth/register</text><rect fill="#EEF4FB" height="1238.6484" rx="4" ry="4" style="stroke:#181818;stroke-width:0.5;" width="103.8672" x="334.1714" y="43.2969"/><text fill="#000000" font-family="sans-serif" font-size="13" font-weight="bold" lengthAdjust="spacing" textLength="94.4087" x="338.9006" y="55.3638">Presentation</text><rect fill="#FFF8E1" height="1238.6484" rx="4" ry="4" style="stroke:#181818;stroke-width:0.5;" width="167.3047" x="654.9004" y="43.2969"/><text fill="#000000" font-family="sans-serif" font-size="13" font-weight="bold" lengthAdjust="spacing" textLength="82.9194" x="697.093" y="55.3638">Application</text><rect fill="#F1F8E9" height="1238.6484" rx="4" ry="4" style="stroke:#181818;stroke-width:0.5;" width="292.0859" x="885.6265" y="43.2969"/><text fill="#000000" font-family="sans-serif" font-size="13" font-weight="bold" lengthAdjust="spacing" textLength="55.7515" x="1003.7937" y="55.3638">Domain</text><rect fill="#FBE9E7" height="1238.6484" rx="4" ry="4" style="stroke:#181818;stroke-width:0.5;" width="495.8857" x="1179.7124" y="43.2969"/><text fill="#000000" font-family="sans-serif" font-size="13" font-weight="bold" lengthAdjust="spacing" textLength="102.9526" x="1376.179" y="55.3638">Infrastructure</text><rect fill="none" height="933.3906" rx="4" ry="4" style="stroke:#999999;stroke-width:1.5;" width="1876.6426" x="10" y="252.2578"/><rect fill="none" height="682.3906" rx="4" ry="4" style="stroke:#999999;stroke-width:1.5;" width="1856.6426" x="20" y="496.2578"/><line style="stroke:#181818;stroke-width:0.5;stroke-dasharray:5.0,5.0;" x1="53" x2="53" y1="118.5938" y2="1202.6484"/><line style="stroke:#181818;stroke-width:0.5;stroke-dasharray:5.0,5.0;" x1="385.1714" x2="385.1714" y1="118.5938" y2="1202.6484"/><line style="stroke:#181818;stroke-width:0.5;stroke-dasharray:5.0,5.0;" x1="737.9004" x2="737.9004" y1="118.5938" y2="1202.6484"/><line style="stroke:#181818;stroke-width:0.5;stroke-dasharray:5.0,5.0;" x1="949.6265" x2="949.6265" y1="118.5938" y2="1202.6484"/><line style="stroke:#181818;stroke-width:0.5;stroke-dasharray:5.0,5.0;" x1="1137.7095" x2="1137.7095" y1="118.5938" y2="1202.6484"/><line style="stroke:#181818;stroke-width:0.5;stroke-dasharray:5.0,5.0;" x1="1271.7124" x2="1271.7124" y1="118.5938" y2="1202.6484"/><line style="stroke:#181818;stroke-width:0.5;stroke-dasharray:5.0,5.0;" x1="1435.4399" x2="1435.4399" y1="118.5938" y2="1202.6484"/><line style="stroke:#181818;stroke-width:0.5;stroke-dasharray:5.0,5.0;" x1="1590.9604" x2="1590.9604" y1="118.5938" y2="1202.6484"/><line style="stroke:#181818;stroke-width:0.5;stroke-dasharray:5.0,5.0;" x1="1839.9443" x2="1839.9443" y1="118.5938" y2="1202.6484"/><text fill="#000000" font-family="sans-serif" font-size="14" lengthAdjust="spacing" textLength="40.5303" x="30" y="115.292">Client</text><ellipse cx="53.2651" cy="50.7969" fill="#E2E2F0" rx="8" ry="8" style="stroke:#181818;stroke-width:0.5;"/><path d="M53.2651,58.7969 L53.2651,85.7969 M40.2651,66.7969 L66.2651,66.7969 M53.2651,85.7969 L40.2651,100.7969 M53.2651,85.7969 L66.2651,100.7969 " fill="none" style="stroke:#181818;stroke-width:0.5;"/><text fill="#000000" font-family="sans-serif" font-size="14" lengthAdjust="spacing" textLength="40.5303" x="30" y="1214.6436">Client</text><ellipse cx="53.2651" cy="1226.4453" fill="#E2E2F0" rx="8" ry="8" style="stroke:#181818;stroke-width:0.5;"/><path d="M53.2651,1234.4453 L53.2651,1261.4453 M40.2651,1242.4453 L66.2651,1242.4453 M53.2651,1261.4453 L40.2651,1276.4453 M53.2651,1261.4453 L66.2651,1276.4453 " fill="none" style="stroke:#181818;stroke-width:0.5;"/><rect fill="#FAFAFA" height="30.2969" rx="4" ry="4" style="stroke:#555555;stroke-width:0.5;" width="95.8672" x="338.1714" y="87.2969"/><text fill="#000000" font-family="sans-serif" font-size="14" lengthAdjust="spacing" textLength="81.8672" x="345.1714" y="107.292">auth_router</text><rect fill="#FAFAFA" height="30.2969" rx="4" ry="4" style="stroke:#555555;stroke-width:0.5;" width="95.8672" x="338.1714" y="1201.6484"/><text fill="#000000" font-family="sans-serif" font-size="14" lengthAdjust="spacing" textLength="81.8672" x="345.1714" y="1221.6436">auth_router</text><rect fill="#FAFAFA" height="30.2969" rx="4" ry="4" style="stroke:#555555;stroke-width:0.5;" width="159.3047" x="658.9004" y="87.2969"/><text fill="#000000" font-family="sans-serif" font-size="14" lengthAdjust="spacing" textLength="145.3047" x="665.9004" y="107.292">RegisterUserHandler</text><rect fill="#FAFAFA" height="30.2969" rx="4" ry="4" style="stroke:#555555;stroke-width:0.5;" width="159.3047" x="658.9004" y="1201.6484"/><text fill="#000000" font-family="sans-serif" font-size="14" lengthAdjust="spacing" textLength="145.3047" x="665.9004" y="1221.6436">RegisterUserHandler</text><rect fill="#FAFAFA" height="46.5938" rx="4" ry="4" style="stroke:#555555;stroke-width:0.5;" width="120.709" x="889.6265" y="71"/><text fill="#000000" font-family="sans-serif" font-size="14" lengthAdjust="spacing" textLength="71.6133" x="914.1743" y="90.9951">Username</text><text fill="#000000" font-family="sans-serif" font-size="14" lengthAdjust="spacing" textLength="106.709" x="896.6265" y="107.292">&#171;Value Object&#187;</text><rect fill="#FAFAFA" height="46.5938" rx="4" ry="4" style="stroke:#555555;stroke-width:0.5;" width="120.709" x="889.6265" y="1201.6484"/><text fill="#000000" font-family="sans-serif" font-size="14" lengthAdjust="spacing" textLength="71.6133" x="914.1743" y="1221.6436">Username</text><text fill="#000000" font-family="sans-serif" font-size="14" lengthAdjust="spacing" textLength="106.709" x="896.6265" y="1237.9404">&#171;Value Object&#187;</text><rect fill="#FAFAFA" height="46.5938" rx="4" ry="4" style="stroke:#555555;stroke-width:0.5;" width="72.0029" x="1101.7095" y="71"/><text fill="#000000" font-family="sans-serif" font-size="14" lengthAdjust="spacing" textLength="31.9102" x="1121.7559" y="90.9951">User</text><text fill="#000000" font-family="sans-serif" font-size="14" lengthAdjust="spacing" textLength="58.0029" x="1108.7095" y="107.292">&#171;Entity&#187;</text><rect fill="#FAFAFA" height="46.5938" rx="4" ry="4" style="stroke:#555555;stroke-width:0.5;" width="72.0029" x="1101.7095" y="1201.6484"/><text fill="#000000" font-family="sans-serif" font-size="14" lengthAdjust="spacing" textLength="31.9102" x="1121.7559" y="1221.6436">User</text><text fill="#000000" font-family="sans-serif" font-size="14" lengthAdjust="spacing" textLength="58.0029" x="1108.7095" y="1237.9404">&#171;Entity&#187;</text><rect fill="#FAFAFA" height="30.2969" rx="4" ry="4" style="stroke:#555555;stroke-width:0.5;" width="177.7275" x="1183.7124" y="87.2969"/><text fill="#000000" font-family="sans-serif" font-size="14" lengthAdjust="spacing" textLength="163.7275" x="1190.7124" y="107.292">BcryptPasswordService</text><rect fill="#FAFAFA" height="30.2969" rx="4" ry="4" style="stroke:#555555;stroke-width:0.5;" width="177.7275" x="1183.7124" y="1201.6484"/><text fill="#000000" font-family="sans-serif" font-size="14" lengthAdjust="spacing" textLength="163.7275" x="1190.7124" y="1221.6436">BcryptPasswordService</text><rect fill="#FAFAFA" height="30.2969" rx="4" ry="4" style="stroke:#555555;stroke-width:0.5;" width="129.5205" x="1371.4399" y="87.2969"/><text fill="#000000" font-family="sans-serif" font-size="14" lengthAdjust="spacing" textLength="115.5205" x="1378.4399" y="107.292">JwtTokenService</text><rect fill="#FAFAFA" height="30.2969" rx="4" ry="4" style="stroke:#555555;stroke-width:0.5;" width="129.5205" x="1371.4399" y="1201.6484"/><text fill="#000000" font-family="sans-serif" font-size="14" lengthAdjust="spacing" textLength="115.5205" x="1378.4399" y="1221.6436">JwtTokenService</text><rect fill="#FAFAFA" height="30.2969" rx="4" ry="4" style="stroke:#555555;stroke-width:0.5;" width="160.6377" x="1510.9604" y="87.2969"/><text fill="#000000" font-family="sans-serif" font-size="14" lengthAdjust="spacing" textLength="146.6377" x="1517.9604" y="107.292">SqliteUserRepository</text><rect fill="#FAFAFA" height="30.2969" rx="4" ry="4" style="stroke:#555555;stroke-width:0.5;" width="160.6377" x="1510.9604" y="1201.6484"/><text fill="#000000" font-family="sans-serif" font-size="14" lengthAdjust="spacing" textLength="146.6377" x="1517.9604" y="1221.6436">SqliteUserRepository</text><text fill="#000000" font-family="sans-serif" font-size="14" lengthAdjust="spacing" textLength="45.6982" x="1814.9443" y="115.292">SQLite</text><path d="M1822.7935,66.2969 C1822.7935,56.2969 1840.7935,56.2969 1840.7935,56.2969 C1840.7935,56.2969 1858.7935,56.2969 1858.7935,66.2969 L1858.7935,92.2969 C1858.7935,102.2969 1840.7935,102.2969 1840.7935,102.2969 C1840.7935,102.2969 1822.7935,102.2969 1822.7935,92.2969 L1822.7935,66.2969 " fill="#E2E2F0" style="stroke:#181818;stroke-width:1.5;"/><path d="M1822.7935,66.2969 C1822.7935,76.2969 1840.7935,76.2969 1840.7935,76.2969 C1840.7935,76.2969 1858.7935,76.2969 1858.7935,66.2969 " fill="none" style="stroke:#181818;stroke-width:1.5;"/><text fill="#000000" font-family="sans-serif" font-size="14" lengthAdjust="spacing" textLength="45.6982" x="1814.9443" y="1214.6436">SQLite</text><path d="M1822.7935,1227.9453 C1822.7935,1217.9453 1840.7935,1217.9453 1840.7935,1217.9453 C1840.7935,1217.9453 1858.7935,1217.9453 1858.7935,1227.9453 L1858.7935,1253.9453 C1858.7935,1263.9453 1840.7935,1263.9453 1840.7935,1263.9453 C1840.7935,1263.9453 1822.7935,1263.9453 1822.7935,1253.9453 L1822.7935,1227.9453 " fill="#E2E2F0" style="stroke:#181818;stroke-width:1.5;"/><path d="M1822.7935,1227.9453 C1822.7935,1237.9453 1840.7935,1237.9453 1840.7935,1237.9453 C1840.7935,1237.9453 1858.7935,1237.9453 1858.7935,1227.9453 " fill="none" style="stroke:#181818;stroke-width:1.5;"/><polygon fill="#181818" points="374.105,160.8594,384.105,164.8594,374.105,168.8594,378.105,164.8594" style="stroke:#181818;stroke-width:1.0;"/><line style="stroke:#181818;stroke-width:2.0;" x1="53.2651" x2="380.105" y1="164.8594" y2="164.8594"/><text fill="#000000" font-family="sans-serif" font-size="13" font-weight="bold" lengthAdjust="spacing" textLength="9.0454" x="60.2651" y="152.2271">1</text><text fill="#000000" font-family="sans-serif" font-size="13" lengthAdjust="spacing" textLength="127.1182" x="73.3105" y="144.6606">POST /auth/register</text><text fill="#000000" font-family="sans-serif" font-size="13" lengthAdjust="spacing" textLength="295.7944" x="73.3105" y="159.7935">{ "username": "alice", "password": "secret" }</text><line style="stroke:#181818;stroke-width:2.0;" x1="386.105" x2="428.105" y1="224.2578" y2="224.2578"/><line style="stroke:#181818;stroke-width:2.0;" x1="428.105" x2="428.105" y1="224.2578" y2="237.2578"/><line style="stroke:#181818;stroke-width:2.0;" x1="387.105" x2="428.105" y1="237.2578" y2="237.2578"/><polygon fill="#181818" points="397.105,233.2578,387.105,237.2578,397.105,241.2578,393.105,237.2578" style="stroke:#181818;stroke-width:1.0;"/><text fill="#000000" font-family="sans-serif" font-size="13" font-weight="bold" lengthAdjust="spacing" textLength="9.0454" x="393.105" y="204.0591">2</text><text fill="#000000" font-family="sans-serif" font-size="13" lengthAdjust="spacing" textLength="178.9023" x="406.1504" y="188.9263">Pydantic schema validation</text><text fill="#000000" font-family="sans-serif" font-size="13" lengthAdjust="spacing" textLength="212.7798" x="406.1504" y="204.0591">(min_length=3, max_length=50,</text><text fill="#000000" font-family="sans-serif" font-size="13" lengthAdjust="spacing" textLength="128.832" x="406.1504" y="219.1919">alphanumeric + _ -)</text><path d="M14,252.2578 L74.4429,252.2578 L74.4429,259.3906 L64.4429,269.3906 L10,269.3906 L10,256.2578 A4,4 0 0 1 14,252.2578 " fill="#EEEEEE" style="stroke:#999999;stroke-width:1.5;"/><rect fill="none" height="933.3906" rx="4" ry="4" style="stroke:#999999;stroke-width:1.5;" width="1876.6426" x="10" y="252.2578"/><text fill="#000000" font-family="sans-serif" font-size="13" font-weight="bold" lengthAdjust="spacing" textLength="19.4429" x="25" y="265.3247">alt</text><text fill="#000000" font-family="sans-serif" font-size="11" font-weight="bold" lengthAdjust="spacing" textLength="359.4443" x="89.4429" y="264.4683">[schema invalid &#8212; blank / too short / too long / bad chars]</text><polygon fill="#181818" points="64.2651,286.5234,54.2651,290.5234,64.2651,294.5234,60.2651,290.5234" style="stroke:#181818;stroke-width:1.0;"/><line style="stroke:#181818;stroke-width:2.0;stroke-dasharray:2.0,2.0;" x1="58.2651" x2="385.105" y1="290.5234" y2="290.5234"/><text fill="#000000" font-family="sans-serif" font-size="13" font-weight="bold" lengthAdjust="spacing" textLength="9.0454" x="70.2651" y="285.4575">3</text><text fill="#000000" font-family="sans-serif" font-size="13" lengthAdjust="spacing" textLength="166.8545" x="83.3105" y="285.4575">422 Unprocessable Entity</text><line style="stroke:#999999;stroke-width:1.0;stroke-dasharray:2.0,2.0;" x1="10" x2="1886.6426" y1="299.5234" y2="299.5234"/><text fill="#000000" font-family="sans-serif" font-size="11" font-weight="bold" lengthAdjust="spacing" textLength="91.1367" x="15" y="309.7339">[schema valid]</text><polygon fill="#181818" points="726.5527,345.5938,736.5527,349.5938,726.5527,353.5938,730.5527,349.5938" style="stroke:#181818;stroke-width:1.0;"/><line style="stroke:#181818;stroke-width:2.0;" x1="386.105" x2="732.5527" y1="349.5938" y2="349.5938"/><text fill="#000000" font-family="sans-serif" font-size="13" font-weight="bold" lengthAdjust="spacing" textLength="9.0454" x="393.105" y="336.9614">4</text><text fill="#000000" font-family="sans-serif" font-size="13" lengthAdjust="spacing" textLength="150.5537" x="406.1504" y="329.395">RegisterUserCommand</text><text fill="#000000" font-family="sans-serif" font-size="13" lengthAdjust="spacing" textLength="261.9741" x="406.1504" y="344.5278">(username="alice", password="secret")</text><polygon fill="#181818" points="1579.2793,374.7266,1589.2793,378.7266,1579.2793,382.7266,1583.2793,378.7266" style="stroke:#181818;stroke-width:1.0;"/><line style="stroke:#181818;stroke-width:2.0;" x1="738.5527" x2="1585.2793" y1="378.7266" y2="378.7266"/><text fill="#000000" font-family="sans-serif" font-size="13" font-weight="bold" lengthAdjust="spacing" textLength="9.0454" x="745.5527" y="373.6606">5</text><text fill="#000000" font-family="sans-serif" font-size="13" lengthAdjust="spacing" textLength="171.2852" x="758.5981" y="373.6606">find_by_username("alice")</text><polygon fill="#181818" points="1828.7935,418.9922,1838.7935,422.9922,1828.7935,426.9922,1832.7935,422.9922" style="stroke:#181818;stroke-width:1.0;"/><line style="stroke:#181818;stroke-width:2.0;" x1="1591.2793" x2="1834.7935" y1="422.9922" y2="422.9922"/><text fill="#000000" font-family="sans-serif" font-size="13" font-weight="bold" lengthAdjust="spacing" textLength="9.0454" x="1598.2793" y="410.3599">6</text><text fill="#000000" font-family="sans-serif" font-size="13" lengthAdjust="spacing" textLength="146.2881" x="1611.3247" y="402.7935">SELECT id FROM users</text><text fill="#000000" font-family="sans-serif" font-size="13" lengthAdjust="spacing" textLength="174.0845" x="1611.3247" y="417.9263">WHERE username = 'alice'</text><polygon fill="#181818" points="1602.2793,448.125,1592.2793,452.125,1602.2793,456.125,1598.2793,452.125" style="stroke:#181818;stroke-width:1.0;"/><line style="stroke:#181818;stroke-width:2.0;stroke-dasharray:2.0,2.0;" x1="1596.2793" x2="1839.7935" y1="452.125" y2="452.125"/><text fill="#000000" font-family="sans-serif" font-size="13" font-weight="bold" lengthAdjust="spacing" textLength="9.0454" x="1608.2793" y="447.0591">7</text><text fill="#000000" font-family="sans-serif" font-size="13" lengthAdjust="spacing" textLength="61.1724" x="1621.3247" y="447.0591">(no rows)</text><polygon fill="#181818" points="749.5527,477.2578,739.5527,481.2578,749.5527,485.2578,745.5527,481.2578" style="stroke:#181818;stroke-width:1.0;"/><line style="stroke:#181818;stroke-width:2.0;stroke-dasharray:2.0,2.0;" x1="743.5527" x2="1590.2793" y1="481.2578" y2="481.2578"/><text fill="#000000" font-family="sans-serif" font-size="13" font-weight="bold" lengthAdjust="spacing" textLength="9.0454" x="755.5527" y="476.1919">8</text><text fill="#000000" font-family="sans-serif" font-size="13" lengthAdjust="spacing" textLength="33.9155" x="768.5981" y="476.1919">None</text><path d="M24,496.2578 L84.4429,496.2578 L84.4429,503.3906 L74.4429,513.3906 L20,513.3906 L20,500.2578 A4,4 0 0 1 24,496.2578 " fill="#EEEEEE" style="stroke:#999999;stroke-width:1.5;"/><rect fill="none" height="682.3906" rx="4" ry="4" style="stroke:#999999;stroke-width:1.5;" width="1856.6426" x="20" y="496.2578"/><text fill="#000000" font-family="sans-serif" font-size="13" font-weight="bold" lengthAdjust="spacing" textLength="19.4429" x="35" y="509.3247">alt</text><text fill="#000000" font-family="sans-serif" font-size="11" font-weight="bold" lengthAdjust="spacing" textLength="160.9878" x="99.4429" y="508.4683">[username already taken]</text><polygon fill="#181818" points="397.105,530.5234,387.105,534.5234,397.105,538.5234,393.105,534.5234" style="stroke:#181818;stroke-width:1.0;"/><line style="stroke:#181818;stroke-width:2.0;stroke-dasharray:2.0,2.0;" x1="391.105" x2="737.5527" y1="534.5234" y2="534.5234"/><text fill="#000000" font-family="sans-serif" font-size="13" font-weight="bold" lengthAdjust="spacing" textLength="9.0454" x="403.105" y="529.4575">9</text><text fill="#000000" font-family="sans-serif" font-size="13" lengthAdjust="spacing" textLength="224.3579" x="416.1504" y="529.4575">raises UserAlreadyExistsException</text><polygon fill="#181818" points="64.2651,559.6563,54.2651,563.6563,64.2651,567.6563,60.2651,563.6563" style="stroke:#181818;stroke-width:1.0;"/><line style="stroke:#181818;stroke-width:2.0;stroke-dasharray:2.0,2.0;" x1="58.2651" x2="385.105" y1="563.6563" y2="563.6563"/><text fill="#000000" font-family="sans-serif" font-size="13" font-weight="bold" lengthAdjust="spacing" textLength="18.0908" x="70.2651" y="558.5903">10</text><text fill="#000000" font-family="sans-serif" font-size="13" lengthAdjust="spacing" textLength="78.2603" x="92.356" y="558.5903">409 Conflict</text><line style="stroke:#999999;stroke-width:1.0;stroke-dasharray:2.0,2.0;" x1="20" x2="1876.6426" y1="572.6563" y2="572.6563"/><text fill="#000000" font-family="sans-serif" font-size="11" font-weight="bold" lengthAdjust="spacing" textLength="114.603" x="25" y="582.8667">[username is free]</text><polygon fill="#181818" points="937.981,603.5938,947.981,607.5938,937.981,611.5938,941.981,607.5938" style="stroke:#181818;stroke-width:1.0;"/><line style="stroke:#181818;stroke-width:2.0;" x1="738.5527" x2="943.981" y1="607.5938" y2="607.5938"/><text fill="#000000" font-family="sans-serif" font-size="13" font-weight="bold" lengthAdjust="spacing" textLength="18.0908" x="745.5527" y="602.5278">11</text><text fill="#000000" font-family="sans-serif" font-size="13" lengthAdjust="spacing" textLength="165.3374" x="767.6436" y="602.5278">Username(value="alice")</text><line style="stroke:#181818;stroke-width:2.0;" x1="949.981" x2="991.981" y1="666.9922" y2="666.9922"/><line style="stroke:#181818;stroke-width:2.0;" x1="991.981" x2="991.981" y1="666.9922" y2="679.9922"/><line style="stroke:#181818;stroke-width:2.0;" x1="950.981" x2="991.981" y1="679.9922" y2="679.9922"/><polygon fill="#181818" points="960.981,675.9922,950.981,679.9922,960.981,683.9922,956.981,679.9922" style="stroke:#181818;stroke-width:1.0;"/><text fill="#000000" font-family="sans-serif" font-size="13" font-weight="bold" lengthAdjust="spacing" textLength="18.0908" x="956.981" y="646.7935">12</text><text fill="#000000" font-family="sans-serif" font-size="13" lengthAdjust="spacing" textLength="106.9263" x="979.0718" y="631.6606">strip whitespace</text><text fill="#000000" font-family="sans-serif" font-size="13" lengthAdjust="spacing" textLength="65.4253" x="979.0718" y="646.7935">lowercase</text><text fill="#000000" font-family="sans-serif" font-size="13" lengthAdjust="spacing" textLength="151.6392" x="979.0718" y="661.9263">validate length &amp; chars</text><polygon fill="#181818" points="749.5527,705.125,739.5527,709.125,749.5527,713.125,745.5527,709.125" style="stroke:#181818;stroke-width:1.0;"/><line style="stroke:#181818;stroke-width:2.0;stroke-dasharray:2.0,2.0;" x1="743.5527" x2="948.981" y1="709.125" y2="709.125"/><text fill="#000000" font-family="sans-serif" font-size="13" font-weight="bold" lengthAdjust="spacing" textLength="18.0908" x="755.5527" y="704.0591">13</text><text fill="#000000" font-family="sans-serif" font-size="13" lengthAdjust="spacing" textLength="118.936" x="777.6436" y="704.0591">Username("alice")</text><polygon fill="#181818" points="1260.5762,734.2578,1270.5762,738.2578,1260.5762,742.2578,1264.5762,738.2578" style="stroke:#181818;stroke-width:1.0;"/><line style="stroke:#181818;stroke-width:2.0;" x1="738.5527" x2="1266.5762" y1="738.2578" y2="738.2578"/><text fill="#000000" font-family="sans-serif" font-size="13" font-weight="bold" lengthAdjust="spacing" textLength="18.0908" x="745.5527" y="733.1919">14</text><text fill="#000000" font-family="sans-serif" font-size="13" lengthAdjust="spacing" textLength="93.6787" x="767.6436" y="733.1919">hash("secret")</text><polygon fill="#181818" points="749.5527,763.3906,739.5527,767.3906,749.5527,771.3906,745.5527,767.3906" style="stroke:#181818;stroke-width:1.0;"/><line style="stroke:#181818;stroke-width:2.0;stroke-dasharray:2.0,2.0;" x1="743.5527" x2="1271.5762" y1="767.3906" y2="767.3906"/><text fill="#000000" font-family="sans-serif" font-size="13" font-weight="bold" lengthAdjust="spacing" textLength="18.0908" x="755.5527" y="762.3247">15</text><text fill="#000000" font-family="sans-serif" font-size="13" lengthAdjust="spacing" textLength="82.8369" x="777.6436" y="762.3247">"$2b$12$&#8230;"</text><polygon fill="#181818" points="1125.7109,822.7891,1135.7109,826.7891,1125.7109,830.7891,1129.7109,826.7891" style="stroke:#181818;stroke-width:1.0;"/><line style="stroke:#181818;stroke-width:2.0;" x1="738.5527" x2="1131.7109" y1="826.7891" y2="826.7891"/><text fill="#000000" font-family="sans-serif" font-size="13" font-weight="bold" lengthAdjust="spacing" textLength="18.0908" x="745.5527" y="806.5903">16</text><text fill="#000000" font-family="sans-serif" font-size="13" lengthAdjust="spacing" textLength="89.2544" x="767.6436" y="791.4575">User.register(</text><text fill="#000000" font-family="sans-serif" font-size="13" lengthAdjust="spacing" textLength="199.1831" x="775.9082" y="806.5903">username=Username("alice"),</text><text fill="#000000" font-family="sans-serif" font-size="13" lengthAdjust="spacing" textLength="198.4658" x="775.9082" y="821.7231">password_hash="$2b$12$&#8230;")</text><path d="M1142,843.7891 L1142,875.7891 A4,4 0 0 0 1146,879.7891 L1321,879.7891 A4,4 0 0 0 1325,875.7891 L1325,849.7891 L1315,839.7891 L1146,839.7891 A4,4 0 0 0 1142,843.7891 " fill="#FFFDE7" style="stroke:#BBBBBB;stroke-width:0.5;"/><path d="M1315,839.7891 L1315,847.7891 A2,2 0 0 0 1317,849.7891 L1325,849.7891 L1315,839.7891 " fill="#FFFDE7" style="stroke:#BBBBBB;stroke-width:0.5;"/><text fill="#000000" font-family="sans-serif" font-size="13" lengthAdjust="spacing" textLength="117.3237" x="1148" y="856.856">Assigns new UUID</text><text fill="#000000" font-family="sans-serif" font-size="13" lengthAdjust="spacing" textLength="162.5063" x="1148" y="871.9888">No domain events raised</text><polygon fill="#181818" points="749.5527,902.1875,739.5527,906.1875,749.5527,910.1875,745.5527,906.1875" style="stroke:#181818;stroke-width:1.0;"/><line style="stroke:#181818;stroke-width:2.0;stroke-dasharray:2.0,2.0;" x1="743.5527" x2="1136.7109" y1="906.1875" y2="906.1875"/><text fill="#000000" font-family="sans-serif" font-size="13" font-weight="bold" lengthAdjust="spacing" textLength="18.0908" x="755.5527" y="901.1216">17</text><text fill="#000000" font-family="sans-serif" font-size="13" lengthAdjust="spacing" textLength="28.355" x="777.6436" y="901.1216">user</text><polygon fill="#181818" points="1579.2793,931.3203,1589.2793,935.3203,1579.2793,939.3203,1583.2793,935.3203" style="stroke:#181818;stroke-width:1.0;"/><line style="stroke:#181818;stroke-width:2.0;" x1="738.5527" x2="1585.2793" y1="935.3203" y2="935.3203"/><text fill="#000000" font-family="sans-serif" font-size="13" font-weight="bold" lengthAdjust="spacing" textLength="18.0908" x="745.5527" y="930.2544">18</text><text fill="#000000" font-family="sans-serif" font-size="13" lengthAdjust="spacing" textLength="68.9292" x="767.6436" y="930.2544">save(user)</text><polygon fill="#181818" points="1828.7935,975.5859,1838.7935,979.5859,1828.7935,983.5859,1832.7935,979.5859" style="stroke:#181818;stroke-width:1.0;"/><line style="stroke:#181818;stroke-width:2.0;" x1="1591.2793" x2="1834.7935" y1="979.5859" y2="979.5859"/><text fill="#000000" font-family="sans-serif" font-size="13" font-weight="bold" lengthAdjust="spacing" textLength="18.0908" x="1598.2793" y="966.9536">19</text><text fill="#000000" font-family="sans-serif" font-size="13" lengthAdjust="spacing" textLength="122.1226" x="1620.3701" y="959.3872">INSERT INTO users</text><text fill="#000000" font-family="sans-serif" font-size="13" lengthAdjust="spacing" textLength="203.4233" x="1620.3701" y="974.52">(id, username, password_hash)</text><polygon fill="#181818" points="1602.2793,1004.7188,1592.2793,1008.7188,1602.2793,1012.7188,1598.2793,1008.7188" style="stroke:#181818;stroke-width:1.0;"/><line style="stroke:#181818;stroke-width:2.0;stroke-dasharray:2.0,2.0;" x1="1596.2793" x2="1839.7935" y1="1008.7188" y2="1008.7188"/><text fill="#000000" font-family="sans-serif" font-size="13" font-weight="bold" lengthAdjust="spacing" textLength="18.0908" x="1608.2793" y="1003.6528">20</text><text fill="#000000" font-family="sans-serif" font-size="13" lengthAdjust="spacing" textLength="18.7573" x="1630.3701" y="1003.6528">OK</text><polygon fill="#181818" points="1424.2002,1033.8516,1434.2002,1037.8516,1424.2002,1041.8516,1428.2002,1037.8516" style="stroke:#181818;stroke-width:1.0;"/><line style="stroke:#181818;stroke-width:2.0;" x1="738.5527" x2="1430.2002" y1="1037.8516" y2="1037.8516"/><text fill="#000000" font-family="sans-serif" font-size="13" font-weight="bold" lengthAdjust="spacing" textLength="18.0908" x="745.5527" y="1032.7856">21</text><text fill="#000000" font-family="sans-serif" font-size="13" lengthAdjust="spacing" textLength="139.3628" x="767.6436" y="1032.7856">create_token(user.id)</text><polygon fill="#181818" points="749.5527,1062.9844,739.5527,1066.9844,749.5527,1070.9844,745.5527,1066.9844" style="stroke:#181818;stroke-width:1.0;"/><line style="stroke:#181818;stroke-width:2.0;stroke-dasharray:2.0,2.0;" x1="743.5527" x2="1435.2002" y1="1066.9844" y2="1066.9844"/><text fill="#000000" font-family="sans-serif" font-size="13" font-weight="bold" lengthAdjust="spacing" textLength="18.0908" x="755.5527" y="1061.9185">22</text><text fill="#000000" font-family="sans-serif" font-size="13" lengthAdjust="spacing" textLength="157.2061" x="777.6436" y="1061.9185">"eyJhbGciOiJIUzI1NiJ9&#8230;"</text><polygon fill="#181818" points="397.105,1107.25,387.105,1111.25,397.105,1115.25,393.105,1111.25" style="stroke:#181818;stroke-width:1.0;"/><line style="stroke:#181818;stroke-width:2.0;stroke-dasharray:2.0,2.0;" x1="391.105" x2="737.5527" y1="1111.25" y2="1111.25"/><text fill="#000000" font-family="sans-serif" font-size="13" font-weight="bold" lengthAdjust="spacing" textLength="18.0908" x="403.105" y="1098.6177">23</text><text fill="#000000" font-family="sans-serif" font-size="13" lengthAdjust="spacing" textLength="62.7212" x="425.1958" y="1091.0513">TokenDto</text><text fill="#000000" font-family="sans-serif" font-size="13" lengthAdjust="spacing" textLength="306.3569" x="425.1958" y="1106.1841">(user_id, username, access_token, token_type)</text><polygon fill="#181818" points="64.2651,1166.6484,54.2651,1170.6484,64.2651,1174.6484,60.2651,1170.6484" style="stroke:#181818;stroke-width:1.0;"/><line style="stroke:#181818;stroke-width:2.0;stroke-dasharray:2.0,2.0;" x1="58.2651" x2="385.105" y1="1170.6484" y2="1170.6484"/><text fill="#000000" font-family="sans-serif" font-size="13" font-weight="bold" lengthAdjust="spacing" textLength="18.0908" x="70.2651" y="1150.4497">24</text><text fill="#000000" font-family="sans-serif" font-size="13" lengthAdjust="spacing" textLength="80.6787" x="92.356" y="1135.3169">201 Created</text><text fill="#000000" font-family="sans-serif" font-size="13" lengthAdjust="spacing" textLength="160.6592" x="92.356" y="1150.4497">{ "user_id", "username",</text><text fill="#000000" font-family="sans-serif" font-size="13" lengthAdjust="spacing" textLength="267.4395" x="100.6206" y="1165.5825">"access_token", "token_type": "bearer" }</text><!--SRC=[XLNRRjj647tdLmmOev5HERRK18sDo80bKOdTn79rILy42ClbMjoQscLsLvBL8a0-8j_G3ykNT7Pv4IcfA0rO97Vcp9ap5nfk4WOZjk3QC0LJZVz-VFiE3yFn1Cx9oiJdAZ_qFFt4HKeKMO9cNrPCK7QZbDnCOawV1DCQsXKJ9LSYeb89H7nxnFM1ACCfJuamNQaYfdeoaGfUl77N_pWG-hHm0NAdmOtzE-Bq7gtI6lwbkogcGXfMi-YwQz_Y8EHWq0z-zJn23Jxs4iw4yRnGFeF_e9Z69sAu53wy28B1wq7N0qXt6O1ljPqZ82hh0z4mShSU4n4WI8vqawO9fmKGXdmRjFQ1YkBPsdqW8afomFn-3x4lbuGxi1Q2NUw3MH11bcmcthtxJ98LWs7u9wFc-jfX5iUVXySShLCW33VRYddsOe_5hNXKH1krecQbc6NJ3IvHpJtGBbNRr3mGhJTOe35JQqwPGtxOHECrtRU_svY9V6AYQfczEBGTVqcuOPRXYALISwpYDYi4FkxeHiIGa6Y63hz_H0TdqkzYtLT6YjKoj8EHLH_EhlCgmjMn0Pg9ly5VvGhwLzW2YINP13_DCxGlDQEA6H- -UbuELeFTHiYUKz0qPai2QyI8N7_CH6F9nJnXOc7YpYzDM9BdukdDHNCcI9B611apXUu_mnpEJZ6Bn1HGN3WmD_vXGiGJd8EH4dGibSdl4oaMU1kI26XCb4PH2vB8CfVX2bwtsp0LgP8Kjm89SSCKNP2WabNg5O3hecCHeDhJFRbSuW7cLsZNAPKhXEiKic5AKE9OuR2OYFV8HJGFj_C2eP4ZdDhurWHD-rqq70SVWzu4K8R1QFW9hBsUYJy-1AC02cVem4ld_XAzqUji5wSX92w-ZTxXrjAwbu9PWbRr4eqaYf5e2uPWe-9XXN-ryefmpRAHkiayWcVKI0VFbAMs0PphqMfSN49FYaUaRD38rQ2CpZKyAiRgSQyhWuu0nKDZRJT2fw8TL0tttN2-UGgR6AT6fuJYJadaXYcAqpGJUUCoo5eKVYeRgevPqszwKBvztjbUGDEOwBYnwmfhbf_L8VsJTdZIQf_y-FQFxnrJ8UlSFFYhOfORCm6bY9q3NarxN3Jdt7BfL0DbVEnd1HHVn0RaOptMZTPy8JG8je7fzBO_4_SI8hUwWQsnh3hhXwZKAtUj9sS97YILjwecQ-OcAYDJcuBR-t4mck3FP5YCG8D7pJBXPZst3A4-2SFV3W8NcnXFiIfO-xcnRno9LppAK4gZlJAnxLqSlgTyoEzkft_TjkxvtUMHcbKdna7rZSmtnxoU0Q5sEMKKck1-vcQRijF_dAFsHGjwZdXKhd84jGkytEgky7uLsnxlqEs63nbHzXlzrGwZYEotnliN]--></g></svg>