<svg xmlns="http://www.w3.org/2000/svg" xmlns:xlink="http://www.w3.org/1999/xlink" contentStyleType="text/css" height="997px" preserveAspectRatio="none" style="width:1703px;height:997px;background:#FFFFFF;" version="1.1" viewBox="0 0 1703 997" width="1703px" zoomAndPan="magnify"><defs/><g><text fill="#000000" font-family="sans-serif" font-size="14" font-weight="bold" lengthAdjust="spacing" textLength="205.126" x="746.7249" y="27.9951">Login &#8212; POST /auth/token</text><rect fill="#EEF4FB" height="948.1875" rx="4" ry="4" style="stroke:#181818;stroke-width:0.5;" width="103.8672" x="368.4932" y="43.2969"/><text fill="#000000" font-family="sans-serif" font-size="13" font-weight="bold" lengthAdjust="spacing" textLength="94.4087" x="373.2224" y="55.3638">Presentation</text><rect fill="#FFF8E1" height="948.1875" rx="4" ry="4" style="stroke:#181818;stroke-width:0.5;" width="199.0918" x="673.3286" y="43.2969"/><text fill="#000000" font-family="sans-serif" font-size="13" font-weight="bold" lengthAdjust="spacing" textLength="82.9194" x="731.4148" y="55.3638">Application</text><rect fill="#FBE9E7" height="948.1875" rx="4" ry="4" style="stroke:#181818;stroke-width:0.5;" width="495.8857" x="965.897" y="43.2969"/><text fill="#000000" font-family="sans-serif" font-size="13" font-weight="bold" lengthAdjust="spacing" textLength="102.9526" x="1162.3635" y="55.3638">Infrastructure</text><rect fill="none" height="503.1328" rx="4" ry="4" style="stroke:#999999;stroke-width:1.5;" width="1457.7827" x="10" y="392.0547"/><rect fill="none" height="267.2656" rx="4" ry="4" style="stroke:#999999;stroke-width:1.5;" width="1277.145" x="20" y="620.9219"/><line style="stroke:#181818;stroke-width:0.5;stroke-dasharray:5.0,5.0;" x1="53" x2="53" y1="118.5938" y2="912.1875"/><line style="stroke:#181818;stroke-width:0.5;stroke-dasharray:5.0,5.0;" x1="419.4932" x2="419.4932" y1="118.5938" y2="912.1875"/><line style="stroke:#181818;stroke-width:0.5;stroke-dasharray:5.0,5.0;" x1="772.3286" x2="772.3286" y1="118.5938" y2="912.1875"/><line style="stroke:#181818;stroke-width:0.5;stroke-dasharray:5.0,5.0;" x1="1057.897" x2="1057.897" y1="118.5938" y2="912.1875"/><line style="stroke:#181818;stroke-width:0.5;stroke-dasharray:5.0,5.0;" x1="1221.6245" x2="1221.6245" y1="118.5938" y2="912.1875"/><line style="stroke:#181818;stroke-width:0.5;stroke-dasharray:5.0,5.0;" x1="1377.145" x2="1377.145" y1="118.5938" y2="912.1875"/><line style="stroke:#181818;stroke-width:0.5;stroke-dasharray:5.0,5.0;" x1="1667.8774" x2="1667.8774" y1="118.5938" y2="912.1875"/><text fill="#000000" font-family="sans-serif" font-size="14" lengthAdjust="spacing" textLength="40.5303" x="30" y="115.292">Client</text><ellipse cx="53.2651" cy="50.7969" fill="#E2E2F0" rx="8" ry="8" style="stroke:#181818;stroke-width:0.5;"/><path d="M53.2651,58.7969 L53.2651,85.7969 M40.2651,66.7969 L66.2651,66.7969 M53.2651,85.7969 L40.2651,100.7969 M53.2651,85.7969 L66.2651,100.7969 " fill="none" style="stroke:#181818;stroke-width:0.5;"/><text fill="#000000" font-family="sans-serif" font-size="14" lengthAdjust="spacing" textLength="40.5303" x="30" y="924.1826">Client</text><ellipse cx="53.2651" cy="935.9844" fill="#E2E2F0" rx="8" ry="8" style="stroke:#181818;stroke-width:0.5;"/><path d="M53.2651,943.9844 L53.2651,970.9844 M40.2651,951.9844 L66.2651,951.9844 M53.2651,970.9844 L40.2651,985.9844 M53.2651,970.9844 L66.2651,985.9844 " fill="none" style="stroke:#181818;stroke-width:0.5;"/><rect fill="#FAFAFA" height="30.2969" rx="4" ry="4" style="stroke:#555555;stroke-width:0.5;" width="95.8672" x="372.4932" y="87.2969"/><text fill="#000000" font-family="sans-serif" font-size="14" lengthAdjust="spacing" textLength="81.8672" x="379.4932" y="107.292">auth_router</text><rect fill="#FAFAFA" height="30.2969" rx="4" ry="4" style="stroke:#555555;stroke-width:0.5;" width="95.8672" x="372.4932" y="911.1875"/><text fill="#000000" font-family="sans-serif" font-size="14" lengthAdjust="spacing" textLength="81.8672" x="379.4932" y="931.1826">auth_router</text><rect fill="#FAFAFA" height="30.2969" rx="4" ry="4" style="stroke:#555555;stroke-width:0.5;" width="191.0918" x="677.3286" y="87.2969"/><text fill="#000000" font-family="sans-serif" font-size="14" lengthAdjust="spacing" textLength="177.0918" x="684.3286" y="107.292">AuthenticateUserHandler</text><rect fill="#FAFAFA" height="30.2969" rx="4" ry="4" style="stroke:#555555;stroke-width:0.5;" width="191.0918" x="677.3286" y="911.1875"/><text fill="#000000" font-family="sans-serif" font-size="14" lengthAdjust="spacing" textLength="177.0918" x="684.3286" y="931.1826">AuthenticateUserHandler</text><rect fill="#FAFAFA" height="30.2969" rx="4" ry="4" style="stroke:#555555;stroke-width:0.5;" width="177.7275" x="969.897" y="87.2969"/><text fill="#000000" font-family="sans-serif" font-size="14" lengthAdjust="spacing" textLength="163.7275" x="976.897" y="107.292">BcryptPasswordService</text><rect fill="#FAFAFA" height="30.2969" rx="4" ry="4" style="stroke:#555555;stroke-width:0.5;" width="177.7275" x="969.897" y="911.1875"/><text fill="#000000" font-family="sans-serif" font-size="14" lengthAdjust="spacing" textLength="163.7275" x="976.897" y="931.1826">BcryptPasswordService</text><rect fill="#FAFAFA" height="30.2969" rx="4" ry="4" style="stroke:#555555;stroke-width:0.5;" width="129.5205" x="1157.6245" y="87.2969"/><text fill="#000000" font-family="sans-serif" font-size="14" lengthAdjust="spacing" textLength="115.5205" x="1164.6245" y="107.292">JwtTokenService</text><rect fill="#FAFAFA" height="30.2969" rx="4" ry="4" style="stroke:#555555;stroke-width:0.5;" width="129.5205" x="1157.6245" y="911.1875"/><text fill="#000000" font-family="sans-serif" font-size="14" lengthAdjust="spacing" textLength="115.5205" x="1164.6245" y="931.1826">JwtTokenService</text><rect fill="#FAFAFA" height="30.2969" rx="4" ry="4" style="stroke:#555555;stroke-width:0.5;" width="160.6377" x="1297.145" y="87.2969"/><text fill="#000000" font-family="sans-serif" font-size="14" lengthAdjust="spacing" textLength="146.6377" x="1304.145" y="107.292">SqliteUserRepository</text><rect fill="#FAFAFA" height="30.2969" rx="4" ry="4" style="stroke:#555555;stroke-width:0.5;" width="160.6377" x="1297.145" y="911.1875"/><text fill="#000000" font-family="sans-serif" font-size="14" lengthAdjust="spacing" textLength="146.6377" x="1304.145" y="931.1826">SqliteUserRepository</text><text fill="#000000" font-family="sans-serif" font-size="14" lengthAdjust="spacing" textLength="45.6982" x="1642.8774" y="115.292">SQLite</text><path d="M1650.7266,66.2969 C1650.7266,56.2969 1668.7266,56.2969 1668.7266,56.2969 C1668.7266,56.2969 1686.7266,56.2969 1686.7266,66.2969 L1686.7266,92.2969 C1686.7266,102.2969 1668.7266,102.2969 1668.7266,102.2969 C1668.7266,102.2969 1650.7266,102.2969 1650.7266,92.2969 L1650.7266,66.2969 " fill="#E2E2F0" style="stroke:#181818;stroke-width:1.5;"/><path d="M1650.7266,66.2969 C1650.7266,76.2969 1668.7266,76.2969 1668.7266,76.2969 C1668.7266,76.2969 1686.7266,76.2969 1686.7266,66.2969 " fill="none" style="stroke:#181818;stroke-width:1.5;"/><text fill="#000000" font-family="sans-serif" font-size="14" lengthAdjust="spacing" textLength="45.6982" x="1642.8774" y="924.1826">SQLite</text><path d="M1650.7266,937.4844 C1650.7266,927.4844 1668.7266,927.4844 1668.7266,927.4844 C1668.7266,927.4844 1686.7266,927.4844 1686.7266,937.4844 L1686.7266,963.4844 C1686.7266,973.4844 1668.7266,973.4844 1668.7266,973.4844 C1668.7266,973.4844 1650.7266,973.4844 1650.7266,963.4844 L1650.7266,937.4844 " fill="#E2E2F0" style="stroke:#181818;stroke-width:1.5;"/><path d="M1650.7266,937.4844 C1650.7266,947.4844 1668.7266,947.4844 1668.7266,947.4844 C1668.7266,947.4844 1686.7266,947.4844 1686.7266,937.4844 " fill="none" style="stroke:#181818;stroke-width:1.5;"/><polygon fill="#181818" points="408.4268,175.9922,418.4268,179.9922,408.4268,183.9922,412.4268,179.9922" style="stroke:#181818;stroke-width:1.0;"/><line style="stroke:#181818;stroke-width:2.0;" x1="53.2651" x2="414.4268" y1="179.9922" y2="179.9922"/><text fill="#000000" font-family="sans-serif" font-size="13" font-weight="bold" lengthAdjust="spacing" textLength="9.0454" x="60.2651" y="159.7935">1</text><text fill="#000000" font-family="sans-serif" font-size="13" lengthAdjust="spacing" textLength="113.5151" x="73.3105" y="144.6606">POST /auth/token</text><text fill="#000000" font-family="sans-serif" font-size="13" lengthAdjust="spacing" textLength="330.1162" x="73.3105" y="159.7935">Content-Type: application/x-www-form-urlencoded</text><text fill="#000000" font-family="sans-serif" font-size="13" lengthAdjust="spacing" textLength="229.7852" x="73.3105" y="174.9263">username=alice&amp;password=secret</text><path d="M58,196.9922 L58,228.9922 A4,4 0 0 0 62,232.9922 L276,232.9922 A4,4 0 0 0 280,228.9922 L280,202.9922 L270,192.9922 L62,192.9922 A4,4 0 0 0 58,196.9922 " fill="#FFFDE7" style="stroke:#BBBBBB;stroke-width:0.5;"/><path d="M270,192.9922 L270,200.9922 A2,2 0 0 0 272,202.9922 L280,202.9922 L270,192.9922 " fill="#FFFDE7" style="stroke:#BBBBBB;stroke-width:0.5;"/><text fill="#000000" font-family="sans-serif" font-size="13" lengthAdjust="spacing" textLength="201.4683" x="64" y="210.0591">OAuth2 PasswordRequestForm</text><text fill="#000000" font-family="sans-serif" font-size="13" lengthAdjust="spacing" textLength="140.3848" x="64" y="225.1919">(form-data, not JSON)</text><polygon fill="#181818" points="760.8745,270.5234,770.8745,274.5234,760.8745,278.5234,764.8745,274.5234" style="stroke:#181818;stroke-width:1.0;"/><line style="stroke:#181818;stroke-width:2.0;" x1="420.4268" x2="766.8745" y1="274.5234" y2="274.5234"/><text fill="#000000" font-family="sans-serif" font-size="13" font-weight="bold" lengthAdjust="spacing" textLength="9.0454" x="427.4268" y="261.8911">2</text><text fill="#000000" font-family="sans-serif" font-size="13" lengthAdjust="spacing" textLength="180.0703" x="440.4722" y="254.3247">AuthenticateUserCommand</text><text fill="#000000" font-family="sans-serif" font-size="13" lengthAdjust="spacing" textLength="261.9741" x="440.4722" y="269.4575">(username="alice", password="secret")</text><polygon fill="#181818" points="1365.4639,299.6563,1375.4639,303.6563,1365.4639,307.6563,1369.4639,303.6563" style="stroke:#181818;stroke-width:1.0;"/><line style="stroke:#181818;stroke-width:2.0;" x1="772.8745" x2="1371.4639" y1="303.6563" y2="303.6563"/><text fill="#000000" font-family="sans-serif" font-size="13" font-weight="bold" lengthAdjust="spacing" textLength="9.0454" x="779.8745" y="298.5903">3</text><text fill="#000000" font-family="sans-serif" font-size="13" lengthAdjust="spacing" textLength="171.2852" x="792.9199" y="298.5903">find_by_username("alice")</text><polygon fill="#181818" points="1656.7266,343.9219,1666.7266,347.9219,1656.7266,351.9219,1660.7266,347.9219" style="stroke:#181818;stroke-width:1.0;"/><line style="stroke:#181818;stroke-width:2.0;" x1="1377.4639" x2="1662.7266" y1="347.9219" y2="347.9219"/><text fill="#000000" font-family="sans-serif" font-size="13" font-weight="bold" lengthAdjust="spacing" textLength="9.0454" x="1384.4639" y="335.2896">4</text><text fill="#000000" font-family="sans-serif" font-size="13" lengthAdjust="spacing" textLength="254.2173" x="1397.5093" y="327.7231">SELECT id, password_hash FROM users</text><text fill="#000000" font-family="sans-serif" font-size="13" lengthAdjust="spacing" textLength="174.0845" x="1397.5093" y="342.856">WHERE username = 'alice'</text><polygon fill="#181818" points="1388.4639,373.0547,1378.4639,377.0547,1388.4639,381.0547,1384.4639,377.0547" style="stroke:#181818;stroke-width:1.0;"/><line style="stroke:#181818;stroke-width:2.0;stroke-dasharray:2.0,2.0;" x1="1382.4639" x2="1667.7266" y1="377.0547" y2="377.0547"/><text fill="#000000" font-family="sans-serif" font-size="13" font-weight="bold" lengthAdjust="spacing" textLength="9.0454" x="1394.4639" y="371.9888">5</text><text fill="#000000" font-family="sans-serif" font-size="13" lengthAdjust="spacing" textLength="106.666" x="1407.5093" y="371.9888">row or (no rows)</text><path d="M14,392.0547 L74.4429,392.0547 L74.4429,399.1875 L64.4429,409.1875 L10,409.1875 L10,396.0547 A4,4 0 0 1 14,392.0547 " fill="#EEEEEE" style="stroke:#999999;stroke-width:1.5;"/><rect fill="none" height="503.1328" rx="4" ry="4" style="stroke:#999999;stroke-width:1.5;" width="1457.7827" x="10" y="392.0547"/><text fill="#000000" font-family="sans-serif" font-size="13" font-weight="bold" lengthAdjust="spacing" textLength="19.4429" x="25" y="405.1216">alt</text><text fill="#000000" font-family="sans-serif" font-size="11" font-weight="bold" lengthAdjust="spacing" textLength="101.5029" x="89.4429" y="404.2651">[user not found]</text><polygon fill="#181818" points="783.8745,426.3203,773.8745,430.3203,783.8745,434.3203,779.8745,430.3203" style="stroke:#181818;stroke-width:1.0;"/><line style="stroke:#181818;stroke-width:2.0;stroke-dasharray:2.0,2.0;" x1="777.8745" x2="1376.4639" y1="430.3203" y2="430.3203"/><text fill="#000000" font-family="sans-serif" font-size="13" font-weight="bold" lengthAdjust="spacing" textLength="9.0454" x="789.8745" y="425.2544">6</text><text fill="#000000" font-family="sans-serif" font-size="13" lengthAdjust="spacing" textLength="33.9155" x="802.9199" y="425.2544">None</text><polygon fill="#181818" points="431.4268,455.4531,421.4268,459.4531,431.4268,463.4531,427.4268,459.4531" style="stroke:#181818;stroke-width:1.0;"/><line style="stroke:#181818;stroke-width:2.0;stroke-dasharray:2.0,2.0;" x1="425.4268" x2="771.8745" y1="459.4531" y2="459.4531"/><text fill="#000000" font-family="sans-serif" font-size="13" font-weight="bold" lengthAdjust="spacing" textLength="9.0454" x="437.4268" y="454.3872">7</text><text fill="#000000" font-family="sans-serif" font-size="13" lengthAdjust="spacing" textLength="223.9834" x="450.4722" y="454.3872">raises InvalidCredentialsException</text><polygon fill="#181818" points="64.2651,499.7188,54.2651,503.7188,64.2651,507.7188,60.2651,503.7188" style="stroke:#181818;stroke-width:1.0;"/><line style="stroke:#181818;stroke-width:2.0;stroke-dasharray:2.0,2.0;" x1="58.2651" x2="419.4268" y1="503.7188" y2="503.7188"/><text fill="#000000" font-family="sans-serif" font-size="13" font-weight="bold" lengthAdjust="spacing" textLength="9.0454" x="70.2651" y="491.0864">8</text><text fill="#000000" font-family="sans-serif" font-size="13" lengthAdjust="spacing" textLength="116.2256" x="83.3105" y="483.52">401 Unauthorized</text><text fill="#000000" font-family="sans-serif" font-size="13" lengthAdjust="spacing" textLength="213.1543" x="83.3105" y="498.6528">{ "detail": "Invalid credentials" }</text><line style="stroke:#999999;stroke-width:1.0;stroke-dasharray:2.0,2.0;" x1="10" x2="1467.7827" y1="512.7188" y2="512.7188"/><text fill="#000000" font-family="sans-serif" font-size="11" font-weight="bold" lengthAdjust="spacing" textLength="77.0269" x="15" y="522.9292">[user found]</text><polygon fill="#181818" points="783.8745,543.6563,773.8745,547.6563,783.8745,551.6563,779.8745,547.6563" style="stroke:#181818;stroke-width:1.0;"/><line style="stroke:#181818;stroke-width:2.0;stroke-dasharray:2.0,2.0;" x1="777.8745" x2="1376.4639" y1="547.6563" y2="547.6563"/><text fill="#000000" font-family="sans-serif" font-size="13" font-weight="bold" lengthAdjust="spacing" textLength="9.0454" x="789.8745" y="542.5903">9</text><text fill="#000000" font-family="sans-serif" font-size="13" lengthAdjust="spacing" textLength="28.355" x="802.9199" y="542.5903">user</text><polygon fill="#181818" points="1046.7607,572.7891,1056.7607,576.7891,1046.7607,580.7891,1050.7607,576.7891" style="stroke:#181818;stroke-width:1.0;"/><line style="stroke:#181818;stroke-width:2.0;" x1="772.8745" x2="1052.7607" y1="576.7891" y2="576.7891"/><text fill="#000000" font-family="sans-serif" font-size="13" font-weight="bold" lengthAdjust="spacing" textLength="18.0908" x="779.8745" y="571.7231">10</text><text fill="#000000" font-family="sans-serif" font-size="13" lengthAdjust="spacing" textLength="239.7954" x="801.9653" y="571.7231">verify("secret", user.password_hash)</text><polygon fill="#181818" points="783.8745,601.9219,773.8745,605.9219,783.8745,609.9219,779.8745,605.9219" style="stroke:#181818;stroke-width:1.0;"/><line style="stroke:#181818;stroke-width:2.0;stroke-dasharray:2.0,2.0;" x1="777.8745" x2="1057.7607" y1="605.9219" y2="605.9219"/><text fill="#000000" font-family="sans-serif" font-size="13" font-weight="bold" lengthAdjust="spacing" textLength="18.0908" x="789.8745" y="600.856">11</text><text fill="#000000" font-family="sans-serif" font-size="13" lengthAdjust="spacing" textLength="75.9941" x="811.9653" y="600.856">True / False</text><path d="M24,620.9219 L84.4429,620.9219 L84.4429,628.0547 L74.4429,638.0547 L20,638.0547 L20,624.9219 A4,4 0 0 1 24,620.9219 " fill="#EEEEEE" style="stroke:#999999;stroke-width:1.5;"/><rect fill="none" height="267.2656" rx="4" ry="4" style="stroke:#999999;stroke-width:1.5;" width="1277.145" x="20" y="620.9219"/><text fill="#000000" font-family="sans-serif" font-size="13" font-weight="bold" lengthAdjust="spacing" textLength="19.4429" x="35" y="633.9888">alt</text><text fill="#000000" font-family="sans-serif" font-size="11" font-weight="bold" lengthAdjust="spacing" textLength="129.062" x="99.4429" y="633.1323">[password incorrect]</text><polygon fill="#181818" points="431.4268,655.1875,421.4268,659.1875,431.4268,663.1875,427.4268,659.1875" style="stroke:#181818;stroke-width:1.0;"/><line style="stroke:#181818;stroke-width:2.0;stroke-dasharray:2.0,2.0;" x1="425.4268" x2="771.8745" y1="659.1875" y2="659.1875"/><text fill="#000000" font-family="sans-serif" font-size="13" font-weight="bold" lengthAdjust="spacing" textLength="18.0908" x="437.4268" y="654.1216">12</text><text fill="#000000" font-family="sans-serif" font-size="13" lengthAdjust="spacing" textLength="223.9834" x="459.5176" y="654.1216">raises InvalidCredentialsException</text><polygon fill="#181818" points="64.2651,699.4531,54.2651,703.4531,64.2651,707.4531,60.2651,703.4531" style="stroke:#181818;stroke-width:1.0;"/><line style="stroke:#181818;stroke-width:2.0;stroke-dasharray:2.0,2.0;" x1="58.2651" x2="419.4268" y1="703.4531" y2="703.4531"/><text fill="#000000" font-family="sans-serif" font-size="13" font-weight="bold" lengthAdjust="spacing" textLength="18.0908" x="70.2651" y="690.8208">13</text><text fill="#000000" font-family="sans-serif" font-size="13" lengthAdjust="spacing" textLength="116.2256" x="92.356" y="683.2544">401 Unauthorized</text><text fill="#000000" font-family="sans-serif" font-size="13" lengthAdjust="spacing" textLength="213.1543" x="92.356" y="698.3872">{ "detail": "Invalid credentials" }</text><line style="stroke:#999999;stroke-width:1.0;stroke-dasharray:2.0,2.0;" x1="20" x2="1297.145" y1="712.4531" y2="712.4531"/><text fill="#000000" font-family="sans-serif" font-size="11" font-weight="bold" lengthAdjust="spacing" textLength="117.4604" x="25" y="722.6636">[password correct]</text><polygon fill="#181818" points="1210.3848,743.3906,1220.3848,747.3906,1210.3848,751.3906,1214.3848,747.3906" style="stroke:#181818;stroke-width:1.0;"/><line style="stroke:#181818;stroke-width:2.0;" x1="772.8745" x2="1216.3848" y1="747.3906" y2="747.3906"/><text fill="#000000" font-family="sans-serif" font-size="13" font-weight="bold" lengthAdjust="spacing" textLength="18.0908" x="779.8745" y="742.3247">14</text><text fill="#000000" font-family="sans-serif" font-size="13" lengthAdjust="spacing" textLength="139.3628" x="801.9653" y="742.3247">create_token(user.id)</text><polygon fill="#181818" points="783.8745,772.5234,773.8745,776.5234,783.8745,780.5234,779.8745,776.5234" style="stroke:#181818;stroke-width:1.0;"/><line style="stroke:#181818;stroke-width:2.0;stroke-dasharray:2.0,2.0;" x1="777.8745" x2="1221.3848" y1="776.5234" y2="776.5234"/><text fill="#000000" font-family="sans-serif" font-size="13" font-weight="bold" lengthAdjust="spacing" textLength="18.0908" x="789.8745" y="771.4575">15</text><text fill="#000000" font-family="sans-serif" font-size="13" lengthAdjust="spacing" textLength="157.2061" x="811.9653" y="771.4575">"eyJhbGciOiJIUzI1NiJ9&#8230;"</text><polygon fill="#181818" points="431.4268,816.7891,421.4268,820.7891,431.4268,824.7891,427.4268,820.7891" style="stroke:#181818;stroke-width:1.0;"/><line style="stroke:#181818;stroke-width:2.0;stroke-dasharray:2.0,2.0;" x1="425.4268" x2="771.8745" y1="820.7891" y2="820.7891"/><text fill="#000000" font-family="sans-serif" font-size="13" font-weight="bold" lengthAdjust="spacing" textLength="18.0908" x="437.4268" y="808.1567">16</text><text fill="#000000" font-family="sans-serif" font-size="13" lengthAdjust="spacing" textLength="62.7212" x="459.5176" y="800.5903">TokenDto</text><text fill="#000000" font-family="sans-serif" font-size="13" lengthAdjust="spacing" textLength="306.3569" x="459.5176" y="815.7231">(user_id, username, access_token, token_type)</text><polygon fill="#181818" points="64.2651,876.1875,54.2651,880.1875,64.2651,884.1875,60.2651,880.1875" style="stroke:#181818;stroke-width:1.0;"/><line style="stroke:#181818;stroke-width:2.0;stroke-dasharray:2.0,2.0;" x1="58.2651" x2="419.4268" y1="880.1875" y2="880.1875"/><text fill="#000000" font-family="sans-serif" font-size="13" font-weight="bold" lengthAdjust="spacing" textLength="18.0908" x="70.2651" y="859.9888">17</text><text fill="#000000" font-family="sans-serif" font-size="13" lengthAdjust="spacing" textLength="47.7026" x="92.356" y="844.856">200 OK</text><text fill="#000000" font-family="sans-serif" font-size="13" lengthAdjust="spacing" textLength="160.6592" x="92.356" y="859.9888">{ "user_id", "username",</text><text fill="#000000" font-family="sans-serif" font-size="13" lengthAdjust="spacing" textLength="267.4395" x="100.6206" y="875.1216">"access_token", "token_type": "bearer" }</text><!--SRC=[hPNRRXCn48Rl_HIZHO96IdeI25gfbPfq0msb2KagRY95ZdVIMDtOY-rj6X0I3y4py60y2MDdDwUsS05RHTcD__bc_CzuwwHB4IxrZLJmw_iFwBHxVTZZkPliENsBYZ5xArN63P-2nSyvAe5dnkXPVoB5hK9huN1DOdIk4g6DGWDl7WdjSEEaa1bNhgvDWgQXKstWsQjm_IM0YzkRaA08QfxvlqU2tf8gs-0VXMjDghJ33KKzNDkA1ocRpVFuDMDSE7fif1ALOsoaxo7g6BJqn9tKAe9dSTnysQmpW6or0uYyiKC2EZGHS0lTSCjG9K2GWdIMPQaK9OXIleaFja5d1A9iNeRN5iqxhfAqW1RtMzGBDJRSEfCBbnlqu7fyH7lP0jU5cMUkmwsTaJqzD7TIOC1sPadlJcphMpFNzuEohbpyy53R-vpAHRbTpBILvE5yOGCzhifDkECZRf42FbvIG92Srydrt6cLJqUqDxRm7cgdXOTm_61s1wgXbIDLhJ_Fy1ZuojUz-zfiDgkDjPdMSfFIqEW4au7AgJR5ftZ2IOdFiyA64ul2e6D-9i38cua3FIxQJudRlXk7K9hMzMDeNPFW0xKJSlWjLVr8GQlNlgemLXHDvHVT8insJnjwEgL5OYpBYa9TKHMMbKMBqY9YbYJl2HbAnB5KoN0q7vRnEqLyXGK12S_h9El5bt6Z3p9PSOSJRYVGxBO_W0-s0_NfNToDeIJ12Rm8h1UC4BLLIder01sD7QNzhQMoUEf2MDZ-s1yccej5_etjNsc5jBBSnNfh3PSMBLoeEqgQD0mctYYUslXUOEOxwfc5fnIuRCtB_GEuLducj95VV8k_GfIWupADZlsX240GAs84tnYcD7sXvZ_KwzVPUi6dnH6XjJiqSZpVAPjJ3UBT3NCh55heDxbzaoFiGPDgGS_t_fMH86bIZK7XQE5VlFgVRW44lvOrFbhXwVAjG7a8G3C-3ASq3FUkJ2f1lnHjUXBXl3KPlHMoBLiNrryk3gvaw-ZNzvyHUzg7W3ftkZW_Gp_UvVXMWGj1_xmM9LGXV0qTlIOgJvfpkByFxVV1ae97VOrAObGTAA0N_1hMBw_0ti0HSkDVqi4pcYl_-Gq0]--></g></svg>