<svg xmlns="http://www.w3.org/2000/svg" xmlns:xlink="http://www.w3.org/1999/xlink" contentStyleType="text/css" height="900px" preserveAspectRatio="none" style="width:1343px;height:900px;background:#FFFFFF;" version="1.1" viewBox="0 0 1343 900" width="1343px" zoomAndPan="magnify"><defs/><g><text fill="#000000" font-family="sans-serif" font-size="14" font-weight="bold" lengthAdjust="spacing" textLength="263.3408" x="540.8479" y="27.9951">Get Current User &#8212; GET /auth/me</text><rect fill="#EEF4FB" height="851.3906" rx="4" ry="4" style="stroke:#181818;stroke-width:0.5;" width="367.8481" x="251.5122" y="43.2969"/><text fill="#000000" font-family="sans-serif" font-size="13" font-weight="bold" lengthAdjust="spacing" textLength="94.4087" x="388.2319" y="55.3638">Presentation</text><rect fill="#FFF8E1" height="851.3906" rx="4" ry="4" style="stroke:#181818;stroke-width:0.5;" width="187.1221" x="621.3604" y="43.2969"/><text fill="#000000" font-family="sans-serif" font-size="13" font-weight="bold" lengthAdjust="spacing" textLength="82.9194" x="673.4617" y="55.3638">Application</text><rect fill="#FBE9E7" height="851.3906" rx="4" ry="4" style="stroke:#181818;stroke-width:0.5;" width="308.1582" x="810.4824" y="43.2969"/><text fill="#000000" font-family="sans-serif" font-size="13" font-weight="bold" lengthAdjust="spacing" textLength="102.9526" x="913.0852" y="55.3638">Infrastructure</text><rect fill="none" height="560.2656" rx="4" ry="4" style="stroke:#999999;stroke-width:1.5;" width="1326.0366" x="10" y="238.125"/><rect fill="none" height="237" rx="4" ry="4" style="stroke:#999999;stroke-width:1.5;" width="1104.6406" x="20" y="554.3906"/><line style="stroke:#181818;stroke-width:0.5;stroke-dasharray:5.0,5.0;" x1="53" x2="53" y1="118.5938" y2="815.3906"/><line style="stroke:#181818;stroke-width:0.5;stroke-dasharray:5.0,5.0;" x1="302.5122" x2="302.5122" y1="118.5938" y2="815.3906"/><line style="stroke:#181818;stroke-width:0.5;stroke-dasharray:5.0,5.0;" x1="548.7773" x2="548.7773" y1="118.5938" y2="815.3906"/><line style="stroke:#181818;stroke-width:0.5;stroke-dasharray:5.0,5.0;" x1="714.3604" x2="714.3604" y1="118.5938" y2="815.3906"/><line style="stroke:#181818;stroke-width:0.5;stroke-dasharray:5.0,5.0;" x1="878.4824" x2="878.4824" y1="118.5938" y2="815.3906"/><line style="stroke:#181818;stroke-width:0.5;stroke-dasharray:5.0,5.0;" x1="1034.0029" x2="1034.0029" y1="118.5938" y2="815.3906"/><line style="stroke:#181818;stroke-width:0.5;stroke-dasharray:5.0,5.0;" x1="1299.3384" x2="1299.3384" y1="118.5938" y2="815.3906"/><text fill="#000000" font-family="sans-serif" font-size="14" lengthAdjust="spacing" textLength="40.5303" x="30" y="115.292">Client</text><ellipse cx="53.2651" cy="50.7969" fill="#E2E2F0" rx="8" ry="8" style="stroke:#181818;stroke-width:0.5;"/><path d="M53.2651,58.7969 L53.2651,85.7969 M40.2651,66.7969 L66.2651,66.7969 M53.2651,85.7969 L40.2651,100.7969 M53.2651,85.7969 L66.2651,100.7969 " fill="none" style="stroke:#181818;stroke-width:0.5;"/><text fill="#000000" font-family="sans-serif" font-size="14" lengthAdjust="spacing" textLength="40.5303" x="30" y="827.3857">Client</text><ellipse cx="53.2651" cy="839.1875" fill="#E2E2F0" rx="8" ry="8" style="stroke:#181818;stroke-width:0.5;"/><path d="M53.2651,847.1875 L53.2651,874.1875 M40.2651,855.1875 L66.2651,855.1875 M53.2651,874.1875 L40.2651,889.1875 M53.2651,874.1875 L66.2651,889.1875 " fill="none" style="stroke:#181818;stroke-width:0.5;"/><rect fill="#FAFAFA" height="30.2969" rx="4" ry="4" style="stroke:#555555;stroke-width:0.5;" width="95.8672" x="255.5122" y="87.2969"/><text fill="#000000" font-family="sans-serif" font-size="14" lengthAdjust="spacing" textLength="81.8672" x="262.5122" y="107.292">auth_router</text><rect fill="#FAFAFA" height="30.2969" rx="4" ry="4" style="stroke:#555555;stroke-width:0.5;" width="95.8672" x="255.5122" y="814.3906"/><text fill="#000000" font-family="sans-serif" font-size="14" lengthAdjust="spacing" textLength="81.8672" x="262.5122" y="834.3857">auth_router</text><rect fill="#FAFAFA" height="46.5938" rx="4" ry="4" style="stroke:#555555;stroke-width:0.5;" width="132.583" x="482.7773" y="71"/><text fill="#000000" font-family="sans-serif" font-size="14" lengthAdjust="spacing" textLength="118.583" x="489.7773" y="90.9951">get_current_user</text><text fill="#000000" font-family="sans-serif" font-size="14" lengthAdjust="spacing" textLength="103.3594" x="497.3892" y="107.292">&#171;dependency&#187;</text><rect fill="#FAFAFA" height="46.5938" rx="4" ry="4" style="stroke:#555555;stroke-width:0.5;" width="132.583" x="482.7773" y="814.3906"/><text fill="#000000" font-family="sans-serif" font-size="14" lengthAdjust="spacing" textLength="118.583" x="489.7773" y="834.3857">get_current_user</text><text fill="#000000" font-family="sans-serif" font-size="14" lengthAdjust="spacing" textLength="103.3594" x="497.3892" y="850.6826">&#171;dependency&#187;</text><rect fill="#FAFAFA" height="30.2969" rx="4" ry="4" style="stroke:#555555;stroke-width:0.5;" width="179.1221" x="625.3604" y="87.2969"/><text fill="#000000" font-family="sans-serif" font-size="14" lengthAdjust="spacing" textLength="165.1221" x="632.3604" y="107.292">GetCurrentUserHandler</text><rect fill="#FAFAFA" height="30.2969" rx="4" ry="4" style="stroke:#555555;stroke-width:0.5;" width="179.1221" x="625.3604" y="814.3906"/><text fill="#000000" font-family="sans-serif" font-size="14" lengthAdjust="spacing" textLength="165.1221" x="632.3604" y="834.3857">GetCurrentUserHandler</text><rect fill="#FAFAFA" height="30.2969" rx="4" ry="4" style="stroke:#555555;stroke-width:0.5;" width="129.5205" x="814.4824" y="87.2969"/><text fill="#000000" font-family="sans-serif" font-size="14" lengthAdjust="spacing" textLength="115.5205" x="821.4824" y="107.292">JwtTokenService</text><rect fill="#FAFAFA" height="30.2969" rx="4" ry="4" style="stroke:#555555;stroke-width:0.5;" width="129.5205" x="814.4824" y="814.3906"/><text fill="#000000" font-family="sans-serif" font-size="14" lengthAdjust="spacing" textLength="115.5205" x="821.4824" y="834.3857">JwtTokenService</text><rect fill="#FAFAFA" height="30.2969" rx="4" ry="4" style="stroke:#555555;stroke-width:0.5;" width="160.6377" x="954.0029" y="87.2969"/><text fill="#000000" font-family="sans-serif" font-size="14" lengthAdjust="spacing" textLength="146.6377" x="961.0029" y="107.292">SqliteUserRepository</text><rect fill="#FAFAFA" height="30.2969" rx="4" ry="4" style="stroke:#555555;stroke-width:0.5;" width="160.6377" x="954.0029" y="814.3906"/><text fill="#000000" font-family="sans-serif" font-size="14" lengthAdjust="spacing" textLength="146.6377" x="961.0029" y="834.3857">SqliteUserRepository</text><text fill="#000000" font-family="sans-serif" font-size="14" lengthAdjust="spacing" textLength="45.6982" x="1274.3384" y="115.292">SQLite</text><path d="M1282.1875,66.2969 C1282.1875,56.2969 1300.1875,56.2969 1300.1875,56.2969 C1300.1875,56.2969 1318.1875,56.2969 1318.1875,66.2969 L1318.1875,92.2969 C1318.1875,102.2969 1300.1875,102.2969 1300.1875,102.2969 C1300.1875,102.2969 1282.1875,102.2969 1282.1875,92.2969 L1282.1875,66.2969 " fill="#E2E2F0" style="stroke:#181818;stroke-width:1.5;"/><path d="M1282.1875,66.2969 C1282.1875,76.2969 1300.1875,76.2969 1300.1875,76.2969 C1300.1875,76.2969 1318.1875,76.2969 1318.1875,66.2969 " fill="none" style="stroke:#181818;stroke-width:1.5;"/><text fill="#000000" font-family="sans-serif" font-size="14" lengthAdjust="spacing" textLength="45.6982" x="1274.3384" y="827.3857">SQLite</text><path d="M1282.1875,840.6875 C1282.1875,830.6875 1300.1875,830.6875 1300.1875,830.6875 C1300.1875,830.6875 1318.1875,830.6875 1318.1875,840.6875 L1318.1875,866.6875 C1318.1875,876.6875 1300.1875,876.6875 1300.1875,876.6875 C1300.1875,876.6875 1282.1875,876.6875 1282.1875,866.6875 L1282.1875,840.6875 " fill="#E2E2F0" style="stroke:#181818;stroke-width:1.5;"/><path d="M1282.1875,840.6875 C1282.1875,850.6875 1300.1875,850.6875 1300.1875,850.6875 C1300.1875,850.6875 1318.1875,850.6875 1318.1875,840.6875 " fill="none" style="stroke:#181818;stroke-width:1.5;"/><polygon fill="#181818" points="291.4458,160.8594,301.4458,164.8594,291.4458,168.8594,295.4458,164.8594" style="stroke:#181818;stroke-width:1.0;"/><line style="stroke:#181818;stroke-width:2.0;" x1="53.2651" x2="297.4458" y1="164.8594" y2="164.8594"/><text fill="#000000" font-family="sans-serif" font-size="13" font-weight="bold" lengthAdjust="spacing" textLength="9.0454" x="60.2651" y="152.2271">1</text><text fill="#000000" font-family="sans-serif" font-size="13" lengthAdjust="spacing" textLength="89.3242" x="73.3105" y="144.6606">GET /auth/me</text><text fill="#000000" font-family="sans-serif" font-size="13" lengthAdjust="spacing" textLength="213.1353" x="73.3105" y="159.7935">Authorization: Bearer eyJhbGci&#8230;</text><polygon fill="#181818" points="537.0688,189.9922,547.0688,193.9922,537.0688,197.9922,541.0688,193.9922" style="stroke:#181818;stroke-width:1.0;"/><line style="stroke:#181818;stroke-width:2.0;" x1="303.4458" x2="543.0688" y1="193.9922" y2="193.9922"/><text fill="#000000" font-family="sans-serif" font-size="13" font-weight="bold" lengthAdjust="spacing" textLength="9.0454" x="310.4458" y="188.9263">2</text><text fill="#000000" font-family="sans-serif" font-size="13" lengthAdjust="spacing" textLength="208.5776" x="323.4912" y="188.9263">resolve get_current_user(token)</text><polygon fill="#181818" points="867.2427,219.125,877.2427,223.125,867.2427,227.125,871.2427,223.125" style="stroke:#181818;stroke-width:1.0;"/><line style="stroke:#181818;stroke-width:2.0;" x1="549.0688" x2="873.2427" y1="223.125" y2="223.125"/><text fill="#000000" font-family="sans-serif" font-size="13" font-weight="bold" lengthAdjust="spacing" textLength="9.0454" x="556.0688" y="218.0591">3</text><text fill="#000000" font-family="sans-serif" font-size="13" lengthAdjust="spacing" textLength="172.1865" x="569.1143" y="218.0591">verify_token("eyJhbGci&#8230;")</text><path d="M14,238.125 L74.4429,238.125 L74.4429,245.2578 L64.4429,255.2578 L10,255.2578 L10,242.125 A4,4 0 0 1 14,238.125 " fill="#EEEEEE" style="stroke:#999999;stroke-width:1.5;"/><rect fill="none" height="560.2656" rx="4" ry="4" style="stroke:#999999;stroke-width:1.5;" width="1326.0366" x="10" y="238.125"/><text fill="#000000" font-family="sans-serif" font-size="13" font-weight="bold" lengthAdjust="spacing" textLength="19.4429" x="25" y="251.1919">alt</text><text fill="#000000" font-family="sans-serif" font-size="11" font-weight="bold" lengthAdjust="spacing" textLength="184.9697" x="89.4429" y="250.3354">[token missing or malformed]</text><polygon fill="#181818" points="560.0688,272.3906,550.0688,276.3906,560.0688,280.3906,556.0688,276.3906" style="stroke:#181818;stroke-width:1.0;"/><line style="stroke:#181818;stroke-width:2.0;stroke-dasharray:2.0,2.0;" x1="554.0688" x2="878.2427" y1="276.3906" y2="276.3906"/><text fill="#000000" font-family="sans-serif" font-size="13" font-weight="bold" lengthAdjust="spacing" textLength="9.0454" x="566.0688" y="271.3247">4</text><text fill="#000000" font-family="sans-serif" font-size="13" lengthAdjust="spacing" textLength="189.6743" x="579.1143" y="271.3247">raises InvalidTokenException</text><polygon fill="#181818" points="314.4458,301.5234,304.4458,305.5234,314.4458,309.5234,310.4458,305.5234" style="stroke:#181818;stroke-width:1.0;"/><line style="stroke:#181818;stroke-width:2.0;stroke-dasharray:2.0,2.0;" x1="308.4458" x2="548.0688" y1="305.5234" y2="305.5234"/><text fill="#000000" font-family="sans-serif" font-size="13" font-weight="bold" lengthAdjust="spacing" textLength="9.0454" x="320.4458" y="300.4575">5</text><text fill="#000000" font-family="sans-serif" font-size="13" lengthAdjust="spacing" textLength="189.6743" x="333.4912" y="300.4575">raises InvalidTokenException</text><polygon fill="#181818" points="64.2651,330.6563,54.2651,334.6563,64.2651,338.6563,60.2651,334.6563" style="stroke:#181818;stroke-width:1.0;"/><line style="stroke:#181818;stroke-width:2.0;stroke-dasharray:2.0,2.0;" x1="58.2651" x2="302.4458" y1="334.6563" y2="334.6563"/><text fill="#000000" font-family="sans-serif" font-size="13" font-weight="bold" lengthAdjust="spacing" textLength="9.0454" x="70.2651" y="329.5903">6</text><text fill="#000000" font-family="sans-serif" font-size="13" lengthAdjust="spacing" textLength="116.2256" x="83.3105" y="329.5903">401 Unauthorized</text><line style="stroke:#999999;stroke-width:1.0;stroke-dasharray:2.0,2.0;" x1="10" x2="1336.0366" y1="343.6563" y2="343.6563"/><text fill="#000000" font-family="sans-serif" font-size="11" font-weight="bold" lengthAdjust="spacing" textLength="79.3149" x="15" y="353.8667">[token valid]</text><polygon fill="#181818" points="560.0688,374.5938,550.0688,378.5938,560.0688,382.5938,556.0688,378.5938" style="stroke:#181818;stroke-width:1.0;"/><line style="stroke:#181818;stroke-width:2.0;stroke-dasharray:2.0,2.0;" x1="554.0688" x2="878.2427" y1="378.5938" y2="378.5938"/><text fill="#000000" font-family="sans-serif" font-size="13" font-weight="bold" lengthAdjust="spacing" textLength="9.0454" x="566.0688" y="373.5278">7</text><text fill="#000000" font-family="sans-serif" font-size="13" lengthAdjust="spacing" textLength="135.3193" x="579.1143" y="373.5278">user_id (UUID string)</text><polygon fill="#181818" points="314.4458,403.7266,304.4458,407.7266,314.4458,411.7266,310.4458,407.7266" style="stroke:#181818;stroke-width:1.0;"/><line style="stroke:#181818;stroke-width:2.0;stroke-dasharray:2.0,2.0;" x1="308.4458" x2="548.0688" y1="407.7266" y2="407.7266"/><text fill="#000000" font-family="sans-serif" font-size="13" font-weight="bold" lengthAdjust="spacing" textLength="9.0454" x="320.4458" y="402.6606">8</text><text fill="#000000" font-family="sans-serif" font-size="13" lengthAdjust="spacing" textLength="100.6294" x="333.4912" y="402.6606">current_user_id</text><polygon fill="#181818" points="702.9214,432.8594,712.9214,436.8594,702.9214,440.8594,706.9214,436.8594" style="stroke:#181818;stroke-width:1.0;"/><line style="stroke:#181818;stroke-width:2.0;" x1="303.4458" x2="708.9214" y1="436.8594" y2="436.8594"/><text fill="#000000" font-family="sans-serif" font-size="13" font-weight="bold" lengthAdjust="spacing" textLength="9.0454" x="310.4458" y="431.7935">9</text><text fill="#000000" font-family="sans-serif" font-size="13" lengthAdjust="spacing" textLength="198.5103" x="323.4912" y="431.7935">GetCurrentUserQuery(user_id)</text><polygon fill="#181818" points="1022.3218,461.9922,1032.3218,465.9922,1022.3218,469.9922,1026.3218,465.9922" style="stroke:#181818;stroke-width:1.0;"/><line style="stroke:#181818;stroke-width:2.0;" x1="714.9214" x2="1028.3218" y1="465.9922" y2="465.9922"/><text fill="#000000" font-family="sans-serif" font-size="13" font-weight="bold" lengthAdjust="spacing" textLength="18.0908" x="721.9214" y="460.9263">10</text><text fill="#000000" font-family="sans-serif" font-size="13" lengthAdjust="spacing" textLength="122.3511" x="744.0122" y="460.9263">find_by_id(user_id)</text><polygon fill="#181818" points="1288.1875,506.2578,1298.1875,510.2578,1288.1875,514.2578,1292.1875,510.2578" style="stroke:#181818;stroke-width:1.0;"/><line style="stroke:#181818;stroke-width:2.0;" x1="1034.3218" x2="1294.1875" y1="510.2578" y2="510.2578"/><text fill="#000000" font-family="sans-serif" font-size="13" font-weight="bold" lengthAdjust="spacing" textLength="18.0908" x="1041.3218" y="497.6255">11</text><text fill="#000000" font-family="sans-serif" font-size="13" lengthAdjust="spacing" textLength="219.7749" x="1063.4126" y="490.0591">SELECT id, username FROM users</text><text fill="#000000" font-family="sans-serif" font-size="13" lengthAdjust="spacing" textLength="90.1431" x="1063.4126" y="505.1919">WHERE id = ?</text><polygon fill="#181818" points="1045.3218,535.3906,1035.3218,539.3906,1045.3218,543.3906,1041.3218,539.3906" style="stroke:#181818;stroke-width:1.0;"/><line style="stroke:#181818;stroke-width:2.0;stroke-dasharray:2.0,2.0;" x1="1039.3218" x2="1299.1875" y1="539.3906" y2="539.3906"/><text fill="#000000" font-family="sans-serif" font-size="13" font-weight="bold" lengthAdjust="spacing" textLength="18.0908" x="1051.3218" y="534.3247">12</text><text fill="#000000" font-family="sans-serif" font-size="13" lengthAdjust="spacing" textLength="106.666" x="1073.4126" y="534.3247">row or (no rows)</text><path d="M24,554.3906 L84.4429,554.3906 L84.4429,561.5234 L74.4429,571.5234 L20,571.5234 L20,558.3906 A4,4 0 0 1 24,554.3906 " fill="#EEEEEE" style="stroke:#999999;stroke-width:1.5;"/><rect fill="none" height="237" rx="4" ry="4" style="stroke:#999999;stroke-width:1.5;" width="1104.6406" x="20" y="554.3906"/><text fill="#000000" font-family="sans-serif" font-size="13" font-weight="bold" lengthAdjust="spacing" textLength="19.4429" x="35" y="567.4575">alt</text><text fill="#000000" font-family="sans-serif" font-size="11" font-weight="bold" lengthAdjust="spacing" textLength="329.667" x="99.4429" y="566.6011">[user record deleted (token valid but user removed)]</text><polygon fill="#181818" points="725.9214,588.6563,715.9214,592.6563,725.9214,596.6563,721.9214,592.6563" style="stroke:#181818;stroke-width:1.0;"/><line style="stroke:#181818;stroke-width:2.0;stroke-dasharray:2.0,2.0;" x1="719.9214" x2="1033.3218" y1="592.6563" y2="592.6563"/><text fill="#000000" font-family="sans-serif" font-size="13" font-weight="bold" lengthAdjust="spacing" textLength="18.0908" x="731.9214" y="587.5903">13</text><text fill="#000000" font-family="sans-serif" font-size="13" lengthAdjust="spacing" textLength="33.9155" x="754.0122" y="587.5903">None</text><polygon fill="#181818" points="314.4458,617.7891,304.4458,621.7891,314.4458,625.7891,310.4458,621.7891" style="stroke:#181818;stroke-width:1.0;"/><line style="stroke:#181818;stroke-width:2.0;stroke-dasharray:2.0,2.0;" x1="308.4458" x2="713.9214" y1="621.7891" y2="621.7891"/><text fill="#000000" font-family="sans-serif" font-size="13" font-weight="bold" lengthAdjust="spacing" textLength="18.0908" x="320.4458" y="616.7231">14</text><text fill="#000000" font-family="sans-serif" font-size="13" lengthAdjust="spacing" textLength="199.3735" x="342.5366" y="616.7231">raises UserNotFoundException</text><polygon fill="#181818" points="64.2651,646.9219,54.2651,650.9219,64.2651,654.9219,60.2651,650.9219" style="stroke:#181818;stroke-width:1.0;"/><line style="stroke:#181818;stroke-width:2.0;stroke-dasharray:2.0,2.0;" x1="58.2651" x2="302.4458" y1="650.9219" y2="650.9219"/><text fill="#000000" font-family="sans-serif" font-size="13" font-weight="bold" lengthAdjust="spacing" textLength="18.0908" x="70.2651" y="645.856">15</text><text fill="#000000" font-family="sans-serif" font-size="13" lengthAdjust="spacing" textLength="96.0146" x="92.356" y="645.856">404 Not Found</text><line style="stroke:#999999;stroke-width:1.0;stroke-dasharray:2.0,2.0;" x1="20" x2="1124.6406" y1="659.9219" y2="659.9219"/><text fill="#000000" font-family="sans-serif" font-size="11" font-weight="bold" lengthAdjust="spacing" textLength="77.0269" x="25" y="670.1323">[user found]</text><polygon fill="#181818" points="725.9214,690.8594,715.9214,694.8594,725.9214,698.8594,721.9214,694.8594" style="stroke:#181818;stroke-width:1.0;"/><line style="stroke:#181818;stroke-width:2.0;stroke-dasharray:2.0,2.0;" x1="719.9214" x2="1033.3218" y1="694.8594" y2="694.8594"/><text fill="#000000" font-family="sans-serif" font-size="13" font-weight="bold" lengthAdjust="spacing" textLength="18.0908" x="731.9214" y="689.7935">16</text><text fill="#000000" font-family="sans-serif" font-size="13" lengthAdjust="spacing" textLength="28.355" x="754.0122" y="689.7935">user</text><polygon fill="#181818" points="314.4458,735.125,304.4458,739.125,314.4458,743.125,310.4458,739.125" style="stroke:#181818;stroke-width:1.0;"/><line style="stroke:#181818;stroke-width:2.0;stroke-dasharray:2.0,2.0;" x1="308.4458" x2="713.9214" y1="739.125" y2="739.125"/><text fill="#000000" font-family="sans-serif" font-size="13" font-weight="bold" lengthAdjust="spacing" textLength="18.0908" x="320.4458" y="726.4927">17</text><text fill="#000000" font-family="sans-serif" font-size="13" lengthAdjust="spacing" textLength="52.6919" x="342.5366" y="718.9263">UserDto</text><text fill="#000000" font-family="sans-serif" font-size="13" lengthAdjust="spacing" textLength="130.3491" x="342.5366" y="734.0591">(user_id, username)</text><polygon fill="#181818" points="64.2651,779.3906,54.2651,783.3906,64.2651,787.3906,60.2651,783.3906" style="stroke:#181818;stroke-width:1.0;"/><line style="stroke:#181818;stroke-width:2.0;stroke-dasharray:2.0,2.0;" x1="58.2651" x2="302.4458" y1="783.3906" y2="783.3906"/><text fill="#000000" font-family="sans-serif" font-size="13" font-weight="bold" lengthAdjust="spacing" textLength="18.0908" x="70.2651" y="770.7583">18</text><text fill="#000000" font-family="sans-serif" font-size="13" lengthAdjust="spacing" textLength="47.7026" x="92.356" y="763.1919">200 OK</text><text fill="#000000" font-family="sans-serif" font-size="13" lengthAdjust="spacing" textLength="168.9302" x="92.356" y="778.3247">{ "user_id", "username" }</text><!--SRC=[XLJjRjem5FsVfxXA_r2fg1_gjBRgcFW8j5tN3mhQ7oHaaajhaTYfxT2oQL8VOi-m1-kJxDea41YeGKXsVCxnkUTUnN0J8tJGG3DJ2eM1laO5xsz_e1FqO9zbvca_GS_J4ovIfbW26fyp527MbP8llISUJWHg3KSbY9APY4Af14cTRA3UCMLuo5CcJ4Eg25LJnbB1pYVtV41WuUJHNP2JsdNxsq3g42fTqJzrJmagfC4LHCCzwuZ_hcotMy5dpsEXeMqpvXISvutaA_Xt2ZNjcE5I-B0J1EtZTiC3I9SLW6zJ7PAWGUK3qz1rotNK8vfXEE_ACAEk3CJvUOGfYeYgczLgZbedgHQc7hq5Cf2xgATfpCF21Daz2GxNvQdfUSzjoo-OYEBSJhvUqxmKOyMqKLbeCeLMjX6SKWfhibSlfYSdA1vGJNc8Jd3-OXgkOn-UOsxGNj_5L6fEQSxcWT1sUNt431inZKIuloQ2WxGQb7zcfCYI4Ndrvbs0QYrF4yvM9dWWR59IyPykbJDe85E4mjdLqwWJylUtlvwNCqaZZvL4g9yodYAiTwDYR56xdbT0YLNKIRGfAZwU3HseufTkyOd2OWFk11AkDHUFG6EKi7WiLO8HfRGGggvwOLoZXainPJ6F72Xu3J6r5H5huQGSmWUSecIYv0cUmV718VG5o_CYGnXJ-7F3JcMxGvlCa4TGwVSlMq3JGiLHmLkybVCabbVoKokcqFPnPLBlCrIpIavnsWNIIjFW46FCHJGSpGYm1CBya42j1a4UWkkWsGCUxJdJWYK8xUxjTxVJ0_7Z8kW6T0nVu2jnYLDTwjENpxQi8gHTQkV2DjLoQMBeqnT1X34Qf2XAmS4eMu0IEKLdgp2sKlED5EZE5iLjQAgDuqQQjlqqbPkwhQt796l0mGdbkkhCZFCt6vrOXBVTYlNGCd8WYgINUUvkjN9qS02ttmRY5_Wvoz-RBotFXz_M7bco_ty0]--></g></svg>