<svg xmlns="http://www.w3.org/2000/svg" xmlns:xlink="http://www.w3.org/1999/xlink" contentStyleType="text/css" height="1522px" preserveAspectRatio="none" style="width:2271px;height:1522px;background:#FFFFFF;" version="1.1" viewBox="0 0 2271 1522" width="2271px" zoomAndPan="magnify"><defs/><g><text fill="#000000" font-family="sans-serif" font-size="14" font-weight="bold" lengthAdjust="spacing" textLength="353.2881" x="959.905" y="27.9951">Add Pet Event &#8212; POST /pets/{pet_id}/events</text><rect fill="#EEF4FB" height="1472.9219" rx="4" ry="4" style="stroke:#181818;stroke-width:0.5;" width="464.4512" x="252.4878" y="43.2969"/><text fill="#000000" font-family="sans-serif" font-size="13" font-weight="bold" lengthAdjust="spacing" textLength="94.4087" x="437.509" y="55.3638">Presentation</text><rect fill="#FFF8E1" height="1472.9219" rx="4" ry="4" style="stroke:#181818;stroke-width:0.5;" width="167.127" x="718.939" y="43.2969"/><text fill="#000000" font-family="sans-serif" font-size="13" font-weight="bold" lengthAdjust="spacing" textLength="82.9194" x="761.0427" y="55.3638">Application</text><rect fill="#F1F8E9" height="1472.9219" rx="4" ry="4" style="stroke:#181818;stroke-width:0.5;" width="648.5801" x="971.1519" y="43.2969"/><text fill="#000000" font-family="sans-serif" font-size="13" font-weight="bold" lengthAdjust="spacing" textLength="55.7515" x="1267.5662" y="55.3638">Domain</text><rect fill="#FBE9E7" height="1472.9219" rx="4" ry="4" style="stroke:#181818;stroke-width:0.5;" width="360.6514" x="1621.7319" y="43.2969"/><text fill="#000000" font-family="sans-serif" font-size="13" font-weight="bold" lengthAdjust="spacing" textLength="102.9526" x="1750.5813" y="55.3638">Infrastructure</text><rect fill="none" height="1152.5313" rx="4" ry="4" style="stroke:#999999;stroke-width:1.5;" width="2254.0981" x="10" y="267.3906"/><rect fill="none" height="1048.3281" rx="4" ry="4" style="stroke:#999999;stroke-width:1.5;" width="2234.0981" x="20" y="364.5938"/><rect fill="none" height="783.3281" rx="4" ry="4" style="stroke:#999999;stroke-width:1.5;" width="2214.0981" x="30" y="622.5938"/><rect fill="none" height="620.8594" rx="4" ry="4" style="stroke:#999999;stroke-width:1.5;" width="2194.0981" x="40" y="778.0625"/><line style="stroke:#181818;stroke-width:0.5;stroke-dasharray:5.0,5.0;" x1="73" x2="73" y1="118.5938" y2="1436.9219"/><line style="stroke:#181818;stroke-width:0.5;stroke-dasharray:5.0,5.0;" x1="322.4878" x2="322.4878" y1="118.5938" y2="1436.9219"/><line style="stroke:#181818;stroke-width:0.5;stroke-dasharray:5.0,5.0;" x1="646.356" x2="646.356" y1="118.5938" y2="1436.9219"/><line style="stroke:#181818;stroke-width:0.5;stroke-dasharray:5.0,5.0;" x1="801.939" x2="801.939" y1="118.5938" y2="1436.9219"/><line style="stroke:#181818;stroke-width:0.5;stroke-dasharray:5.0,5.0;" x1="1035.1519" x2="1035.1519" y1="118.5938" y2="1436.9219"/><line style="stroke:#181818;stroke-width:0.5;stroke-dasharray:5.0,5.0;" x1="1246.0688" x2="1246.0688" y1="118.5938" y2="1436.9219"/><line style="stroke:#181818;stroke-width:0.5;stroke-dasharray:5.0,5.0;" x1="1457.8638" x2="1457.8638" y1="118.5938" y2="1436.9219"/><line style="stroke:#181818;stroke-width:0.5;stroke-dasharray:5.0,5.0;" x1="1577.0806" x2="1577.0806" y1="118.5938" y2="1436.9219"/><line style="stroke:#181818;stroke-width:0.5;stroke-dasharray:5.0,5.0;" x1="1700.7319" x2="1700.7319" y1="118.5938" y2="1436.9219"/><line style="stroke:#181818;stroke-width:0.5;stroke-dasharray:5.0,5.0;" x1="1882.0044" x2="1882.0044" y1="118.5938" y2="1436.9219"/><line style="stroke:#181818;stroke-width:0.5;stroke-dasharray:5.0,5.0;" x1="2197.3999" x2="2197.3999" y1="118.5938" y2="1436.9219"/><text fill="#000000" font-family="sans-serif" font-size="14" lengthAdjust="spacing" textLength="40.5303" x="50" y="115.292">Client</text><ellipse cx="73.2651" cy="50.7969" fill="#E2E2F0" rx="8" ry="8" style="stroke:#181818;stroke-width:0.5;"/><path d="M73.2651,58.7969 L73.2651,85.7969 M60.2651,66.7969 L86.2651,66.7969 M73.2651,85.7969 L60.2651,100.7969 M73.2651,85.7969 L86.2651,100.7969 " fill="none" style="stroke:#181818;stroke-width:0.5;"/><text fill="#000000" font-family="sans-serif" font-size="14" lengthAdjust="spacing" textLength="40.5303" x="50" y="1448.917">Client</text><ellipse cx="73.2651" cy="1460.7188" fill="#E2E2F0" rx="8" ry="8" style="stroke:#181818;stroke-width:0.5;"/><path d="M73.2651,1468.7188 L73.2651,1495.7188 M60.2651,1476.7188 L86.2651,1476.7188 M73.2651,1495.7188 L60.2651,1510.7188 M73.2651,1495.7188 L86.2651,1510.7188 " fill="none" style="stroke:#181818;stroke-width:0.5;"/><rect fill="#FAFAFA" height="30.2969" rx="4" ry="4" style="stroke:#555555;stroke-width:0.5;" width="133.916" x="256.4878" y="87.2969"/><text fill="#000000" font-family="sans-serif" font-size="14" lengthAdjust="spacing" textLength="119.916" x="263.4878" y="107.292">pet_event_router</text><rect fill="#FAFAFA" height="30.2969" rx="4" ry="4" style="stroke:#555555;stroke-width:0.5;" width="133.916" x="256.4878" y="1435.9219"/><text fill="#000000" font-family="sans-serif" font-size="14" lengthAdjust="spacing" textLength="119.916" x="263.4878" y="1455.917">pet_event_router</text><rect fill="#FAFAFA" height="46.5938" rx="4" ry="4" style="stroke:#555555;stroke-width:0.5;" width="132.583" x="580.356" y="71"/><text fill="#000000" font-family="sans-serif" font-size="14" lengthAdjust="spacing" textLength="118.583" x="587.356" y="90.9951">get_current_user</text><text fill="#000000" font-family="sans-serif" font-size="14" lengthAdjust="spacing" textLength="103.3594" x="594.9678" y="107.292">&#171;dependency&#187;</text><rect fill="#FAFAFA" height="46.5938" rx="4" ry="4" style="stroke:#555555;stroke-width:0.5;" width="132.583" x="580.356" y="1435.9219"/><text fill="#000000" font-family="sans-serif" font-size="14" lengthAdjust="spacing" textLength="118.583" x="587.356" y="1455.917">get_current_user</text><text fill="#000000" font-family="sans-serif" font-size="14" lengthAdjust="spacing" textLength="103.3594" x="594.9678" y="1472.2139">&#171;dependency&#187;</text><rect fill="#FAFAFA" height="30.2969" rx="4" ry="4" style="stroke:#555555;stroke-width:0.5;" width="159.127" x="722.939" y="87.2969"/><text fill="#000000" font-family="sans-serif" font-size="14" lengthAdjust="spacing" textLength="145.127" x="729.939" y="107.292">AddPetEventHandler</text><rect fill="#FAFAFA" height="30.2969" rx="4" ry="4" style="stroke:#555555;stroke-width:0.5;" width="159.127" x="722.939" y="1435.9219"/><text fill="#000000" font-family="sans-serif" font-size="14" lengthAdjust="spacing" textLength="145.127" x="729.939" y="1455.917">AddPetEventHandler</text><rect fill="#FAFAFA" height="46.5938" rx="4" ry="4" style="stroke:#555555;stroke-width:0.5;" width="120.709" x="975.1519" y="71"/><text fill="#000000" font-family="sans-serif" font-size="14" lengthAdjust="spacing" textLength="70.54" x="1000.2363" y="90.9951">EventTitle</text><text fill="#000000" font-family="sans-serif" font-size="14" lengthAdjust="spacing" textLength="106.709" x="982.1519" y="107.292">&#171;Value Object&#187;</text><rect fill="#FAFAFA" height="46.5938" rx="4" ry="4" style="stroke:#555555;stroke-width:0.5;" width="120.709" x="975.1519" y="1435.9219"/><text fill="#000000" font-family="sans-serif" font-size="14" lengthAdjust="spacing" textLength="70.54" x="1000.2363" y="1455.917">EventTitle</text><text fill="#000000" font-family="sans-serif" font-size="14" lengthAdjust="spacing" textLength="106.709" x="982.1519" y="1472.2139">&#171;Value Object&#187;</text><rect fill="#FAFAFA" height="46.5938" rx="4" ry="4" style="stroke:#555555;stroke-width:0.5;" width="133.8408" x="1180.0688" y="71"/><text fill="#000000" font-family="sans-serif" font-size="14" lengthAdjust="spacing" textLength="119.8408" x="1187.0688" y="90.9951">EventDescription</text><text fill="#000000" font-family="sans-serif" font-size="14" lengthAdjust="spacing" textLength="106.709" x="1193.6348" y="107.292">&#171;Value Object&#187;</text><rect fill="#FAFAFA" height="46.5938" rx="4" ry="4" style="stroke:#555555;stroke-width:0.5;" width="133.8408" x="1180.0688" y="1435.9219"/><text fill="#000000" font-family="sans-serif" font-size="14" lengthAdjust="spacing" textLength="119.8408" x="1187.0688" y="1455.917">EventDescription</text><text fill="#000000" font-family="sans-serif" font-size="14" lengthAdjust="spacing" textLength="106.709" x="1193.6348" y="1472.2139">&#171;Value Object&#187;</text><rect fill="#FAFAFA" height="46.5938" rx="4" ry="4" style="stroke:#555555;stroke-width:0.5;" width="141.2168" x="1387.8638" y="71"/><text fill="#000000" font-family="sans-serif" font-size="14" lengthAdjust="spacing" textLength="22.5449" x="1447.1997" y="90.9951">Pet</text><text fill="#000000" font-family="sans-serif" font-size="14" lengthAdjust="spacing" textLength="127.2168" x="1394.8638" y="107.292">&#171;Aggregate Root&#187;</text><rect fill="#FAFAFA" height="46.5938" rx="4" ry="4" style="stroke:#555555;stroke-width:0.5;" width="141.2168" x="1387.8638" y="1435.9219"/><text fill="#000000" font-family="sans-serif" font-size="14" lengthAdjust="spacing" textLength="22.5449" x="1447.1997" y="1455.917">Pet</text><text fill="#000000" font-family="sans-serif" font-size="14" lengthAdjust="spacing" textLength="127.2168" x="1394.8638" y="1472.2139">&#171;Aggregate Root&#187;</text><rect fill="#FAFAFA" height="46.5938" rx="4" ry="4" style="stroke:#555555;stroke-width:0.5;" width="76.6514" x="1539.0806" y="71"/><text fill="#000000" font-family="sans-serif" font-size="14" lengthAdjust="spacing" textLength="62.6514" x="1546.0806" y="90.9951">PetEvent</text><text fill="#000000" font-family="sans-serif" font-size="14" lengthAdjust="spacing" textLength="58.0029" x="1548.4048" y="107.292">&#171;Entity&#187;</text><rect fill="#FAFAFA" height="46.5938" rx="4" ry="4" style="stroke:#555555;stroke-width:0.5;" width="76.6514" x="1539.0806" y="1435.9219"/><text fill="#000000" font-family="sans-serif" font-size="14" lengthAdjust="spacing" textLength="62.6514" x="1546.0806" y="1455.917">PetEvent</text><text fill="#000000" font-family="sans-serif" font-size="14" lengthAdjust="spacing" textLength="58.0029" x="1548.4048" y="1472.2139">&#171;Entity&#187;</text><rect fill="#FAFAFA" height="30.2969" rx="4" ry="4" style="stroke:#555555;stroke-width:0.5;" width="151.2725" x="1625.7319" y="87.2969"/><text fill="#000000" font-family="sans-serif" font-size="14" lengthAdjust="spacing" textLength="137.2725" x="1632.7319" y="107.292">SqlitePetRepository</text><rect fill="#FAFAFA" height="30.2969" rx="4" ry="4" style="stroke:#555555;stroke-width:0.5;" width="151.2725" x="1625.7319" y="1435.9219"/><text fill="#000000" font-family="sans-serif" font-size="14" lengthAdjust="spacing" textLength="137.2725" x="1632.7319" y="1455.917">SqlitePetRepository</text><rect fill="#FAFAFA" height="30.2969" rx="4" ry="4" style="stroke:#555555;stroke-width:0.5;" width="191.3789" x="1787.0044" y="87.2969"/><text fill="#000000" font-family="sans-serif" font-size="14" lengthAdjust="spacing" textLength="177.3789" x="1794.0044" y="107.292">SqlitePetEventRepository</text><rect fill="#FAFAFA" height="30.2969" rx="4" ry="4" style="stroke:#555555;stroke-width:0.5;" width="191.3789" x="1787.0044" y="1435.9219"/><text fill="#000000" font-family="sans-serif" font-size="14" lengthAdjust="spacing" textLength="177.3789" x="1794.0044" y="1455.917">SqlitePetEventRepository</text><text fill="#000000" font-family="sans-serif" font-size="14" lengthAdjust="spacing" textLength="45.6982" x="2172.3999" y="115.292">SQLite</text><path d="M2180.249,66.2969 C2180.249,56.2969 2198.249,56.2969 2198.249,56.2969 C2198.249,56.2969 2216.249,56.2969 2216.249,66.2969 L2216.249,92.2969 C2216.249,102.2969 2198.249,102.2969 2198.249,102.2969 C2198.249,102.2969 2180.249,102.2969 2180.249,92.2969 L2180.249,66.2969 " fill="#E2E2F0" style="stroke:#181818;stroke-width:1.5;"/><path d="M2180.249,66.2969 C2180.249,76.2969 2198.249,76.2969 2198.249,76.2969 C2198.249,76.2969 2216.249,76.2969 2216.249,66.2969 " fill="none" style="stroke:#181818;stroke-width:1.5;"/><text fill="#000000" font-family="sans-serif" font-size="14" lengthAdjust="spacing" textLength="45.6982" x="2172.3999" y="1448.917">SQLite</text><path d="M2180.249,1462.2188 C2180.249,1452.2188 2198.249,1452.2188 2198.249,1452.2188 C2198.249,1452.2188 2216.249,1452.2188 2216.249,1462.2188 L2216.249,1488.2188 C2216.249,1498.2188 2198.249,1498.2188 2198.249,1498.2188 C2198.249,1498.2188 2180.249,1498.2188 2180.249,1488.2188 L2180.249,1462.2188 " fill="#E2E2F0" style="stroke:#181818;stroke-width:1.5;"/><path d="M2180.249,1462.2188 C2180.249,1472.2188 2198.249,1472.2188 2198.249,1472.2188 C2198.249,1472.2188 2216.249,1472.2188 2216.249,1462.2188 " fill="none" style="stroke:#181818;stroke-width:1.5;"/><polygon fill="#181818" points="311.4458,191.125,321.4458,195.125,311.4458,199.125,315.4458,195.125" style="stroke:#181818;stroke-width:1.0;"/><line style="stroke:#181818;stroke-width:2.0;" x1="73.2651" x2="317.4458" y1="195.125" y2="195.125"/><text fill="#000000" font-family="sans-serif" font-size="13" font-weight="bold" lengthAdjust="spacing" textLength="9.0454" x="80.2651" y="167.3599">1</text><text fill="#000000" font-family="sans-serif" font-size="13" lengthAdjust="spacing" textLength="179.7085" x="93.3105" y="144.6606">POST /pets/{pet_id}/events</text><text fill="#000000" font-family="sans-serif" font-size="13" lengthAdjust="spacing" textLength="213.1353" x="93.3105" y="159.7935">Authorization: Bearer eyJhbGci&#8230;</text><text fill="#000000" font-family="sans-serif" font-size="13" lengthAdjust="spacing" textLength="127.2896" x="93.3105" y="174.9263">{ "title": "Vet visit",</text><text fill="#000000" font-family="sans-serif" font-size="13" lengthAdjust="spacing" textLength="169.4316" x="101.5752" y="190.0591">"description": "All clear" }</text><line style="stroke:#181818;stroke-width:2.0;" x1="323.4458" x2="365.4458" y1="239.3906" y2="239.3906"/><line style="stroke:#181818;stroke-width:2.0;" x1="365.4458" x2="365.4458" y1="239.3906" y2="252.3906"/><line style="stroke:#181818;stroke-width:2.0;" x1="324.4458" x2="365.4458" y1="252.3906" y2="252.3906"/><polygon fill="#181818" points="334.4458,248.3906,324.4458,252.3906,334.4458,256.3906,330.4458,252.3906" style="stroke:#181818;stroke-width:1.0;"/><text fill="#000000" font-family="sans-serif" font-size="13" font-weight="bold" lengthAdjust="spacing" textLength="9.0454" x="330.4458" y="226.7583">2</text><text fill="#000000" font-family="sans-serif" font-size="13" lengthAdjust="spacing" textLength="150.7886" x="343.4912" y="219.1919">Validate {pet_id} UUID</text><text fill="#000000" font-family="sans-serif" font-size="13" lengthAdjust="spacing" textLength="296.1563" x="343.4912" y="234.3247">Pydantic schema (title, description not blank)</text><path d="M14,267.3906 L74.4429,267.3906 L74.4429,274.5234 L64.4429,284.5234 L10,284.5234 L10,271.3906 A4,4 0 0 1 14,267.3906 " fill="#EEEEEE" style="stroke:#999999;stroke-width:1.5;"/><rect fill="none" height="1152.5313" rx="4" ry="4" style="stroke:#999999;stroke-width:1.5;" width="2254.0981" x="10" y="267.3906"/><text fill="#000000" font-family="sans-serif" font-size="13" font-weight="bold" lengthAdjust="spacing" textLength="19.4429" x="25" y="280.4575">alt</text><text fill="#000000" font-family="sans-serif" font-size="11" font-weight="bold" lengthAdjust="spacing" textLength="179.4751" x="89.4429" y="279.6011">[invalid UUID or blank fields]</text><polygon fill="#181818" points="84.2651,301.6563,74.2651,305.6563,84.2651,309.6563,80.2651,305.6563" style="stroke:#181818;stroke-width:1.0;"/><line style="stroke:#181818;stroke-width:2.0;stroke-dasharray:2.0,2.0;" x1="78.2651" x2="322.4458" y1="305.6563" y2="305.6563"/><text fill="#000000" font-family="sans-serif" font-size="13" font-weight="bold" lengthAdjust="spacing" textLength="9.0454" x="90.2651" y="300.5903">3</text><text fill="#000000" font-family="sans-serif" font-size="13" lengthAdjust="spacing" textLength="166.8545" x="103.3105" y="300.5903">422 Unprocessable Entity</text><line style="stroke:#999999;stroke-width:1.0;stroke-dasharray:2.0,2.0;" x1="10" x2="2264.0981" y1="314.6563" y2="314.6563"/><text fill="#000000" font-family="sans-serif" font-size="11" font-weight="bold" lengthAdjust="spacing" textLength="40.063" x="15" y="324.8667">[valid]</text><polygon fill="#181818" points="634.6475,345.5938,644.6475,349.5938,634.6475,353.5938,638.6475,349.5938" style="stroke:#181818;stroke-width:1.0;"/><line style="stroke:#181818;stroke-width:2.0;" x1="323.4458" x2="640.6475" y1="349.5938" y2="349.5938"/><text fill="#000000" font-family="sans-serif" font-size="13" font-weight="bold" lengthAdjust="spacing" textLength="9.0454" x="330.4458" y="344.5278">4</text><text fill="#000000" font-family="sans-serif" font-size="13" lengthAdjust="spacing" textLength="208.5776" x="343.4912" y="344.5278">resolve get_current_user(token)</text><path d="M24,364.5938 L84.4429,364.5938 L84.4429,371.7266 L74.4429,381.7266 L20,381.7266 L20,368.5938 A4,4 0 0 1 24,364.5938 " fill="#EEEEEE" style="stroke:#999999;stroke-width:1.5;"/><rect fill="none" height="1048.3281" rx="4" ry="4" style="stroke:#999999;stroke-width:1.5;" width="2234.0981" x="20" y="364.5938"/><text fill="#000000" font-family="sans-serif" font-size="13" font-weight="bold" lengthAdjust="spacing" textLength="19.4429" x="35" y="377.6606">alt</text><text fill="#000000" font-family="sans-serif" font-size="11" font-weight="bold" lengthAdjust="spacing" textLength="90.9165" x="99.4429" y="376.8042">[token invalid]</text><polygon fill="#181818" points="334.4458,398.8594,324.4458,402.8594,334.4458,406.8594,330.4458,402.8594" style="stroke:#181818;stroke-width:1.0;"/><line style="stroke:#181818;stroke-width:2.0;stroke-dasharray:2.0,2.0;" x1="328.4458" x2="645.6475" y1="402.8594" y2="402.8594"/><text fill="#000000" font-family="sans-serif" font-size="13" font-weight="bold" lengthAdjust="spacing" textLength="9.0454" x="340.4458" y="397.7935">5</text><text fill="#000000" font-family="sans-serif" font-size="13" lengthAdjust="spacing" textLength="189.6743" x="353.4912" y="397.7935">raises InvalidTokenException</text><polygon fill="#181818" points="84.2651,427.9922,74.2651,431.9922,84.2651,435.9922,80.2651,431.9922" style="stroke:#181818;stroke-width:1.0;"/><line style="stroke:#181818;stroke-width:2.0;stroke-dasharray:2.0,2.0;" x1="78.2651" x2="322.4458" y1="431.9922" y2="431.9922"/><text fill="#000000" font-family="sans-serif" font-size="13" font-weight="bold" lengthAdjust="spacing" textLength="9.0454" x="90.2651" y="426.9263">6</text><text fill="#000000" font-family="sans-serif" font-size="13" lengthAdjust="spacing" textLength="116.2256" x="103.3105" y="426.9263">401 Unauthorized</text><line style="stroke:#999999;stroke-width:1.0;stroke-dasharray:2.0,2.0;" x1="20" x2="2254.0981" y1="440.9922" y2="440.9922"/><text fill="#000000" font-family="sans-serif" font-size="11" font-weight="bold" lengthAdjust="spacing" textLength="79.3149" x="25" y="451.2026">[token valid]</text><polygon fill="#181818" points="334.4458,471.9297,324.4458,475.9297,334.4458,479.9297,330.4458,475.9297" style="stroke:#181818;stroke-width:1.0;"/><line style="stroke:#181818;stroke-width:2.0;stroke-dasharray:2.0,2.0;" x1="328.4458" x2="645.6475" y1="475.9297" y2="475.9297"/><text fill="#000000" font-family="sans-serif" font-size="13" font-weight="bold" lengthAdjust="spacing" textLength="9.0454" x="340.4458" y="470.8638">7</text><text fill="#000000" font-family="sans-serif" font-size="13" lengthAdjust="spacing" textLength="100.6294" x="353.4912" y="470.8638">current_user_id</text><polygon fill="#181818" points="790.5024,516.1953,800.5024,520.1953,790.5024,524.1953,794.5024,520.1953" style="stroke:#181818;stroke-width:1.0;"/><line style="stroke:#181818;stroke-width:2.0;" x1="323.4458" x2="796.5024" y1="520.1953" y2="520.1953"/><text fill="#000000" font-family="sans-serif" font-size="13" font-weight="bold" lengthAdjust="spacing" textLength="9.0454" x="330.4458" y="507.563">8</text><text fill="#000000" font-family="sans-serif" font-size="13" lengthAdjust="spacing" textLength="150.3887" x="343.4912" y="499.9966">AddPetEventCommand</text><text fill="#000000" font-family="sans-serif" font-size="13" lengthAdjust="spacing" textLength="219.064" x="343.4912" y="515.1294">(pet_id, user_id, title, description)</text><polygon fill="#181818" points="1689.3682,545.3281,1699.3682,549.3281,1689.3682,553.3281,1693.3682,549.3281" style="stroke:#181818;stroke-width:1.0;"/><line style="stroke:#181818;stroke-width:2.0;" x1="802.5024" x2="1695.3682" y1="549.3281" y2="549.3281"/><text fill="#000000" font-family="sans-serif" font-size="13" font-weight="bold" lengthAdjust="spacing" textLength="9.0454" x="809.5024" y="544.2622">9</text><text fill="#000000" font-family="sans-serif" font-size="13" lengthAdjust="spacing" textLength="115.3433" x="822.5479" y="544.2622">find_by_id(pet_id)</text><polygon fill="#181818" points="2186.249,574.4609,2196.249,578.4609,2186.249,582.4609,2190.249,578.4609" style="stroke:#181818;stroke-width:1.0;"/><line style="stroke:#181818;stroke-width:2.0;" x1="1701.3682" x2="2192.249" y1="578.4609" y2="578.4609"/><text fill="#000000" font-family="sans-serif" font-size="13" font-weight="bold" lengthAdjust="spacing" textLength="18.0908" x="1708.3682" y="573.395">10</text><text fill="#000000" font-family="sans-serif" font-size="13" lengthAdjust="spacing" textLength="66.0728" x="1730.459" y="573.395">SELECT &#8230;</text><polygon fill="#181818" points="1712.3682,603.5938,1702.3682,607.5938,1712.3682,611.5938,1708.3682,607.5938" style="stroke:#181818;stroke-width:1.0;"/><line style="stroke:#181818;stroke-width:2.0;stroke-dasharray:2.0,2.0;" x1="1706.3682" x2="2197.249" y1="607.5938" y2="607.5938"/><text fill="#000000" font-family="sans-serif" font-size="13" font-weight="bold" lengthAdjust="spacing" textLength="18.0908" x="1718.3682" y="602.5278">11</text><text fill="#000000" font-family="sans-serif" font-size="13" lengthAdjust="spacing" textLength="106.666" x="1740.459" y="602.5278">row or (no rows)</text><path d="M34,622.5938 L94.4429,622.5938 L94.4429,629.7266 L84.4429,639.7266 L30,639.7266 L30,626.5938 A4,4 0 0 1 34,622.5938 " fill="#EEEEEE" style="stroke:#999999;stroke-width:1.5;"/><rect fill="none" height="783.3281" rx="4" ry="4" style="stroke:#999999;stroke-width:1.5;" width="2214.0981" x="30" y="622.5938"/><text fill="#000000" font-family="sans-serif" font-size="13" font-weight="bold" lengthAdjust="spacing" textLength="19.4429" x="45" y="635.6606">alt</text><text fill="#000000" font-family="sans-serif" font-size="11" font-weight="bold" lengthAdjust="spacing" textLength="94.832" x="109.4429" y="634.8042">[pet not found]</text><polygon fill="#181818" points="334.4458,656.8594,324.4458,660.8594,334.4458,664.8594,330.4458,660.8594" style="stroke:#181818;stroke-width:1.0;"/><line style="stroke:#181818;stroke-width:2.0;stroke-dasharray:2.0,2.0;" x1="328.4458" x2="801.5024" y1="660.8594" y2="660.8594"/><text fill="#000000" font-family="sans-serif" font-size="13" font-weight="bold" lengthAdjust="spacing" textLength="18.0908" x="340.4458" y="655.7935">12</text><text fill="#000000" font-family="sans-serif" font-size="13" lengthAdjust="spacing" textLength="190.6772" x="362.5366" y="655.7935">raises PetNotFoundException</text><polygon fill="#181818" points="84.2651,685.9922,74.2651,689.9922,84.2651,693.9922,80.2651,689.9922" style="stroke:#181818;stroke-width:1.0;"/><line style="stroke:#181818;stroke-width:2.0;stroke-dasharray:2.0,2.0;" x1="78.2651" x2="322.4458" y1="689.9922" y2="689.9922"/><text fill="#000000" font-family="sans-serif" font-size="13" font-weight="bold" lengthAdjust="spacing" textLength="18.0908" x="90.2651" y="684.9263">13</text><text fill="#000000" font-family="sans-serif" font-size="13" lengthAdjust="spacing" textLength="96.0146" x="112.356" y="684.9263">404 Not Found</text><line style="stroke:#999999;stroke-width:1.0;stroke-dasharray:2.0,2.0;" x1="30" x2="2244.0981" y1="698.9922" y2="698.9922"/><text fill="#000000" font-family="sans-serif" font-size="11" font-weight="bold" lengthAdjust="spacing" textLength="70.356" x="35" y="709.2026">[pet found]</text><polygon fill="#181818" points="813.5024,729.9297,803.5024,733.9297,813.5024,737.9297,809.5024,733.9297" style="stroke:#181818;stroke-width:1.0;"/><line style="stroke:#181818;stroke-width:2.0;stroke-dasharray:2.0,2.0;" x1="807.5024" x2="1700.3682" y1="733.9297" y2="733.9297"/><text fill="#000000" font-family="sans-serif" font-size="13" font-weight="bold" lengthAdjust="spacing" textLength="18.0908" x="819.5024" y="728.8638">14</text><text fill="#000000" font-family="sans-serif" font-size="13" lengthAdjust="spacing" textLength="21.3472" x="841.5933" y="728.8638">pet</text><polygon fill="#181818" points="1446.4722,759.0625,1456.4722,763.0625,1446.4722,767.0625,1450.4722,763.0625" style="stroke:#181818;stroke-width:1.0;"/><line style="stroke:#181818;stroke-width:2.0;" x1="802.5024" x2="1452.4722" y1="763.0625" y2="763.0625"/><text fill="#000000" font-family="sans-serif" font-size="13" font-weight="bold" lengthAdjust="spacing" textLength="18.0908" x="809.5024" y="757.9966">15</text><text fill="#000000" font-family="sans-serif" font-size="13" lengthAdjust="spacing" textLength="218.6577" x="831.5933" y="757.9966">pet.is_owned_by(current_user_id)</text><path d="M44,778.0625 L104.4429,778.0625 L104.4429,785.1953 L94.4429,795.1953 L40,795.1953 L40,782.0625 A4,4 0 0 1 44,778.0625 " fill="#EEEEEE" style="stroke:#999999;stroke-width:1.5;"/><rect fill="none" height="620.8594" rx="4" ry="4" style="stroke:#999999;stroke-width:1.5;" width="2194.0981" x="40" y="778.0625"/><text fill="#000000" font-family="sans-serif" font-size="13" font-weight="bold" lengthAdjust="spacing" textLength="19.4429" x="55" y="791.1294">alt</text><text fill="#000000" font-family="sans-serif" font-size="11" font-weight="bold" lengthAdjust="spacing" textLength="137.2905" x="119.4429" y="790.2729">[user is not an owner]</text><polygon fill="#181818" points="334.4458,812.3281,324.4458,816.3281,334.4458,820.3281,330.4458,816.3281" style="stroke:#181818;stroke-width:1.0;"/><line style="stroke:#181818;stroke-width:2.0;stroke-dasharray:2.0,2.0;" x1="328.4458" x2="801.5024" y1="816.3281" y2="816.3281"/><text fill="#000000" font-family="sans-serif" font-size="13" font-weight="bold" lengthAdjust="spacing" textLength="18.0908" x="340.4458" y="811.2622">16</text><text fill="#000000" font-family="sans-serif" font-size="13" lengthAdjust="spacing" textLength="218.5815" x="362.5366" y="811.2622">raises PetAccessDeniedException</text><polygon fill="#181818" points="84.2651,841.4609,74.2651,845.4609,84.2651,849.4609,80.2651,845.4609" style="stroke:#181818;stroke-width:1.0;"/><line style="stroke:#181818;stroke-width:2.0;stroke-dasharray:2.0,2.0;" x1="78.2651" x2="322.4458" y1="845.4609" y2="845.4609"/><text fill="#000000" font-family="sans-serif" font-size="13" font-weight="bold" lengthAdjust="spacing" textLength="18.0908" x="90.2651" y="840.395">17</text><text fill="#000000" font-family="sans-serif" font-size="13" lengthAdjust="spacing" textLength="94.3262" x="112.356" y="840.395">403 Forbidden</text><line style="stroke:#999999;stroke-width:1.0;stroke-dasharray:2.0,2.0;" x1="40" x2="2234.0981" y1="854.4609" y2="854.4609"/><text fill="#000000" font-family="sans-serif" font-size="11" font-weight="bold" lengthAdjust="spacing" textLength="112.8145" x="45" y="864.6714">[user is an owner]</text><polygon fill="#181818" points="1023.5063,885.3984,1033.5063,889.3984,1023.5063,893.3984,1027.5063,889.3984" style="stroke:#181818;stroke-width:1.0;"/><line style="stroke:#181818;stroke-width:2.0;" x1="802.5024" x2="1029.5063" y1="889.3984" y2="889.3984"/><text fill="#000000" font-family="sans-serif" font-size="13" font-weight="bold" lengthAdjust="spacing" textLength="18.0908" x="809.5024" y="884.3325">18</text><text fill="#000000" font-family="sans-serif" font-size="13" lengthAdjust="spacing" textLength="186.9131" x="831.5933" y="884.3325">EventTitle(value="Vet visit")</text><line style="stroke:#181818;stroke-width:2.0;" x1="1035.5063" x2="1077.5063" y1="918.5313" y2="918.5313"/><line style="stroke:#181818;stroke-width:2.0;" x1="1077.5063" x2="1077.5063" y1="918.5313" y2="931.5313"/><line style="stroke:#181818;stroke-width:2.0;" x1="1036.5063" x2="1077.5063" y1="931.5313" y2="931.5313"/><polygon fill="#181818" points="1046.5063,927.5313,1036.5063,931.5313,1046.5063,935.5313,1042.5063,931.5313" style="stroke:#181818;stroke-width:1.0;"/><text fill="#000000" font-family="sans-serif" font-size="13" font-weight="bold" lengthAdjust="spacing" textLength="18.0908" x="1042.5063" y="913.4653">19</text><text fill="#000000" font-family="sans-serif" font-size="13" lengthAdjust="spacing" textLength="175.3921" x="1064.5972" y="913.4653">strip + validate non-empty</text><polygon fill="#181818" points="813.5024,956.6641,803.5024,960.6641,813.5024,964.6641,809.5024,960.6641" style="stroke:#181818;stroke-width:1.0;"/><line style="stroke:#181818;stroke-width:2.0;stroke-dasharray:2.0,2.0;" x1="807.5024" x2="1034.5063" y1="960.6641" y2="960.6641"/><text fill="#000000" font-family="sans-serif" font-size="13" font-weight="bold" lengthAdjust="spacing" textLength="18.0908" x="819.5024" y="955.5981">20</text><text fill="#000000" font-family="sans-serif" font-size="13" lengthAdjust="spacing" textLength="88.7593" x="841.5933" y="955.5981">EventTitle VO</text><polygon fill="#181818" points="1234.9893,985.7969,1244.9893,989.7969,1234.9893,993.7969,1238.9893,989.7969" style="stroke:#181818;stroke-width:1.0;"/><line style="stroke:#181818;stroke-width:2.0;" x1="802.5024" x2="1240.9893" y1="989.7969" y2="989.7969"/><text fill="#000000" font-family="sans-serif" font-size="13" font-weight="bold" lengthAdjust="spacing" textLength="18.0908" x="809.5024" y="984.731">21</text><text fill="#000000" font-family="sans-serif" font-size="13" lengthAdjust="spacing" textLength="232.1021" x="831.5933" y="984.731">EventDescription(value="All clear")</text><line style="stroke:#181818;stroke-width:2.0;" x1="1246.9893" x2="1288.9893" y1="1018.9297" y2="1018.9297"/><line style="stroke:#181818;stroke-width:2.0;" x1="1288.9893" x2="1288.9893" y1="1018.9297" y2="1031.9297"/><line style="stroke:#181818;stroke-width:2.0;" x1="1247.9893" x2="1288.9893" y1="1031.9297" y2="1031.9297"/><polygon fill="#181818" points="1257.9893,1027.9297,1247.9893,1031.9297,1257.9893,1035.9297,1253.9893,1031.9297" style="stroke:#181818;stroke-width:1.0;"/><text fill="#000000" font-family="sans-serif" font-size="13" font-weight="bold" lengthAdjust="spacing" textLength="18.0908" x="1253.9893" y="1013.8638">22</text><text fill="#000000" font-family="sans-serif" font-size="13" lengthAdjust="spacing" textLength="175.3921" x="1276.0801" y="1013.8638">strip + validate non-empty</text><polygon fill="#181818" points="813.5024,1057.0625,803.5024,1061.0625,813.5024,1065.0625,809.5024,1061.0625" style="stroke:#181818;stroke-width:1.0;"/><line style="stroke:#181818;stroke-width:2.0;stroke-dasharray:2.0,2.0;" x1="807.5024" x2="1245.9893" y1="1061.0625" y2="1061.0625"/><text fill="#000000" font-family="sans-serif" font-size="13" font-weight="bold" lengthAdjust="spacing" textLength="18.0908" x="819.5024" y="1055.9966">23</text><text fill="#000000" font-family="sans-serif" font-size="13" lengthAdjust="spacing" textLength="134.5386" x="841.5933" y="1055.9966">EventDescription VO</text><polygon fill="#181818" points="1565.4063,1101.3281,1575.4063,1105.3281,1565.4063,1109.3281,1569.4063,1105.3281" style="stroke:#181818;stroke-width:1.0;"/><line style="stroke:#181818;stroke-width:2.0;" x1="802.5024" x2="1571.4063" y1="1105.3281" y2="1105.3281"/><text fill="#000000" font-family="sans-serif" font-size="13" font-weight="bold" lengthAdjust="spacing" textLength="18.0908" x="809.5024" y="1092.6958">24</text><text fill="#000000" font-family="sans-serif" font-size="13" lengthAdjust="spacing" textLength="109.4209" x="831.5933" y="1085.1294">PetEvent.record(</text><text fill="#000000" font-family="sans-serif" font-size="13" lengthAdjust="spacing" textLength="159.0088" x="839.8579" y="1100.2622">pet_id, title, description)</text><path d="M1582,1122.3281 L1582,1154.3281 A4,4 0 0 0 1586,1158.3281 L1784,1158.3281 A4,4 0 0 0 1788,1154.3281 L1788,1128.3281 L1778,1118.3281 L1586,1118.3281 A4,4 0 0 0 1582,1122.3281 " fill="#FFFDE7" style="stroke:#BBBBBB;stroke-width:0.5;"/><path d="M1778,1118.3281 L1778,1126.3281 A2,2 0 0 0 1780,1128.3281 L1788,1128.3281 L1778,1118.3281 " fill="#FFFDE7" style="stroke:#BBBBBB;stroke-width:0.5;"/><text fill="#000000" font-family="sans-serif" font-size="13" lengthAdjust="spacing" textLength="117.3237" x="1588" y="1135.395">Assigns new UUID</text><text fill="#000000" font-family="sans-serif" font-size="13" lengthAdjust="spacing" textLength="185.853" x="1588" y="1150.5278">Sets occurred_at = utcnow()</text><polygon fill="#181818" points="813.5024,1180.7266,803.5024,1184.7266,813.5024,1188.7266,809.5024,1184.7266" style="stroke:#181818;stroke-width:1.0;"/><line style="stroke:#181818;stroke-width:2.0;stroke-dasharray:2.0,2.0;" x1="807.5024" x2="1576.4063" y1="1184.7266" y2="1184.7266"/><text fill="#000000" font-family="sans-serif" font-size="13" font-weight="bold" lengthAdjust="spacing" textLength="18.0908" x="819.5024" y="1179.6606">25</text><text fill="#000000" font-family="sans-serif" font-size="13" lengthAdjust="spacing" textLength="37.0259" x="841.5933" y="1179.6606">event</text><polygon fill="#181818" points="1870.6938,1209.8594,1880.6938,1213.8594,1870.6938,1217.8594,1874.6938,1213.8594" style="stroke:#181818;stroke-width:1.0;"/><line style="stroke:#181818;stroke-width:2.0;" x1="802.5024" x2="1876.6938" y1="1213.8594" y2="1213.8594"/><text fill="#000000" font-family="sans-serif" font-size="13" font-weight="bold" lengthAdjust="spacing" textLength="18.0908" x="809.5024" y="1208.7935">26</text><text fill="#000000" font-family="sans-serif" font-size="13" lengthAdjust="spacing" textLength="77.6001" x="831.5933" y="1208.7935">save(event)</text><polygon fill="#181818" points="2186.249,1254.125,2196.249,1258.125,2186.249,1262.125,2190.249,1258.125" style="stroke:#181818;stroke-width:1.0;"/><line style="stroke:#181818;stroke-width:2.0;" x1="1882.6938" x2="2192.249" y1="1258.125" y2="1258.125"/><text fill="#000000" font-family="sans-serif" font-size="13" font-weight="bold" lengthAdjust="spacing" textLength="18.0908" x="1889.6938" y="1245.4927">27</text><text fill="#000000" font-family="sans-serif" font-size="13" lengthAdjust="spacing" textLength="158.6406" x="1911.7847" y="1237.9263">INSERT INTO pet_events</text><text fill="#000000" font-family="sans-serif" font-size="13" lengthAdjust="spacing" textLength="269.4644" x="1911.7847" y="1253.0591">(id, pet_id, title, description, occurred_at)</text><polygon fill="#181818" points="1893.6938,1283.2578,1883.6938,1287.2578,1893.6938,1291.2578,1889.6938,1287.2578" style="stroke:#181818;stroke-width:1.0;"/><line style="stroke:#181818;stroke-width:2.0;stroke-dasharray:2.0,2.0;" x1="1887.6938" x2="2197.249" y1="1287.2578" y2="1287.2578"/><text fill="#000000" font-family="sans-serif" font-size="13" font-weight="bold" lengthAdjust="spacing" textLength="18.0908" x="1899.6938" y="1282.1919">28</text><text fill="#000000" font-family="sans-serif" font-size="13" lengthAdjust="spacing" textLength="18.7573" x="1921.7847" y="1282.1919">OK</text><polygon fill="#181818" points="334.4458,1327.5234,324.4458,1331.5234,334.4458,1335.5234,330.4458,1331.5234" style="stroke:#181818;stroke-width:1.0;"/><line style="stroke:#181818;stroke-width:2.0;stroke-dasharray:2.0,2.0;" x1="328.4458" x2="801.5024" y1="1331.5234" y2="1331.5234"/><text fill="#000000" font-family="sans-serif" font-size="13" font-weight="bold" lengthAdjust="spacing" textLength="18.0908" x="340.4458" y="1318.8911">29</text><text fill="#000000" font-family="sans-serif" font-size="13" lengthAdjust="spacing" textLength="81.2373" x="362.5366" y="1311.3247">PetEventDto</text><text fill="#000000" font-family="sans-serif" font-size="13" lengthAdjust="spacing" textLength="269.4644" x="362.5366" y="1326.4575">(id, pet_id, title, description, occurred_at)</text><polygon fill="#181818" points="84.2651,1386.9219,74.2651,1390.9219,84.2651,1394.9219,80.2651,1390.9219" style="stroke:#181818;stroke-width:1.0;"/><line style="stroke:#181818;stroke-width:2.0;stroke-dasharray:2.0,2.0;" x1="78.2651" x2="322.4458" y1="1390.9219" y2="1390.9219"/><text fill="#000000" font-family="sans-serif" font-size="13" font-weight="bold" lengthAdjust="spacing" textLength="18.0908" x="90.2651" y="1370.7231">30</text><text fill="#000000" font-family="sans-serif" font-size="13" lengthAdjust="spacing" textLength="80.6787" x="112.356" y="1355.5903">201 Created</text><text fill="#000000" font-family="sans-serif" font-size="13" lengthAdjust="spacing" textLength="145.9326" x="112.356" y="1370.7231">{ "id", "pet_id", "title",</text><text fill="#000000" font-family="sans-serif" font-size="13" lengthAdjust="spacing" textLength="193.8574" x="120.6206" y="1385.856">"description", "occurred_at" }</text><!--SRC=[dLRXRjis4FwlfpYeVspCQPOimvgWDM37TfkjQBB4oIy31YrT72uogPAKKwyeq8VOC_J1-YGxKgGjoNOpp45iYRhlk- -EnpiPRZA4Nfh25HeOBb4O-Fxr7xYwl1d3OOv67twcxobFlnoYVQgZI3zoaJF55g3nOu4YmPvIycdym9D7WLh3SSL4oKAaYLG25RpQ0RrYol24vqoOlbGfgdEPIGKlVdMVPm0iUPmx1nuqwjc_7Q2tP9NN-4_Tfs8gfC6QHTzzcXPRBaUZmV2tA6A9eTlpZ5EEecWcFq5yfL3J7JDSYXXU38UZar4_0iWt4K1ia-iIEoLMWoe6fk7QNJPDvsIQ54fPuqAZceZNhrFCKQGKughRTT1UOHu6c4Uq2gJ2I-dbUSQJe8GqlneUDUcf2AW6N0cyOoBDl1P_tI0So0NZZkk8k4wRN8vbR6lBYhnZMO5mEViB4-DbkcTtbpjn0zI9uhaLkmTjBRR1fDxQz-PpXNDcaD8e0y969WmtgnqWvzGYImkFSAiUKu_zGjmhfeqg4bCej3de3q-f1XhCDnypRf3uhp6NcbDvh88KkxBNt3bkODPh6oafCsp6D1Bop_U4B1FJfqeiZ1J5OaPx5fNr20TTNr9mzeEJFH6sUAJYVxj2EOC-CaKONFt-C7kRyEzVlqt4PuYDtRlu3E8xQXbBJZBZpaG0nEbcu-pZNfP1aX5735-Yo0keIg6TvQdTg204Rcyl1XDnjKef9Jm1dJpWWa7BUUn0XTyUHfXbJ3os8vOPu69foHm1q45qZ-2UOvPgodHmJjvzIixWvFWORaMkP48zYyse3ORTpYYhZgw2x8QJHKWwrp9R8ZGFPCl8HnHjGbb9xYO8epLOCnnKaw0OrwZXehGRMz3mKu8kIeVQgVtd8zBE_7QXfNUgIv_FUAnAfgn7DI_TSE39iD8HpkLYGUiJqIgtgWCUtO7jpMcNb868E7tD4-Sz5-bqjYAaPsexss10jeC-cTqCtm_FnpIAlhd7j7PGew5vOxUv9QIzrDwZJJknkkAujqtQhLQKx4WySNwGPcIjwtdVb_aJ87iOhUbTugtNgiTrFBM4abNKbDJTzARIuYNNK_aaqAQfrTYhjaVRGEqISEs2PG8iHFd7pqRSIspH3r1mt8fwNzo_KCngnbEQDjxIHHvax9VG3TsUQ3Q3eRMqVVrDfOcqrz1WNuDIn-Kv_5HMj-qQGee3NEIkfpTmjQnlV08DZLtwodaIJ2lp9uZSjBADI0-gml-3n83QLbXnkqzdPIRPJkxFvak5z8ALjcmF3gTprw4CXFOz1XIVFnYGzmtEdjPyBgYeyCatunkQ520JLuZfb1bu0uL9X7ngRHYh7FN8t6JP7ui_pPejiULC6vordd3nuMPuFQQVyIMiNvjeQhLimFi3xrJLLxQlR2bL6PT_H3y-G27Z0oF_hzjTP-kOklcvGYgOr0rOdiQTyisml2e7xlQCfKSL7tRA-dCPEfFxjT_s_ry0]--></g></svg>