<svg xmlns="http://www.w3.org/2000/svg" xmlns:xlink="http://www.w3.org/1999/xlink" contentStyleType="text/css" height="1181px" preserveAspectRatio="none" style="width:1664px;height:1181px;background:#FFFFFF;" version="1.1" viewBox="0 0 1664 1181" width="1664px" zoomAndPan="magnify"><defs/><g><text fill="#000000" font-family="sans-serif" font-size="14" font-weight="bold" lengthAdjust="spacing" textLength="348.2979" x="658.9248" y="27.9951">List Pet Events &#8212; GET /pets/{pet_id}/events</text><rect fill="#EEF4FB" height="1132.1953" rx="4" ry="4" style="stroke:#181818;stroke-width:0.5;" width="386.8726" x="289.2534" y="43.2969"/><text fill="#000000" font-family="sans-serif" font-size="13" font-weight="bold" lengthAdjust="spacing" textLength="94.4087" x="435.4854" y="55.3638">Presentation</text><rect fill="#FFF8E1" height="1132.1953" rx="4" ry="4" style="stroke:#181818;stroke-width:0.5;" width="171.543" x="678.126" y="43.2969"/><text fill="#000000" font-family="sans-serif" font-size="13" font-weight="bold" lengthAdjust="spacing" textLength="82.9194" x="722.4377" y="55.3638">Application</text><rect fill="#F1F8E9" height="1132.1953" rx="4" ry="4" style="stroke:#181818;stroke-width:0.5;" width="149.2168" x="954.0376" y="43.2969"/><text fill="#000000" font-family="sans-serif" font-size="13" font-weight="bold" lengthAdjust="spacing" textLength="55.7515" x="1000.7703" y="55.3638">Domain</text><rect fill="#FBE9E7" height="1132.1953" rx="4" ry="4" style="stroke:#181818;stroke-width:0.5;" width="360.6514" x="1105.2544" y="43.2969"/><text fill="#000000" font-family="sans-serif" font-size="13" font-weight="bold" lengthAdjust="spacing" textLength="102.9526" x="1234.1038" y="55.3638">Infrastructure</text><rect fill="none" height="857.2031" rx="4" ry="4" style="stroke:#999999;stroke-width:1.5;" width="1647.1475" x="10" y="221.9922"/><rect fill="none" height="753" rx="4" ry="4" style="stroke:#999999;stroke-width:1.5;" width="1627.1475" x="20" y="319.1953"/><rect fill="none" height="503.1328" rx="4" ry="4" style="stroke:#999999;stroke-width:1.5;" width="1607.1475" x="30" y="562.0625"/><rect fill="none" height="340.6641" rx="4" ry="4" style="stroke:#999999;stroke-width:1.5;" width="1587.1475" x="40" y="717.5313"/><line style="stroke:#181818;stroke-width:0.5;stroke-dasharray:5.0,5.0;" x1="73" x2="73" y1="118.5938" y2="1096.1953"/><line style="stroke:#181818;stroke-width:0.5;stroke-dasharray:5.0,5.0;" x1="359.2534" x2="359.2534" y1="118.5938" y2="1096.1953"/><line style="stroke:#181818;stroke-width:0.5;stroke-dasharray:5.0,5.0;" x1="605.543" x2="605.543" y1="118.5938" y2="1096.1953"/><line style="stroke:#181818;stroke-width:0.5;stroke-dasharray:5.0,5.0;" x1="763.126" x2="763.126" y1="118.5938" y2="1096.1953"/><line style="stroke:#181818;stroke-width:0.5;stroke-dasharray:5.0,5.0;" x1="1028.0376" x2="1028.0376" y1="118.5938" y2="1096.1953"/><line style="stroke:#181818;stroke-width:0.5;stroke-dasharray:5.0,5.0;" x1="1184.2544" x2="1184.2544" y1="118.5938" y2="1096.1953"/><line style="stroke:#181818;stroke-width:0.5;stroke-dasharray:5.0,5.0;" x1="1365.5269" x2="1365.5269" y1="118.5938" y2="1096.1953"/><line style="stroke:#181818;stroke-width:0.5;stroke-dasharray:5.0,5.0;" x1="1590.4492" x2="1590.4492" y1="118.5938" y2="1096.1953"/><text fill="#000000" font-family="sans-serif" font-size="14" lengthAdjust="spacing" textLength="40.5303" x="50" y="115.292">Client</text><ellipse cx="73.2651" cy="50.7969" fill="#E2E2F0" rx="8" ry="8" style="stroke:#181818;stroke-width:0.5;"/><path d="M73.2651,58.7969 L73.2651,85.7969 M60.2651,66.7969 L86.2651,66.7969 M73.2651,85.7969 L60.2651,100.7969 M73.2651,85.7969 L86.2651,100.7969 " fill="none" style="stroke:#181818;stroke-width:0.5;"/><text fill="#000000" font-family="sans-serif" font-size="14" lengthAdjust="spacing" textLength="40.5303" x="50" y="1108.1904">Client</text><ellipse cx="73.2651" cy="1119.9922" fill="#E2E2F0" rx="8" ry="8" style="stroke:#181818;stroke-width:0.5;"/><path d="M73.2651,1127.9922 L73.2651,1154.9922 M60.2651,1135.9922 L86.2651,1135.9922 M73.2651,1154.9922 L60.2651,1169.9922 M73.2651,1154.9922 L86.2651,1169.9922 " fill="none" style="stroke:#181818;stroke-width:0.5;"/><rect fill="#FAFAFA" height="30.2969" rx="4" ry="4" style="stroke:#555555;stroke-width:0.5;" width="133.916" x="293.2534" y="87.2969"/><text fill="#000000" font-family="sans-serif" font-size="14" lengthAdjust="spacing" textLength="119.916" x="300.2534" y="107.292">pet_event_router</text><rect fill="#FAFAFA" height="30.2969" rx="4" ry="4" style="stroke:#555555;stroke-width:0.5;" width="133.916" x="293.2534" y="1095.1953"/><text fill="#000000" font-family="sans-serif" font-size="14" lengthAdjust="spacing" textLength="119.916" x="300.2534" y="1115.1904">pet_event_router</text><rect fill="#FAFAFA" height="46.5938" rx="4" ry="4" style="stroke:#555555;stroke-width:0.5;" width="132.583" x="539.543" y="71"/><text fill="#000000" font-family="sans-serif" font-size="14" lengthAdjust="spacing" textLength="118.583" x="546.543" y="90.9951">get_current_user</text><text fill="#000000" font-family="sans-serif" font-size="14" lengthAdjust="spacing" textLength="103.3594" x="554.1548" y="107.292">&#171;dependency&#187;</text><rect fill="#FAFAFA" height="46.5938" rx="4" ry="4" style="stroke:#555555;stroke-width:0.5;" width="132.583" x="539.543" y="1095.1953"/><text fill="#000000" font-family="sans-serif" font-size="14" lengthAdjust="spacing" textLength="118.583" x="546.543" y="1115.1904">get_current_user</text><text fill="#000000" font-family="sans-serif" font-size="14" lengthAdjust="spacing" textLength="103.3594" x="554.1548" y="1131.4873">&#171;dependency&#187;</text><rect fill="#FAFAFA" height="30.2969" rx="4" ry="4" style="stroke:#555555;stroke-width:0.5;" width="163.543" x="682.126" y="87.2969"/><text fill="#000000" font-family="sans-serif" font-size="14" lengthAdjust="spacing" textLength="149.543" x="689.126" y="107.292">ListPetEventsHandler</text><rect fill="#FAFAFA" height="30.2969" rx="4" ry="4" style="stroke:#555555;stroke-width:0.5;" width="163.543" x="682.126" y="1095.1953"/><text fill="#000000" font-family="sans-serif" font-size="14" lengthAdjust="spacing" textLength="149.543" x="689.126" y="1115.1904">ListPetEventsHandler</text><rect fill="#FAFAFA" height="46.5938" rx="4" ry="4" style="stroke:#555555;stroke-width:0.5;" width="141.2168" x="958.0376" y="71"/><text fill="#000000" font-family="sans-serif" font-size="14" lengthAdjust="spacing" textLength="22.5449" x="1017.3735" y="90.9951">Pet</text><text fill="#000000" font-family="sans-serif" font-size="14" lengthAdjust="spacing" textLength="127.2168" x="965.0376" y="107.292">&#171;Aggregate Root&#187;</text><rect fill="#FAFAFA" height="46.5938" rx="4" ry="4" style="stroke:#555555;stroke-width:0.5;" width="141.2168" x="958.0376" y="1095.1953"/><text fill="#000000" font-family="sans-serif" font-size="14" lengthAdjust="spacing" textLength="22.5449" x="1017.3735" y="1115.1904">Pet</text><text fill="#000000" font-family="sans-serif" font-size="14" lengthAdjust="spacing" textLength="127.2168" x="965.0376" y="1131.4873">&#171;Aggregate Root&#187;</text><rect fill="#FAFAFA" height="30.2969" rx="4" ry="4" style="stroke:#555555;stroke-width:0.5;" width="151.2725" x="1109.2544" y="87.2969"/><text fill="#000000" font-family="sans-serif" font-size="14" lengthAdjust="spacing" textLength="137.2725" x="1116.2544" y="107.292">SqlitePetRepository</text><rect fill="#FAFAFA" height="30.2969" rx="4" ry="4" style="stroke:#555555;stroke-width:0.5;" width="151.2725" x="1109.2544" y="1095.1953"/><text fill="#000000" font-family="sans-serif" font-size="14" lengthAdjust="spacing" textLength="137.2725" x="1116.2544" y="1115.1904">SqlitePetRepository</text><rect fill="#FAFAFA" height="30.2969" rx="4" ry="4" style="stroke:#555555;stroke-width:0.5;" width="191.3789" x="1270.5269" y="87.2969"/><text fill="#000000" font-family="sans-serif" font-size="14" lengthAdjust="spacing" textLength="177.3789" x="1277.5269" y="107.292">SqlitePetEventRepository</text><rect fill="#FAFAFA" height="30.2969" rx="4" ry="4" style="stroke:#555555;stroke-width:0.5;" width="191.3789" x="1270.5269" y="1095.1953"/><text fill="#000000" font-family="sans-serif" font-size="14" lengthAdjust="spacing" textLength="177.3789" x="1277.5269" y="1115.1904">SqlitePetEventRepository</text><text fill="#000000" font-family="sans-serif" font-size="14" lengthAdjust="spacing" textLength="45.6982" x="1565.4492" y="115.292">SQLite</text><path d="M1573.2983,66.2969 C1573.2983,56.2969 1591.2983,56.2969 1591.2983,56.2969 C1591.2983,56.2969 1609.2983,56.2969 1609.2983,66.2969 L1609.2983,92.2969 C1609.2983,102.2969 1591.2983,102.2969 1591.2983,102.2969 C1591.2983,102.2969 1573.2983,102.2969 1573.2983,92.2969 L1573.2983,66.2969 " fill="#E2E2F0" style="stroke:#181818;stroke-width:1.5;"/><path d="M1573.2983,66.2969 C1573.2983,76.2969 1591.2983,76.2969 1591.2983,76.2969 C1591.2983,76.2969 1609.2983,76.2969 1609.2983,66.2969 " fill="none" style="stroke:#181818;stroke-width:1.5;"/><text fill="#000000" font-family="sans-serif" font-size="14" lengthAdjust="spacing" textLength="45.6982" x="1565.4492" y="1108.1904">SQLite</text><path d="M1573.2983,1121.4922 C1573.2983,1111.4922 1591.2983,1111.4922 1591.2983,1111.4922 C1591.2983,1111.4922 1609.2983,1111.4922 1609.2983,1121.4922 L1609.2983,1147.4922 C1609.2983,1157.4922 1591.2983,1157.4922 1591.2983,1157.4922 C1591.2983,1157.4922 1573.2983,1157.4922 1573.2983,1147.4922 L1573.2983,1121.4922 " fill="#E2E2F0" style="stroke:#181818;stroke-width:1.5;"/><path d="M1573.2983,1121.4922 C1573.2983,1131.4922 1591.2983,1131.4922 1591.2983,1131.4922 C1591.2983,1131.4922 1609.2983,1131.4922 1609.2983,1121.4922 " fill="none" style="stroke:#181818;stroke-width:1.5;"/><polygon fill="#181818" points="348.2114,160.8594,358.2114,164.8594,348.2114,168.8594,352.2114,164.8594" style="stroke:#181818;stroke-width:1.0;"/><line style="stroke:#181818;stroke-width:2.0;" x1="73.2651" x2="354.2114" y1="164.8594" y2="164.8594"/><text fill="#000000" font-family="sans-serif" font-size="13" font-weight="bold" lengthAdjust="spacing" textLength="9.0454" x="80.2651" y="152.2271">1</text><text fill="#000000" font-family="sans-serif" font-size="13" lengthAdjust="spacing" textLength="171.6724" x="93.3105" y="144.6606">GET /pets/{pet_id}/events</text><text fill="#000000" font-family="sans-serif" font-size="13" lengthAdjust="spacing" textLength="213.1353" x="93.3105" y="159.7935">Authorization: Bearer eyJhbGci&#8230;</text><line style="stroke:#181818;stroke-width:2.0;" x1="360.2114" x2="402.2114" y1="193.9922" y2="193.9922"/><line style="stroke:#181818;stroke-width:2.0;" x1="402.2114" x2="402.2114" y1="193.9922" y2="206.9922"/><line style="stroke:#181818;stroke-width:2.0;" x1="361.2114" x2="402.2114" y1="206.9922" y2="206.9922"/><polygon fill="#181818" points="371.2114,202.9922,361.2114,206.9922,371.2114,210.9922,367.2114,206.9922" style="stroke:#181818;stroke-width:1.0;"/><text fill="#000000" font-family="sans-serif" font-size="13" font-weight="bold" lengthAdjust="spacing" textLength="9.0454" x="367.2114" y="188.9263">2</text><text fill="#000000" font-family="sans-serif" font-size="13" lengthAdjust="spacing" textLength="150.7886" x="380.2568" y="188.9263">Validate {pet_id} UUID</text><path d="M14,221.9922 L74.4429,221.9922 L74.4429,229.125 L64.4429,239.125 L10,239.125 L10,225.9922 A4,4 0 0 1 14,221.9922 " fill="#EEEEEE" style="stroke:#999999;stroke-width:1.5;"/><rect fill="none" height="857.2031" rx="4" ry="4" style="stroke:#999999;stroke-width:1.5;" width="1647.1475" x="10" y="221.9922"/><text fill="#000000" font-family="sans-serif" font-size="13" font-weight="bold" lengthAdjust="spacing" textLength="19.4429" x="25" y="235.0591">alt</text><text fill="#000000" font-family="sans-serif" font-size="11" font-weight="bold" lengthAdjust="spacing" textLength="86.582" x="89.4429" y="234.2026">[invalid UUID]</text><polygon fill="#181818" points="84.2651,256.2578,74.2651,260.2578,84.2651,264.2578,80.2651,260.2578" style="stroke:#181818;stroke-width:1.0;"/><line style="stroke:#181818;stroke-width:2.0;stroke-dasharray:2.0,2.0;" x1="78.2651" x2="359.2114" y1="260.2578" y2="260.2578"/><text fill="#000000" font-family="sans-serif" font-size="13" font-weight="bold" lengthAdjust="spacing" textLength="9.0454" x="90.2651" y="255.1919">3</text><text fill="#000000" font-family="sans-serif" font-size="13" lengthAdjust="spacing" textLength="166.8545" x="103.3105" y="255.1919">422 Unprocessable Entity</text><line style="stroke:#999999;stroke-width:1.0;stroke-dasharray:2.0,2.0;" x1="10" x2="1657.1475" y1="269.2578" y2="269.2578"/><text fill="#000000" font-family="sans-serif" font-size="11" font-weight="bold" lengthAdjust="spacing" textLength="74.9805" x="15" y="279.4683">[valid UUID]</text><polygon fill="#181818" points="593.8345,300.1953,603.8345,304.1953,593.8345,308.1953,597.8345,304.1953" style="stroke:#181818;stroke-width:1.0;"/><line style="stroke:#181818;stroke-width:2.0;" x1="360.2114" x2="599.8345" y1="304.1953" y2="304.1953"/><text fill="#000000" font-family="sans-serif" font-size="13" font-weight="bold" lengthAdjust="spacing" textLength="9.0454" x="367.2114" y="299.1294">4</text><text fill="#000000" font-family="sans-serif" font-size="13" lengthAdjust="spacing" textLength="208.5776" x="380.2568" y="299.1294">resolve get_current_user(token)</text><path d="M24,319.1953 L84.4429,319.1953 L84.4429,326.3281 L74.4429,336.3281 L20,336.3281 L20,323.1953 A4,4 0 0 1 24,319.1953 " fill="#EEEEEE" style="stroke:#999999;stroke-width:1.5;"/><rect fill="none" height="753" rx="4" ry="4" style="stroke:#999999;stroke-width:1.5;" width="1627.1475" x="20" y="319.1953"/><text fill="#000000" font-family="sans-serif" font-size="13" font-weight="bold" lengthAdjust="spacing" textLength="19.4429" x="35" y="332.2622">alt</text><text fill="#000000" font-family="sans-serif" font-size="11" font-weight="bold" lengthAdjust="spacing" textLength="90.9165" x="99.4429" y="331.4058">[token invalid]</text><polygon fill="#181818" points="371.2114,353.4609,361.2114,357.4609,371.2114,361.4609,367.2114,357.4609" style="stroke:#181818;stroke-width:1.0;"/><line style="stroke:#181818;stroke-width:2.0;stroke-dasharray:2.0,2.0;" x1="365.2114" x2="604.8345" y1="357.4609" y2="357.4609"/><text fill="#000000" font-family="sans-serif" font-size="13" font-weight="bold" lengthAdjust="spacing" textLength="9.0454" x="377.2114" y="352.395">5</text><text fill="#000000" font-family="sans-serif" font-size="13" lengthAdjust="spacing" textLength="189.6743" x="390.2568" y="352.395">raises InvalidTokenException</text><polygon fill="#181818" points="84.2651,382.5938,74.2651,386.5938,84.2651,390.5938,80.2651,386.5938" style="stroke:#181818;stroke-width:1.0;"/><line style="stroke:#181818;stroke-width:2.0;stroke-dasharray:2.0,2.0;" x1="78.2651" x2="359.2114" y1="386.5938" y2="386.5938"/><text fill="#000000" font-family="sans-serif" font-size="13" font-weight="bold" lengthAdjust="spacing" textLength="9.0454" x="90.2651" y="381.5278">6</text><text fill="#000000" font-family="sans-serif" font-size="13" lengthAdjust="spacing" textLength="116.2256" x="103.3105" y="381.5278">401 Unauthorized</text><line style="stroke:#999999;stroke-width:1.0;stroke-dasharray:2.0,2.0;" x1="20" x2="1647.1475" y1="395.5938" y2="395.5938"/><text fill="#000000" font-family="sans-serif" font-size="11" font-weight="bold" lengthAdjust="spacing" textLength="79.3149" x="25" y="405.8042">[token valid]</text><polygon fill="#181818" points="371.2114,426.5313,361.2114,430.5313,371.2114,434.5313,367.2114,430.5313" style="stroke:#181818;stroke-width:1.0;"/><line style="stroke:#181818;stroke-width:2.0;stroke-dasharray:2.0,2.0;" x1="365.2114" x2="604.8345" y1="430.5313" y2="430.5313"/><text fill="#000000" font-family="sans-serif" font-size="13" font-weight="bold" lengthAdjust="spacing" textLength="9.0454" x="377.2114" y="425.4653">7</text><text fill="#000000" font-family="sans-serif" font-size="13" lengthAdjust="spacing" textLength="100.6294" x="390.2568" y="425.4653">current_user_id</text><polygon fill="#181818" points="751.8975,455.6641,761.8975,459.6641,751.8975,463.6641,755.8975,459.6641" style="stroke:#181818;stroke-width:1.0;"/><line style="stroke:#181818;stroke-width:2.0;" x1="360.2114" x2="757.8975" y1="459.6641" y2="459.6641"/><text fill="#000000" font-family="sans-serif" font-size="13" font-weight="bold" lengthAdjust="spacing" textLength="9.0454" x="367.2114" y="454.5981">8</text><text fill="#000000" font-family="sans-serif" font-size="13" lengthAdjust="spacing" textLength="232.0195" x="380.2568" y="454.5981">ListPetEventsQuery(pet_id, user_id)</text><polygon fill="#181818" points="1172.8906,484.7969,1182.8906,488.7969,1172.8906,492.7969,1176.8906,488.7969" style="stroke:#181818;stroke-width:1.0;"/><line style="stroke:#181818;stroke-width:2.0;" x1="763.8975" x2="1178.8906" y1="488.7969" y2="488.7969"/><text fill="#000000" font-family="sans-serif" font-size="13" font-weight="bold" lengthAdjust="spacing" textLength="9.0454" x="770.8975" y="483.731">9</text><text fill="#000000" font-family="sans-serif" font-size="13" lengthAdjust="spacing" textLength="115.3433" x="783.9429" y="483.731">find_by_id(pet_id)</text><polygon fill="#181818" points="1579.2983,513.9297,1589.2983,517.9297,1579.2983,521.9297,1583.2983,517.9297" style="stroke:#181818;stroke-width:1.0;"/><line style="stroke:#181818;stroke-width:2.0;" x1="1184.8906" x2="1585.2983" y1="517.9297" y2="517.9297"/><text fill="#000000" font-family="sans-serif" font-size="13" font-weight="bold" lengthAdjust="spacing" textLength="18.0908" x="1191.8906" y="512.8638">10</text><text fill="#000000" font-family="sans-serif" font-size="13" lengthAdjust="spacing" textLength="66.0728" x="1213.9814" y="512.8638">SELECT &#8230;</text><polygon fill="#181818" points="1195.8906,543.0625,1185.8906,547.0625,1195.8906,551.0625,1191.8906,547.0625" style="stroke:#181818;stroke-width:1.0;"/><line style="stroke:#181818;stroke-width:2.0;stroke-dasharray:2.0,2.0;" x1="1189.8906" x2="1590.2983" y1="547.0625" y2="547.0625"/><text fill="#000000" font-family="sans-serif" font-size="13" font-weight="bold" lengthAdjust="spacing" textLength="18.0908" x="1201.8906" y="541.9966">11</text><text fill="#000000" font-family="sans-serif" font-size="13" lengthAdjust="spacing" textLength="106.666" x="1223.9814" y="541.9966">row or (no rows)</text><path d="M34,562.0625 L94.4429,562.0625 L94.4429,569.1953 L84.4429,579.1953 L30,579.1953 L30,566.0625 A4,4 0 0 1 34,562.0625 " fill="#EEEEEE" style="stroke:#999999;stroke-width:1.5;"/><rect fill="none" height="503.1328" rx="4" ry="4" style="stroke:#999999;stroke-width:1.5;" width="1607.1475" x="30" y="562.0625"/><text fill="#000000" font-family="sans-serif" font-size="13" font-weight="bold" lengthAdjust="spacing" textLength="19.4429" x="45" y="575.1294">alt</text><text fill="#000000" font-family="sans-serif" font-size="11" font-weight="bold" lengthAdjust="spacing" textLength="94.832" x="109.4429" y="574.2729">[pet not found]</text><polygon fill="#181818" points="371.2114,596.3281,361.2114,600.3281,371.2114,604.3281,367.2114,600.3281" style="stroke:#181818;stroke-width:1.0;"/><line style="stroke:#181818;stroke-width:2.0;stroke-dasharray:2.0,2.0;" x1="365.2114" x2="762.8975" y1="600.3281" y2="600.3281"/><text fill="#000000" font-family="sans-serif" font-size="13" font-weight="bold" lengthAdjust="spacing" textLength="18.0908" x="377.2114" y="595.2622">12</text><text fill="#000000" font-family="sans-serif" font-size="13" lengthAdjust="spacing" textLength="190.6772" x="399.3022" y="595.2622">raises PetNotFoundException</text><polygon fill="#181818" points="84.2651,625.4609,74.2651,629.4609,84.2651,633.4609,80.2651,629.4609" style="stroke:#181818;stroke-width:1.0;"/><line style="stroke:#181818;stroke-width:2.0;stroke-dasharray:2.0,2.0;" x1="78.2651" x2="359.2114" y1="629.4609" y2="629.4609"/><text fill="#000000" font-family="sans-serif" font-size="13" font-weight="bold" lengthAdjust="spacing" textLength="18.0908" x="90.2651" y="624.395">13</text><text fill="#000000" font-family="sans-serif" font-size="13" lengthAdjust="spacing" textLength="96.0146" x="112.356" y="624.395">404 Not Found</text><line style="stroke:#999999;stroke-width:1.0;stroke-dasharray:2.0,2.0;" x1="30" x2="1637.1475" y1="638.4609" y2="638.4609"/><text fill="#000000" font-family="sans-serif" font-size="11" font-weight="bold" lengthAdjust="spacing" textLength="70.356" x="35" y="648.6714">[pet found]</text><polygon fill="#181818" points="774.8975,669.3984,764.8975,673.3984,774.8975,677.3984,770.8975,673.3984" style="stroke:#181818;stroke-width:1.0;"/><line style="stroke:#181818;stroke-width:2.0;stroke-dasharray:2.0,2.0;" x1="768.8975" x2="1183.8906" y1="673.3984" y2="673.3984"/><text fill="#000000" font-family="sans-serif" font-size="13" font-weight="bold" lengthAdjust="spacing" textLength="18.0908" x="780.8975" y="668.3325">14</text><text fill="#000000" font-family="sans-serif" font-size="13" lengthAdjust="spacing" textLength="21.3472" x="802.9883" y="668.3325">pet</text><polygon fill="#181818" points="1016.646,698.5313,1026.646,702.5313,1016.646,706.5313,1020.646,702.5313" style="stroke:#181818;stroke-width:1.0;"/><line style="stroke:#181818;stroke-width:2.0;" x1="763.8975" x2="1022.646" y1="702.5313" y2="702.5313"/><text fill="#000000" font-family="sans-serif" font-size="13" font-weight="bold" lengthAdjust="spacing" textLength="18.0908" x="770.8975" y="697.4653">15</text><text fill="#000000" font-family="sans-serif" font-size="13" lengthAdjust="spacing" textLength="218.6577" x="792.9883" y="697.4653">pet.is_owned_by(current_user_id)</text><path d="M44,717.5313 L104.4429,717.5313 L104.4429,724.6641 L94.4429,734.6641 L40,734.6641 L40,721.5313 A4,4 0 0 1 44,717.5313 " fill="#EEEEEE" style="stroke:#999999;stroke-width:1.5;"/><rect fill="none" height="340.6641" rx="4" ry="4" style="stroke:#999999;stroke-width:1.5;" width="1587.1475" x="40" y="717.5313"/><text fill="#000000" font-family="sans-serif" font-size="13" font-weight="bold" lengthAdjust="spacing" textLength="19.4429" x="55" y="730.5981">alt</text><text fill="#000000" font-family="sans-serif" font-size="11" font-weight="bold" lengthAdjust="spacing" textLength="137.2905" x="119.4429" y="729.7417">[user is not an owner]</text><polygon fill="#181818" points="371.2114,751.7969,361.2114,755.7969,371.2114,759.7969,367.2114,755.7969" style="stroke:#181818;stroke-width:1.0;"/><line style="stroke:#181818;stroke-width:2.0;stroke-dasharray:2.0,2.0;" x1="365.2114" x2="762.8975" y1="755.7969" y2="755.7969"/><text fill="#000000" font-family="sans-serif" font-size="13" font-weight="bold" lengthAdjust="spacing" textLength="18.0908" x="377.2114" y="750.731">16</text><text fill="#000000" font-family="sans-serif" font-size="13" lengthAdjust="spacing" textLength="218.5815" x="399.3022" y="750.731">raises PetAccessDeniedException</text><polygon fill="#181818" points="84.2651,780.9297,74.2651,784.9297,84.2651,788.9297,80.2651,784.9297" style="stroke:#181818;stroke-width:1.0;"/><line style="stroke:#181818;stroke-width:2.0;stroke-dasharray:2.0,2.0;" x1="78.2651" x2="359.2114" y1="784.9297" y2="784.9297"/><text fill="#000000" font-family="sans-serif" font-size="13" font-weight="bold" lengthAdjust="spacing" textLength="18.0908" x="90.2651" y="779.8638">17</text><text fill="#000000" font-family="sans-serif" font-size="13" lengthAdjust="spacing" textLength="94.3262" x="112.356" y="779.8638">403 Forbidden</text><line style="stroke:#999999;stroke-width:1.0;stroke-dasharray:2.0,2.0;" x1="40" x2="1627.1475" y1="793.9297" y2="793.9297"/><text fill="#000000" font-family="sans-serif" font-size="11" font-weight="bold" lengthAdjust="spacing" textLength="112.8145" x="45" y="804.1401">[user is an owner]</text><polygon fill="#181818" points="1354.2163,824.8672,1364.2163,828.8672,1354.2163,832.8672,1358.2163,828.8672" style="stroke:#181818;stroke-width:1.0;"/><line style="stroke:#181818;stroke-width:2.0;" x1="763.8975" x2="1360.2163" y1="828.8672" y2="828.8672"/><text fill="#000000" font-family="sans-serif" font-size="13" font-weight="bold" lengthAdjust="spacing" textLength="18.0908" x="770.8975" y="823.8013">18</text><text fill="#000000" font-family="sans-serif" font-size="13" lengthAdjust="spacing" textLength="124.8267" x="792.9883" y="823.8013">find_by_pet(pet_id)</text><polygon fill="#181818" points="1579.2983,884.2656,1589.2983,888.2656,1579.2983,892.2656,1583.2983,888.2656" style="stroke:#181818;stroke-width:1.0;"/><line style="stroke:#181818;stroke-width:2.0;" x1="1366.2163" x2="1585.2983" y1="888.2656" y2="888.2656"/><text fill="#000000" font-family="sans-serif" font-size="13" font-weight="bold" lengthAdjust="spacing" textLength="18.0908" x="1373.2163" y="868.0669">19</text><text fill="#000000" font-family="sans-serif" font-size="13" lengthAdjust="spacing" textLength="177.4424" x="1395.3071" y="852.9341">SELECT * FROM pet_events</text><text fill="#000000" font-family="sans-serif" font-size="13" lengthAdjust="spacing" textLength="117.9902" x="1395.3071" y="868.0669">WHERE pet_id = ?</text><text fill="#000000" font-family="sans-serif" font-size="13" lengthAdjust="spacing" textLength="178.9912" x="1395.3071" y="883.1997">ORDER BY occurred_at ASC</text><polygon fill="#181818" points="1377.2163,913.3984,1367.2163,917.3984,1377.2163,921.3984,1373.2163,917.3984" style="stroke:#181818;stroke-width:1.0;"/><line style="stroke:#181818;stroke-width:2.0;stroke-dasharray:2.0,2.0;" x1="1371.2163" x2="1590.2983" y1="917.3984" y2="917.3984"/><text fill="#000000" font-family="sans-serif" font-size="13" font-weight="bold" lengthAdjust="spacing" textLength="18.0908" x="1383.2163" y="912.3325">20</text><text fill="#000000" font-family="sans-serif" font-size="13" lengthAdjust="spacing" textLength="108.7734" x="1405.3071" y="912.3325">rows (0 or more)</text><polygon fill="#181818" points="774.8975,942.5313,764.8975,946.5313,774.8975,950.5313,770.8975,946.5313" style="stroke:#181818;stroke-width:1.0;"/><line style="stroke:#181818;stroke-width:2.0;stroke-dasharray:2.0,2.0;" x1="768.8975" x2="1365.2163" y1="946.5313" y2="946.5313"/><text fill="#000000" font-family="sans-serif" font-size="13" font-weight="bold" lengthAdjust="spacing" textLength="18.0908" x="780.8975" y="941.4653">21</text><text fill="#000000" font-family="sans-serif" font-size="13" lengthAdjust="spacing" textLength="89.5845" x="802.9883" y="941.4653">[PetEvent, &#8230;]</text><polygon fill="#181818" points="371.2114,971.6641,361.2114,975.6641,371.2114,979.6641,367.2114,975.6641" style="stroke:#181818;stroke-width:1.0;"/><line style="stroke:#181818;stroke-width:2.0;stroke-dasharray:2.0,2.0;" x1="365.2114" x2="762.8975" y1="975.6641" y2="975.6641"/><text fill="#000000" font-family="sans-serif" font-size="13" font-weight="bold" lengthAdjust="spacing" textLength="18.0908" x="377.2114" y="970.5981">22</text><text fill="#000000" font-family="sans-serif" font-size="13" lengthAdjust="spacing" textLength="112.6455" x="399.3022" y="970.5981">[PetEventDto, &#8230;]</text><polygon fill="#181818" points="84.2651,1046.1953,74.2651,1050.1953,84.2651,1054.1953,80.2651,1050.1953" style="stroke:#181818;stroke-width:1.0;"/><line style="stroke:#181818;stroke-width:2.0;stroke-dasharray:2.0,2.0;" x1="78.2651" x2="359.2114" y1="1050.1953" y2="1050.1953"/><text fill="#000000" font-family="sans-serif" font-size="13" font-weight="bold" lengthAdjust="spacing" textLength="18.0908" x="90.2651" y="1022.4302">23</text><text fill="#000000" font-family="sans-serif" font-size="13" lengthAdjust="spacing" textLength="47.7026" x="112.356" y="999.731">200 OK</text><text fill="#000000" font-family="sans-serif" font-size="13" lengthAdjust="spacing" textLength="155.1367" x="112.356" y="1014.8638">[ { "id", "pet_id", "title",</text><text fill="#000000" font-family="sans-serif" font-size="13" lengthAdjust="spacing" textLength="224.3262" x="128.8853" y="1029.9966">"description", "occurred_at" }, &#8230; ]</text><text fill="#000000" font-family="sans-serif" font-size="13" lengthAdjust="spacing" textLength="170.8726" x="112.356" y="1045.1294">(empty array if no events)</text><!--SRC=[XLRjRjis5FslfxXG_pX3idmimvgWzM37SfejNL8dMJ7KXK5BDmuHcLH9AgrR5EX3x1dwO7sItaj9jgJQZO8u4ddEuRs7HtIST2d2kRGEBj51z83AMVZsvNyuZQvXDqDdTp_HvqGcdtVHpmQ1lPSg4qRCmUAx75MCFMFq- -ix6Tyhj1OEQX2ZSvN4sYWqy7GDzL8O9sEP2UNwsYHeJdIg3JpvtL-F44HyF_CBbAHXZt_Ma4u9bJNqZ_nLWohji87e-wkD-679uN0G_H448dRqU99AyYW8fle3X9S6BJq99xKAuKaK3G-7_G0WMtK08PlhZPsGgaCJWh0myhTjw8oWSMuCWtEBPgoUFKimGvLGYujkrrDxkRiRO1RGA50LPIczB4jbN5L2DJ-Dzjlod08AGP615q8bQLbDUT-I7EYva5vjdzIEscganFNrPZE3C-6GUjAkh95NKKwwHKloJDqQOPt9OvSRPEb-T4JcjgIltgNI8OcCCDDMak-BIfP7Di9zPotEScnLIYASc0gBn7nrJaoF6_HfYtEdLJwVaXL1iT6mqott2eutlp5ZnPkYZVpeD-0O-YWCKN3nrztqD9RVldmDWbAcBlYlI6N2rbLwS7DpDWX4wa2g1vui1g2Yx12xBEmO3WyEu4PbHiVqIeeflUQLvodrjfRUhT93TCgkJXyGsg7hE7sFQejON8T_gAgXCLWgxDGxCK9Qj71MuAwP57s8CMCxF6jj0tlxr80ehKEMzwKNQpwoOhraiYvehDAj8at0HkfVvMWMdSBjRIYvMmMveX2x31gnRwLA9jC5eKhMbiTM0C8E-WIxYiwZaslWZUPf6jjfoD3f2NHwT9JcMrkko0QJAfyxSCj7ZX-jLRB6OjByHxiXeviER_Bu40WFmwMyjvXNhQ-uxATX7Q62TadTrSjT87wLTgBVAsIREgrTsIhPt2WFWRI-MQ60AQQSVhJZNimP7w2I-4FNc_h-ZNesKvdGsLaYVUTL6PjBwAxEZ5e0gDD60lXQuLev-0M6eukNi3pwwOHu_I8QHL0em7FuSwmkHeDe1Ft_GCVUjcGY7FIkJfRoPOhgrN1ueBF7MPfhWsjBQMpXcohwsnpEjy7F7L-Y1qwNX9-PVB2t1nT_ZzKR-0IXJCBjujkkk7FydqUuFLRC3XEqiP5-ttYord88d_rIy7QiEZZFA5V26B40UKjPWSA_gb6iGkp_yYV_VWS0]--></g></svg>