<svg xmlns="http://www.w3.org/2000/svg" xmlns:xlink="http://www.w3.org/1999/xlink" contentStyleType="text/css" height="1270px" preserveAspectRatio="none" style="width:1771px;height:1270px;background:#FFFFFF;" version="1.1" viewBox="0 0 1771 1270" width="1771px" zoomAndPan="magnify"><defs/><g><text fill="#000000" font-family="sans-serif" font-size="14" font-weight="bold" lengthAdjust="spacing" textLength="430.541" x="671.5398" y="27.9951">Get Pet Event &#8212; GET /pets/{pet_id}/events/{event_id}</text><rect fill="#EEF4FB" height="1221.2656" rx="4" ry="4" style="stroke:#181818;stroke-width:0.5;" width="491.2192" x="297.3364" y="43.2969"/><text fill="#000000" font-family="sans-serif" font-size="13" font-weight="bold" lengthAdjust="spacing" textLength="94.4087" x="495.7417" y="55.3638">Presentation</text><rect fill="#FFF8E1" height="1221.2656" rx="4" ry="4" style="stroke:#181818;stroke-width:0.5;" width="164.7275" x="790.5557" y="43.2969"/><text fill="#000000" font-family="sans-serif" font-size="13" font-weight="bold" lengthAdjust="spacing" textLength="82.9194" x="831.4597" y="55.3638">Application</text><rect fill="#F1F8E9" height="1221.2656" rx="4" ry="4" style="stroke:#181818;stroke-width:0.5;" width="149.2168" x="1063.0596" y="43.2969"/><text fill="#000000" font-family="sans-serif" font-size="13" font-weight="bold" lengthAdjust="spacing" textLength="55.7515" x="1109.7922" y="55.3638">Domain</text><rect fill="#FBE9E7" height="1221.2656" rx="4" ry="4" style="stroke:#181818;stroke-width:0.5;" width="360.6514" x="1214.2764" y="43.2969"/><text fill="#000000" font-family="sans-serif" font-size="13" font-weight="bold" lengthAdjust="spacing" textLength="102.9526" x="1343.1257" y="55.3638">Infrastructure</text><rect fill="none" height="946.2734" rx="4" ry="4" style="stroke:#999999;stroke-width:1.5;" width="1754.6206" x="10" y="221.9922"/><rect fill="none" height="842.0703" rx="4" ry="4" style="stroke:#999999;stroke-width:1.5;" width="1734.6206" x="20" y="319.1953"/><rect fill="none" height="592.2031" rx="4" ry="4" style="stroke:#999999;stroke-width:1.5;" width="1714.6206" x="30" y="562.0625"/><rect fill="none" height="429.7344" rx="4" ry="4" style="stroke:#999999;stroke-width:1.5;" width="1694.6206" x="40" y="717.5313"/><rect fill="none" height="223" rx="4" ry="4" style="stroke:#999999;stroke-width:1.5;" width="1530.9277" x="50" y="917.2656"/><line style="stroke:#181818;stroke-width:0.5;stroke-dasharray:5.0,5.0;" x1="83" x2="83" y1="118.5938" y2="1185.2656"/><line style="stroke:#181818;stroke-width:0.5;stroke-dasharray:5.0,5.0;" x1="367.3364" x2="367.3364" y1="118.5938" y2="1185.2656"/><line style="stroke:#181818;stroke-width:0.5;stroke-dasharray:5.0,5.0;" x1="717.9727" x2="717.9727" y1="118.5938" y2="1185.2656"/><line style="stroke:#181818;stroke-width:0.5;stroke-dasharray:5.0,5.0;" x1="872.5557" x2="872.5557" y1="118.5938" y2="1185.2656"/><line style="stroke:#181818;stroke-width:0.5;stroke-dasharray:5.0,5.0;" x1="1137.0596" x2="1137.0596" y1="118.5938" y2="1185.2656"/><line style="stroke:#181818;stroke-width:0.5;stroke-dasharray:5.0,5.0;" x1="1293.2764" x2="1293.2764" y1="118.5938" y2="1185.2656"/><line style="stroke:#181818;stroke-width:0.5;stroke-dasharray:5.0,5.0;" x1="1474.5488" x2="1474.5488" y1="118.5938" y2="1185.2656"/><line style="stroke:#181818;stroke-width:0.5;stroke-dasharray:5.0,5.0;" x1="1697.9224" x2="1697.9224" y1="118.5938" y2="1185.2656"/><text fill="#000000" font-family="sans-serif" font-size="14" lengthAdjust="spacing" textLength="40.5303" x="60" y="115.292">Client</text><ellipse cx="83.2651" cy="50.7969" fill="#E2E2F0" rx="8" ry="8" style="stroke:#181818;stroke-width:0.5;"/><path d="M83.2651,58.7969 L83.2651,85.7969 M70.2651,66.7969 L96.2651,66.7969 M83.2651,85.7969 L70.2651,100.7969 M83.2651,85.7969 L96.2651,100.7969 " fill="none" style="stroke:#181818;stroke-width:0.5;"/><text fill="#000000" font-family="sans-serif" font-size="14" lengthAdjust="spacing" textLength="40.5303" x="60" y="1197.2607">Client</text><ellipse cx="83.2651" cy="1209.0625" fill="#E2E2F0" rx="8" ry="8" style="stroke:#181818;stroke-width:0.5;"/><path d="M83.2651,1217.0625 L83.2651,1244.0625 M70.2651,1225.0625 L96.2651,1225.0625 M83.2651,1244.0625 L70.2651,1259.0625 M83.2651,1244.0625 L96.2651,1259.0625 " fill="none" style="stroke:#181818;stroke-width:0.5;"/><rect fill="#FAFAFA" height="30.2969" rx="4" ry="4" style="stroke:#555555;stroke-width:0.5;" width="133.916" x="301.3364" y="87.2969"/><text fill="#000000" font-family="sans-serif" font-size="14" lengthAdjust="spacing" textLength="119.916" x="308.3364" y="107.292">pet_event_router</text><rect fill="#FAFAFA" height="30.2969" rx="4" ry="4" style="stroke:#555555;stroke-width:0.5;" width="133.916" x="301.3364" y="1184.2656"/><text fill="#000000" font-family="sans-serif" font-size="14" lengthAdjust="spacing" textLength="119.916" x="308.3364" y="1204.2607">pet_event_router</text><rect fill="#FAFAFA" height="46.5938" rx="4" ry="4" style="stroke:#555555;stroke-width:0.5;" width="132.583" x="651.9727" y="71"/><text fill="#000000" font-family="sans-serif" font-size="14" lengthAdjust="spacing" textLength="118.583" x="658.9727" y="90.9951">get_current_user</text><text fill="#000000" font-family="sans-serif" font-size="14" lengthAdjust="spacing" textLength="103.3594" x="666.5845" y="107.292">&#171;dependency&#187;</text><rect fill="#FAFAFA" height="46.5938" rx="4" ry="4" style="stroke:#555555;stroke-width:0.5;" width="132.583" x="651.9727" y="1184.2656"/><text fill="#000000" font-family="sans-serif" font-size="14" lengthAdjust="spacing" textLength="118.583" x="658.9727" y="1204.2607">get_current_user</text><text fill="#000000" font-family="sans-serif" font-size="14" lengthAdjust="spacing" textLength="103.3594" x="666.5845" y="1220.5576">&#171;dependency&#187;</text><rect fill="#FAFAFA" height="30.2969" rx="4" ry="4" style="stroke:#555555;stroke-width:0.5;" width="156.7275" x="794.5557" y="87.2969"/><text fill="#000000" font-family="sans-serif" font-size="14" lengthAdjust="spacing" textLength="142.7275" x="801.5557" y="107.292">GetPetEventHandler</text><rect fill="#FAFAFA" height="30.2969" rx="4" ry="4" style="stroke:#555555;stroke-width:0.5;" width="156.7275" x="794.5557" y="1184.2656"/><text fill="#000000" font-family="sans-serif" font-size="14" lengthAdjust="spacing" textLength="142.7275" x="801.5557" y="1204.2607">GetPetEventHandler</text><rect fill="#FAFAFA" height="46.5938" rx="4" ry="4" style="stroke:#555555;stroke-width:0.5;" width="141.2168" x="1067.0596" y="71"/><text fill="#000000" font-family="sans-serif" font-size="14" lengthAdjust="spacing" textLength="22.5449" x="1126.3955" y="90.9951">Pet</text><text fill="#000000" font-family="sans-serif" font-size="14" lengthAdjust="spacing" textLength="127.2168" x="1074.0596" y="107.292">&#171;Aggregate Root&#187;</text><rect fill="#FAFAFA" height="46.5938" rx="4" ry="4" style="stroke:#555555;stroke-width:0.5;" width="141.2168" x="1067.0596" y="1184.2656"/><text fill="#000000" font-family="sans-serif" font-size="14" lengthAdjust="spacing" textLength="22.5449" x="1126.3955" y="1204.2607">Pet</text><text fill="#000000" font-family="sans-serif" font-size="14" lengthAdjust="spacing" textLength="127.2168" x="1074.0596" y="1220.5576">&#171;Aggregate Root&#187;</text><rect fill="#FAFAFA" height="30.2969" rx="4" ry="4" style="stroke:#555555;stroke-width:0.5;" width="151.2725" x="1218.2764" y="87.2969"/><text fill="#000000" font-family="sans-serif" font-size="14" lengthAdjust="spacing" textLength="137.2725" x="1225.2764" y="107.292">SqlitePetRepository</text><rect fill="#FAFAFA" height="30.2969" rx="4" ry="4" style="stroke:#555555;stroke-width:0.5;" width="151.2725" x="1218.2764" y="1184.2656"/><text fill="#000000" font-family="sans-serif" font-size="14" lengthAdjust="spacing" textLength="137.2725" x="1225.2764" y="1204.2607">SqlitePetRepository</text><rect fill="#FAFAFA" height="30.2969" rx="4" ry="4" style="stroke:#555555;stroke-width:0.5;" width="191.3789" x="1379.5488" y="87.2969"/><text fill="#000000" font-family="sans-serif" font-size="14" lengthAdjust="spacing" textLength="177.3789" x="1386.5488" y="107.292">SqlitePetEventRepository</text><rect fill="#FAFAFA" height="30.2969" rx="4" ry="4" style="stroke:#555555;stroke-width:0.5;" width="191.3789" x="1379.5488" y="1184.2656"/><text fill="#000000" font-family="sans-serif" font-size="14" lengthAdjust="spacing" textLength="177.3789" x="1386.5488" y="1204.2607">SqlitePetEventRepository</text><text fill="#000000" font-family="sans-serif" font-size="14" lengthAdjust="spacing" textLength="45.6982" x="1672.9224" y="115.292">SQLite</text><path d="M1680.7715,66.2969 C1680.7715,56.2969 1698.7715,56.2969 1698.7715,56.2969 C1698.7715,56.2969 1716.7715,56.2969 1716.7715,66.2969 L1716.7715,92.2969 C1716.7715,102.2969 1698.7715,102.2969 1698.7715,102.2969 C1698.7715,102.2969 1680.7715,102.2969 1680.7715,92.2969 L1680.7715,66.2969 " fill="#E2E2F0" style="stroke:#181818;stroke-width:1.5;"/><path d="M1680.7715,66.2969 C1680.7715,76.2969 1698.7715,76.2969 1698.7715,76.2969 C1698.7715,76.2969 1716.7715,76.2969 1716.7715,66.2969 " fill="none" style="stroke:#181818;stroke-width:1.5;"/><text fill="#000000" font-family="sans-serif" font-size="14" lengthAdjust="spacing" textLength="45.6982" x="1672.9224" y="1197.2607">SQLite</text><path d="M1680.7715,1210.5625 C1680.7715,1200.5625 1698.7715,1200.5625 1698.7715,1200.5625 C1698.7715,1200.5625 1716.7715,1200.5625 1716.7715,1210.5625 L1716.7715,1236.5625 C1716.7715,1246.5625 1698.7715,1246.5625 1698.7715,1246.5625 C1698.7715,1246.5625 1680.7715,1246.5625 1680.7715,1236.5625 L1680.7715,1210.5625 " fill="#E2E2F0" style="stroke:#181818;stroke-width:1.5;"/><path d="M1680.7715,1210.5625 C1680.7715,1220.5625 1698.7715,1220.5625 1698.7715,1220.5625 C1698.7715,1220.5625 1716.7715,1220.5625 1716.7715,1210.5625 " fill="none" style="stroke:#181818;stroke-width:1.5;"/><polygon fill="#181818" points="356.2944,160.8594,366.2944,164.8594,356.2944,168.8594,360.2944,164.8594" style="stroke:#181818;stroke-width:1.0;"/><line style="stroke:#181818;stroke-width:2.0;" x1="83.2651" x2="362.2944" y1="164.8594" y2="164.8594"/><text fill="#000000" font-family="sans-serif" font-size="13" font-weight="bold" lengthAdjust="spacing" textLength="9.0454" x="90.2651" y="152.2271">1</text><text fill="#000000" font-family="sans-serif" font-size="13" lengthAdjust="spacing" textLength="247.9839" x="103.3105" y="144.6606">GET /pets/{pet_id}/events/{event_id}</text><text fill="#000000" font-family="sans-serif" font-size="13" lengthAdjust="spacing" textLength="213.1353" x="103.3105" y="159.7935">Authorization: Bearer eyJhbGci&#8230;</text><line style="stroke:#181818;stroke-width:2.0;" x1="368.2944" x2="410.2944" y1="193.9922" y2="193.9922"/><line style="stroke:#181818;stroke-width:2.0;" x1="410.2944" x2="410.2944" y1="193.9922" y2="206.9922"/><line style="stroke:#181818;stroke-width:2.0;" x1="369.2944" x2="410.2944" y1="206.9922" y2="206.9922"/><polygon fill="#181818" points="379.2944,202.9922,369.2944,206.9922,379.2944,210.9922,375.2944,206.9922" style="stroke:#181818;stroke-width:1.0;"/><text fill="#000000" font-family="sans-serif" font-size="13" font-weight="bold" lengthAdjust="spacing" textLength="9.0454" x="375.2944" y="188.9263">2</text><text fill="#000000" font-family="sans-serif" font-size="13" lengthAdjust="spacing" textLength="322.9243" x="388.3398" y="188.9263">Validate {pet_id} and {event_id} are valid UUIDs</text><path d="M14,221.9922 L74.4429,221.9922 L74.4429,229.125 L64.4429,239.125 L10,239.125 L10,225.9922 A4,4 0 0 1 14,221.9922 " fill="#EEEEEE" style="stroke:#999999;stroke-width:1.5;"/><rect fill="none" height="946.2734" rx="4" ry="4" style="stroke:#999999;stroke-width:1.5;" width="1754.6206" x="10" y="221.9922"/><text fill="#000000" font-family="sans-serif" font-size="13" font-weight="bold" lengthAdjust="spacing" textLength="19.4429" x="25" y="235.0591">alt</text><text fill="#000000" font-family="sans-serif" font-size="11" font-weight="bold" lengthAdjust="spacing" textLength="132.3223" x="89.4429" y="234.2026">[invalid UUID format]</text><polygon fill="#181818" points="94.2651,256.2578,84.2651,260.2578,94.2651,264.2578,90.2651,260.2578" style="stroke:#181818;stroke-width:1.0;"/><line style="stroke:#181818;stroke-width:2.0;stroke-dasharray:2.0,2.0;" x1="88.2651" x2="367.2944" y1="260.2578" y2="260.2578"/><text fill="#000000" font-family="sans-serif" font-size="13" font-weight="bold" lengthAdjust="spacing" textLength="9.0454" x="100.2651" y="255.1919">3</text><text fill="#000000" font-family="sans-serif" font-size="13" lengthAdjust="spacing" textLength="166.8545" x="113.3105" y="255.1919">422 Unprocessable Entity</text><line style="stroke:#999999;stroke-width:1.0;stroke-dasharray:2.0,2.0;" x1="10" x2="1764.6206" y1="269.2578" y2="269.2578"/><text fill="#000000" font-family="sans-serif" font-size="11" font-weight="bold" lengthAdjust="spacing" textLength="81.5278" x="15" y="279.4683">[valid UUIDs]</text><polygon fill="#181818" points="706.2642,300.1953,716.2642,304.1953,706.2642,308.1953,710.2642,304.1953" style="stroke:#181818;stroke-width:1.0;"/><line style="stroke:#181818;stroke-width:2.0;" x1="368.2944" x2="712.2642" y1="304.1953" y2="304.1953"/><text fill="#000000" font-family="sans-serif" font-size="13" font-weight="bold" lengthAdjust="spacing" textLength="9.0454" x="375.2944" y="299.1294">4</text><text fill="#000000" font-family="sans-serif" font-size="13" lengthAdjust="spacing" textLength="208.5776" x="388.3398" y="299.1294">resolve get_current_user(token)</text><path d="M24,319.1953 L84.4429,319.1953 L84.4429,326.3281 L74.4429,336.3281 L20,336.3281 L20,323.1953 A4,4 0 0 1 24,319.1953 " fill="#EEEEEE" style="stroke:#999999;stroke-width:1.5;"/><rect fill="none" height="842.0703" rx="4" ry="4" style="stroke:#999999;stroke-width:1.5;" width="1734.6206" x="20" y="319.1953"/><text fill="#000000" font-family="sans-serif" font-size="13" font-weight="bold" lengthAdjust="spacing" textLength="19.4429" x="35" y="332.2622">alt</text><text fill="#000000" font-family="sans-serif" font-size="11" font-weight="bold" lengthAdjust="spacing" textLength="90.9165" x="99.4429" y="331.4058">[token invalid]</text><polygon fill="#181818" points="379.2944,353.4609,369.2944,357.4609,379.2944,361.4609,375.2944,357.4609" style="stroke:#181818;stroke-width:1.0;"/><line style="stroke:#181818;stroke-width:2.0;stroke-dasharray:2.0,2.0;" x1="373.2944" x2="717.2642" y1="357.4609" y2="357.4609"/><text fill="#000000" font-family="sans-serif" font-size="13" font-weight="bold" lengthAdjust="spacing" textLength="9.0454" x="385.2944" y="352.395">5</text><text fill="#000000" font-family="sans-serif" font-size="13" lengthAdjust="spacing" textLength="189.6743" x="398.3398" y="352.395">raises InvalidTokenException</text><polygon fill="#181818" points="94.2651,382.5938,84.2651,386.5938,94.2651,390.5938,90.2651,386.5938" style="stroke:#181818;stroke-width:1.0;"/><line style="stroke:#181818;stroke-width:2.0;stroke-dasharray:2.0,2.0;" x1="88.2651" x2="367.2944" y1="386.5938" y2="386.5938"/><text fill="#000000" font-family="sans-serif" font-size="13" font-weight="bold" lengthAdjust="spacing" textLength="9.0454" x="100.2651" y="381.5278">6</text><text fill="#000000" font-family="sans-serif" font-size="13" lengthAdjust="spacing" textLength="116.2256" x="113.3105" y="381.5278">401 Unauthorized</text><line style="stroke:#999999;stroke-width:1.0;stroke-dasharray:2.0,2.0;" x1="20" x2="1754.6206" y1="395.5938" y2="395.5938"/><text fill="#000000" font-family="sans-serif" font-size="11" font-weight="bold" lengthAdjust="spacing" textLength="79.3149" x="25" y="405.8042">[token valid]</text><polygon fill="#181818" points="379.2944,426.5313,369.2944,430.5313,379.2944,434.5313,375.2944,430.5313" style="stroke:#181818;stroke-width:1.0;"/><line style="stroke:#181818;stroke-width:2.0;stroke-dasharray:2.0,2.0;" x1="373.2944" x2="717.2642" y1="430.5313" y2="430.5313"/><text fill="#000000" font-family="sans-serif" font-size="13" font-weight="bold" lengthAdjust="spacing" textLength="9.0454" x="385.2944" y="425.4653">7</text><text fill="#000000" font-family="sans-serif" font-size="13" lengthAdjust="spacing" textLength="100.6294" x="398.3398" y="425.4653">current_user_id</text><polygon fill="#181818" points="860.9194,455.6641,870.9194,459.6641,860.9194,463.6641,864.9194,459.6641" style="stroke:#181818;stroke-width:1.0;"/><line style="stroke:#181818;stroke-width:2.0;" x1="368.2944" x2="866.9194" y1="459.6641" y2="459.6641"/><text fill="#000000" font-family="sans-serif" font-size="13" font-weight="bold" lengthAdjust="spacing" textLength="9.0454" x="375.2944" y="454.5981">8</text><text fill="#000000" font-family="sans-serif" font-size="13" lengthAdjust="spacing" textLength="289.3452" x="388.3398" y="454.5981">GetPetEventQuery(pet_id, event_id, user_id)</text><polygon fill="#181818" points="1281.9126,484.7969,1291.9126,488.7969,1281.9126,492.7969,1285.9126,488.7969" style="stroke:#181818;stroke-width:1.0;"/><line style="stroke:#181818;stroke-width:2.0;" x1="872.9194" x2="1287.9126" y1="488.7969" y2="488.7969"/><text fill="#000000" font-family="sans-serif" font-size="13" font-weight="bold" lengthAdjust="spacing" textLength="9.0454" x="879.9194" y="483.731">9</text><text fill="#000000" font-family="sans-serif" font-size="13" lengthAdjust="spacing" textLength="115.3433" x="892.9648" y="483.731">find_by_id(pet_id)</text><polygon fill="#181818" points="1686.7715,513.9297,1696.7715,517.9297,1686.7715,521.9297,1690.7715,517.9297" style="stroke:#181818;stroke-width:1.0;"/><line style="stroke:#181818;stroke-width:2.0;" x1="1293.9126" x2="1692.7715" y1="517.9297" y2="517.9297"/><text fill="#000000" font-family="sans-serif" font-size="13" font-weight="bold" lengthAdjust="spacing" textLength="18.0908" x="1300.9126" y="512.8638">10</text><text fill="#000000" font-family="sans-serif" font-size="13" lengthAdjust="spacing" textLength="66.0728" x="1323.0034" y="512.8638">SELECT &#8230;</text><polygon fill="#181818" points="1304.9126,543.0625,1294.9126,547.0625,1304.9126,551.0625,1300.9126,547.0625" style="stroke:#181818;stroke-width:1.0;"/><line style="stroke:#181818;stroke-width:2.0;stroke-dasharray:2.0,2.0;" x1="1298.9126" x2="1697.7715" y1="547.0625" y2="547.0625"/><text fill="#000000" font-family="sans-serif" font-size="13" font-weight="bold" lengthAdjust="spacing" textLength="18.0908" x="1310.9126" y="541.9966">11</text><text fill="#000000" font-family="sans-serif" font-size="13" lengthAdjust="spacing" textLength="106.666" x="1333.0034" y="541.9966">row or (no rows)</text><path d="M34,562.0625 L94.4429,562.0625 L94.4429,569.1953 L84.4429,579.1953 L30,579.1953 L30,566.0625 A4,4 0 0 1 34,562.0625 " fill="#EEEEEE" style="stroke:#999999;stroke-width:1.5;"/><rect fill="none" height="592.2031" rx="4" ry="4" style="stroke:#999999;stroke-width:1.5;" width="1714.6206" x="30" y="562.0625"/><text fill="#000000" font-family="sans-serif" font-size="13" font-weight="bold" lengthAdjust="spacing" textLength="19.4429" x="45" y="575.1294">alt</text><text fill="#000000" font-family="sans-serif" font-size="11" font-weight="bold" lengthAdjust="spacing" textLength="94.832" x="109.4429" y="574.2729">[pet not found]</text><polygon fill="#181818" points="379.2944,596.3281,369.2944,600.3281,379.2944,604.3281,375.2944,600.3281" style="stroke:#181818;stroke-width:1.0;"/><line style="stroke:#181818;stroke-width:2.0;stroke-dasharray:2.0,2.0;" x1="373.2944" x2="871.9194" y1="600.3281" y2="600.3281"/><text fill="#000000" font-family="sans-serif" font-size="13" font-weight="bold" lengthAdjust="spacing" textLength="18.0908" x="385.2944" y="595.2622">12</text><text fill="#000000" font-family="sans-serif" font-size="13" lengthAdjust="spacing" textLength="190.6772" x="407.3853" y="595.2622">raises PetNotFoundException</text><polygon fill="#181818" points="94.2651,625.4609,84.2651,629.4609,94.2651,633.4609,90.2651,629.4609" style="stroke:#181818;stroke-width:1.0;"/><line style="stroke:#181818;stroke-width:2.0;stroke-dasharray:2.0,2.0;" x1="88.2651" x2="367.2944" y1="629.4609" y2="629.4609"/><text fill="#000000" font-family="sans-serif" font-size="13" font-weight="bold" lengthAdjust="spacing" textLength="18.0908" x="100.2651" y="624.395">13</text><text fill="#000000" font-family="sans-serif" font-size="13" lengthAdjust="spacing" textLength="96.0146" x="122.356" y="624.395">404 Not Found</text><line style="stroke:#999999;stroke-width:1.0;stroke-dasharray:2.0,2.0;" x1="30" x2="1744.6206" y1="638.4609" y2="638.4609"/><text fill="#000000" font-family="sans-serif" font-size="11" font-weight="bold" lengthAdjust="spacing" textLength="70.356" x="35" y="648.6714">[pet found]</text><polygon fill="#181818" points="883.9194,669.3984,873.9194,673.3984,883.9194,677.3984,879.9194,673.3984" style="stroke:#181818;stroke-width:1.0;"/><line style="stroke:#181818;stroke-width:2.0;stroke-dasharray:2.0,2.0;" x1="877.9194" x2="1292.9126" y1="673.3984" y2="673.3984"/><text fill="#000000" font-family="sans-serif" font-size="13" font-weight="bold" lengthAdjust="spacing" textLength="18.0908" x="889.9194" y="668.3325">14</text><text fill="#000000" font-family="sans-serif" font-size="13" lengthAdjust="spacing" textLength="21.3472" x="912.0103" y="668.3325">pet</text><polygon fill="#181818" points="1125.668,698.5313,1135.668,702.5313,1125.668,706.5313,1129.668,702.5313" style="stroke:#181818;stroke-width:1.0;"/><line style="stroke:#181818;stroke-width:2.0;" x1="872.9194" x2="1131.668" y1="702.5313" y2="702.5313"/><text fill="#000000" font-family="sans-serif" font-size="13" font-weight="bold" lengthAdjust="spacing" textLength="18.0908" x="879.9194" y="697.4653">15</text><text fill="#000000" font-family="sans-serif" font-size="13" lengthAdjust="spacing" textLength="218.6577" x="902.0103" y="697.4653">pet.is_owned_by(current_user_id)</text><path d="M44,717.5313 L104.4429,717.5313 L104.4429,724.6641 L94.4429,734.6641 L40,734.6641 L40,721.5313 A4,4 0 0 1 44,717.5313 " fill="#EEEEEE" style="stroke:#999999;stroke-width:1.5;"/><rect fill="none" height="429.7344" rx="4" ry="4" style="stroke:#999999;stroke-width:1.5;" width="1694.6206" x="40" y="717.5313"/><text fill="#000000" font-family="sans-serif" font-size="13" font-weight="bold" lengthAdjust="spacing" textLength="19.4429" x="55" y="730.5981">alt</text><text fill="#000000" font-family="sans-serif" font-size="11" font-weight="bold" lengthAdjust="spacing" textLength="137.2905" x="119.4429" y="729.7417">[user is not an owner]</text><polygon fill="#181818" points="379.2944,751.7969,369.2944,755.7969,379.2944,759.7969,375.2944,755.7969" style="stroke:#181818;stroke-width:1.0;"/><line style="stroke:#181818;stroke-width:2.0;stroke-dasharray:2.0,2.0;" x1="373.2944" x2="871.9194" y1="755.7969" y2="755.7969"/><text fill="#000000" font-family="sans-serif" font-size="13" font-weight="bold" lengthAdjust="spacing" textLength="18.0908" x="385.2944" y="750.731">16</text><text fill="#000000" font-family="sans-serif" font-size="13" lengthAdjust="spacing" textLength="218.5815" x="407.3853" y="750.731">raises PetAccessDeniedException</text><polygon fill="#181818" points="94.2651,780.9297,84.2651,784.9297,94.2651,788.9297,90.2651,784.9297" style="stroke:#181818;stroke-width:1.0;"/><line style="stroke:#181818;stroke-width:2.0;stroke-dasharray:2.0,2.0;" x1="88.2651" x2="367.2944" y1="784.9297" y2="784.9297"/><text fill="#000000" font-family="sans-serif" font-size="13" font-weight="bold" lengthAdjust="spacing" textLength="18.0908" x="100.2651" y="779.8638">17</text><text fill="#000000" font-family="sans-serif" font-size="13" lengthAdjust="spacing" textLength="94.3262" x="122.356" y="779.8638">403 Forbidden</text><line style="stroke:#999999;stroke-width:1.0;stroke-dasharray:2.0,2.0;" x1="40" x2="1734.6206" y1="793.9297" y2="793.9297"/><text fill="#000000" font-family="sans-serif" font-size="11" font-weight="bold" lengthAdjust="spacing" textLength="112.8145" x="45" y="804.1401">[user is an owner]</text><polygon fill="#181818" points="1463.2383,824.8672,1473.2383,828.8672,1463.2383,832.8672,1467.2383,828.8672" style="stroke:#181818;stroke-width:1.0;"/><line style="stroke:#181818;stroke-width:2.0;" x1="872.9194" x2="1469.2383" y1="828.8672" y2="828.8672"/><text fill="#000000" font-family="sans-serif" font-size="13" font-weight="bold" lengthAdjust="spacing" textLength="18.0908" x="879.9194" y="823.8013">18</text><text fill="#000000" font-family="sans-serif" font-size="13" lengthAdjust="spacing" textLength="131.022" x="902.0103" y="823.8013">find_by_id(event_id)</text><polygon fill="#181818" points="1686.7715,869.1328,1696.7715,873.1328,1686.7715,877.1328,1690.7715,873.1328" style="stroke:#181818;stroke-width:1.0;"/><line style="stroke:#181818;stroke-width:2.0;" x1="1475.2383" x2="1692.7715" y1="873.1328" y2="873.1328"/><text fill="#000000" font-family="sans-serif" font-size="13" font-weight="bold" lengthAdjust="spacing" textLength="18.0908" x="1482.2383" y="860.5005">19</text><text fill="#000000" font-family="sans-serif" font-size="13" lengthAdjust="spacing" textLength="177.4424" x="1504.3291" y="852.9341">SELECT * FROM pet_events</text><text fill="#000000" font-family="sans-serif" font-size="13" lengthAdjust="spacing" textLength="90.1431" x="1504.3291" y="868.0669">WHERE id = ?</text><polygon fill="#181818" points="1486.2383,898.2656,1476.2383,902.2656,1486.2383,906.2656,1482.2383,902.2656" style="stroke:#181818;stroke-width:1.0;"/><line style="stroke:#181818;stroke-width:2.0;stroke-dasharray:2.0,2.0;" x1="1480.2383" x2="1697.7715" y1="902.2656" y2="902.2656"/><text fill="#000000" font-family="sans-serif" font-size="13" font-weight="bold" lengthAdjust="spacing" textLength="18.0908" x="1492.2383" y="897.1997">20</text><text fill="#000000" font-family="sans-serif" font-size="13" lengthAdjust="spacing" textLength="106.666" x="1514.3291" y="897.1997">row or (no rows)</text><path d="M54,917.2656 L114.4429,917.2656 L114.4429,924.3984 L104.4429,934.3984 L50,934.3984 L50,921.2656 A4,4 0 0 1 54,917.2656 " fill="#EEEEEE" style="stroke:#999999;stroke-width:1.5;"/><rect fill="none" height="223" rx="4" ry="4" style="stroke:#999999;stroke-width:1.5;" width="1530.9277" x="50" y="917.2656"/><text fill="#000000" font-family="sans-serif" font-size="13" font-weight="bold" lengthAdjust="spacing" textLength="19.4429" x="65" y="930.3325">alt</text><text fill="#000000" font-family="sans-serif" font-size="11" font-weight="bold" lengthAdjust="spacing" textLength="109.4199" x="129.4429" y="929.4761">[event not found]</text><polygon fill="#181818" points="379.2944,951.5313,369.2944,955.5313,379.2944,959.5313,375.2944,955.5313" style="stroke:#181818;stroke-width:1.0;"/><line style="stroke:#181818;stroke-width:2.0;stroke-dasharray:2.0,2.0;" x1="373.2944" x2="871.9194" y1="955.5313" y2="955.5313"/><text fill="#000000" font-family="sans-serif" font-size="13" font-weight="bold" lengthAdjust="spacing" textLength="18.0908" x="385.2944" y="950.4653">21</text><text fill="#000000" font-family="sans-serif" font-size="13" lengthAdjust="spacing" textLength="227.9189" x="407.3853" y="950.4653">raises PetEventNotFoundException</text><polygon fill="#181818" points="94.2651,980.6641,84.2651,984.6641,94.2651,988.6641,90.2651,984.6641" style="stroke:#181818;stroke-width:1.0;"/><line style="stroke:#181818;stroke-width:2.0;stroke-dasharray:2.0,2.0;" x1="88.2651" x2="367.2944" y1="984.6641" y2="984.6641"/><text fill="#000000" font-family="sans-serif" font-size="13" font-weight="bold" lengthAdjust="spacing" textLength="18.0908" x="100.2651" y="979.5981">22</text><text fill="#000000" font-family="sans-serif" font-size="13" lengthAdjust="spacing" textLength="96.0146" x="122.356" y="979.5981">404 Not Found</text><line style="stroke:#999999;stroke-width:1.0;stroke-dasharray:2.0,2.0;" x1="50" x2="1580.9277" y1="993.6641" y2="993.6641"/><text fill="#000000" font-family="sans-serif" font-size="11" font-weight="bold" lengthAdjust="spacing" textLength="84.9438" x="55" y="1003.8745">[event found]</text><polygon fill="#181818" points="883.9194,1024.6016,873.9194,1028.6016,883.9194,1032.6016,879.9194,1028.6016" style="stroke:#181818;stroke-width:1.0;"/><line style="stroke:#181818;stroke-width:2.0;stroke-dasharray:2.0,2.0;" x1="877.9194" x2="1474.2383" y1="1028.6016" y2="1028.6016"/><text fill="#000000" font-family="sans-serif" font-size="13" font-weight="bold" lengthAdjust="spacing" textLength="18.0908" x="889.9194" y="1023.5356">23</text><text fill="#000000" font-family="sans-serif" font-size="13" lengthAdjust="spacing" textLength="37.0259" x="912.0103" y="1023.5356">event</text><polygon fill="#181818" points="379.2944,1068.8672,369.2944,1072.8672,379.2944,1076.8672,375.2944,1072.8672" style="stroke:#181818;stroke-width:1.0;"/><line style="stroke:#181818;stroke-width:2.0;stroke-dasharray:2.0,2.0;" x1="373.2944" x2="871.9194" y1="1072.8672" y2="1072.8672"/><text fill="#000000" font-family="sans-serif" font-size="13" font-weight="bold" lengthAdjust="spacing" textLength="18.0908" x="385.2944" y="1060.2349">24</text><text fill="#000000" font-family="sans-serif" font-size="13" lengthAdjust="spacing" textLength="81.2373" x="407.3853" y="1052.6685">PetEventDto</text><text fill="#000000" font-family="sans-serif" font-size="13" lengthAdjust="spacing" textLength="269.4644" x="407.3853" y="1067.8013">(id, pet_id, title, description, occurred_at)</text><polygon fill="#181818" points="94.2651,1128.2656,84.2651,1132.2656,94.2651,1136.2656,90.2651,1132.2656" style="stroke:#181818;stroke-width:1.0;"/><line style="stroke:#181818;stroke-width:2.0;stroke-dasharray:2.0,2.0;" x1="88.2651" x2="367.2944" y1="1132.2656" y2="1132.2656"/><text fill="#000000" font-family="sans-serif" font-size="13" font-weight="bold" lengthAdjust="spacing" textLength="18.0908" x="100.2651" y="1112.0669">25</text><text fill="#000000" font-family="sans-serif" font-size="13" lengthAdjust="spacing" textLength="47.7026" x="122.356" y="1096.9341">200 OK</text><text fill="#000000" font-family="sans-serif" font-size="13" lengthAdjust="spacing" textLength="145.9326" x="122.356" y="1112.0669">{ "id", "pet_id", "title",</text><text fill="#000000" font-family="sans-serif" font-size="13" lengthAdjust="spacing" textLength="193.8574" x="130.6206" y="1127.1997">"description", "occurred_at" }</text><!--SRC=[ZLRRRjiu47tNLmpK5tlXD9VDeatGzSAEvJJTj4tJPFV5G41B4uU8GgeabTOD2lGZ-Wtzi7v9XvIeMsmu3cnBr9apPyuCwHXkKeHZD716x-WUXO5Vtt_0SNG1snaQlVr0drSy-RQDzY7Tks-x4WJwbekCANO76Z_bA68SAIK_Nzpm-5QWrh3NW2YPYoIMIg22boj2pvWoFEOP4sOiLOBgIAPImRE_t6j308jl5ov16JGTsRyLGSU4obhy1-xLW0ffi8KOkrSNyIZbT3g9NWG1YmtT7gMSR0g2kVm2uPb2JNVCS2b2U1P5q_tfE038wWeWj3uNtXAhGHK2qt3kBhlG1K7ZN2aBpZMgcNZrAi4CHK8bBeT35phApSq4iu1MWLIKKaPPblBOAo7DBwFTBZsD0qs36uRNJ2HfgQMyxX1Ev1tZZckNk0wwN4HarOqM2uKBPf0gagPKQ9C8mysoGtaYhXNJHkMnoHLQwd5qGDPsg3z-Ihb18Zd7J6fEhYyzhLrP2tU5TMAgjLfAmWoRCuqK-U6K8XrkCgO6vqQA_6vELWH5cs5hM7OA3f-qTMR2TaSg_jLruX36o1H5u_BDpVmuvh- -_mo2ah79_HzBUM9TzDH0FO6Q5uW5xYq8BYzF9ZfWgG4kwXMubkgE6VB6inDzMSGXxE_jmQN8b8nfyx8vdGo-FwbkyzRnGpze54zZBjDxXEvyzeoyHT6dAAl7tNXLj0OLmrQpLiMuHWqd1Ux21aLVOioiOIvgPGKxkrG1Ayr5I- -q5patP6nA9ZU3LfQXdt_Rudg3VCXHBNj5DmRW6p60agDVaFXGOYcdarYkkKYkvaj2bV5zX_K0max61FiOdKP75s17mZwcjQqM3HsuG0TEJqXxgSkCrcXYjKSLzPnEARVQKBB2Qk9y9ytKejjEh_Dw7mWFquhUMMspDZDMzRGi95JGbJIiJuG2yPphA_bPeBMfr-bEluosXTebuDeLomJO45K-tbZnABR3Fa71yL7Lw-h-asfMSvxGSLiYNULUnde9m_gWQG-07vn-5LC3EuFm1qpFtx-5wkT2pyJ_hwFp26Xp_Wt_L0Jbe3GJhXuLxw9ZUpGmJx3GfLWtEK-Vdih7GaXNHCEGrYGvTB19hPSvCN8cUdQ7-ZrhxBz00qXGnuexvGEGiPksv8gP_eOwzdPsuFs_C_408K_2GV4xNbmvvd0m4m1XWzu-QYG8uLjTVbMnlog-xQTz_mO0]--></g></svg>