<svg xmlns="http://www.w3.org/2000/svg" xmlns:xlink="http://www.w3.org/1999/xlink" contentStyleType="text/css" height="1327px" preserveAspectRatio="none" style="width:1815px;height:1327px;background:#FFFFFF;" version="1.1" viewBox="0 0 1815 1327" width="1815px" zoomAndPan="magnify"><defs/><g><text fill="#000000" font-family="sans-serif" font-size="14" font-weight="bold" lengthAdjust="spacing" textLength="482.6377" x="667.5569" y="27.9951">Delete Pet Event &#8212; DELETE /pets/{pet_id}/events/{event_id}</text><rect fill="#EEF4FB" height="1278.3984" rx="4" ry="4" style="stroke:#181818;stroke-width:0.5;" width="491.2192" x="320.9434" y="43.2969"/><text fill="#000000" font-family="sans-serif" font-size="13" font-weight="bold" lengthAdjust="spacing" textLength="94.4087" x="519.3486" y="55.3638">Presentation</text><rect fill="#FFF8E1" height="1278.3984" rx="4" ry="4" style="stroke:#181818;stroke-width:0.5;" width="185.7754" x="814.1626" y="43.2969"/><text fill="#000000" font-family="sans-serif" font-size="13" font-weight="bold" lengthAdjust="spacing" textLength="82.9194" x="865.5906" y="55.3638">Application</text><rect fill="#F1F8E9" height="1278.3984" rx="4" ry="4" style="stroke:#181818;stroke-width:0.5;" width="149.2168" x="1097.1904" y="43.2969"/><text fill="#000000" font-family="sans-serif" font-size="13" font-weight="bold" lengthAdjust="spacing" textLength="55.7515" x="1143.9231" y="55.3638">Domain</text><rect fill="#FBE9E7" height="1278.3984" rx="4" ry="4" style="stroke:#181818;stroke-width:0.5;" width="360.6514" x="1248.4072" y="43.2969"/><text fill="#000000" font-family="sans-serif" font-size="13" font-weight="bold" lengthAdjust="spacing" textLength="102.9526" x="1377.2566" y="55.3638">Infrastructure</text><rect fill="none" height="1003.4063" rx="4" ry="4" style="stroke:#999999;stroke-width:1.5;" width="1798.7515" x="10" y="221.9922"/><rect fill="none" height="899.2031" rx="4" ry="4" style="stroke:#999999;stroke-width:1.5;" width="1778.7515" x="20" y="319.1953"/><rect fill="none" height="649.3359" rx="4" ry="4" style="stroke:#999999;stroke-width:1.5;" width="1758.7515" x="30" y="562.0625"/><rect fill="none" height="486.8672" rx="4" ry="4" style="stroke:#999999;stroke-width:1.5;" width="1738.7515" x="40" y="717.5313"/><rect fill="none" height="280.1328" rx="4" ry="4" style="stroke:#999999;stroke-width:1.5;" width="1718.7515" x="50" y="917.2656"/><line style="stroke:#181818;stroke-width:0.5;stroke-dasharray:5.0,5.0;" x1="83" x2="83" y1="118.5938" y2="1242.3984"/><line style="stroke:#181818;stroke-width:0.5;stroke-dasharray:5.0,5.0;" x1="390.9434" x2="390.9434" y1="118.5938" y2="1242.3984"/><line style="stroke:#181818;stroke-width:0.5;stroke-dasharray:5.0,5.0;" x1="741.5796" x2="741.5796" y1="118.5938" y2="1242.3984"/><line style="stroke:#181818;stroke-width:0.5;stroke-dasharray:5.0,5.0;" x1="906.1626" x2="906.1626" y1="118.5938" y2="1242.3984"/><line style="stroke:#181818;stroke-width:0.5;stroke-dasharray:5.0,5.0;" x1="1171.1904" x2="1171.1904" y1="118.5938" y2="1242.3984"/><line style="stroke:#181818;stroke-width:0.5;stroke-dasharray:5.0,5.0;" x1="1327.4072" x2="1327.4072" y1="118.5938" y2="1242.3984"/><line style="stroke:#181818;stroke-width:0.5;stroke-dasharray:5.0,5.0;" x1="1508.6797" x2="1508.6797" y1="118.5938" y2="1242.3984"/><line style="stroke:#181818;stroke-width:0.5;stroke-dasharray:5.0,5.0;" x1="1732.0532" x2="1732.0532" y1="118.5938" y2="1242.3984"/><text fill="#000000" font-family="sans-serif" font-size="14" lengthAdjust="spacing" textLength="40.5303" x="60" y="115.292">Client</text><ellipse cx="83.2651" cy="50.7969" fill="#E2E2F0" rx="8" ry="8" style="stroke:#181818;stroke-width:0.5;"/><path d="M83.2651,58.7969 L83.2651,85.7969 M70.2651,66.7969 L96.2651,66.7969 M83.2651,85.7969 L70.2651,100.7969 M83.2651,85.7969 L96.2651,100.7969 " fill="none" style="stroke:#181818;stroke-width:0.5;"/><text fill="#000000" font-family="sans-serif" font-size="14" lengthAdjust="spacing" textLength="40.5303" x="60" y="1254.3936">Client</text><ellipse cx="83.2651" cy="1266.1953" fill="#E2E2F0" rx="8" ry="8" style="stroke:#181818;stroke-width:0.5;"/><path d="M83.2651,1274.1953 L83.2651,1301.1953 M70.2651,1282.1953 L96.2651,1282.1953 M83.2651,1301.1953 L70.2651,1316.1953 M83.2651,1301.1953 L96.2651,1316.1953 " fill="none" style="stroke:#181818;stroke-width:0.5;"/><rect fill="#FAFAFA" height="30.2969" rx="4" ry="4" style="stroke:#555555;stroke-width:0.5;" width="133.916" x="324.9434" y="87.2969"/><text fill="#000000" font-family="sans-serif" font-size="14" lengthAdjust="spacing" textLength="119.916" x="331.9434" y="107.292">pet_event_router</text><rect fill="#FAFAFA" height="30.2969" rx="4" ry="4" style="stroke:#555555;stroke-width:0.5;" width="133.916" x="324.9434" y="1241.3984"/><text fill="#000000" font-family="sans-serif" font-size="14" lengthAdjust="spacing" textLength="119.916" x="331.9434" y="1261.3936">pet_event_router</text><rect fill="#FAFAFA" height="46.5938" rx="4" ry="4" style="stroke:#555555;stroke-width:0.5;" width="132.583" x="675.5796" y="71"/><text fill="#000000" font-family="sans-serif" font-size="14" lengthAdjust="spacing" textLength="118.583" x="682.5796" y="90.9951">get_current_user</text><text fill="#000000" font-family="sans-serif" font-size="14" lengthAdjust="spacing" textLength="103.3594" x="690.1914" y="107.292">&#171;dependency&#187;</text><rect fill="#FAFAFA" height="46.5938" rx="4" ry="4" style="stroke:#555555;stroke-width:0.5;" width="132.583" x="675.5796" y="1241.3984"/><text fill="#000000" font-family="sans-serif" font-size="14" lengthAdjust="spacing" textLength="118.583" x="682.5796" y="1261.3936">get_current_user</text><text fill="#000000" font-family="sans-serif" font-size="14" lengthAdjust="spacing" textLength="103.3594" x="690.1914" y="1277.6904">&#171;dependency&#187;</text><rect fill="#FAFAFA" height="30.2969" rx="4" ry="4" style="stroke:#555555;stroke-width:0.5;" width="177.7754" x="818.1626" y="87.2969"/><text fill="#000000" font-family="sans-serif" font-size="14" lengthAdjust="spacing" textLength="163.7754" x="825.1626" y="107.292">DeletePetEventHandler</text><rect fill="#FAFAFA" height="30.2969" rx="4" ry="4" style="stroke:#555555;stroke-width:0.5;" width="177.7754" x="818.1626" y="1241.3984"/><text fill="#000000" font-family="sans-serif" font-size="14" lengthAdjust="spacing" textLength="163.7754" x="825.1626" y="1261.3936">DeletePetEventHandler</text><rect fill="#FAFAFA" height="46.5938" rx="4" ry="4" style="stroke:#555555;stroke-width:0.5;" width="141.2168" x="1101.1904" y="71"/><text fill="#000000" font-family="sans-serif" font-size="14" lengthAdjust="spacing" textLength="22.5449" x="1160.5264" y="90.9951">Pet</text><text fill="#000000" font-family="sans-serif" font-size="14" lengthAdjust="spacing" textLength="127.2168" x="1108.1904" y="107.292">&#171;Aggregate Root&#187;</text><rect fill="#FAFAFA" height="46.5938" rx="4" ry="4" style="stroke:#555555;stroke-width:0.5;" width="141.2168" x="1101.1904" y="1241.3984"/><text fill="#000000" font-family="sans-serif" font-size="14" lengthAdjust="spacing" textLength="22.5449" x="1160.5264" y="1261.3936">Pet</text><text fill="#000000" font-family="sans-serif" font-size="14" lengthAdjust="spacing" textLength="127.2168" x="1108.1904" y="1277.6904">&#171;Aggregate Root&#187;</text><rect fill="#FAFAFA" height="30.2969" rx="4" ry="4" style="stroke:#555555;stroke-width:0.5;" width="151.2725" x="1252.4072" y="87.2969"/><text fill="#000000" font-family="sans-serif" font-size="14" lengthAdjust="spacing" textLength="137.2725" x="1259.4072" y="107.292">SqlitePetRepository</text><rect fill="#FAFAFA" height="30.2969" rx="4" ry="4" style="stroke:#555555;stroke-width:0.5;" width="151.2725" x="1252.4072" y="1241.3984"/><text fill="#000000" font-family="sans-serif" font-size="14" lengthAdjust="spacing" textLength="137.2725" x="1259.4072" y="1261.3936">SqlitePetRepository</text><rect fill="#FAFAFA" height="30.2969" rx="4" ry="4" style="stroke:#555555;stroke-width:0.5;" width="191.3789" x="1413.6797" y="87.2969"/><text fill="#000000" font-family="sans-serif" font-size="14" lengthAdjust="spacing" textLength="177.3789" x="1420.6797" y="107.292">SqlitePetEventRepository</text><rect fill="#FAFAFA" height="30.2969" rx="4" ry="4" style="stroke:#555555;stroke-width:0.5;" width="191.3789" x="1413.6797" y="1241.3984"/><text fill="#000000" font-family="sans-serif" font-size="14" lengthAdjust="spacing" textLength="177.3789" x="1420.6797" y="1261.3936">SqlitePetEventRepository</text><text fill="#000000" font-family="sans-serif" font-size="14" lengthAdjust="spacing" textLength="45.6982" x="1707.0532" y="115.292">SQLite</text><path d="M1714.9023,66.2969 C1714.9023,56.2969 1732.9023,56.2969 1732.9023,56.2969 C1732.9023,56.2969 1750.9023,56.2969 1750.9023,66.2969 L1750.9023,92.2969 C1750.9023,102.2969 1732.9023,102.2969 1732.9023,102.2969 C1732.9023,102.2969 1714.9023,102.2969 1714.9023,92.2969 L1714.9023,66.2969 " fill="#E2E2F0" style="stroke:#181818;stroke-width:1.5;"/><path d="M1714.9023,66.2969 C1714.9023,76.2969 1732.9023,76.2969 1732.9023,76.2969 C1732.9023,76.2969 1750.9023,76.2969 1750.9023,66.2969 " fill="none" style="stroke:#181818;stroke-width:1.5;"/><text fill="#000000" font-family="sans-serif" font-size="14" lengthAdjust="spacing" textLength="45.6982" x="1707.0532" y="1254.3936">SQLite</text><path d="M1714.9023,1267.6953 C1714.9023,1257.6953 1732.9023,1257.6953 1732.9023,1257.6953 C1732.9023,1257.6953 1750.9023,1257.6953 1750.9023,1267.6953 L1750.9023,1293.6953 C1750.9023,1303.6953 1732.9023,1303.6953 1732.9023,1303.6953 C1732.9023,1303.6953 1714.9023,1303.6953 1714.9023,1293.6953 L1714.9023,1267.6953 " fill="#E2E2F0" style="stroke:#181818;stroke-width:1.5;"/><path d="M1714.9023,1267.6953 C1714.9023,1277.6953 1732.9023,1277.6953 1732.9023,1277.6953 C1732.9023,1277.6953 1750.9023,1277.6953 1750.9023,1267.6953 " fill="none" style="stroke:#181818;stroke-width:1.5;"/><polygon fill="#181818" points="379.9014,160.8594,389.9014,164.8594,379.9014,168.8594,383.9014,164.8594" style="stroke:#181818;stroke-width:1.0;"/><line style="stroke:#181818;stroke-width:2.0;" x1="83.2651" x2="385.9014" y1="164.8594" y2="164.8594"/><text fill="#000000" font-family="sans-serif" font-size="13" font-weight="bold" lengthAdjust="spacing" textLength="9.0454" x="90.2651" y="152.2271">1</text><text fill="#000000" font-family="sans-serif" font-size="13" lengthAdjust="spacing" textLength="271.5908" x="103.3105" y="144.6606">DELETE /pets/{pet_id}/events/{event_id}</text><text fill="#000000" font-family="sans-serif" font-size="13" lengthAdjust="spacing" textLength="213.1353" x="103.3105" y="159.7935">Authorization: Bearer eyJhbGci&#8230;</text><line style="stroke:#181818;stroke-width:2.0;" x1="391.9014" x2="433.9014" y1="193.9922" y2="193.9922"/><line style="stroke:#181818;stroke-width:2.0;" x1="433.9014" x2="433.9014" y1="193.9922" y2="206.9922"/><line style="stroke:#181818;stroke-width:2.0;" x1="392.9014" x2="433.9014" y1="206.9922" y2="206.9922"/><polygon fill="#181818" points="402.9014,202.9922,392.9014,206.9922,402.9014,210.9922,398.9014,206.9922" style="stroke:#181818;stroke-width:1.0;"/><text fill="#000000" font-family="sans-serif" font-size="13" font-weight="bold" lengthAdjust="spacing" textLength="9.0454" x="398.9014" y="188.9263">2</text><text fill="#000000" font-family="sans-serif" font-size="13" lengthAdjust="spacing" textLength="322.9243" x="411.9468" y="188.9263">Validate {pet_id} and {event_id} are valid UUIDs</text><path d="M14,221.9922 L74.4429,221.9922 L74.4429,229.125 L64.4429,239.125 L10,239.125 L10,225.9922 A4,4 0 0 1 14,221.9922 " fill="#EEEEEE" style="stroke:#999999;stroke-width:1.5;"/><rect fill="none" height="1003.4063" rx="4" ry="4" style="stroke:#999999;stroke-width:1.5;" width="1798.7515" x="10" y="221.9922"/><text fill="#000000" font-family="sans-serif" font-size="13" font-weight="bold" lengthAdjust="spacing" textLength="19.4429" x="25" y="235.0591">alt</text><text fill="#000000" font-family="sans-serif" font-size="11" font-weight="bold" lengthAdjust="spacing" textLength="132.3223" x="89.4429" y="234.2026">[invalid UUID format]</text><polygon fill="#181818" points="94.2651,256.2578,84.2651,260.2578,94.2651,264.2578,90.2651,260.2578" style="stroke:#181818;stroke-width:1.0;"/><line style="stroke:#181818;stroke-width:2.0;stroke-dasharray:2.0,2.0;" x1="88.2651" x2="390.9014" y1="260.2578" y2="260.2578"/><text fill="#000000" font-family="sans-serif" font-size="13" font-weight="bold" lengthAdjust="spacing" textLength="9.0454" x="100.2651" y="255.1919">3</text><text fill="#000000" font-family="sans-serif" font-size="13" lengthAdjust="spacing" textLength="166.8545" x="113.3105" y="255.1919">422 Unprocessable Entity</text><line style="stroke:#999999;stroke-width:1.0;stroke-dasharray:2.0,2.0;" x1="10" x2="1808.7515" y1="269.2578" y2="269.2578"/><text fill="#000000" font-family="sans-serif" font-size="11" font-weight="bold" lengthAdjust="spacing" textLength="81.5278" x="15" y="279.4683">[valid UUIDs]</text><polygon fill="#181818" points="729.8711,300.1953,739.8711,304.1953,729.8711,308.1953,733.8711,304.1953" style="stroke:#181818;stroke-width:1.0;"/><line style="stroke:#181818;stroke-width:2.0;" x1="391.9014" x2="735.8711" y1="304.1953" y2="304.1953"/><text fill="#000000" font-family="sans-serif" font-size="13" font-weight="bold" lengthAdjust="spacing" textLength="9.0454" x="398.9014" y="299.1294">4</text><text fill="#000000" font-family="sans-serif" font-size="13" lengthAdjust="spacing" textLength="208.5776" x="411.9468" y="299.1294">resolve get_current_user(token)</text><path d="M24,319.1953 L84.4429,319.1953 L84.4429,326.3281 L74.4429,336.3281 L20,336.3281 L20,323.1953 A4,4 0 0 1 24,319.1953 " fill="#EEEEEE" style="stroke:#999999;stroke-width:1.5;"/><rect fill="none" height="899.2031" rx="4" ry="4" style="stroke:#999999;stroke-width:1.5;" width="1778.7515" x="20" y="319.1953"/><text fill="#000000" font-family="sans-serif" font-size="13" font-weight="bold" lengthAdjust="spacing" textLength="19.4429" x="35" y="332.2622">alt</text><text fill="#000000" font-family="sans-serif" font-size="11" font-weight="bold" lengthAdjust="spacing" textLength="90.9165" x="99.4429" y="331.4058">[token invalid]</text><polygon fill="#181818" points="402.9014,353.4609,392.9014,357.4609,402.9014,361.4609,398.9014,357.4609" style="stroke:#181818;stroke-width:1.0;"/><line style="stroke:#181818;stroke-width:2.0;stroke-dasharray:2.0,2.0;" x1="396.9014" x2="740.8711" y1="357.4609" y2="357.4609"/><text fill="#000000" font-family="sans-serif" font-size="13" font-weight="bold" lengthAdjust="spacing" textLength="9.0454" x="408.9014" y="352.395">5</text><text fill="#000000" font-family="sans-serif" font-size="13" lengthAdjust="spacing" textLength="189.6743" x="421.9468" y="352.395">raises InvalidTokenException</text><polygon fill="#181818" points="94.2651,382.5938,84.2651,386.5938,94.2651,390.5938,90.2651,386.5938" style="stroke:#181818;stroke-width:1.0;"/><line style="stroke:#181818;stroke-width:2.0;stroke-dasharray:2.0,2.0;" x1="88.2651" x2="390.9014" y1="386.5938" y2="386.5938"/><text fill="#000000" font-family="sans-serif" font-size="13" font-weight="bold" lengthAdjust="spacing" textLength="9.0454" x="100.2651" y="381.5278">6</text><text fill="#000000" font-family="sans-serif" font-size="13" lengthAdjust="spacing" textLength="116.2256" x="113.3105" y="381.5278">401 Unauthorized</text><line style="stroke:#999999;stroke-width:1.0;stroke-dasharray:2.0,2.0;" x1="20" x2="1798.7515" y1="395.5938" y2="395.5938"/><text fill="#000000" font-family="sans-serif" font-size="11" font-weight="bold" lengthAdjust="spacing" textLength="79.3149" x="25" y="405.8042">[token valid]</text><polygon fill="#181818" points="402.9014,426.5313,392.9014,430.5313,402.9014,434.5313,398.9014,430.5313" style="stroke:#181818;stroke-width:1.0;"/><line style="stroke:#181818;stroke-width:2.0;stroke-dasharray:2.0,2.0;" x1="396.9014" x2="740.8711" y1="430.5313" y2="430.5313"/><text fill="#000000" font-family="sans-serif" font-size="13" font-weight="bold" lengthAdjust="spacing" textLength="9.0454" x="408.9014" y="425.4653">7</text><text fill="#000000" font-family="sans-serif" font-size="13" lengthAdjust="spacing" textLength="100.6294" x="421.9468" y="425.4653">current_user_id</text><polygon fill="#181818" points="895.0503,455.6641,905.0503,459.6641,895.0503,463.6641,899.0503,459.6641" style="stroke:#181818;stroke-width:1.0;"/><line style="stroke:#181818;stroke-width:2.0;" x1="391.9014" x2="901.0503" y1="459.6641" y2="459.6641"/><text fill="#000000" font-family="sans-serif" font-size="13" font-weight="bold" lengthAdjust="spacing" textLength="9.0454" x="398.9014" y="454.5981">8</text><text fill="#000000" font-family="sans-serif" font-size="13" lengthAdjust="spacing" textLength="336.1973" x="411.9468" y="454.5981">DeletePetEventCommand(pet_id, event_id, user_id)</text><polygon fill="#181818" points="1316.0435,484.7969,1326.0435,488.7969,1316.0435,492.7969,1320.0435,488.7969" style="stroke:#181818;stroke-width:1.0;"/><line style="stroke:#181818;stroke-width:2.0;" x1="907.0503" x2="1322.0435" y1="488.7969" y2="488.7969"/><text fill="#000000" font-family="sans-serif" font-size="13" font-weight="bold" lengthAdjust="spacing" textLength="9.0454" x="914.0503" y="483.731">9</text><text fill="#000000" font-family="sans-serif" font-size="13" lengthAdjust="spacing" textLength="115.3433" x="927.0957" y="483.731">find_by_id(pet_id)</text><polygon fill="#181818" points="1720.9023,513.9297,1730.9023,517.9297,1720.9023,521.9297,1724.9023,517.9297" style="stroke:#181818;stroke-width:1.0;"/><line style="stroke:#181818;stroke-width:2.0;" x1="1328.0435" x2="1726.9023" y1="517.9297" y2="517.9297"/><text fill="#000000" font-family="sans-serif" font-size="13" font-weight="bold" lengthAdjust="spacing" textLength="18.0908" x="1335.0435" y="512.8638">10</text><text fill="#000000" font-family="sans-serif" font-size="13" lengthAdjust="spacing" textLength="66.0728" x="1357.1343" y="512.8638">SELECT &#8230;</text><polygon fill="#181818" points="1339.0435,543.0625,1329.0435,547.0625,1339.0435,551.0625,1335.0435,547.0625" style="stroke:#181818;stroke-width:1.0;"/><line style="stroke:#181818;stroke-width:2.0;stroke-dasharray:2.0,2.0;" x1="1333.0435" x2="1731.9023" y1="547.0625" y2="547.0625"/><text fill="#000000" font-family="sans-serif" font-size="13" font-weight="bold" lengthAdjust="spacing" textLength="18.0908" x="1345.0435" y="541.9966">11</text><text fill="#000000" font-family="sans-serif" font-size="13" lengthAdjust="spacing" textLength="106.666" x="1367.1343" y="541.9966">row or (no rows)</text><path d="M34,562.0625 L94.4429,562.0625 L94.4429,569.1953 L84.4429,579.1953 L30,579.1953 L30,566.0625 A4,4 0 0 1 34,562.0625 " fill="#EEEEEE" style="stroke:#999999;stroke-width:1.5;"/><rect fill="none" height="649.3359" rx="4" ry="4" style="stroke:#999999;stroke-width:1.5;" width="1758.7515" x="30" y="562.0625"/><text fill="#000000" font-family="sans-serif" font-size="13" font-weight="bold" lengthAdjust="spacing" textLength="19.4429" x="45" y="575.1294">alt</text><text fill="#000000" font-family="sans-serif" font-size="11" font-weight="bold" lengthAdjust="spacing" textLength="94.832" x="109.4429" y="574.2729">[pet not found]</text><polygon fill="#181818" points="402.9014,596.3281,392.9014,600.3281,402.9014,604.3281,398.9014,600.3281" style="stroke:#181818;stroke-width:1.0;"/><line style="stroke:#181818;stroke-width:2.0;stroke-dasharray:2.0,2.0;" x1="396.9014" x2="906.0503" y1="600.3281" y2="600.3281"/><text fill="#000000" font-family="sans-serif" font-size="13" font-weight="bold" lengthAdjust="spacing" textLength="18.0908" x="408.9014" y="595.2622">12</text><text fill="#000000" font-family="sans-serif" font-size="13" lengthAdjust="spacing" textLength="190.6772" x="430.9922" y="595.2622">raises PetNotFoundException</text><polygon fill="#181818" points="94.2651,625.4609,84.2651,629.4609,94.2651,633.4609,90.2651,629.4609" style="stroke:#181818;stroke-width:1.0;"/><line style="stroke:#181818;stroke-width:2.0;stroke-dasharray:2.0,2.0;" x1="88.2651" x2="390.9014" y1="629.4609" y2="629.4609"/><text fill="#000000" font-family="sans-serif" font-size="13" font-weight="bold" lengthAdjust="spacing" textLength="18.0908" x="100.2651" y="624.395">13</text><text fill="#000000" font-family="sans-serif" font-size="13" lengthAdjust="spacing" textLength="96.0146" x="122.356" y="624.395">404 Not Found</text><line style="stroke:#999999;stroke-width:1.0;stroke-dasharray:2.0,2.0;" x1="30" x2="1788.7515" y1="638.4609" y2="638.4609"/><text fill="#000000" font-family="sans-serif" font-size="11" font-weight="bold" lengthAdjust="spacing" textLength="70.356" x="35" y="648.6714">[pet found]</text><polygon fill="#181818" points="918.0503,669.3984,908.0503,673.3984,918.0503,677.3984,914.0503,673.3984" style="stroke:#181818;stroke-width:1.0;"/><line style="stroke:#181818;stroke-width:2.0;stroke-dasharray:2.0,2.0;" x1="912.0503" x2="1327.0435" y1="673.3984" y2="673.3984"/><text fill="#000000" font-family="sans-serif" font-size="13" font-weight="bold" lengthAdjust="spacing" textLength="18.0908" x="924.0503" y="668.3325">14</text><text fill="#000000" font-family="sans-serif" font-size="13" lengthAdjust="spacing" textLength="21.3472" x="946.1411" y="668.3325">pet</text><polygon fill="#181818" points="1159.7988,698.5313,1169.7988,702.5313,1159.7988,706.5313,1163.7988,702.5313" style="stroke:#181818;stroke-width:1.0;"/><line style="stroke:#181818;stroke-width:2.0;" x1="907.0503" x2="1165.7988" y1="702.5313" y2="702.5313"/><text fill="#000000" font-family="sans-serif" font-size="13" font-weight="bold" lengthAdjust="spacing" textLength="18.0908" x="914.0503" y="697.4653">15</text><text fill="#000000" font-family="sans-serif" font-size="13" lengthAdjust="spacing" textLength="218.6577" x="936.1411" y="697.4653">pet.is_owned_by(current_user_id)</text><path d="M44,717.5313 L104.4429,717.5313 L104.4429,724.6641 L94.4429,734.6641 L40,734.6641 L40,721.5313 A4,4 0 0 1 44,717.5313 " fill="#EEEEEE" style="stroke:#999999;stroke-width:1.5;"/><rect fill="none" height="486.8672" rx="4" ry="4" style="stroke:#999999;stroke-width:1.5;" width="1738.7515" x="40" y="717.5313"/><text fill="#000000" font-family="sans-serif" font-size="13" font-weight="bold" lengthAdjust="spacing" textLength="19.4429" x="55" y="730.5981">alt</text><text fill="#000000" font-family="sans-serif" font-size="11" font-weight="bold" lengthAdjust="spacing" textLength="137.2905" x="119.4429" y="729.7417">[user is not an owner]</text><polygon fill="#181818" points="402.9014,751.7969,392.9014,755.7969,402.9014,759.7969,398.9014,755.7969" style="stroke:#181818;stroke-width:1.0;"/><line style="stroke:#181818;stroke-width:2.0;stroke-dasharray:2.0,2.0;" x1="396.9014" x2="906.0503" y1="755.7969" y2="755.7969"/><text fill="#000000" font-family="sans-serif" font-size="13" font-weight="bold" lengthAdjust="spacing" textLength="18.0908" x="408.9014" y="750.731">16</text><text fill="#000000" font-family="sans-serif" font-size="13" lengthAdjust="spacing" textLength="218.5815" x="430.9922" y="750.731">raises PetAccessDeniedException</text><polygon fill="#181818" points="94.2651,780.9297,84.2651,784.9297,94.2651,788.9297,90.2651,784.9297" style="stroke:#181818;stroke-width:1.0;"/><line style="stroke:#181818;stroke-width:2.0;stroke-dasharray:2.0,2.0;" x1="88.2651" x2="390.9014" y1="784.9297" y2="784.9297"/><text fill="#000000" font-family="sans-serif" font-size="13" font-weight="bold" lengthAdjust="spacing" textLength="18.0908" x="100.2651" y="779.8638">17</text><text fill="#000000" font-family="sans-serif" font-size="13" lengthAdjust="spacing" textLength="94.3262" x="122.356" y="779.8638">403 Forbidden</text><line style="stroke:#999999;stroke-width:1.0;stroke-dasharray:2.0,2.0;" x1="40" x2="1778.7515" y1="793.9297" y2="793.9297"/><text fill="#000000" font-family="sans-serif" font-size="11" font-weight="bold" lengthAdjust="spacing" textLength="112.8145" x="45" y="804.1401">[user is an owner]</text><polygon fill="#181818" points="1497.3691,824.8672,1507.3691,828.8672,1497.3691,832.8672,1501.3691,828.8672" style="stroke:#181818;stroke-width:1.0;"/><line style="stroke:#181818;stroke-width:2.0;" x1="907.0503" x2="1503.3691" y1="828.8672" y2="828.8672"/><text fill="#000000" font-family="sans-serif" font-size="13" font-weight="bold" lengthAdjust="spacing" textLength="18.0908" x="914.0503" y="823.8013">18</text><text fill="#000000" font-family="sans-serif" font-size="13" lengthAdjust="spacing" textLength="131.022" x="936.1411" y="823.8013">find_by_id(event_id)</text><polygon fill="#181818" points="1720.9023,869.1328,1730.9023,873.1328,1720.9023,877.1328,1724.9023,873.1328" style="stroke:#181818;stroke-width:1.0;"/><line style="stroke:#181818;stroke-width:2.0;" x1="1509.3691" x2="1726.9023" y1="873.1328" y2="873.1328"/><text fill="#000000" font-family="sans-serif" font-size="13" font-weight="bold" lengthAdjust="spacing" textLength="18.0908" x="1516.3691" y="860.5005">19</text><text fill="#000000" font-family="sans-serif" font-size="13" lengthAdjust="spacing" textLength="177.4424" x="1538.46" y="852.9341">SELECT * FROM pet_events</text><text fill="#000000" font-family="sans-serif" font-size="13" lengthAdjust="spacing" textLength="90.1431" x="1538.46" y="868.0669">WHERE id = ?</text><polygon fill="#181818" points="1520.3691,898.2656,1510.3691,902.2656,1520.3691,906.2656,1516.3691,902.2656" style="stroke:#181818;stroke-width:1.0;"/><line style="stroke:#181818;stroke-width:2.0;stroke-dasharray:2.0,2.0;" x1="1514.3691" x2="1731.9023" y1="902.2656" y2="902.2656"/><text fill="#000000" font-family="sans-serif" font-size="13" font-weight="bold" lengthAdjust="spacing" textLength="18.0908" x="1526.3691" y="897.1997">20</text><text fill="#000000" font-family="sans-serif" font-size="13" lengthAdjust="spacing" textLength="106.666" x="1548.46" y="897.1997">row or (no rows)</text><path d="M54,917.2656 L114.4429,917.2656 L114.4429,924.3984 L104.4429,934.3984 L50,934.3984 L50,921.2656 A4,4 0 0 1 54,917.2656 " fill="#EEEEEE" style="stroke:#999999;stroke-width:1.5;"/><rect fill="none" height="280.1328" rx="4" ry="4" style="stroke:#999999;stroke-width:1.5;" width="1718.7515" x="50" y="917.2656"/><text fill="#000000" font-family="sans-serif" font-size="13" font-weight="bold" lengthAdjust="spacing" textLength="19.4429" x="65" y="930.3325">alt</text><text fill="#000000" font-family="sans-serif" font-size="11" font-weight="bold" lengthAdjust="spacing" textLength="109.4199" x="129.4429" y="929.4761">[event not found]</text><polygon fill="#181818" points="402.9014,951.5313,392.9014,955.5313,402.9014,959.5313,398.9014,955.5313" style="stroke:#181818;stroke-width:1.0;"/><line style="stroke:#181818;stroke-width:2.0;stroke-dasharray:2.0,2.0;" x1="396.9014" x2="906.0503" y1="955.5313" y2="955.5313"/><text fill="#000000" font-family="sans-serif" font-size="13" font-weight="bold" lengthAdjust="spacing" textLength="18.0908" x="408.9014" y="950.4653">21</text><text fill="#000000" font-family="sans-serif" font-size="13" lengthAdjust="spacing" textLength="227.9189" x="430.9922" y="950.4653">raises PetEventNotFoundException</text><polygon fill="#181818" points="94.2651,980.6641,84.2651,984.6641,94.2651,988.6641,90.2651,984.6641" style="stroke:#181818;stroke-width:1.0;"/><line style="stroke:#181818;stroke-width:2.0;stroke-dasharray:2.0,2.0;" x1="88.2651" x2="390.9014" y1="984.6641" y2="984.6641"/><text fill="#000000" font-family="sans-serif" font-size="13" font-weight="bold" lengthAdjust="spacing" textLength="18.0908" x="100.2651" y="979.5981">22</text><text fill="#000000" font-family="sans-serif" font-size="13" lengthAdjust="spacing" textLength="96.0146" x="122.356" y="979.5981">404 Not Found</text><line style="stroke:#999999;stroke-width:1.0;stroke-dasharray:2.0,2.0;" x1="50" x2="1768.7515" y1="993.6641" y2="993.6641"/><text fill="#000000" font-family="sans-serif" font-size="11" font-weight="bold" lengthAdjust="spacing" textLength="84.9438" x="55" y="1003.8745">[event found]</text><polygon fill="#181818" points="918.0503,1024.6016,908.0503,1028.6016,918.0503,1032.6016,914.0503,1028.6016" style="stroke:#181818;stroke-width:1.0;"/><line style="stroke:#181818;stroke-width:2.0;stroke-dasharray:2.0,2.0;" x1="912.0503" x2="1508.3691" y1="1028.6016" y2="1028.6016"/><text fill="#000000" font-family="sans-serif" font-size="13" font-weight="bold" lengthAdjust="spacing" textLength="18.0908" x="924.0503" y="1023.5356">23</text><text fill="#000000" font-family="sans-serif" font-size="13" lengthAdjust="spacing" textLength="37.0259" x="946.1411" y="1023.5356">event</text><polygon fill="#181818" points="1497.3691,1053.7344,1507.3691,1057.7344,1497.3691,1061.7344,1501.3691,1057.7344" style="stroke:#181818;stroke-width:1.0;"/><line style="stroke:#181818;stroke-width:2.0;" x1="907.0503" x2="1503.3691" y1="1057.7344" y2="1057.7344"/><text fill="#000000" font-family="sans-serif" font-size="13" font-weight="bold" lengthAdjust="spacing" textLength="18.0908" x="914.0503" y="1052.6685">24</text><text fill="#000000" font-family="sans-serif" font-size="13" lengthAdjust="spacing" textLength="106.4883" x="936.1411" y="1052.6685">delete(event_id)</text><polygon fill="#181818" points="1720.9023,1098,1730.9023,1102,1720.9023,1106,1724.9023,1102" style="stroke:#181818;stroke-width:1.0;"/><line style="stroke:#181818;stroke-width:2.0;" x1="1509.3691" x2="1726.9023" y1="1102" y2="1102"/><text fill="#000000" font-family="sans-serif" font-size="13" font-weight="bold" lengthAdjust="spacing" textLength="18.0908" x="1516.3691" y="1089.3677">25</text><text fill="#000000" font-family="sans-serif" font-size="13" lengthAdjust="spacing" textLength="167.7051" x="1538.46" y="1081.8013">DELETE FROM pet_events</text><text fill="#000000" font-family="sans-serif" font-size="13" lengthAdjust="spacing" textLength="90.1431" x="1538.46" y="1096.9341">WHERE id = ?</text><polygon fill="#181818" points="1520.3691,1127.1328,1510.3691,1131.1328,1520.3691,1135.1328,1516.3691,1131.1328" style="stroke:#181818;stroke-width:1.0;"/><line style="stroke:#181818;stroke-width:2.0;stroke-dasharray:2.0,2.0;" x1="1514.3691" x2="1731.9023" y1="1131.1328" y2="1131.1328"/><text fill="#000000" font-family="sans-serif" font-size="13" font-weight="bold" lengthAdjust="spacing" textLength="18.0908" x="1526.3691" y="1126.0669">26</text><text fill="#000000" font-family="sans-serif" font-size="13" lengthAdjust="spacing" textLength="18.7573" x="1548.46" y="1126.0669">OK</text><polygon fill="#181818" points="402.9014,1156.2656,392.9014,1160.2656,402.9014,1164.2656,398.9014,1160.2656" style="stroke:#181818;stroke-width:1.0;"/><line style="stroke:#181818;stroke-width:2.0;stroke-dasharray:2.0,2.0;" x1="396.9014" x2="906.0503" y1="1160.2656" y2="1160.2656"/><text fill="#000000" font-family="sans-serif" font-size="13" font-weight="bold" lengthAdjust="spacing" textLength="18.0908" x="408.9014" y="1155.1997">27</text><text fill="#000000" font-family="sans-serif" font-size="13" lengthAdjust="spacing" textLength="13" x="430.9922" y="1155.1997">&#8212;</text><polygon fill="#181818" points="94.2651,1185.3984,84.2651,1189.3984,94.2651,1193.3984,90.2651,1189.3984" style="stroke:#181818;stroke-width:1.0;"/><line style="stroke:#181818;stroke-width:2.0;stroke-dasharray:2.0,2.0;" x1="88.2651" x2="390.9014" y1="1189.3984" y2="1189.3984"/><text fill="#000000" font-family="sans-serif" font-size="13" font-weight="bold" lengthAdjust="spacing" textLength="18.0908" x="100.2651" y="1184.3325">28</text><text fill="#000000" font-family="sans-serif" font-size="13" lengthAdjust="spacing" textLength="102.4575" x="122.356" y="1184.3325">204 No Content</text><!--SRC=[ZLRXKjD04FwVfzZ1FzGH4SHH6AtJDYcYg5X1_p33N9Ebt93UnRiBKXrdV0YVmGVpIToxND8af5F2q2QNRx_zzjkz0yDDYX1YYWRX10r4DoWC_Flz1yBeE3gDO3j3exT_qkS5JtvjetrFp-xRhWI1lkOYOuhDGUEt74MC0wNazzCh7byBr1fsQn0bSv74KWbKyA8Zz8GfmsEUCM66KYMeHZAL2XuySzUQ01PVprm27pGUs9-Ee4D2PGt-VNVLe48QR226xceZxgGSZyFeUH2msD3ZAELaKn1CvIrid2ZKzCGCbs837aJHU6yy302oPGMmONqkl2LMWse3c8Q9ksr3PmIDSwKiEDUepiNBbmbcA18gST7lkz11Rgv2p09Q1LBXfGooBELngOGqluXsslJ5KD1Ck95umqIIUZd-liKPoZdZZcw7wFRRT4Ha1GvcCuKpHjCsaT9uaJQ9CDmiMfH7ub8nRLGUcroXfHv6- -HkY_hpjvGxfHFCfEPa_AAajIihuQwmLaorjfIICCEcJ2D5VZgcI8SBXzJZt4YHpwTaHL1q6hRwlbbmSDyDT2viZwJYFrm_3c28J141BjvUJGzZ_k_tto3mf7NwBopbYJMof0Pg2onvWLZWneBWxEmer05B3N2nN85BgURCa3qbEz7xEWvWRtSNpaIcP4nRc4tfb2XRbEecxpA-NuuRnTEmo_G6eJsbcqPUe-XHbDNZ7afLj0OLmrQzLiMuHWr71UxK1aMtCMRMC1VLMS6J7Qg0UNFHqZljHSur6UkIoSsWaQLVRW7RvSOs6Sdvd5vj5Yrv16Kt7e4dwXLCPJnH-IabgaikaelfWb0-lkUm9O2muP1WdsckHgTWvyA-fhMj1WsTlK1dpwQGzbRxZDPjOhMd5ZMU3YotMbFIuJTnVf1cRD5DkrSPlWU4Xt55x_osMUiPgteQFX8gQ4lgBq-60l6OwmlvNQ2rQRFLefwFjeNQ9U3Q5Si4s13bNw-jU13RYGzHSBnJzQgwdrBDQieJEdazqbLUobWjeRyyS9e3K0vEhufP0bk3y136au_leVhBeS_5rpVH90BQeQ_WTKNW1wMUi7jKIXSTsvs1kOU5BiMgoRd_z5G-5aBQ8cg6D2R9eOCkjStY4xTpEvpkyjeVvlTpkjFhZ- -2TGxIlrrhJDfr9i582cEBh5ogZ2dlYc_xQN__0m00]--></g></svg>